<svg width="612" height="26" viewBox="0 0 612 26" fill="none" xmlns="http://www.w3.org/2000/svg">
<path opacity="0.2" d="M232 2.9043H230.154C227.944 2.9043 226.154 4.69516 226.154 6.9043V12.9924M232 23.0805H230.154C227.944 23.0805 226.154 21.2897 226.154 19.0805V12.9924M226.154 12.9924H0.258804" stroke="url(#paint0_linear_320_209612)"/>
<path d="M263.435 17.4922H258.913V8.11219H263.435C266.445 8.11219 268.349 9.86219 268.349 12.8022C268.349 15.7422 266.445 17.4922 263.435 17.4922ZM263.435 10.0022H261.013V15.6022H263.435C265.339 15.6022 266.109 15.0562 266.109 12.8022C266.109 10.5482 265.339 10.0022 263.435 10.0022ZM275.21 17.6322C272.102 17.6322 270.17 15.7282 270.17 12.8022C270.17 9.87619 272.102 7.97219 275.21 7.97219C278.388 7.97219 280.306 9.87619 280.306 12.8022C280.306 15.7282 278.388 17.6322 275.21 17.6322ZM275.21 15.6162C277.268 15.6162 278.066 14.8882 278.066 12.8022C278.066 10.7162 277.268 9.98819 275.21 9.98819C273.152 9.98819 272.396 10.7162 272.396 12.8022C272.396 14.8882 273.152 15.6162 275.21 15.6162ZM287.27 17.4922H284.148L281.936 8.11219H284.288L285.422 13.4322L285.744 15.4902H285.898L286.332 13.4322L287.9 8.11219H291.022L292.576 13.4322L293.01 15.4902H293.164L293.486 13.4322L294.62 8.11219H296.916L294.69 17.4922H291.568L290.168 12.8022L289.51 10.1002H289.356L288.698 12.8022L287.27 17.4922ZM300.861 17.4922H298.761V8.11219H301.001L304.361 12.5502L305.649 14.5242H305.803L305.705 12.6342V8.11219H307.805V17.4922H305.565L302.107 13.0122L300.917 11.2482H300.777L300.861 12.9702V17.4922ZM317.725 17.4922H310.039V8.11219H312.139V15.6022H317.725V17.4922ZM324.52 17.6322C321.412 17.6322 319.48 15.7282 319.48 12.8022C319.48 9.87619 321.412 7.97219 324.52 7.97219C327.698 7.97219 329.616 9.87619 329.616 12.8022C329.616 15.7282 327.698 17.6322 324.52 17.6322ZM324.52 15.6162C326.578 15.6162 327.376 14.8882 327.376 12.8022C327.376 10.7162 326.578 9.98819 324.52 9.98819C322.462 9.98819 321.706 10.7162 321.706 12.8022C321.706 14.8882 322.462 15.6162 324.52 15.6162ZM333.374 17.4922H331.022L335.124 8.11219H338.12L342.25 17.4922H339.842L338.96 15.4202H334.27L333.374 17.4922ZM335.964 11.4862L335.082 13.5302H338.148L337.266 11.4862L336.692 10.0302H336.538L335.964 11.4862ZM348.494 17.4922H343.972V8.11219H348.494C351.504 8.11219 353.408 9.86219 353.408 12.8022C353.408 15.7422 351.504 17.4922 348.494 17.4922ZM348.494 10.0022H346.072V15.6022H348.494C350.398 15.6022 351.168 15.0562 351.168 12.8022C351.168 10.5482 350.398 10.0022 348.494 10.0022Z" fill="#E7E8E8"/>
<path opacity="0.2" d="M380 2.9043H381.846C384.056 2.9043 385.846 4.69516 385.846 6.9043V12.9924M380 23.0805H381.846C384.056 23.0805 385.846 21.2897 385.846 19.0805V12.9924M385.846 12.9924H611.741" stroke="url(#paint1_linear_320_209612)"/>
<defs>
<linearGradient id="paint0_linear_320_209612" x1="240" y1="12.9924" x2="0.258808" y2="12.9925" gradientUnits="userSpaceOnUse">
<stop stop-color="white"/>
<stop offset="1" stop-color="white" stop-opacity="0"/>
</linearGradient>
<linearGradient id="paint1_linear_320_209612" x1="372" y1="12.9924" x2="611.741" y2="12.9925" gradientUnits="userSpaceOnUse">
<stop stop-color="white"/>
<stop offset="1" stop-color="white" stop-opacity="0"/>
</linearGradient>
</defs>
</svg>
