<svg width="390" height="26" viewBox="0 0 390 26" fill="none" xmlns="http://www.w3.org/2000/svg">
<path opacity="0.2" d="M126 3.08496H124.154C121.944 3.08496 120.154 4.87582 120.154 7.08496V13.1731M126 23.2612H124.154C121.944 23.2612 120.154 21.4703 120.154 19.2612V13.1731M120.154 13.1731H-105.741" stroke="url(#paint0_linear_515_39886)"/>
<path d="M156.419 17.6729H152.835V8.29285H156.419C159.429 8.29285 161.277 10.0429 161.277 12.9829C161.277 15.9229 159.429 17.6729 156.419 17.6729ZM156.391 10.1829H154.935V15.7829H156.391C158.295 15.7829 159.023 15.2089 159.023 12.9829C159.023 10.7569 158.295 10.1829 156.391 10.1829ZM167.741 17.8129C164.941 17.8129 163.233 15.9089 163.233 12.9829C163.233 10.0569 164.941 8.15285 167.741 8.15285C170.541 8.15285 172.235 10.0569 172.235 12.9829C172.235 15.9089 170.541 17.8129 167.741 17.8129ZM167.741 15.7829C169.351 15.7829 169.995 15.1809 169.995 12.9829C169.995 10.7849 169.351 10.1829 167.741 10.1829C166.131 10.1829 165.473 10.7849 165.473 12.9829C165.473 15.1809 166.131 15.7829 167.741 15.7829ZM178.298 17.6729H175.218L173.328 8.29285H175.764L176.478 12.5209L176.814 15.6149H176.968L177.542 12.5209L178.648 8.29285H181.63L182.736 12.4929L183.324 15.6149H183.478L183.814 12.4929L184.528 8.29285H186.908L185.018 17.6729H181.952L180.818 13.5149L180.188 10.5469H180.048L179.418 13.5149L178.298 17.6729ZM190.67 17.6729H188.57V8.29285H190.81L193.848 12.9969L194.632 14.2569H194.772L194.744 12.9969V8.29285H196.844V17.6729H194.604L191.692 13.2349L190.782 11.7929H190.642L190.67 13.2349V17.6729ZM206.259 17.6729H199.315V8.29285H201.415V15.7829H206.259V17.6729ZM211.883 17.8129C209.083 17.8129 207.375 15.9089 207.375 12.9829C207.375 10.0569 209.083 8.15285 211.883 8.15285C214.683 8.15285 216.377 10.0569 216.377 12.9829C216.377 15.9089 214.683 17.8129 211.883 17.8129ZM211.883 15.7829C213.493 15.7829 214.137 15.1809 214.137 12.9829C214.137 10.7849 213.493 10.1829 211.883 10.1829C210.273 10.1829 209.615 10.7849 209.615 12.9829C209.615 15.1809 210.273 15.7829 211.883 15.7829ZM219.652 17.6729H217.468L220.926 8.29285H223.978L227.436 17.6729H225.154L224.398 15.5869H220.422L219.652 17.6729ZM221.64 12.2549L221.108 13.7109H223.712L223.18 12.2549L222.494 10.1409H222.354L221.64 12.2549ZM232.577 17.6729H228.993V8.29285H232.577C235.587 8.29285 237.435 10.0429 237.435 12.9829C237.435 15.9229 235.587 17.6729 232.577 17.6729ZM232.549 10.1829H231.093V15.7829H232.549C234.453 15.7829 235.181 15.2089 235.181 12.9829C235.181 10.7569 234.453 10.1829 232.549 10.1829Z" fill="#E7E8E8"/>
<path opacity="0.2" d="M264 3.08496H265.846C268.056 3.08496 269.846 4.87582 269.846 7.08496V13.1731M264 23.2612H265.846C268.056 23.2612 269.846 21.4703 269.846 19.2612V13.1731M269.846 13.1731H495.741" stroke="url(#paint1_linear_515_39886)"/>
<defs>
<linearGradient id="paint0_linear_515_39886" x1="134" y1="13.1731" x2="-105.741" y2="13.1731" gradientUnits="userSpaceOnUse">
<stop stop-color="white"/>
<stop offset="1" stop-color="white" stop-opacity="0"/>
</linearGradient>
<linearGradient id="paint1_linear_515_39886" x1="256" y1="13.1731" x2="495.741" y2="13.1731" gradientUnits="userSpaceOnUse">
<stop stop-color="white"/>
<stop offset="1" stop-color="white" stop-opacity="0"/>
</linearGradient>
</defs>
</svg>
