<svg width="758" height="51" viewBox="0 0 758 51" fill="none" xmlns="http://www.w3.org/2000/svg">
<path opacity="0.2" d="M232.5 15.3047H230.654C228.444 15.3047 226.654 17.0955 226.654 19.3047V25.3928M232.5 35.4809H230.654C228.444 35.4809 226.654 33.6901 226.654 31.4809V25.3928M226.654 25.3928H0.758804" stroke="url(#paint0_linear_320_205838)"/>
<path d="M275.359 21.3926C275.141 20.7231 274.852 20.1232 274.494 19.5929C274.143 19.0559 273.722 18.5985 273.231 18.2207C272.748 17.8429 272.197 17.5545 271.581 17.3556C270.964 17.1568 270.288 17.0574 269.553 17.0574C268.346 17.0574 267.249 17.3689 266.261 17.992C265.274 18.6151 264.488 19.5332 263.905 20.7463C263.321 21.9593 263.03 23.4475 263.03 25.2108C263.03 26.974 263.325 28.4622 263.915 29.6752C264.505 30.8883 265.303 31.8064 266.311 32.4295C267.319 33.0526 268.452 33.3642 269.712 33.3642C270.878 33.3642 271.906 33.1156 272.794 32.6184C273.689 32.1146 274.385 31.4054 274.882 30.4906C275.386 29.5692 275.638 28.4854 275.638 27.2392L276.393 27.3983H270.268V25.2108H278.024V27.3983C278.024 29.0753 277.666 30.5337 276.95 31.7733C276.241 33.0128 275.26 33.974 274.007 34.6568C272.761 35.3329 271.329 35.671 269.712 35.671C267.909 35.671 266.324 35.2467 264.959 34.3983C263.6 33.5498 262.539 32.3433 261.777 30.7789C261.021 29.2145 260.643 27.3585 260.643 25.2108C260.643 23.6 260.859 22.1516 261.29 20.8656C261.727 19.573 262.344 18.4726 263.139 17.5645C263.935 16.6563 264.876 15.9603 265.963 15.4764C267.05 14.9925 268.247 14.7505 269.553 14.7505C270.626 14.7505 271.627 14.9129 272.555 15.2377C273.49 15.5559 274.322 16.01 275.051 16.6C275.787 17.1833 276.4 17.8826 276.891 18.698C277.381 19.5067 277.719 20.4049 277.905 21.3926H275.359ZM284.694 35.3926H282.109L289.586 15.0289H292.131L299.609 35.3926H297.023L290.938 18.2505H290.779L284.694 35.3926ZM285.648 27.438H296.069V29.6255H285.648V27.438ZM305.02 15.0289H307.964L314.884 31.9324H315.123L322.043 15.0289H324.986V35.3926H322.68V19.921H322.481L316.117 35.3926H313.89L307.526 19.921H307.327V35.3926H305.02V15.0289ZM332.171 35.3926V15.0289H344.46V17.2164H334.637V24.0971H343.824V26.2846H334.637V33.2051H344.619V35.3926H332.171ZM374.624 15.0289H377.09V28.5119C377.09 29.9039 376.761 31.1468 376.105 32.2406C375.456 33.3277 374.537 34.1861 373.351 34.8159C372.164 35.439 370.772 35.7505 369.175 35.7505C367.577 35.7505 366.185 35.439 364.999 34.8159C363.812 34.1861 362.891 33.3277 362.234 32.2406C361.585 31.1468 361.26 29.9039 361.26 28.5119V15.0289H363.726V28.313C363.726 29.3074 363.945 30.1923 364.382 30.9679C364.82 31.7368 365.443 32.3433 366.251 32.7875C367.067 33.225 368.041 33.4437 369.175 33.4437C370.308 33.4437 371.283 33.225 372.098 32.7875C372.913 32.3433 373.536 31.7368 373.967 30.9679C374.405 30.1923 374.624 29.3074 374.624 28.313V15.0289ZM384.254 35.3926V15.0289H391.135C392.732 15.0289 394.038 15.3173 395.052 15.894C396.073 16.4641 396.829 17.2363 397.319 18.2108C397.81 19.1852 398.055 20.2723 398.055 21.4721C398.055 22.6719 397.81 23.7624 397.319 24.7434C396.835 25.7245 396.086 26.5067 395.072 27.09C394.058 27.6667 392.759 27.9551 391.174 27.9551H386.243V25.7676H391.095C392.189 25.7676 393.067 25.5787 393.73 25.2008C394.393 24.823 394.873 24.3126 395.171 23.6696C395.476 23.0199 395.629 22.2875 395.629 21.4721C395.629 20.6568 395.476 19.9276 395.171 19.2846C394.873 18.6416 394.389 18.1378 393.72 17.7733C393.05 17.402 392.162 17.2164 391.055 17.2164H386.72V35.3926H384.254ZM410.551 35.3926H404.267V15.0289H410.83C412.805 15.0289 414.496 15.4366 415.901 16.252C417.306 17.0607 418.383 18.224 419.132 19.742C419.881 21.2534 420.256 23.063 420.256 25.171C420.256 27.2922 419.878 29.1184 419.122 30.6497C418.367 32.1743 417.266 33.3476 415.821 34.1696C414.376 34.9849 412.62 35.3926 410.551 35.3926ZM406.733 33.2051H410.392C412.076 33.2051 413.471 32.8803 414.578 32.2306C415.685 31.581 416.511 30.6563 417.054 29.4565C417.598 28.2567 417.87 26.8282 417.87 25.171C417.87 23.527 417.601 22.1118 417.064 20.9252C416.527 19.7321 415.725 18.8173 414.658 18.1809C413.591 17.5379 412.262 17.2164 410.671 17.2164H406.733V33.2051ZM426.511 35.3926H423.925L431.403 15.0289H433.948L441.425 35.3926H438.84L432.755 18.2505H432.596L426.511 35.3926ZM427.465 27.438H437.886V29.6255H427.465V27.438ZM443.345 17.2164V15.0289H458.617V17.2164H452.214V35.3926H449.748V17.2164H443.345ZM464.663 35.3926V15.0289H476.953V17.2164H467.129V24.0971H476.316V26.2846H467.129V33.2051H477.112V35.3926H464.663ZM494.774 20.1199C494.655 19.1123 494.171 18.3301 493.322 17.7733C492.474 17.2164 491.433 16.938 490.2 16.938C489.298 16.938 488.51 17.0839 487.834 17.3755C487.164 17.6672 486.64 18.0682 486.262 18.5787C485.891 19.0891 485.706 19.6691 485.706 20.3187C485.706 20.8623 485.835 21.3296 486.093 21.7207C486.359 22.1052 486.697 22.4267 487.108 22.6852C487.519 22.9371 487.95 23.1459 488.4 23.3116C488.851 23.4707 489.265 23.6 489.643 23.6994L491.711 24.2562C492.242 24.3954 492.832 24.5877 493.481 24.8329C494.137 25.0782 494.764 25.4129 495.36 25.8372C495.964 26.2548 496.461 26.7917 496.852 27.448C497.243 28.1042 497.439 28.9096 497.439 29.8642C497.439 30.9645 497.15 31.9589 496.574 32.8471C496.003 33.7354 495.168 34.4413 494.068 34.965C492.974 35.4887 491.645 35.7505 490.081 35.7505C488.622 35.7505 487.36 35.5152 486.292 35.0446C485.232 34.5739 484.396 33.9177 483.787 33.0758C483.183 32.234 482.842 31.2562 482.762 30.1426H485.308C485.374 30.9115 485.633 31.5479 486.084 32.0517C486.541 32.5488 487.118 32.92 487.814 33.1653C488.516 33.4039 489.272 33.5233 490.081 33.5233C491.022 33.5233 491.867 33.3708 492.616 33.0659C493.365 32.7543 493.959 32.3234 494.396 31.7733C494.834 31.2164 495.052 30.5668 495.052 29.8244C495.052 29.1483 494.863 28.5981 494.485 28.1738C494.108 27.7496 493.61 27.4049 492.994 27.1397C492.378 26.8746 491.711 26.6426 490.995 26.4437L488.49 25.7278C486.899 25.2704 485.639 24.6175 484.711 23.769C483.783 22.9205 483.319 21.8102 483.319 20.438C483.319 19.2979 483.628 18.3036 484.244 17.4551C484.867 16.6 485.702 15.9371 486.75 15.4664C487.804 14.9892 488.98 14.7505 490.28 14.7505C491.592 14.7505 492.759 14.9859 493.78 15.4565C494.8 15.9205 495.609 16.5569 496.206 17.3656C496.809 18.1743 497.127 19.0924 497.16 20.1199H494.774Z" fill="#E8A503"/>
<path opacity="0.2" d="M525.5 15.3047H527.346C529.556 15.3047 531.346 17.0955 531.346 19.3047V25.3928M525.5 35.4809H527.346C529.556 35.4809 531.346 33.6901 531.346 31.4809V25.3928M531.346 25.3928H757.241" stroke="url(#paint1_linear_320_205838)"/>
<defs>
<linearGradient id="paint0_linear_320_205838" x1="240.5" y1="25.3928" x2="0.758808" y2="25.3928" gradientUnits="userSpaceOnUse">
<stop stop-color="white"/>
<stop offset="1" stop-color="white" stop-opacity="0"/>
</linearGradient>
<linearGradient id="paint1_linear_320_205838" x1="517.5" y1="25.3928" x2="757.241" y2="25.3928" gradientUnits="userSpaceOnUse">
<stop stop-color="white"/>
<stop offset="1" stop-color="white" stop-opacity="0"/>
</linearGradient>
</defs>
</svg>
