<svg width="390" height="25" viewBox="0 0 390 25" fill="none" xmlns="http://www.w3.org/2000/svg">
<path opacity="0.2" d="M111 2.41211H109.154C106.944 2.41211 105.154 4.20297 105.154 6.41211V12.5002M111 22.5883H109.154C106.944 22.5883 105.154 20.7975 105.154 18.5883V12.5002M105.154 12.5002H-120.741" stroke="url(#paint0_linear_515_36128)"/>
<path d="M141.991 17.14C139.303 17.14 137.833 15.306 137.833 12.31C137.833 9.384 139.541 7.48 142.397 7.48C145.183 7.48 146.681 8.852 146.681 11.078V11.148H144.455V11.092C144.455 9.916 143.881 9.51 142.355 9.51C140.745 9.51 140.073 10.098 140.073 12.31C140.073 14.564 140.787 15.138 142.551 15.138C144.035 15.138 144.693 14.886 144.693 13.766H142.131V12.016H146.709V17H144.763V15.572H144.679C144.399 16.286 143.657 17.14 141.991 17.14ZM150.22 17H148.036L151.494 7.62H154.546L158.004 17H155.722L154.966 14.914H150.99L150.22 17ZM152.208 11.582L151.676 13.038H154.28L153.748 11.582L153.062 9.468H152.922L152.208 11.582ZM161.661 17H159.561V7.62H162.515L164.153 12.002L164.909 14.41H165.049L165.791 12.002L167.359 7.62H170.313V17H168.213V12.562L168.325 10.756H168.171L167.625 12.59L166.211 16.356H163.663L162.249 12.59L161.689 10.756H161.549L161.661 12.562V17ZM179.949 17H172.795V7.62H179.949V9.51H174.895V11.344H179.739V13.22H174.895V15.11H179.949V17ZM190.114 17.14C187.384 17.14 185.998 15.684 185.998 13.346V7.62H188.084V13.318C188.084 14.662 188.56 15.11 190.114 15.11C191.654 15.11 192.13 14.662 192.13 13.318V7.62H194.23V13.346C194.23 15.684 192.844 17.14 190.114 17.14ZM198.749 17H196.649V7.62H200.961C202.977 7.62 204.419 8.838 204.419 10.924C204.419 13.024 202.977 14.214 200.961 14.214H198.749V17ZM201.045 9.51H198.749V12.338H201.045C202.011 12.338 202.333 12.044 202.333 10.924C202.333 9.79 202.011 9.51 201.045 9.51ZM209.966 17H206.382V7.62H209.966C212.976 7.62 214.824 9.37 214.824 12.31C214.824 15.25 212.976 17 209.966 17ZM209.938 9.51H208.482V15.11H209.938C211.842 15.11 212.57 14.536 212.57 12.31C212.57 10.084 211.842 9.51 209.938 9.51ZM218.038 17H215.854L219.312 7.62H222.364L225.822 17H223.54L222.784 14.914H218.808L218.038 17ZM220.026 11.582L219.494 13.038H222.098L221.566 11.582L220.88 9.468H220.74L220.026 11.582ZM230.643 17H228.543V9.51H225.519V7.62H233.667V9.51H230.643V17ZM242.421 17H235.267V7.62H242.421V9.51H237.367V11.344H242.211V13.22H237.367V15.11H242.421V17ZM248.581 17.14C245.823 17.14 244.549 16.02 244.549 13.948V13.766H246.607V13.906C246.607 14.942 246.985 15.236 248.679 15.236C249.869 15.236 250.163 14.998 250.163 14.368C250.163 13.738 250.023 13.514 248.707 13.29L247.055 12.996C245.263 12.688 244.507 11.778 244.507 10.322C244.507 8.894 245.557 7.48 248.245 7.48C250.919 7.48 252.039 8.866 252.039 10.728V10.84H249.967V10.686C249.967 9.706 249.561 9.384 248.175 9.384C246.971 9.384 246.593 9.65 246.593 10.238C246.593 10.84 246.845 10.98 247.937 11.19L249.603 11.512C251.577 11.89 252.249 12.926 252.249 14.298C252.249 15.796 251.241 17.14 248.581 17.14Z" fill="#E7E8E8"/>
<path opacity="0.2" d="M279 2.41211H280.846C283.056 2.41211 284.846 4.20297 284.846 6.41211V12.5002M279 22.5883H280.846C283.056 22.5883 284.846 20.7975 284.846 18.5883V12.5002M284.846 12.5002H510.741" stroke="url(#paint1_linear_515_36128)"/>
<defs>
<linearGradient id="paint0_linear_515_36128" x1="119" y1="12.5002" x2="-120.741" y2="12.5003" gradientUnits="userSpaceOnUse">
<stop stop-color="white"/>
<stop offset="1" stop-color="white" stop-opacity="0"/>
</linearGradient>
<linearGradient id="paint1_linear_515_36128" x1="271" y1="12.5002" x2="510.741" y2="12.5003" gradientUnits="userSpaceOnUse">
<stop stop-color="white"/>
<stop offset="1" stop-color="white" stop-opacity="0"/>
</linearGradient>
</defs>
</svg>
