<svg width="390" height="25" viewBox="0 0 390 25" fill="none" xmlns="http://www.w3.org/2000/svg">
<path opacity="0.2" d="M117.5 2.41211H115.654C113.444 2.41211 111.654 4.20297 111.654 6.41211V12.5002M117.5 22.5883H115.654C113.444 22.5883 111.654 20.7975 111.654 18.5883V12.5002M111.654 12.5002H-114.241" stroke="url(#paint0_linear_515_36908)"/>
<path d="M146.549 17H144.449V7.62H146.549V17ZM153.872 17H149.028V7.62H153.648C155.65 7.62 156.728 8.334 156.728 9.958C156.728 11.078 156.098 11.806 154.852 11.96V12.1C156.364 12.212 157.106 13.164 157.106 14.424C157.106 16.006 156.014 17 153.872 17ZM151.128 9.51V11.33H153.508C154.292 11.33 154.628 11.162 154.628 10.42C154.628 9.664 154.278 9.51 153.508 9.51H151.128ZM151.128 13.038V15.11H153.802C154.572 15.11 154.992 14.97 154.992 14.088C154.992 13.178 154.586 13.038 153.802 13.038H151.128ZM166.238 17H159.294V7.62H161.394V15.11H166.238V17ZM171.862 17.14C169.062 17.14 167.354 15.236 167.354 12.31C167.354 9.384 169.062 7.48 171.862 7.48C174.662 7.48 176.356 9.384 176.356 12.31C176.356 15.236 174.662 17.14 171.862 17.14ZM171.862 15.11C173.472 15.11 174.116 14.508 174.116 12.31C174.116 10.112 173.472 9.51 171.862 9.51C170.252 9.51 169.594 10.112 169.594 12.31C169.594 14.508 170.252 15.11 171.862 15.11ZM179.986 17H177.536L180.434 12.366V12.226L177.536 7.62H180.014L182.1 10.952H182.24L184.27 7.62H186.72L183.836 12.212V12.352L186.72 17H184.242L182.156 13.654H182.016L179.986 17ZM190.84 17H188.39L191.288 12.366V12.226L188.39 7.62H190.868L192.954 10.952H193.094L195.124 7.62H197.574L194.69 12.212V12.352L197.574 17H195.096L193.01 13.654H192.87L190.84 17ZM205.562 17H203.462V7.62H205.702L208.74 12.324L209.524 13.584H209.664L209.636 12.324V7.62H211.736V17H209.496L206.584 12.562L205.674 11.12H205.534L205.562 12.562V17ZM221.361 17H214.207V7.62H221.361V9.51H216.307V11.344H221.151V13.22H216.307V15.11H221.361V17ZM227.955 17H224.875L222.985 7.62H225.421L226.135 11.848L226.471 14.942H226.625L227.199 11.848L228.305 7.62H231.287L232.393 11.82L232.981 14.942H233.135L233.471 11.82L234.185 7.62H236.565L234.675 17H231.609L230.475 12.842L229.845 9.874H229.705L229.075 12.842L227.955 17ZM242.231 17.14C239.473 17.14 238.199 16.02 238.199 13.948V13.766H240.257V13.906C240.257 14.942 240.635 15.236 242.329 15.236C243.519 15.236 243.813 14.998 243.813 14.368C243.813 13.738 243.673 13.514 242.357 13.29L240.705 12.996C238.913 12.688 238.157 11.778 238.157 10.322C238.157 8.894 239.207 7.48 241.895 7.48C244.569 7.48 245.689 8.866 245.689 10.728V10.84H243.617V10.686C243.617 9.706 243.211 9.384 241.825 9.384C240.621 9.384 240.243 9.65 240.243 10.238C240.243 10.84 240.495 10.98 241.587 11.19L243.253 11.512C245.227 11.89 245.899 12.926 245.899 14.298C245.899 15.796 244.891 17.14 242.231 17.14Z" fill="#E7E8E8"/>
<path opacity="0.2" d="M272.5 2.41211H274.346C276.556 2.41211 278.346 4.20297 278.346 6.41211V12.5002M272.5 22.5883H274.346C276.556 22.5883 278.346 20.7975 278.346 18.5883V12.5002M278.346 12.5002H504.241" stroke="url(#paint1_linear_515_36908)"/>
<defs>
<linearGradient id="paint0_linear_515_36908" x1="125.5" y1="12.5002" x2="-114.241" y2="12.5003" gradientUnits="userSpaceOnUse">
<stop stop-color="white"/>
<stop offset="1" stop-color="white" stop-opacity="0"/>
</linearGradient>
<linearGradient id="paint1_linear_515_36908" x1="264.5" y1="12.5002" x2="504.241" y2="12.5003" gradientUnits="userSpaceOnUse">
<stop stop-color="white"/>
<stop offset="1" stop-color="white" stop-opacity="0"/>
</linearGradient>
</defs>
</svg>
