<svg width="728" height="50" viewBox="0 0 728 50" fill="none" xmlns="http://www.w3.org/2000/svg">
<path opacity="0.2" d="M232.5 14.9121H230.654C228.444 14.9121 226.654 16.703 226.654 18.9121V25.0002M232.5 35.0883H230.654C228.444 35.0883 226.654 33.2975 226.654 31.0883V25.0002M226.654 25.0002H0.758804" stroke="url(#paint0_linear_320_206626)"/>
<path d="M263.915 14.6364V35H261.45V14.6364H263.915ZM271.1 35V14.6364H278.219C279.638 14.6364 280.808 14.8816 281.729 15.3722C282.65 15.8561 283.336 16.509 283.787 17.331C284.238 18.1463 284.463 19.0511 284.463 20.0455C284.463 20.9205 284.308 21.643 283.996 22.2131C283.691 22.7831 283.287 23.2339 282.783 23.5653C282.286 23.8968 281.745 24.142 281.162 24.3011V24.5C281.785 24.5398 282.412 24.7585 283.041 25.1562C283.671 25.554 284.198 26.1241 284.622 26.8665C285.047 27.6089 285.259 28.517 285.259 29.5909C285.259 30.6117 285.027 31.5298 284.563 32.3452C284.099 33.1605 283.366 33.8068 282.365 34.2841C281.364 34.7614 280.062 35 278.458 35H271.1ZM273.566 32.8125H278.458C280.068 32.8125 281.212 32.5009 281.888 31.8778C282.571 31.2481 282.912 30.4858 282.912 29.5909C282.912 28.9015 282.736 28.2652 282.385 27.6818C282.034 27.0919 281.533 26.6212 280.884 26.2699C280.234 25.9119 279.465 25.733 278.577 25.733H273.566V32.8125ZM273.566 23.5852H278.139C278.882 23.5852 279.551 23.4394 280.148 23.1477C280.751 22.8561 281.228 22.4451 281.58 21.9148C281.938 21.3845 282.117 20.7614 282.117 20.0455C282.117 19.1506 281.805 18.3916 281.182 17.7685C280.559 17.1387 279.571 16.8239 278.219 16.8239H273.566V23.5852ZM291.551 35V14.6364H294.017V32.8125H303.482V35H291.551ZM325.929 24.8182C325.929 26.9659 325.542 28.822 324.766 30.3864C323.991 31.9508 322.927 33.1572 321.574 34.0057C320.222 34.8542 318.678 35.2784 316.941 35.2784C315.204 35.2784 313.66 34.8542 312.307 34.0057C310.955 33.1572 309.891 31.9508 309.116 30.3864C308.34 28.822 307.952 26.9659 307.952 24.8182C307.952 22.6705 308.34 20.8144 309.116 19.25C309.891 17.6856 310.955 16.4792 312.307 15.6307C313.66 14.7822 315.204 14.358 316.941 14.358C318.678 14.358 320.222 14.7822 321.574 15.6307C322.927 16.4792 323.991 17.6856 324.766 19.25C325.542 20.8144 325.929 22.6705 325.929 24.8182ZM323.543 24.8182C323.543 23.0549 323.248 21.5668 322.658 20.3537C322.075 19.1406 321.283 18.2225 320.282 17.5994C319.287 16.9763 318.174 16.6648 316.941 16.6648C315.708 16.6648 314.591 16.9763 313.59 17.5994C312.596 18.2225 311.804 19.1406 311.214 20.3537C310.63 21.5668 310.339 23.0549 310.339 24.8182C310.339 26.5814 310.63 28.0696 311.214 29.2827C311.804 30.4957 312.596 31.4138 313.59 32.0369C314.591 32.66 315.708 32.9716 316.941 32.9716C318.174 32.9716 319.287 32.66 320.282 32.0369C321.283 31.4138 322.075 30.4957 322.658 29.2827C323.248 28.0696 323.543 26.5814 323.543 24.8182ZM333.181 14.6364L338.431 23.108H338.59L343.84 14.6364H346.743L340.34 24.8182L346.743 35H343.84L338.59 26.6875H338.431L333.181 35H330.277L336.84 24.8182L330.277 14.6364H333.181ZM353.386 14.6364L358.636 23.108H358.795L364.045 14.6364H366.948L360.545 24.8182L366.948 35H364.045L358.795 26.6875H358.636L353.386 35H350.482L357.045 24.8182L350.482 14.6364H353.386ZM398.66 14.6364V35H396.274L385.177 19.0114H384.978V35H382.512V14.6364H384.899L396.035 30.6648H396.234V14.6364H398.66ZM405.834 35V14.6364H418.124V16.8239H408.3V23.7045H417.488V25.892H408.3V32.8125H418.283V35H405.834ZM428.508 35L422.939 14.6364H425.445L429.701 31.2216H429.9L434.235 14.6364H437.019L441.354 31.2216H441.553L445.809 14.6364H448.314L442.746 35H440.201L435.706 18.7727H435.547L431.053 35H428.508ZM464.763 19.7273C464.644 18.7197 464.16 17.9375 463.312 17.3807C462.463 16.8239 461.422 16.5455 460.189 16.5455C459.288 16.5455 458.499 16.6913 457.823 16.983C457.153 17.2746 456.63 17.6757 456.252 18.1861C455.881 18.6965 455.695 19.2765 455.695 19.9261C455.695 20.4697 455.824 20.937 456.083 21.3281C456.348 21.7126 456.686 22.0341 457.097 22.2926C457.508 22.5445 457.939 22.7533 458.39 22.919C458.84 23.0781 459.255 23.2074 459.633 23.3068L461.701 23.8636C462.231 24.0028 462.821 24.1951 463.471 24.4403C464.127 24.6856 464.753 25.0204 465.35 25.4446C465.953 25.8622 466.45 26.3991 466.841 27.0554C467.232 27.7116 467.428 28.517 467.428 29.4716C467.428 30.572 467.14 31.5663 466.563 32.4545C465.993 33.3428 465.158 34.0488 464.057 34.5724C462.963 35.0961 461.634 35.358 460.07 35.358C458.612 35.358 457.349 35.1226 456.282 34.652C455.221 34.1813 454.386 33.5251 453.776 32.6832C453.173 31.8414 452.831 30.8636 452.752 29.75H455.297C455.364 30.5189 455.622 31.1553 456.073 31.6591C456.53 32.1562 457.107 32.5275 457.803 32.7727C458.506 33.0114 459.261 33.1307 460.07 33.1307C461.011 33.1307 461.856 32.9782 462.606 32.6733C463.355 32.3617 463.948 31.9309 464.385 31.3807C464.823 30.8239 465.042 30.1742 465.042 29.4318C465.042 28.7557 464.853 28.2055 464.475 27.7812C464.097 27.357 463.6 27.0123 462.983 26.7472C462.367 26.482 461.701 26.25 460.985 26.0511L458.479 25.3352C456.888 24.8778 455.629 24.2249 454.701 23.3764C453.773 22.5279 453.309 21.4176 453.309 20.0455C453.309 18.9053 453.617 17.911 454.233 17.0625C454.856 16.2074 455.692 15.5445 456.739 15.0739C457.793 14.5966 458.97 14.358 460.269 14.358C461.581 14.358 462.748 14.5933 463.769 15.0639C464.79 15.5279 465.598 16.1643 466.195 16.973C466.798 17.7817 467.116 18.6998 467.15 19.7273H464.763Z" fill="#E8A503"/>
<path opacity="0.2" d="M495.5 14.9121H497.346C499.556 14.9121 501.346 16.703 501.346 18.9121V25.0002M495.5 35.0883H497.346C499.556 35.0883 501.346 33.2975 501.346 31.0883V25.0002M501.346 25.0002H727.241" stroke="url(#paint1_linear_320_206626)"/>
<defs>
<linearGradient id="paint0_linear_320_206626" x1="240.5" y1="25.0002" x2="0.758808" y2="25.0003" gradientUnits="userSpaceOnUse">
<stop stop-color="white"/>
<stop offset="1" stop-color="white" stop-opacity="0"/>
</linearGradient>
<linearGradient id="paint1_linear_320_206626" x1="487.5" y1="25.0002" x2="727.241" y2="25.0003" gradientUnits="userSpaceOnUse">
<stop stop-color="white"/>
<stop offset="1" stop-color="white" stop-opacity="0"/>
</linearGradient>
</defs>
</svg>
