<svg width="338" height="25" viewBox="0 0 338 25" fill="none" xmlns="http://www.w3.org/2000/svg">
<g clip-path="url(#clip0_320_205852)">
<path fill-rule="evenodd" clip-rule="evenodd" d="M157.89 24.3084H160.595C161.856 23.9571 161.441 23.6277 159.898 23.3203C155.716 23.6936 162.039 23.8693 157.89 24.3084Z" fill="#151619"/>
<path fill-rule="evenodd" clip-rule="evenodd" d="M243.218 22.5738C241.493 22.6178 237.776 22.4641 238.672 22.7276C239.966 22.8593 243.384 22.8154 243.218 22.5738Z" fill="#151619"/>
<path fill-rule="evenodd" clip-rule="evenodd" d="M65.8741 22.1787H68.5624C68.3301 21.8932 67.3012 21.7835 68.7615 21.52C65.509 21.6517 65.5256 21.8493 64.2976 21.4321C60.7299 21.7176 67.0026 21.8274 65.8741 22.1787Z" fill="#151619"/>
<path fill-rule="evenodd" clip-rule="evenodd" d="M261.34 21.9374H264.044C263.779 21.6519 265.289 21.2127 261.356 21.2786C260.045 21.3884 260.012 21.8276 261.323 21.9374H261.34Z" fill="#151619"/>
<path fill-rule="evenodd" clip-rule="evenodd" d="M56.3987 20.905C58.2573 20.949 58.7883 20.8611 59.9997 20.8392C59.8337 20.6855 58.5228 20.6415 56.4817 20.6635L56.3987 20.905Z" fill="#151619"/>
<path fill-rule="evenodd" clip-rule="evenodd" d="M63.5674 20.927C65.0111 20.9489 65.1439 20.8611 66.2723 20.8391C67.0025 20.6196 64.5465 20.6635 64.5797 20.5098C61.7587 20.5537 63.3517 20.7293 63.5674 20.927Z" fill="#151619"/>
<path fill-rule="evenodd" clip-rule="evenodd" d="M79.0666 20.0708L79.133 19.8292C76.7102 19.7633 77.291 19.9829 75.4988 19.9829C76.2123 20.2245 76.8263 20.0708 79.0666 20.0708Z" fill="#151619"/>
<path fill-rule="evenodd" clip-rule="evenodd" d="M1.28865 19.8512C4.74029 20.0049 1.72009 19.4999 4.0765 19.5219C2.8817 19.2803 -1.16732 19.6975 1.28865 19.8512Z" fill="#151619"/>
<path fill-rule="evenodd" clip-rule="evenodd" d="M214.577 20.1584C216.518 20.1584 215.008 19.873 215.523 19.7412C214.792 19.7851 214.046 19.829 212.818 19.829L212.768 20.0706C213.813 20.0706 214.361 20.0706 214.56 20.1584H214.577Z" fill="#151619"/>
<path fill-rule="evenodd" clip-rule="evenodd" d="M96.2253 19.6096C95.5449 19.5438 95.3126 19.412 95.4122 19.2803H92.7239C92.7737 19.4779 93.9352 19.5877 96.2253 19.6096Z" fill="#151619"/>
<path fill-rule="evenodd" clip-rule="evenodd" d="M39.8541 19.3902C43.2891 19.3243 40.6008 19.0608 37.2487 19.1267C35.7552 19.4121 40.2689 19.1926 39.8541 19.3902Z" fill="#151619"/>
<path fill-rule="evenodd" clip-rule="evenodd" d="M183.114 19.7193C185.52 19.6974 187.412 19.2801 183.197 19.3021C181.471 19.4558 183.694 19.4558 183.114 19.7193Z" fill="#151619"/>
<path fill-rule="evenodd" clip-rule="evenodd" d="M311.886 19.8074H314.575C314.492 19.6976 314.409 19.5659 315.471 19.5659C315.189 19.4561 313.214 19.5 311.87 19.478V19.8074H311.886Z" fill="#151619"/>
<path fill-rule="evenodd" clip-rule="evenodd" d="M134.774 19.4558C136.218 19.4778 136.334 19.39 137.462 19.39C137.944 19.1265 135.62 19.1265 133.048 19.1265C133.015 19.2802 135.471 19.2363 134.757 19.4558H134.774Z" fill="#151619"/>
<path fill-rule="evenodd" clip-rule="evenodd" d="M141.113 19.1486C143.619 19.2145 143.453 19.0388 145.61 19.0827C143.32 18.951 141.86 18.7753 139.437 18.6655C138.956 18.929 140.632 18.9949 141.113 19.1706V19.1486Z" fill="#151619"/>
<path fill-rule="evenodd" clip-rule="evenodd" d="M334.388 19.324C336.695 19.324 337.89 19.1923 337.973 18.9946H333.459C333.359 19.1483 334.587 19.1703 334.388 19.324Z" fill="#151619"/>
<path fill-rule="evenodd" clip-rule="evenodd" d="M136.699 18.885C136.848 18.7313 135.637 18.7094 135.886 18.5557C133.281 18.5776 131.771 18.7094 131.323 18.9509C132.667 19.0827 134.807 18.9509 136.716 18.885H136.699Z" fill="#151619"/>
<path fill-rule="evenodd" clip-rule="evenodd" d="M71.483 18.4678C73.4412 18.4678 74.3538 18.4019 74.2376 18.2263C71.4332 18.2482 71.4166 18.0506 71.6821 17.8091C69.9065 17.8091 70.4874 18.0287 68.0646 17.9628C69.7572 18.0726 70.6201 18.2702 71.483 18.4678Z" fill="#151619"/>
<path fill-rule="evenodd" clip-rule="evenodd" d="M205.798 18.5773C207.491 18.4895 210.146 18.4895 209.465 18.1601C207.225 18.0503 206.644 18.204 205.881 18.0723C203.326 18.1601 206.064 18.4236 205.798 18.5773Z" fill="#151619"/>
<path fill-rule="evenodd" clip-rule="evenodd" d="M186.051 18.4019C190.282 18.3141 191.66 17.9847 196.904 18.0067C196.041 17.6114 195.875 17.5456 195.228 17.2601C190.448 17.7212 184.657 17.304 180.94 16.9966C182.5 16.8868 181.039 16.4916 183.728 16.4916C184.408 16.272 179.496 16.5575 180.176 16.3159C178.401 16.3818 176.907 16.6014 178.301 16.7331C170.651 16.9966 162.254 17.1503 158.405 17.7651C162.57 17.7651 163.217 17.9847 168.212 17.8749C169.008 17.5895 166.602 17.5236 168.311 17.3699C171.282 17.4138 171.149 17.7212 174.485 17.7212C171.481 17.3479 177.77 17.2821 178.218 16.9747C179.264 17.4797 186.964 17.3919 189.735 17.7212C185.321 17.9188 190.448 18.1165 186.018 18.38L186.051 18.4019Z" fill="#151619"/>
<path fill-rule="evenodd" clip-rule="evenodd" d="M8.22517 17.8092C10.8471 17.6994 8.12562 17.392 7.51163 17.3042C4.42507 17.4579 8.92214 17.5897 8.22517 17.8092Z" fill="#151619"/>
<path fill-rule="evenodd" clip-rule="evenodd" d="M85.9201 18.0069C86.9821 17.9191 87.0153 17.7215 86.9656 17.5239C83.4475 17.4141 85.0572 17.7874 81.5558 17.6776C81.3566 17.9411 83.7628 17.963 85.9201 18.0289V18.0069Z" fill="#151619"/>
<path fill-rule="evenodd" clip-rule="evenodd" d="M59.17 17.7874C59.0704 17.5458 57.7097 17.436 54.8057 17.436C54.9052 17.6776 56.2494 17.7874 59.17 17.7874Z" fill="#151619"/>
<path fill-rule="evenodd" clip-rule="evenodd" d="M183.445 17.9845C187.412 17.9845 184.325 17.5454 183.528 17.4795C179.728 17.5893 183.495 17.743 183.445 17.9845Z" fill="#151619"/>
<path fill-rule="evenodd" clip-rule="evenodd" d="M314.508 17.9191H317.196C315.736 17.7434 315.869 17.436 312.699 17.4141C311.554 17.7434 315.653 17.5897 314.508 17.9191Z" fill="#151619"/>
<path fill-rule="evenodd" clip-rule="evenodd" d="M36.0373 17.392C37.2155 17.37 37.481 17.2602 38.7753 17.2383C37.5141 17.2383 35.2573 16.7772 38.9081 16.8211C37.8958 16.5576 35.8049 16.9089 33.5481 16.8211C33.6974 17.0846 35.3735 17.1944 36.0373 17.4139V17.392Z" fill="#151619"/>
<path fill-rule="evenodd" clip-rule="evenodd" d="M89.6871 17.3699C90.8985 17.3699 90.5002 17.1723 90.6827 17.0405H87.9944C86.8992 17.304 89.3386 17.2381 89.6871 17.3699Z" fill="#151619"/>
<path fill-rule="evenodd" clip-rule="evenodd" d="M189.851 17.3262C194.414 17.1505 191.51 16.6894 188.192 16.5796C185.105 16.8431 192.174 16.865 189.851 17.3262Z" fill="#151619"/>
<path fill-rule="evenodd" clip-rule="evenodd" d="M309.978 16.7552C309.364 16.6015 304.651 16.7991 305.497 16.5137C302.096 16.6893 303.821 16.9967 302.826 17.2602C306.493 17.5896 312.334 17.2602 309.961 16.7772L309.978 16.7552Z" fill="#151619"/>
<path fill-rule="evenodd" clip-rule="evenodd" d="M233.892 16.2941C236.116 16.2941 236.68 16.1623 238.373 16.1404C238.373 15.9208 234.175 15.9427 233.013 16.0525C233.478 16.1184 233.942 16.1843 233.892 16.2941Z" fill="#151619"/>
<path fill-rule="evenodd" clip-rule="evenodd" d="M306.36 15.9429C309.613 16.0307 306.775 15.5476 310.824 15.7013C310.874 15.3061 307.306 15.5257 304.568 15.5257C303.805 15.7892 305.978 15.7892 306.36 15.9429Z" fill="#151619"/>
<path fill-rule="evenodd" clip-rule="evenodd" d="M66.123 15.4816C68.9274 15.4816 69.2427 15.284 69.8235 15.0864C66.5379 15.0425 64.2312 15.306 66.123 15.4816Z" fill="#151619"/>
<path fill-rule="evenodd" clip-rule="evenodd" d="M68.1641 14.6693C70.8192 14.6693 73.5904 14.6693 73.5738 14.4277C72.2131 14.5595 68.496 14.274 68.1641 14.6693Z" fill="#151619"/>
<path fill-rule="evenodd" clip-rule="evenodd" d="M51.6195 13.3955C53.1296 13.3955 53.9426 13.3516 54.3409 13.2418C55.6187 13.0222 49.6945 13.0222 52.6649 12.9124C52.2666 12.7807 47.0062 12.8685 48.1346 13.154C50.7234 13.0661 52.416 13.0222 51.6195 13.4175V13.3955Z" fill="#151619"/>
<path fill-rule="evenodd" clip-rule="evenodd" d="M73.0097 13.3514C73.4909 13.0879 71.1843 13.0879 68.6454 13.0879C68.5126 13.3294 71.1345 13.527 73.0097 13.3514Z" fill="#151619"/>
<path fill-rule="evenodd" clip-rule="evenodd" d="M28.852 12.2537C31.3246 12.4952 25.782 12.7587 28.5699 13.0881C29.3 13.0442 30.0468 13.0003 31.2582 13.0003L31.3743 12.6709C33.1499 12.6709 32.4364 12.8905 34.8758 12.8465C35.7387 12.6928 36.6182 12.5611 39.406 12.605C39.406 12.5172 38.3274 12.5391 37.647 12.5172C36.6182 12.5172 36.9501 12.3635 36.8339 12.2756C32.7351 12.3854 30.9263 12.078 26.2798 11.9243C24.5872 12.2537 28.5865 12.8246 28.8354 12.2537H28.852Z" fill="#151619"/>
<path fill-rule="evenodd" clip-rule="evenodd" d="M17.9494 12.8903C18.1154 12.7366 16.9206 12.7147 17.1695 12.561C14.3318 12.4512 16.4061 12.8245 13.5685 12.7147C14.2654 12.8464 16.3896 12.8464 17.9494 12.8903Z" fill="#151619"/>
<path fill-rule="evenodd" clip-rule="evenodd" d="M70.5039 12.8463C71.0681 12.5609 67.4173 12.6268 67.9815 12.3413C65.4592 12.3413 64.2312 12.4731 61.7089 12.495C62.522 12.9561 67.2846 12.9342 70.5039 12.8463Z" fill="#151619"/>
<path fill-rule="evenodd" clip-rule="evenodd" d="M4.72376 12.5173C4.75695 12.693 8.4741 12.5612 10.0174 12.6051C10.3161 12.3197 5.52029 12.2319 3.89404 12.3416C4.37528 12.4295 6.31683 12.4734 4.72376 12.5173Z" fill="#151619"/>
<path fill-rule="evenodd" clip-rule="evenodd" d="M21.65 12.4734C21.6666 12.693 24.9025 12.6711 26.0807 12.5613C26.0475 12.3417 22.8282 12.3636 21.65 12.4734Z" fill="#151619"/>
<path fill-rule="evenodd" clip-rule="evenodd" d="M51.9182 12.4735C53.3453 12.4955 53.478 12.4076 54.6065 12.3857C54.7558 12.232 53.5776 12.21 53.8265 12.0563C51.188 12.0343 50.5906 12.3417 51.9182 12.4735Z" fill="#151619"/>
<path fill-rule="evenodd" clip-rule="evenodd" d="M174.999 11.0457C173.953 10.7822 172.477 10.7822 170.585 10.9579C171.149 11.2214 172.941 11.0677 174.999 11.0457Z" fill="#151619"/>
<path fill-rule="evenodd" clip-rule="evenodd" d="M96.8724 10.8483C98.3161 10.6507 102.763 10.7385 102.332 10.3652C100.921 10.5629 96.0593 10.4311 96.8724 10.8483Z" fill="#151619"/>
<path fill-rule="evenodd" clip-rule="evenodd" d="M105.85 10.475C107.443 10.2774 110.181 10.2774 111.177 10.475C113.168 10.2335 115.292 10.4531 118.329 10.2335C116.902 9.94805 115.16 9.86022 116.753 9.48694C110.065 9.6626 103.626 9.11365 95.6279 8.93799C93.8689 9.33323 87.3639 9.70652 83.8791 9.6626C81.141 9.72847 84.8415 9.88218 84.6922 9.99197C90.7325 9.61868 94.1344 9.99197 102.498 9.79435C98.2166 10.0139 104.24 10.2774 105.867 10.4531L105.85 10.475Z" fill="#151619"/>
<path fill-rule="evenodd" clip-rule="evenodd" d="M128.17 10.0362C130.294 10.0801 130.144 9.88253 132.617 9.97036C132.451 9.61903 127.987 9.72882 128.17 10.0362Z" fill="#151619"/>
<path fill-rule="evenodd" clip-rule="evenodd" d="M76.0132 9.31113C75.9634 9.20134 75.9303 9.06959 76.9591 9.06959C77.0587 8.82805 72.5284 8.98176 72.628 8.71826C70.3712 8.71826 70.786 8.98176 70.7196 9.20134C72.5616 9.31113 73.3415 9.15742 76.0132 9.28917V9.31113Z" fill="#151619"/>
<path fill-rule="evenodd" clip-rule="evenodd" d="M6.01802 8.80609H9.56925C10.7143 8.5426 4.74025 8.41085 6.01802 8.80609Z" fill="#151619"/>
<path fill-rule="evenodd" clip-rule="evenodd" d="M121.399 8.76274C120.221 8.41141 116.338 8.49925 119.789 8.104C117.383 8.104 115.591 8.19184 114.413 8.34554C115.06 8.60904 117.781 9.00428 121.399 8.76274Z" fill="#151619"/>
<path fill-rule="evenodd" clip-rule="evenodd" d="M267.297 9.048C269.056 8.91625 271.412 8.60884 267.33 8.54297C267.762 8.80646 265.389 8.87234 267.297 9.048Z" fill="#151619"/>
<path fill-rule="evenodd" clip-rule="evenodd" d="M194.066 8.49917C195.924 8.36743 198.53 8.32351 198.563 8.0161C195.493 8.16981 194.448 8.06002 195.095 7.68673C192.44 7.55498 185.752 7.77456 187.246 7.26953H183.728C182.052 7.86239 188.839 8.19176 194.149 8.10393C194.016 8.30155 192.456 8.36743 194.082 8.52113L194.066 8.49917Z" fill="#151619"/>
<path fill-rule="evenodd" clip-rule="evenodd" d="M105.568 8.23552C109.152 8.23552 109.6 7.90615 107.476 7.75244C105.584 7.81832 103.942 8.08181 105.568 8.23552Z" fill="#151619"/>
<path fill-rule="evenodd" clip-rule="evenodd" d="M211.756 8.27961C210.976 8.08199 208.238 8.06003 205.616 8.01611C205.964 8.34548 209.548 8.5431 211.756 8.27961Z" fill="#151619"/>
<path fill-rule="evenodd" clip-rule="evenodd" d="M199.393 8.3451H202.031C201.5 7.90594 206.08 7.94986 205.699 7.53266C202.828 7.57657 201.6 7.46678 199.542 7.44482C200.488 7.86202 201.65 7.97181 199.393 8.3451Z" fill="#151619"/>
<path fill-rule="evenodd" clip-rule="evenodd" d="M33.0835 7.64236C36.1867 7.7741 33.7141 7.3569 35.8216 7.40082C35.5893 7.29103 33.6312 7.33495 32.3036 7.31299C31.8887 7.48865 32.8512 7.53257 33.0835 7.64236Z" fill="#151619"/>
<path fill-rule="evenodd" clip-rule="evenodd" d="M49.9601 7.53275C49.9601 7.20338 45.3966 7.26926 42.9407 7.35709C44.3014 7.51079 46.857 7.55471 49.9601 7.53275Z" fill="#151619"/>
<path fill-rule="evenodd" clip-rule="evenodd" d="M142.972 7.51081L142.938 7.68647C147.718 8.01584 146.639 7.20339 142.972 7.51081Z" fill="#151619"/>
<path fill-rule="evenodd" clip-rule="evenodd" d="M41.1318 7.42297C42.3266 7.02773 40.0365 6.85206 42.3597 6.34703C39.1902 6.2592 41.3475 6.69836 39.5719 6.74227C38.1946 6.69836 38.8915 6.47878 36.0871 6.56661C36.1534 6.72031 34.942 6.74227 35.0914 6.89598C37.9124 6.96185 37.8793 6.74227 39.5221 6.89598C39.8042 7.0936 37.846 7.07164 38.5098 7.31318C39.771 7.31318 41.0156 7.31318 41.1318 7.40101V7.42297Z" fill="#151619"/>
<path fill-rule="evenodd" clip-rule="evenodd" d="M88.0774 7.44481C89.9193 7.48873 90.4338 7.4009 91.6451 7.37894C88.4258 7.18132 86.6336 6.85195 82.9829 6.69824L82.8833 7.02761C85.8703 7.04957 88.2765 7.1374 88.0774 7.44481Z" fill="#151619"/>
<path fill-rule="evenodd" clip-rule="evenodd" d="M45.0315 6.34674C47.3381 6.36869 48.8482 6.34674 48.6491 6.1052C46.3591 6.08324 44.849 6.1052 45.0315 6.34674Z" fill="#151619"/>
<path fill-rule="evenodd" clip-rule="evenodd" d="M81.4397 5.8641C81.9541 6.10563 83.348 5.79822 84.9743 5.8641L85.024 5.71039C84.3271 5.66647 83.6135 5.62256 82.4022 5.62256C82.4353 5.73235 82.4851 5.8641 81.4397 5.8641Z" fill="#151619"/>
<path fill-rule="evenodd" clip-rule="evenodd" d="M92.9893 5.73247H98.2994L98.399 5.33723C95.8601 5.33723 93.57 5.33723 94.0513 5.07373C91.5621 5.18352 92.674 5.44701 92.9893 5.73247Z" fill="#151619"/>
<path fill-rule="evenodd" clip-rule="evenodd" d="M88.708 5.2272C91.1474 5.05154 86.4181 4.98566 88.8574 4.72217H86.2189C85.804 4.91979 87.7788 4.89783 86.9657 5.13937C87.9945 5.13937 88.5421 5.16133 88.708 5.2272Z" fill="#151619"/>
<path fill-rule="evenodd" clip-rule="evenodd" d="M147.95 5.1174C151.651 5.02956 147.303 4.76607 145.395 4.7002C144.183 5.02956 147.917 4.89782 147.95 5.1174Z" fill="#151619"/>
<path fill-rule="evenodd" clip-rule="evenodd" d="M44.7992 4.37095C50.4579 3.75613 50.8893 2.63627 54.4405 1.84579C50.9059 1.82383 51.5697 2.43865 50.6238 2.74606C48.7985 3.31697 45.6621 3.90983 44.7992 4.39291V4.37095Z" fill="#151619"/>
<path fill-rule="evenodd" clip-rule="evenodd" d="M241.708 19.1048C245.757 18.7535 241.41 18.3582 239.087 18.1167C242.356 18.1167 247.915 17.9849 251.682 17.7873C254.436 17.8971 249.972 18.1606 252.545 18.2924C254.718 18.3363 254.519 18.1386 257.042 18.2045C254.353 18.0508 258.353 17.6995 259.747 17.963C261.821 17.6775 254.901 17.6556 258.884 17.3042C255.714 17.5019 252.71 17.436 249.939 17.2164C257.257 16.8651 246.67 16.5577 245.542 16.2283C241.128 16.1844 237.676 16.404 233.859 16.6236C232.598 16.6016 233.793 16.4698 234.755 16.4698C228.167 16.5577 218.178 17.0188 211.374 17.3701C207.126 16.9968 216.17 17.1505 215.921 16.887C211.905 17.0847 211.623 16.6016 206.097 16.7114C206.927 17.1725 204.338 17.3262 202.38 17.5458C204.819 17.8312 207.209 17.3921 210.478 17.458C213.946 17.5458 210.561 17.7434 211.291 18.0289C214.643 18.0289 213.863 17.941 216.684 18.0289C216.983 17.8312 214.112 17.941 214.029 17.7873C216.269 17.7434 218.078 17.7434 219.455 17.458C220.617 17.5458 222.459 17.9849 220.268 18.1167C221.944 18.2045 225.313 18.2045 228.317 18.3802C230.275 18.3802 228.748 18.0947 229.263 17.963C227.404 17.7434 225.861 18.2484 224.782 17.8752C227.056 17.8093 228.201 17.6336 231.088 17.6336C233.511 17.7214 228.682 17.7873 230.159 18.0508C234.457 18.4241 236.697 18.7315 242.671 18.7974C242.156 18.973 239.949 18.9511 241.742 19.1268L241.708 19.1048Z" fill="#151619"/>
<path fill-rule="evenodd" clip-rule="evenodd" d="M179.679 18.8851C182.184 18.4898 188.258 18.4239 180.724 18.1385C181.952 18.402 181.371 18.6216 177.92 18.6216C178.069 18.38 181.371 18.2702 178.932 18.0507C177.986 18.4239 175.015 18.1824 174.484 17.875C173.107 17.875 171.497 18.0946 174.451 18.0507C175.331 18.3581 171.066 18.1824 171.697 18.4679C173.854 18.6655 179.297 18.5557 179.679 18.8851Z" fill="#151619"/>
<path fill-rule="evenodd" clip-rule="evenodd" d="M126.045 18.5338C127.307 18.7095 127.854 18.0947 131.488 18.2264C129.497 17.8092 125.481 17.8092 126.344 17.3042C125.614 17.3481 124.884 17.392 123.656 17.392C121.83 17.3701 121.93 17.1724 121.067 17.0627C122.278 16.9309 125.066 16.9529 126.477 16.8211C126.593 17.1066 131.688 17.5018 134.276 17.8312C134.027 17.6336 133.281 17.4799 132.617 17.3262C133.264 17.0846 138.242 16.9748 139.819 17.0846C141.063 17.392 135.836 17.0846 137.081 17.414C139.586 17.6555 139.238 17.1944 141.594 17.1724C142.69 17.2164 143.403 17.2822 143.32 17.414H148.68L148.78 16.9309C148 16.865 146.788 16.8431 145.229 16.8431C144.349 16.4478 150.572 16.7552 150.688 16.4478C152.928 16.4478 153.443 16.5796 154.206 16.7113C157.674 16.5357 153.907 16.4039 154.355 16.0526C156.131 15.855 158.62 15.7452 160.711 15.5695C162.669 15.5695 163.532 15.6354 163.333 15.833C167.034 15.6134 162.852 15.6574 162.52 15.4158C164.246 15.3719 169.606 15.2621 170.518 15.5915C177.256 14.8888 194.165 15.0864 204.57 14.9547C207.441 14.801 204.006 14.5814 207.308 14.4716C209.98 14.5375 206.445 14.6473 207.275 14.801C208.785 14.779 208.951 14.8669 209.034 14.9767C211.955 14.823 216.584 15.1304 217.116 14.6473C218.426 14.779 218.509 14.9986 218.825 15.2182C220.451 14.9767 223.77 14.9108 224.268 14.5595C225.595 14.6034 226.508 14.6912 227.819 14.7351C227.039 15.0645 224.666 14.8449 223.322 14.9767C223.803 15.3939 225.794 14.8449 228.682 14.9767C228.383 14.6034 227.255 14.4058 229.661 14.1423C231.171 14.1423 231.951 14.2081 232.316 14.3179C234.623 13.9666 238.97 13.5055 244.845 13.747C244.745 13.3298 249.275 13.5933 251.98 13.5933C248.894 13.22 256.461 13.0224 260.012 13.3518C258.436 13.9007 248.296 13.6372 248.379 14.3399C246.089 14.0325 242.306 14.296 242.986 14.7571C244.264 14.7571 245.509 14.7571 245.658 14.8449C247.516 14.8449 245.94 14.4936 247.483 14.4277C249.84 14.4936 245.442 14.823 249.226 14.8449C247.915 15.1304 246.106 15.1304 247.384 15.5036C252.146 15.0206 251.101 16.0306 256.295 16.0087C255.382 16.338 250.902 16.0965 248.247 16.0965L248.213 16.4259C253.457 16.2283 259.265 16.5796 262.534 16.1843C264.493 16.2941 258.303 16.8211 265.206 16.7552C264.31 16.1624 272.64 16.887 271.479 16.36C273.819 16.338 272.176 16.6894 275.047 16.6015C274.15 16.36 277.038 16.4478 278.631 16.4259C277.021 16.1185 278.797 16.1843 279.544 15.9208C282.066 15.855 281.85 16.0306 284.008 16.0087C286.464 15.8111 284.057 15.6574 286.696 15.4378C287.741 15.4378 287.443 15.5915 287.575 15.6793C289.683 15.6793 290.214 15.5476 292.935 15.5915C293.101 15.4158 289.766 15.5476 288.471 15.5036C291.807 15.3939 290.977 15.0645 294.711 14.8449C294.545 14.9108 295.059 14.9327 295.607 14.9327C295.889 15.1304 293.035 15.0206 292.919 15.1743C292.819 15.328 294.014 15.3499 293.815 15.5036C294.545 15.4597 295.259 15.4158 296.503 15.4158C296.536 15.1962 295.657 14.8888 299.175 14.9986C298.412 14.8669 297.847 14.7351 295.607 14.7571C296.337 14.4277 298.727 14.6473 300.054 14.5155C300.901 14.5814 301.415 14.6692 301.847 14.7571C303.572 14.0983 290.015 14.5375 287.575 14.0983C288.886 14.1862 295.01 14.0983 298.279 14.1862C298.76 14.1203 299.208 14.0544 299.158 13.9446C300.27 14.1862 307.356 14.0983 304.502 13.769C306.526 13.8788 310.061 13.8568 309.862 14.1862C314.724 13.9227 314.774 14.7132 319.686 14.6912C317.13 14.5375 316.997 14.1642 314.309 14.0325C316.433 13.8568 316.931 14.2081 320.548 14.0325C322.125 14.0983 322.191 14.3179 323.237 14.4497C327.601 14.3838 326.722 14.7351 330.389 14.5375C326.141 14.252 323.552 14.0764 320.532 13.7909C320.582 13.5494 322.556 13.4835 324.066 13.3737C326.688 13.4396 323.552 13.6372 324.1 13.7909C326.97 13.8348 328.58 13.769 329.426 13.6153C330.389 13.6153 330.04 13.769 331.219 13.769C331.069 13.8568 329.592 13.8348 328.547 13.8568C329.426 13.9886 330.937 14.0325 332.115 13.9227C332.696 14.274 330.571 14.4497 333.061 14.6692C330.671 14.779 330.571 14.9767 327.717 14.8449C327.485 14.9986 328.58 15.0206 328.613 14.9327C330.837 15.0645 329.161 15.2621 334.903 15.1743C334.455 14.9767 333.094 14.7571 334.853 14.6034C336.031 14.6253 336.263 14.7351 337.541 14.7571C335.45 15.0645 335.998 15.2621 338.504 15.5036C341.092 15.2621 342.951 15.5695 344.793 15.6574C342.901 15.8111 343.017 16.1624 340.379 16.2502C339.632 16.5137 341.806 16.5137 342.221 16.6674C341.823 16.7333 341.441 16.8211 340.445 16.8431C339.151 16.7552 338.703 16.4039 338.653 16.8431C334.455 16.8431 336.927 16.6235 336.794 16.36C332.065 16.36 333.774 16.6674 334.156 16.9529C336.894 16.887 337.442 17.0187 339.566 17.0187C340.694 17.2822 336.662 17.0846 337.79 17.3481C340.279 17.6116 343.515 17.3481 346.817 17.5677C344.859 17.7214 343.731 17.941 340.561 17.9849C339.317 18.3582 343.631 18.1825 343.316 18.468C344.793 18.3143 345.639 18.1166 348.676 18.1166C348.344 18.0068 347.083 17.9849 346.851 17.8751C347.116 17.7653 349.091 17.8092 350.435 17.7873C351.082 17.9849 351.68 18.2923 355.911 18.3582C355.778 18.1606 354.152 18.0947 356.774 18.0288C359.147 17.9849 359.761 18.1386 359.529 18.3582C363.047 18.3143 365.436 18.1825 367.56 17.8531C369.286 18.0068 370.863 17.8531 372.97 17.8531C369.767 17.4579 376.14 17.2164 380.919 17.0846C378.762 16.9309 382.081 16.7552 379.907 16.6015C381.566 16.4039 382.429 16.9748 386.246 16.8431C386.08 16.7552 386.412 16.6894 387.109 16.6674C386.146 16.5796 386.76 16.36 384.354 16.4259C387.955 16.3161 389.2 16.1185 393.298 16.2502C391.274 16.4918 392.336 16.5796 391.672 16.9968C392.983 16.8431 397.696 16.4918 398.824 16.8211C400.782 16.8211 399.156 16.5357 399.621 16.4039C404.085 16.4039 403.57 16.865 408.715 16.7992C409.577 16.4918 405.628 16.6455 405.031 16.4698C404.284 16.1843 408.648 16.36 407.603 16.0526C405.562 16.0746 404.217 16.0526 403.969 15.8989C404.085 15.8111 405.578 15.833 406.64 15.8111C406.756 15.7013 402.027 15.6574 404.782 15.5695C403.902 15.3499 403.172 15.7891 400.318 15.6574C399.14 15.3939 403.205 15.5915 402.027 15.328C399.803 15.328 399.289 15.4817 397.547 15.328C397.513 15.1743 399.969 15.2182 399.256 14.9986C400.052 15.0425 400.882 15.0645 401.098 15.1523C402.558 15.0645 401.977 14.801 402.741 14.6473C400.019 14.6473 400.517 14.3618 397.331 14.4058C396.584 14.801 395.406 14.779 396.65 15.2402C392.718 15.1743 393.663 14.6034 395.539 14.4277C392.834 14.4936 393.448 14.6692 390.212 14.5155C390.776 14.4277 392.253 14.4277 391.938 14.274C389.531 14.1642 385.997 14.4058 384.736 14.0325C385.366 13.7031 393.464 14.0325 392.668 13.5933C390.56 13.5933 390.013 13.4616 387.308 13.5274C387.341 13.3079 385.781 13.3737 387.225 13.1981C391.307 13.1761 391.008 13.5714 395.323 13.5055C395.622 13.1542 396.252 12.7589 399.637 12.9126C400.235 12.693 397.829 12.7589 397.779 12.5832C395.555 12.5832 395.041 12.715 394.277 12.8467C391.954 12.8687 393.497 12.5393 390.66 12.6052C391.075 12.7589 393.232 12.7589 392.552 13.0224C388.868 13.0224 389.299 12.6711 384.487 12.7809C384.802 12.4735 385.399 12.4954 383.491 12.2978C381.417 12.3856 380.952 12.7809 383.591 12.8028C382.163 13.1981 375.659 12.6711 373.85 13.0663C371.361 12.8687 362.615 12.4295 366.532 11.9245C365.27 11.9245 364.026 11.9245 363.893 12.0123C362.931 12.0123 363.262 11.8586 362.084 11.8586C362.715 11.683 367.046 11.8147 369.17 11.7708C367.61 11.5073 364.175 11.5293 362.068 11.7049C367.229 11.3097 361.686 10.607 363.611 10.2996C362.698 10.0361 361.885 10.3875 360.972 10.3875C357.902 10.2337 360.541 9.86046 362.632 9.72872C364.507 9.6848 364.324 9.83851 364.441 9.97025C365.951 9.83851 367.61 9.59697 366.084 9.31152C365.669 9.09194 369.353 9.22368 369.568 9.04802C372.041 9.13585 372.92 9.39935 375.808 9.44326C373.617 9.11389 377.783 9.22368 379.243 9.02606C379.094 8.80648 377.899 8.71865 375.658 8.69669C374.829 9.13585 368.954 9.06998 369.485 8.54299C370.083 8.19166 374.43 8.63082 376.472 8.36733C372.373 7.81838 381.002 8.03796 380.72 7.62076C373.949 7.92817 369.552 7.62076 365.801 7.57684C366.946 7.70859 367.66 7.90621 370.249 7.90621C370.365 8.12579 368.822 8.08187 370.315 8.23558C364.242 8.23558 363.063 7.88425 364.872 7.24747C362.466 7.1816 363.146 7.42314 361.404 7.42314C362.217 7.09377 357.77 6.56678 352.559 6.87419C351.298 6.78636 350.866 6.58873 350.75 6.39111C348.593 6.39111 348.062 6.52286 346.403 6.56678C346.17 6.7644 346.651 6.87419 348.178 6.89615C342.885 7.31335 337.359 7.20356 331.617 7.5988C330.439 8.05991 328.68 8.47711 323.784 8.60886C323.021 9.04802 319.702 9.2676 318.541 9.6848C314.591 8.91627 323.768 8.49907 325.494 7.79642C326.174 7.73055 329.742 7.79642 331.617 7.62076C331.152 7.55488 330.688 7.48901 330.721 7.37922C328.082 7.46705 326.058 7.62076 322.855 7.64271C324.498 7.40118 325.411 7.11572 321.959 7.40118C322.208 7.20356 324.133 7.00593 320.183 7.07181C321.245 6.94006 322.988 6.74244 321.046 6.56678C317.396 6.56678 317.927 6.94006 313.131 6.80831C311.272 7.37922 305.431 7.55488 304.369 8.21362C301.647 8.14775 302.676 8.14775 299.955 8.21362C301.913 8.45516 306.36 8.45516 308.783 8.63082C305.066 8.74061 306.543 8.98215 304.385 9.11389C301.415 9.04802 303.937 8.96019 303.489 8.69669C300.768 8.63082 301.797 8.91627 299.075 8.8504C296.901 8.78453 298.113 8.38928 294.661 8.4332C294.794 8.34537 296.254 8.36733 297.3 8.34537V7.86229C295.607 7.90621 295.076 8.03796 292.886 8.016C292.686 8.27949 294.445 8.36733 293.765 8.67474C293.483 8.78453 291.541 8.74061 290.247 8.76257C289.202 8.76257 289.484 8.60886 289.368 8.52103C282.995 8.87236 279.975 9.0041 272.591 8.67474C272.74 8.76257 272.391 8.82844 271.711 8.8504C271.545 9.02606 274.847 8.89432 276.125 8.93823C275.163 9.42131 277.254 9.59697 280.523 9.6848C279.046 9.81655 276.275 9.83851 275.213 10.0142C274.383 9.83851 270.649 9.9483 270.798 9.6848C266.882 9.90438 263.248 10.124 263.663 10.7607C258.801 10.4972 258.585 11.0901 254.768 11.1779C255.349 11.2877 256.66 11.3316 258.303 11.3536C258.402 11.134 256.842 11.1779 258.336 11.0242C261.472 11.0681 260.062 11.3756 263.646 11.1999C264.941 11.3536 267.181 11.4195 267.164 11.7049C268.757 11.7049 269.056 11.6171 270.732 11.6171C267.048 11.4414 268.741 11.134 269.869 10.7827C271.827 10.7827 270.234 11.134 270.732 11.2877C273.868 11.1999 272.375 11.156 273.42 10.9584C274.051 11.134 277.154 11.1999 278.731 11.0462C277.552 11.2877 277.818 11.4634 279.61 11.6171C279.461 11.4634 281.27 11.2877 285.833 11.3756C285.933 11.5293 284.738 11.5512 284.937 11.7049C288.355 11.3536 288.272 11.6391 293.815 11.5512C295.491 11.5512 294.429 11.8147 296.487 11.7928C292.321 12.1002 286.663 12.4954 282.282 12.1221C283.095 11.9904 282.597 11.7049 284.057 11.6391C281.85 11.3536 282.398 12.0343 280.506 12.0563C280.456 12.3637 283.842 12.3637 284.937 12.5613C284.389 12.7589 281.054 12.693 282.249 13.0444C283.427 13.0224 283.643 12.8907 284.92 12.8907C284.024 13.2639 280.639 13.4176 280.456 13.8788C279.743 13.8348 279.013 13.7909 277.785 13.7909C277.569 13.4616 280.041 13.22 276.905 13.0444C274.416 13.3737 271.064 13.1542 268.011 13.3737C264.094 13.0883 261.19 13.1981 255.565 13.0444C258.651 12.9126 256.278 12.693 254.702 12.5613C255.515 12.2539 257.324 12.5174 260.029 12.4735C262.717 11.7049 251.35 11.683 246.803 11.3097C244.629 11.5073 248.164 11.5293 248.545 11.7269C245.741 11.7708 246.222 11.4414 244.115 11.6391C245.575 11.8367 248.031 11.9245 250.288 12.0563C250.703 12.3197 248.662 12.3417 249.358 12.6272C246.355 12.6491 247.981 12.2539 244.032 12.3637C252.843 12.4076 240.779 11.7049 239.618 12.0343C237.377 11.9904 238.174 11.683 236.116 11.6171C235.651 11.9245 231.536 11.9025 230.723 12.188C227.603 11.9465 222.459 11.9025 221.032 11.5293C217.73 11.7049 220.6 11.9904 221.845 12.188C221.447 12.2539 221.048 12.3417 220.053 12.3417C214.294 12.21 214.643 11.7928 211.274 11.5951C210.859 11.7708 211.839 11.8147 212.104 11.9245C208.868 11.8586 207.142 12.1221 205.002 11.9245C205.3 11.7269 208.121 11.7708 207.74 11.5073C203.74 11.9245 198.48 11.5073 195.31 11.5073C194.995 11.3975 194.829 11.0242 190.963 11.0023C192.224 11.134 192.772 11.3316 193.535 11.5073C193.369 11.661 190.531 11.5512 189.95 11.661C190.863 11.4414 186.565 11.3756 185.619 11.0901C189.519 11.4414 188.557 10.102 181.355 10.2557C181.454 10.1459 184.873 9.9483 184.939 10.102C187.246 9.90438 182.782 9.66284 181.421 9.92634C180.458 9.75067 180.94 9.53109 181.554 9.2676C180.79 9.2676 180.707 9.28956 180.658 9.35543C176.144 9.39935 173.074 9.81655 169.954 9.75067C169.091 10.0142 172.825 9.88242 173.439 10.0142C171.597 10.124 168.129 10.2118 166.353 9.90438C167.316 9.64088 172.676 9.50914 170.933 9.2676C168.278 9.2676 169.174 9.66284 164.677 9.50914C163.565 9.83851 163.964 9.83851 161.906 9.99221C167.382 10.1898 167.581 10.124 173.323 10.5192C172.443 10.0581 176.011 10.3216 177.886 9.94829C183.811 10.0361 176.625 10.8705 173.323 10.607C175.248 10.8486 175.961 11.0242 177.654 11.1121C176.891 11.1779 177.09 11.3316 175.829 11.3536C175.928 11.5073 178.832 11.3975 179.347 11.5293C177.92 11.8806 173.671 11.2658 172.211 11.683C170.021 11.6391 169.091 11.4853 167.847 11.3536H165.175C164.13 11.4634 164.096 11.5512 165.109 11.683C161.126 11.5951 162.885 11.4195 161.657 11.1779C160.927 11.1779 160.761 11.2658 159.865 11.2658C160.014 11.3316 159.516 11.3316 158.969 11.3536L161.574 11.6171C161.757 11.8586 159.516 11.8586 159.699 12.1002C151.8 12.2758 152.746 11.2877 146.473 11.5732C148.664 12.0563 151.319 12.188 149.775 12.6491C157.973 12.188 165.142 13.5055 174.617 12.9565C176.675 13.0224 175.198 13.3957 178.998 13.2859C176.774 13.6372 179.347 13.4396 177.123 13.769H180.691C179.994 14.0325 181.537 14.0764 181.487 14.274C179.031 14.0764 175.646 14.274 174.435 13.8568C168.461 14.0983 163.632 13.5933 156.662 13.6372C154.355 13.5274 155.052 13.2639 155.899 13.0663C152.713 13.1542 152.646 13.242 148.763 13.1322C148.116 12.8467 150.506 12.7809 148.879 12.6272C145.643 12.5613 144.117 12.6711 142.623 12.7809C140.117 12.6711 136.317 12.3637 138.325 12.1221C140.416 12.1441 139.918 12.4076 142.706 12.3856C144.05 12.2978 144.167 12.0782 145.461 11.9904C142.325 11.5512 141.893 11.9904 136.583 11.9904C133.264 12.5393 127.738 12.9565 124.685 13.2859C124.519 13.6592 128.535 13.6372 129.879 13.8788C132.6 13.769 129.232 13.5055 130.028 13.3079C134.027 13.3518 131.953 13.7031 131.638 13.9666C127.091 13.9666 125.465 13.7031 120.984 13.8568C120.437 14.0325 122.644 13.9886 122.71 14.1203C118.678 14.1203 122.61 14.3399 118.196 14.3618C117.981 14.5375 118.86 14.6253 120.818 14.6253C119.706 14.9767 114.711 14.4497 115.392 14.9547C113.649 14.801 114.263 14.9547 111.824 14.9547C112.538 14.6473 116.736 14.6912 116.454 14.296C112.886 14.296 113.185 14.6473 110.978 14.779C105.053 14.7351 102.232 14.4277 97.7686 14.252L97.8847 13.8348C94.8147 13.9446 91.7116 13.6372 94.4165 13.5055C90.8653 13.5055 91.1474 13.3079 87.3971 13.1542C89.0565 13.3079 88.791 13.6153 91.695 13.6592C91.7946 13.8568 90.2513 13.9227 88.9403 13.9886C86.5341 14.0325 87.2643 13.8129 86.335 13.7251C84.1113 13.9007 79.9296 13.9007 75.615 13.8568C77.9216 14.2301 71.118 14.0544 71.8481 14.5155C74.7853 14.801 77.4238 14.2081 78.0378 14.6912C80.2448 14.5155 85.3725 14.4716 87.8783 14.5595C86.6005 14.4497 87.5298 14.1642 90.6495 14.2301C90.8487 14.5595 86.0197 14.6253 89.5875 14.801C85.3393 14.6253 86.6171 14.9327 80.5767 15.1084C82.3855 15.2841 80.4938 15.4597 78.6684 15.5256C80.3776 15.6354 79.0832 16.0306 82.0868 16.0306C82.2362 16.1624 80.5104 16.2502 82.0039 16.2722C80.7095 16.4918 77.3242 16.5357 74.8185 16.4259C72.1966 16.9748 78.0876 17.3481 71.7983 17.5677C71.8481 17.7873 72.9931 17.8971 75.2666 17.8971C75.8805 17.414 81.1244 17.392 82.6843 16.9968C84.4764 17.3481 89.2224 17.2164 93.3378 17.1944C95.8934 17.5018 91.3631 17.7434 95.8934 17.6994C95.7274 17.8531 95.213 17.9629 94.0016 18.0288C94.0348 18.2484 97.4698 18.1606 97.4864 18.3582C100.042 18.2484 100.44 17.919 102.133 17.7214C102.946 17.8092 104.307 18.2703 106.53 17.9849C108.057 18.1825 108.04 18.4899 112.687 18.424C112.571 18.3362 111.077 18.3582 110.015 18.3362L110.082 18.0947C113.085 17.941 116.089 18.1825 113.766 17.6994C117.267 17.8751 113.865 18.1606 118.113 18.2045C117.051 18.468 117.981 18.4021 117.981 18.7095C120.071 18.7095 121.88 18.5338 122.428 18.7973C123.44 18.5558 124.734 18.4021 121.698 18.1386C122.478 18.2045 123.689 18.2264 125.249 18.2264C124.087 18.5778 128.053 18.6875 125.979 18.8852L126.045 18.5338ZM355.745 16.7113C352.974 16.9748 357.587 16.6894 357.571 16.9529C356.376 16.9748 355.878 17.0846 353.986 17.0407C352.393 16.865 353.638 16.4698 355.745 16.7113ZM358.583 17.6994C361.852 17.6336 363.445 17.4359 365.718 17.2822C364.524 17.5457 365.569 17.5677 365.818 17.8531C358.732 18.2484 356.21 17.5457 351.348 17.4799L351.298 17.0627C356.127 17.1505 357.836 17.414 358.583 17.6994ZM373.7 16.6674C375.26 16.6674 376.505 16.6674 377.318 16.7333C377.052 16.9309 376.455 17.0846 374.696 17.1505C373.368 16.909 375.376 16.865 373.7 16.6455V16.6674ZM137.23 16.6455C137.197 16.4918 137.496 16.382 138.209 16.3161C141.014 16.3161 141.213 16.5357 141.677 16.7333C139.122 16.7992 139.387 16.6015 137.23 16.6455ZM355.695 16.382C355.911 16.0526 359.678 16.4259 360.126 16.0306C358.815 15.9648 356.641 15.9648 357.388 15.7013C360.01 15.6793 360.159 15.8769 362.798 15.855C364.109 16.338 357.786 16.4478 355.695 16.36V16.382ZM134.177 14.4936C132.451 14.6692 143.918 14.9767 143.918 14.7571C144.167 14.8669 145.146 14.9108 144.731 15.0864C139.653 14.9986 140.234 15.4378 136.599 15.4817C135.571 15.7891 138.757 15.7232 138.259 15.9867C136.085 16.0306 134.392 15.9648 131.97 16.1404C129.879 16.1185 130.028 15.8769 128.485 15.7891C129.215 16.0526 125.548 15.8989 124.851 16.0306C125.083 15.8769 123.888 15.855 124.054 15.7013C127.107 15.6354 124.535 15.306 127.771 15.1304C124.436 14.9986 125.996 15.3499 123.274 15.2841C120.287 14.823 125.149 14.779 126.178 14.3838C126.361 14.4497 126.145 14.5375 127.025 14.5595C128.667 14.4277 126.842 14.2301 124.436 14.2301C124.22 14.0105 125.73 13.9666 128.053 13.9886C126.942 14.3618 127.506 14.0983 129.779 14.252C129.68 14.3838 129.912 14.5155 130.592 14.5814C129.895 14.5814 128.833 14.5814 128.784 14.6692C131.206 14.7351 133.048 14.3179 134.177 14.5155V14.4936ZM148.133 15.855C147.784 15.7013 146.257 15.6354 146.44 15.4378C150.223 15.328 154.422 15.9208 150.788 15.9428C151.02 15.6354 150.058 15.9208 148.133 15.855ZM390.427 15.1523C389.847 15.4158 391.423 15.4597 391.44 15.6354C390.295 15.6354 390.228 15.7452 388.768 15.7232C388.237 15.5256 386.362 15.1962 390.427 15.1523ZM344.793 15.328C348.079 15.1084 350.966 15.328 352.808 14.9767C353.405 15.5695 360.624 15.0206 361.736 14.8669C364.109 15.5695 348.925 15.9867 344.793 15.306V15.328ZM364.341 14.3838C365.27 14.5155 368.141 14.4716 369.734 14.5375C369.651 14.4277 368.556 14.4277 368.805 14.296C370.133 14.296 372.074 14.252 372.389 14.3618C370.846 14.5595 368.573 14.6692 368.025 14.9547C366.465 14.9547 365.254 14.9767 364.457 15.0425C364.939 14.823 361.736 14.5375 364.358 14.3838H364.341ZM132.584 13.747C136.351 13.7909 141.063 14.1862 138.641 14.4936C138.475 14.274 137.064 14.6034 135.073 14.4936C136.052 14.0764 132.401 14.0764 132.584 13.747ZM362.483 13.8788C365.436 13.8788 366.399 14.1203 367.892 14.274C363.926 14.3399 362.167 14.2081 362.483 13.8788ZM377.65 13.9446C380.139 13.9446 380.687 13.8129 379.392 13.6811C384.653 13.6811 381.284 13.9886 383.076 14.252C380.255 14.252 377.749 14.2081 377.65 13.9446ZM309.862 13.6153C310.924 13.0883 314.724 13.747 317.86 13.3737C316.748 13.6153 320.93 13.7909 318.773 13.8788C317.445 13.6372 313.529 13.6372 309.862 13.6153ZM341.922 13.5274C343.864 13.5274 346.021 13.2639 349.041 13.4396L349.074 13.6811C347.531 13.8129 342.237 13.7909 341.939 13.5274H341.922ZM364.109 12.9785C364.308 13.0663 365.121 13.1102 365.918 13.1322C366.316 13.4616 363.561 13.5274 362.466 13.7251C360.375 13.5274 359.396 12.9785 364.125 12.9785H364.109ZM382.91 13.5055C380.172 13.4616 379.674 13.5933 377.567 13.5933C376.521 13.2639 382.811 13.242 382.91 13.5055ZM310.725 12.8687C310.127 13.2859 307.256 13.4835 302.743 13.5274C305.73 13.3298 305.746 12.8687 310.725 12.8687ZM180.774 13.2859C179.927 13.0444 182.782 13.1322 184.358 13.1102L184.325 13.3518C182.765 13.3518 181.554 13.3518 180.774 13.2639V13.2859ZM338.321 13.1102C338.421 13.2639 341.275 13.1542 341.009 13.3518C339.815 13.3737 339.317 13.4616 337.458 13.4396C337.591 13.3079 337.093 13.1322 338.321 13.1102ZM328.547 13.1322C329.692 13.0224 333.227 12.8248 333.874 13.1322C331.451 13.1322 329.725 13.4835 328.547 13.1322ZM191.593 12.5393C192.987 11.683 197.7 12.188 201.467 11.9684C198.447 12.1002 198.729 12.188 201.417 12.2978C198.613 12.2539 200.687 12.6711 198.679 12.715C198.215 12.4735 197.269 12.8467 195.991 12.8028C195.393 12.6491 193.651 12.5832 191.577 12.5613L191.593 12.5393ZM315.155 12.6272C314.01 12.737 311.289 12.715 308.932 12.715C308.235 12.3417 314.475 12.4515 315.155 12.6272ZM189.95 11.8147C191.328 11.8147 190.681 11.6171 192.622 11.661C192.041 11.8586 191.361 12.0343 189.005 12.0782C188.457 11.9465 187.561 11.5073 189.95 11.8367V11.8147ZM337.276 11.3756C341.258 11.3316 340.329 11.7708 344.378 11.5293L344.411 11.8586C340.246 11.9904 337.392 11.8586 337.259 11.3756H337.276ZM312.45 11.3097C311.67 11.4195 311.753 11.6171 308.899 11.5512V11.3097C310.111 11.3097 310.841 11.3536 311.554 11.3975C311.073 11.2219 315.023 11.2219 312.45 11.3097ZM285.833 11.134C284.605 11.0242 284.97 10.7827 284.953 10.5631C289.368 10.6729 288.72 10.3216 292.056 10.3216C290.728 10.6729 293.35 10.9364 291.176 11.2219C290.38 10.8705 287.575 10.8705 285.85 11.134H285.833ZM349.489 9.94829C353.173 9.94829 353.472 10.2557 351.331 10.4314C349.738 10.3435 347.265 10.1459 349.489 9.94829ZM295.59 10.0581C297.349 10.0581 296.719 9.83851 299.125 9.90438C301.813 10.102 296.337 10.4314 295.59 10.0581ZM294.694 8.98215C296.719 8.80648 300.204 8.96019 300.005 9.22368C298.329 9.22368 298.046 9.31152 296.47 9.31152C297.117 9.09194 294.711 9.13585 294.694 8.98215ZM315.885 8.91627V9.24564H313.247C312.981 9.02606 313.562 8.89432 315.885 8.91627Z" fill="#151619"/>
<path fill-rule="evenodd" clip-rule="evenodd" d="M266.899 18.5339C269.255 18.5559 270.765 18.5119 270.5 18.2924C269.322 18.2045 269.089 18.2704 267.811 18.2924C266.899 18.2265 266.882 18.0947 265.123 18.1167C265.488 18.2704 267.679 18.2704 266.899 18.5339Z" fill="#151619"/>
<path fill-rule="evenodd" clip-rule="evenodd" d="M285.783 17.8092C287.858 17.8311 289.235 17.8092 290.264 17.7213C290.745 17.4359 287.094 17.5237 287.575 17.2163C286.58 17.392 287.161 17.5237 285.783 17.7872V17.8092Z" fill="#151619"/>
<path fill-rule="evenodd" clip-rule="evenodd" d="M55.8345 17.0403C56.2991 17.1282 61.0285 16.9745 62.9535 17.1501C62.8373 17.0623 63.1858 16.9964 63.8994 16.9964C62.5884 16.6231 57.1289 16.9086 55.8511 17.0623L55.8345 17.0403Z" fill="#151619"/>
<path fill-rule="evenodd" clip-rule="evenodd" d="M-63.9439 15.3498C-63.2636 15.5913 -62.55 15.1741 -60.343 15.2839C-60.2102 15.6572 -54.1035 15.9646 -52.7427 16.4696C-49.8055 16.0524 -43.8979 15.7231 -38.3388 16.0305C-40.8777 15.8548 -38.9362 15.6133 -39.9152 15.4376C-35.8164 15.5254 -32.315 15.6572 -28.3821 15.5474C-30.39 15.8548 -28.4319 16.0085 -26.8388 16.2061C-22.5409 16.0305 -22.6736 16.2061 -22.4745 16.4696C-20.1015 16.3159 -17.5294 16.272 -17.1975 16.6453C-9.74661 16.3818 -0.121857 16.6014 10.4654 16.4916C12.7554 16.4916 11.7929 16.799 13.0043 16.9088C12.4069 16.1183 15.0455 15.5693 23.3095 15.4596C27.4747 15.3937 32.453 15.5035 35.7387 15.6572C36.0872 15.9207 34.0295 15.9426 34.66 16.2281C34.3447 16.3379 32.4032 16.294 31.059 16.294C30.3455 16.5575 30.3787 16.4477 30.9263 16.7112C32.7849 16.5794 34.66 16.4477 37.2819 16.4037C38.0121 16.1403 36.4688 16.0963 36.5518 15.8987C40.3685 15.8987 41.0157 16.1403 42.6751 16.3379C44.766 16.3379 46.077 16.2061 48.9478 16.272C45.1477 16.6014 51.0221 16.5575 52.3331 16.8649C54.341 16.7551 52.2003 16.2281 56.9629 16.3818L57.0957 15.9646C53.9427 16.0305 54.0755 16.1842 51.7523 15.9646C51.7855 15.5035 58.3402 15.7011 59.1036 15.3278C50.9723 16.0744 41.7624 15.1082 32.4032 15.0863C20.9862 15.0863 11.3615 15.7231 0.0773087 15.8109C-0.868576 15.8109 -0.470322 15.6572 -1.64852 15.6352C-0.470322 15.3937 1.70351 15.767 2.83193 15.5693C1.76989 15.1302 1.23888 14.6471 -3.02589 14.4714C1.86946 14.208 -5.84689 14.1421 -2.82671 13.9005C-3.57346 13.7029 -6.32816 13.681 -8.96667 13.637C-7.92122 13.3955 -7.39021 13.2418 -11.5222 13.3077C-12.7502 12.9124 -8.8505 13.0003 -8.65137 12.7368C-13.3476 12.8466 -12.0532 12.8466 -16.6499 12.7148C-20.5496 13.1979 -15.3887 13.3296 -17.0315 13.7908C-19.388 13.7908 -19.2054 13.5492 -20.4666 13.4394C-23.4868 13.3736 -21.7278 13.7688 -25.0135 13.681C-23.0885 14.1421 -33.7919 14.4934 -37.6418 14.1421C-32.4478 14.164 -27.2039 13.8566 -24.8973 13.3516C-28.4153 13.5492 -28.3987 13.3516 -31.1368 13.4175C-28.7472 13.681 -31.6678 13.9445 -35.7335 13.8127C-37.3099 13.681 -35.0199 13.5492 -37.3763 13.3955C-31.3359 13.0661 -35.9492 12.3635 -29.8258 12.1878C-29.2948 11.8585 -32.0827 12.2537 -33.3273 12.0122C-31.1202 11.7926 -23.1715 12.1878 -18.16 11.9024C-20.7321 11.4413 -24.1837 11.3973 -30.4398 11.3754C-25.644 11.1119 -35.0365 11.1338 -37.4427 11.0241C-38.0567 11.2436 -37.1938 11.3315 -34.854 11.2876C-37.3099 11.6169 -37.8907 11.1997 -41.0437 11.1778C-39.2183 11.0021 -39.2017 10.9582 -40.8943 10.7606C-39.3842 10.7606 -38.6209 10.8264 -38.289 10.9362C-37.0776 10.8704 -36.4636 10.7166 -34.6382 10.6947C-36.7789 10.4092 -39.268 10.8484 -41.6576 10.4312C-41.4585 10.3653 -40.7284 10.3434 -40.7118 10.2775C-38.2392 10.3873 -35.7003 10.4751 -33.7089 10.6288C-30.9543 10.5629 -31.3691 10.1677 -29.0625 10.0579C-29.0625 10.3434 -27.0878 10.2775 -22.9889 10.4971C-23.4702 10.5629 -23.968 10.6288 -23.968 10.7386C-18.7242 10.6288 -21.0142 11.1778 -16.0857 11.0899C-18.3923 10.8704 -14.9075 10.8484 -15.0236 10.6069C-10.427 10.6288 -11.2733 11.1338 -5.38226 11.046C-7.32381 10.6727 -11.6218 10.8484 -14.0943 10.4312C-13.6297 10.1018 -10.344 10.0579 -8.5518 9.88224C-7.19106 10.2116 -3.85559 9.92616 -4.25386 10.2994C-1.33324 10.036 -2.1132 9.9042 -3.07567 9.487C-5.83035 9.37721 -5.43204 9.487 -7.50635 9.39917C-7.42338 9.09176 -6.77621 8.74043 -9.03306 8.6526C-12.3519 8.74043 -12.551 9.31134 -17.1809 9.04784C-16.8324 9.17959 -14.4096 9.13568 -15.5215 9.37721C-19.0395 9.3333 -20.3338 9.11372 -20.6657 8.78435C-24.499 9.00393 -18.8238 9.39917 -20.981 9.68462C-24.6982 9.42113 -24.3829 9.02589 -22.3584 8.52085C-21.6614 8.56477 -20.9312 8.60869 -19.7198 8.60869C-18.077 8.60869 -19.2718 8.89414 -18.0604 8.93805C-16.6333 8.82826 -14.5424 8.78435 -12.634 8.71847C-15.6044 7.92799 -22.4579 7.97191 -27.3201 7.42296C-23.2379 7.13751 -20.4998 7.2473 -13.8952 7.22534C-14.0611 6.67639 -23.3374 7.02772 -28.0336 6.93988C-31.8172 6.87401 -36.447 6.67639 -36.7457 6.41289C-39.0689 6.39094 -40.579 6.41289 -40.3965 6.65443C-42.8524 6.5666 -39.0191 6.43485 -41.1764 6.32506C-44.4787 6.21527 -46.2211 6.52268 -48.229 6.12744C-50.1706 6.12744 -50.2038 6.32506 -50.1374 6.54464C-38.5047 6.61052 -48.8762 7.73037 -54.1698 7.86212C-54.2362 8.0817 -54.6677 8.32323 -53.4895 8.45498C-48.2622 8.34519 -41.0271 8.41106 -36.6793 8.76239C-33.6094 9.9042 -49.0422 9.72854 -57.3062 9.20155C-57.7044 9.31134 -58.4014 9.44309 -60.1272 9.59679C-61.6871 9.57483 -62.102 9.44309 -61.7867 9.26742C-64.1265 9.24547 -67.0803 9.59679 -68.0594 9.42113C-70.3494 9.57483 -67.0803 9.77245 -69.1546 9.99203C-64.1929 10.2994 -58.1525 10.2116 -55.0991 10.541C-56.2773 10.7166 -58.6669 10.7606 -59.6958 10.9362C-61.8365 10.8045 -61.5543 10.5849 -64.9728 10.7606C-62.8487 10.9143 -63.0644 11.2656 -64.3588 11.5071C-66.6322 11.5071 -67.4288 11.3534 -68.7231 11.2436C-70.9468 11.3315 -72.1748 11.6608 -69.7852 11.7267C-71.428 11.8365 -74.415 11.551 -77.7671 11.7048C-76.3732 12.078 -71.345 11.9463 -67.2794 12.2317C-65.5868 12.2317 -67.379 11.8804 -69.8516 11.9682C-67.7772 11.8585 -68.1091 11.7926 -68.8227 11.551C-66.4165 11.6169 -65.4208 11.7926 -65.4374 12.0561C-63.0644 12.2098 -61.2225 11.9463 -60.1604 12.2317C-62.0688 12.2976 -63.0976 12.4513 -64.7073 12.5392C-64.392 12.6929 -62.2181 12.6929 -63.081 12.9564C-64.6243 12.7148 -66.1012 12.8466 -64.923 13.1101C-68.1921 13.0222 -67.1798 12.9344 -71.1127 13.0003C-69.1048 13.2857 -66.4829 13.1979 -69.5363 13.5931C-66.5493 13.7468 -66.2174 13.5931 -65.006 13.3516C-62.4173 13.4394 -66.234 13.5492 -65.1553 13.7688C-61.3386 13.8127 -63.9439 13.5492 -62.4007 13.5273C-59.1481 13.4614 -61.6207 13.8786 -59.8783 13.9445C-58.3682 13.9445 -57.5551 13.9005 -57.1568 13.7908C-56.2607 13.8566 -56.2939 13.9884 -54.5349 13.9664C-54.3192 14.0982 -55.4144 14.0982 -55.514 14.208C-60.5255 13.9884 -59.3141 14.186 -64.4418 14.2738C-63.0479 14.3836 -61.6871 14.5154 -60.1106 14.6252C-59.8451 14.8886 -62.5998 15.0424 -59.3805 15.1302C-60.1936 15.4376 -62.5002 15.1302 -63.8942 15.2839C-63.3631 15.3717 -62.8653 15.4376 -63.9439 15.4596V15.3498ZM-36.8121 11.6389H-39.4838C-38.372 11.1997 -41.6908 11.6389 -41.1432 11.2876C-38.9859 11.3315 -36.5798 11.3754 -36.8121 11.6389ZM-13.9616 15.0204C-12.4847 14.3397 -0.968155 14.5154 -2.47825 15.3058C-5.01719 15.3717 -6.19539 15.1302 -9.63043 15.3717C-8.13693 14.9984 -12.9825 15.1741 -13.9616 15.0204ZM-31.5517 14.3836C-28.6144 14.713 -24.2833 14.4495 -18.3093 14.7569L-18.4255 15.0863C-24.2169 15.0204 -25.1296 14.9984 -30.8215 14.8886C-29.6101 14.6471 -33.7255 14.4714 -31.5517 14.3836ZM-49.3409 14.3397C-49.3409 14.3397 -49.1749 14.2519 -48.4116 14.2519C-48.229 14.5154 -44.4621 14.0542 -43.9975 14.3397C-45.6735 14.4056 -47.2997 14.4714 -49.3906 14.4934L-49.3409 14.3397ZM-49.1583 13.8347C-47.781 13.7029 -45.491 13.7908 -44.7276 13.9225C-46.1381 13.9445 -45.5739 14.186 -48.3452 14.0762C-48.2622 13.9664 -48.6937 13.9005 -49.1583 13.8347ZM-39.7161 12.2976C-38.8532 12.5392 -38.7204 12.6929 -40.8113 12.8685C-42.0559 12.627 -43.1345 12.3635 -39.7161 12.2976ZM-20.2343 10.0359C-23.5698 9.99203 -24.3663 9.9042 -26.4738 10.1018C-27.1375 9.94812 -27.8677 9.79441 -28.0834 9.59679C-24.2667 9.7505 -21.2631 9.70658 -18.3591 9.79441C-21.7112 10.036 -15.4053 10.1238 -16.8158 10.4532H-20.367L-20.2177 10.0359H-20.2343ZM-35.2522 9.7505C-32.7299 9.88225 -31.1534 9.64071 -30.8879 10.014C-32.9456 10.1238 -34.157 9.79441 -34.4391 10.014C-33.9579 10.014 -33.46 10.0799 -34.4723 10.1018C-34.7212 9.99203 -35.6837 9.94812 -35.2522 9.77245V9.7505ZM-29.6599 9.02589C-29.1289 9.28938 -34.4225 9.39917 -35.0863 9.26742C-33.1779 9.20155 -32.3648 9.02589 -29.6599 9.02589ZM-29.2948 7.94995C-25.6109 7.97191 -25.7934 7.86212 -23.0719 7.94995C-22.7898 8.36715 -28.6642 8.12561 -29.2948 7.94995Z" fill="#151619"/>
<path fill-rule="evenodd" clip-rule="evenodd" d="M61.5761 15.8111L61.4766 16.1405C64.7788 16.2942 69.2759 16.3381 73.1258 16.0087C73.5573 15.8331 72.5782 15.7891 72.3293 15.6793C73.4577 15.4598 76.9757 15.6793 78.5688 15.6793C77.0587 15.4378 77.4238 15.3939 76.926 15.1743C74.3372 15.2402 74.304 15.5476 70.5869 15.4817C69.7738 15.7233 71.7817 15.7013 71.3502 15.8989C66.737 16.382 67.2348 15.8111 61.5595 15.7891L61.5761 15.8111Z" fill="#151619"/>
<path fill-rule="evenodd" clip-rule="evenodd" d="M321.61 16.5134C322.341 16.4475 322.673 16.2719 321.577 16.0962C320.399 16.1181 320.183 16.2499 318.889 16.2499C318.64 16.4475 321.494 16.3377 321.594 16.4914L321.61 16.5134Z" fill="#151619"/>
<path fill-rule="evenodd" clip-rule="evenodd" d="M241.094 15.8109C238.622 15.9646 244.928 16.0085 246.438 16.0744C246.056 15.8109 248.363 15.8109 250.935 15.8329C250.835 15.5913 242.107 16.0524 241.111 15.8329L241.094 15.8109Z" fill="#151619"/>
<path fill-rule="evenodd" clip-rule="evenodd" d="M12.7554 15.0204C14.9292 15.1082 22.0648 14.9765 22.6954 14.6471C26.0143 15.0643 32.2704 14.5813 36.9666 14.6032C37.6636 14.2738 33.6643 14.3617 30.8101 14.3397C29.8974 13.8786 27.2921 13.7908 26.6781 13.4175C22.9444 13.6151 23.3592 13.3077 20.505 13.2418C22.2142 13.8127 15.593 13.5492 15.8087 13.9664C16.0245 13.681 13.0872 13.3516 16.9869 13.154C12.9545 12.6929 8.29146 12.8905 2.00218 12.6929C0.940139 13.1759 11.6767 13.2857 12.2741 13.8786C10.4819 14.0323 4.70712 13.8566 2.51665 13.7688C0.54192 13.8127 7.39537 14.2299 2.31748 14.3397C4.22584 14.5154 5.58662 14.7569 8.37448 14.8447C9.43652 14.7569 9.48628 14.5593 9.43649 14.3617C12.9379 14.3617 12.6392 14.6691 16.4725 14.6252L16.6219 14.208C14.7633 14.2519 14.6969 14.3397 15.6428 14.4495C14.5641 14.4056 13.8672 14.3397 13.9502 14.186C16.2236 13.9664 18.5302 14.0982 20.1399 14.2958C18.3145 14.6032 16.0743 14.8667 12.772 15.0204H12.7554ZM22.0649 13.9006H25.616C26.2134 14.2299 21.2517 14.208 22.0649 13.9006Z" fill="#151619"/>
<path fill-rule="evenodd" clip-rule="evenodd" d="M25.4998 11.683C26.4623 11.3756 21.5172 11.5951 22.0482 11.3316C22.3137 11.1779 23.6412 11.156 25.6658 11.1779C23.243 10.8925 24.3714 10.4533 25.1182 10.1898C26.3296 10.4094 26.3793 10.7168 30.2624 10.6949C29.6152 10.9364 27.1427 11.0023 26.5121 11.2658C27.4414 11.4853 33.3988 11.2658 34.4442 11.4414C35.0084 11.7049 32.8345 11.683 33.3821 11.9245C34.9586 11.9245 35.4565 11.7928 35.2739 11.5951C36.867 11.5951 37.1159 11.7049 38.7919 11.683C35.8049 11.8367 40.8829 12.0343 38.6592 12.1002C42.5589 12.3417 47.6036 11.9684 48.5992 11.6391H45.048C44.0358 11.3536 47.9355 11.5732 46.9232 11.3097C44.1021 11.0462 42.4759 11.3097 42.5921 10.9584C41.2147 11.156 37.7133 11.156 37.0993 11.4414C32.6686 11.1779 39.24 11.0242 40.0365 10.629C46.1101 11.1121 52.5487 11.3536 57.3943 11.9025C57.9419 11.7269 55.7348 11.7928 55.685 11.661C58.5061 11.5073 60.6302 11.7049 64.5962 11.5951C65.177 11.2658 59.452 11.5073 59.369 11.2438C58.4397 11.2877 58.39 11.4195 56.6475 11.3975C53.7601 11.2658 58.5559 11.1999 57.6598 10.9803C56.0667 11.0242 53.9592 11.0023 53.1627 11.134C53.7103 10.9144 48.1512 10.4314 54.3077 10.3216C55.0545 10.3875 54.1583 10.6509 55.9339 10.8266C59.1367 10.6729 56.9628 10.4753 55.237 10.2557C56.2161 9.9483 63.584 10.124 63.1691 10.4314C66.1727 10.2118 70.2715 10.4094 73.0594 10.0361C71.3502 9.86046 68.944 9.75067 67.8986 9.53109C66.571 9.59697 65.0443 9.64088 65.1273 9.86046C65.343 9.44326 57.1122 9.77263 57.3113 9.33347C51.188 9.42131 48.6158 9.28956 44.0856 9.04802C44.6166 8.67474 45.8943 8.36733 46.193 7.97208C44.6 7.97208 44.3511 7.86229 42.675 7.88425C42.8742 8.10383 40.7667 8.08187 39.0575 8.12579C42.6253 8.56495 34.1123 9.13585 27.1925 9.09194C26.7112 9.39935 32.7847 9.13585 30.5777 9.59697C32.7018 9.64088 32.5524 9.44326 35.0416 9.53109L34.9752 9.70676C34.046 9.92634 32.652 9.57501 31.4074 9.77263C35.1246 9.86046 29.5821 10.2557 34.8093 10.1898C31.424 10.4972 26.4291 10.124 26.1304 9.59697C23.2098 9.86046 20.6708 9.59697 18.1983 9.42131C20.4717 9.77263 21.3512 10.1459 19.5424 10.6729C15.427 10.5851 14.5641 10.7607 10.7142 10.4753C10.9465 10.8266 10.2495 11.1121 8.63988 11.2877C6.36645 11.1121 4.92277 10.8705 0.79076 10.8486C0.375899 10.6509 2.53316 10.7388 2.64933 10.607C4.8066 10.5851 2.03533 10.9803 5.23805 10.8705C4.69043 10.607 6.84773 10.629 6.30012 10.3875C3.13058 10.6509 1.98557 10.3875 -0.752508 10.1898C0.392507 10.5851 -1.91411 10.8486 -2.04687 11.3536C-4.48625 11.683 -5.08366 11.2658 -8.2366 11.2438C-11.4725 11.683 -2.71065 11.7049 1.37157 11.7708C0.923525 11.3756 -0.802301 11.3097 0.740978 11.0242C4.25899 11.3536 8.3744 11.3097 12.1413 11.4634C14.5973 11.3975 10.9963 11.1999 12.3073 10.9584C12.5562 10.8705 14.0995 10.9144 14.1492 10.8047C16.3065 11.0681 14.7632 11.2877 15.6593 11.5512C19.1276 11.661 17.8996 11.3097 20.1896 11.3097C21.8491 11.4195 22.629 11.6391 25.4002 11.661L25.4998 11.683ZM34.7761 10.5412C33.1498 10.8705 36.2696 11.134 31.0258 11.1121C31.1253 10.8047 30.893 10.4753 34.7761 10.5412ZM42.0942 9.90438C42.0112 10.0142 42.4427 10.08 42.9074 10.1459C39.5387 10.1898 39.1239 10.1898 35.805 10.1459L35.9543 9.72872C37.9125 9.61893 44.2183 9.53109 41.2479 9.81655C41.2479 9.72872 39.7378 9.70676 39.4723 9.81655C40.4182 10.08 38.9745 10.08 42.1108 9.90438H42.0942ZM47.5206 9.57501C48.284 9.79459 48.0018 10.0361 45.5624 10.1459C44.2183 10.0142 44.7991 9.57501 47.5206 9.57501Z" fill="#151619"/>
<path fill-rule="evenodd" clip-rule="evenodd" d="M207.076 10.08C207.076 10.08 205.981 10.1459 205.3 10.1679C206.23 10.2557 205.516 10.4753 207.922 10.4094C209.499 10.1898 206.561 9.70676 203.558 9.90438C204.122 10.0142 205.433 10.0581 207.076 10.08Z" fill="#151619"/>
<path fill-rule="evenodd" clip-rule="evenodd" d="M141.661 9.31148C140.814 9.57498 144.548 9.42127 144.233 9.64085C145.577 9.55302 148.216 9.57498 147.867 9.31148C152.53 9.31148 152.779 9.39931 154.87 9.75064C156.446 9.79456 158.604 9.5091 159.301 9.75064C162.221 9.33344 163.914 9.20169 162.238 8.521C158.073 8.71862 156.015 8.78449 151.584 8.58687C151.684 8.78449 150.174 8.85036 148.846 8.91624C146.639 8.56491 147.336 9.3554 141.661 9.31148ZM156.778 9.11386H160.329C160.529 9.31148 160.047 9.42127 158.487 9.44323C158.521 9.28952 156.098 9.33344 156.778 9.11386Z" fill="#151619"/>
<path fill-rule="evenodd" clip-rule="evenodd" d="M207.989 9.83824C206.943 9.5967 210.212 9.48691 213.365 9.42104C213.548 9.09167 208.238 9.48691 206.279 9.50887C205.599 9.72845 208.005 9.68453 208.005 9.83824H207.989Z" fill="#151619"/>
<path fill-rule="evenodd" clip-rule="evenodd" d="M118.578 9.33325C120.636 9.33325 120.685 9.11367 119.557 9.00388C117.499 8.91605 115.657 9.28934 115.093 9.06976C112.139 9.35521 120.071 9.0478 118.578 9.33325Z" fill="#151619"/>
<path fill-rule="evenodd" clip-rule="evenodd" d="M48.2342 18.424C48.5661 18.2045 43.6376 18.2703 41.0987 18.3362C39.7877 18.2923 41.4803 18.2264 41.1816 18.0947C38.261 18.1825 40.5842 17.8312 37.6636 17.919C34.2784 18.446 44.7162 18.4021 43.6542 18.7534C44.5005 18.6656 50.0928 18.7534 52.5488 18.9291C54.2414 18.8632 55.3698 18.5558 52.6815 18.5119C52.9802 18.3362 55.1209 18.3582 56.3323 18.2703C58.7053 18.5119 57.5271 18.9071 56.9131 19.2584C59.5185 19.3243 60.6966 19.5219 62.1569 19.6756C62.5054 19.9391 59.3525 19.8513 60.2154 20.1587C63.4347 20.1368 64.0653 19.8513 67.4838 19.8513C67.8322 19.6317 65.6749 19.6317 63.9823 19.5878C66.3885 19.1486 63.219 18.8193 65.1937 18.5119C62.2067 18.3801 60.2818 18.1386 58.2241 17.919C54.6231 18.0068 53.03 18.3582 50.126 18.0727C50.4911 18.3582 51.1051 18.5558 48.2342 18.4021V18.424Z" fill="#151619"/>
<path fill-rule="evenodd" clip-rule="evenodd" d="M6.83122 19.3021C12.324 19.346 11.2786 18.7312 16.8211 18.7532C15.2944 18.314 17.3355 17.8968 17.1862 17.6772C11.3781 18.0505 12.2244 18.5775 9.5859 19.0606C7.24609 18.4238 1.073 18.1603 -3.55684 18.4458C-6.21195 18.3799 -2.64419 18.2701 -3.44072 18.1164C-6.1622 18.4238 -6.49407 18.0066 -11.4558 18.0944C-8.41902 18.5336 -14.5921 18.3579 -14.3432 18.7312C-8.13692 18.4238 -1.3996 19.346 3.41278 18.863C5.90194 18.8849 7.14652 19.0167 6.83122 19.2802V19.3021Z" fill="#151619"/>
<path fill-rule="evenodd" clip-rule="evenodd" d="M47.4709 18.0066C49.3129 17.6772 56.5647 17.6553 53.1794 16.9526C50.4911 16.9526 48.5662 17.1942 50.3583 17.3479C46.7076 17.26 43.7538 17.5235 39.6549 17.2381C39.323 17.4357 36.5186 17.3918 36.8505 17.6333C41.2148 17.6553 40.2689 17.7431 43.9197 17.8968C43.6044 17.7212 44.6001 17.6772 44.9154 17.5675C46.4587 17.6553 47.9688 17.7212 47.4709 17.9847V18.0066Z" fill="#151619"/>
</g>
<defs>
<clipPath id="clip0_320_205852">
<rect width="1198" height="24" fill="white" transform="translate(-430 0.308594)"/>
</clipPath>
</defs>
</svg>
