<svg width="249" height="293" viewBox="0 0 249 293" fill="none" xmlns="http://www.w3.org/2000/svg">
<g clip-path="url(#clip0_320_198576)">
<path fill-rule="evenodd" clip-rule="evenodd" d="M51.0965 96.4568C48.7393 93.9594 45.7997 98.991 49.2453 99.128C50.1144 97.5404 50.8561 97.7868 51.0965 96.4568ZM69.2257 110.992C70.6139 109.849 71.6789 108.47 72.958 110.61C73.7426 108.635 76.0192 107.755 77.8676 107.089C78.9701 104.252 80.4411 103.13 82.4693 101.871C80.1685 99.1697 81.3269 95.848 81.3917 92.7174C79.3877 92.1681 78.305 90.8337 78.9832 89.0651C76.0335 86.3516 73.0349 87.887 70.8369 84.4049C67.7453 87.2507 63.9404 86.1225 60.63 87.7216C61.1874 88.4972 61.5001 89.3101 60.8134 90.3185C59.9813 91.0802 58.8408 90.1803 58.0838 91.3955C59.3404 92.9356 58.557 94.9963 56.6438 96.3349C58.2414 98.9629 58.5948 101.824 58.1829 104.823C60.9603 104.169 62.042 107.717 62.5016 109.301C65.1714 110.153 66.7728 108.878 69.2421 111.003L69.2257 110.992ZM98.9126 47.4573C102.025 45.003 101.727 40.7452 98.7343 38.4277C96.3292 40.7394 95.7934 44.9184 98.0051 47.3272C98.2614 47.1155 98.5523 47.1346 98.9044 47.4516L98.9126 47.4573ZM132.782 26.4119C131.609 25.4892 131.819 25.063 130.44 24.7885C129.152 26.646 126.708 26.3634 124.856 27.8418C123.074 29.2715 122.324 32.1457 119.808 32.264C120.675 33.7526 120.018 35.4023 118.265 36.6329C120.73 39.0102 118.171 42.2984 121.735 44.4764C121.306 45.0429 121.091 45.5632 121.144 46.0496C122 47.0082 122.417 45.5816 123.273 46.5402C123.997 47.4797 122.92 48.753 124.123 49.5985C126.183 48.0823 128.829 49.7944 131.316 50.6298C133.484 49.1515 136.102 50.1502 138.231 48.4993C137.377 51.8737 137.252 55.1086 140.773 57.6825C149.389 52.9225 137.48 44.0363 144.748 37.6736C142.306 33.7183 141.762 27.9026 135.803 27.0212C135.288 26.0438 136.206 24.8065 134.954 23.9628C134.196 24.6177 133.693 26.678 132.766 26.4005L132.782 26.4119ZM83.2775 175.651C81.5204 177.256 79.6655 178.282 77.9009 179.845C79.9962 181.176 82.6753 177.205 83.2775 175.651ZM200.087 65.6343C201.916 65.5397 203.301 62.4357 201.63 61.2655C199.366 60.828 198.154 64.3679 200.087 65.6343ZM177.116 219.405C175.92 220.692 177.256 221.521 176.268 222.771C174.637 223.965 172.557 222.718 170.639 222.325C169.447 223.519 170.918 224.222 169.454 225.458C168.312 226.139 166.979 225.799 165.721 225.84C164.205 229.327 161.965 228.785 160.008 229.801C160.129 230.749 161.066 231.556 160.52 232.626C156.973 234.9 160.916 238.181 156.995 240.573C160.045 244.318 160.154 248.761 156.882 252.868C158.816 254.379 159.977 251.667 161.741 252.282C165.063 253.72 164.623 255.848 166.492 257.557C169.141 257.738 172.455 258.819 176.137 260.774C177.276 259.008 178.851 259.65 180.331 259.727C181.345 257.789 182.548 256.932 183.983 257.318C186.05 258.215 185.735 259.53 187.196 260.53C187.533 258.428 187.292 256.423 188.665 254.126C190.77 253.407 193.034 253.528 194.606 249.837C193.688 248.933 193.507 247.895 193.757 246.779C194.891 246.056 196.375 247.267 197.386 245.826C197.489 244.255 193.216 243.751 194.532 241.378C195.44 239.927 196.885 241.476 197.723 239.635C196.444 238.214 195.828 237.787 194.049 237.089C194.213 233.954 197.563 235.546 197.831 233.773C196.393 232.776 195.442 234.587 194.004 233.59C192.994 230.64 187.67 229.931 187.475 226.596C187.766 224.595 192.863 220.998 192.602 217.775C189.789 225.766 180.17 226.972 177.119 219.419L177.116 219.405ZM229.026 143.081C232.607 143.093 232.767 139.298 235.925 135.987C233.108 135.434 230.305 140.147 229.026 143.081ZM195.602 219.855C197.664 217.792 199.694 215.548 201.703 213.193C199.446 213.114 196.46 217.529 195.602 219.855ZM169.989 276.808C166.594 276.353 166.394 280.837 168.088 282.413C170.2 284.387 172.644 282.176 174.725 283.545C179.222 280.128 173.569 276.734 172.878 273.359C172.266 273.19 171.69 273.266 171.072 273.105C169.731 274.512 170.027 275.63 169.989 276.808ZM255.148 164.639C257.103 165.873 259.56 162.697 260.166 161.681C258.225 161.2 256.736 163.173 255.148 164.639ZM257.963 183.417C254.611 182.092 251.354 181.367 248.289 181.664C251.651 183.045 254.873 183.575 257.963 183.417ZM148.121 57.8234L146.782 56.8949C144.889 58.3448 145.332 58.2141 145.129 60.7015C143.318 61.2957 143.421 62.6929 141.808 63.3517C142.853 64.9157 143.259 66.5957 141.034 68.7525C142.995 71.8392 142.809 76.4434 146.371 78.8877C148.251 80.1782 151.45 79.5119 152.183 81.9301C142.539 83.4345 139.591 100.785 132.914 106.171C130.909 103.516 129.619 100.725 127.642 98.0647C128.174 96.5958 127.758 94.1056 125.454 94.0779C123.872 99.625 130.083 103.759 128.224 109.357C124.949 109.764 122.972 111.387 119.378 112.132C114.3 108.978 110.274 109.643 106.008 109.303C104.249 109.155 102.662 107.653 101.377 109.561C101.731 110.086 101.826 110.651 101.684 111.258C103.434 112.86 104.745 112.004 106.494 113.606C105.987 118.34 99.5678 122.493 95.1172 125.018C96.9176 126.862 98.2221 126.05 99.9265 127.365C99.281 132.089 95.1876 132.501 94.3379 136.851C91.8949 137.884 89.1011 136.982 86.8524 139.085C83.4183 140.003 79.3907 137.686 76.125 139.572C78.353 141.237 79.3768 140.304 81.5258 140.346C83.9715 140.398 87.6134 141.34 89.8606 141.17C92.7883 140.948 94.7712 139.439 96.5186 140.833C98.9223 142.754 97.0088 145.796 96.8214 148.963C104.629 157.464 94.4577 166.049 86.9337 171.797C92.1819 169.035 97.0157 164.026 102.446 162.266C102.712 166.112 103.229 169.914 105.062 173.483C103.552 175.345 101.577 174.719 100.247 177.569C101.892 179.146 102.81 176.68 104.205 176.844C101.802 182.856 95.8123 181.844 92.8366 188.262C92.3029 188.014 91.8878 188.419 91.3725 188.233C89.994 187.606 90.5916 186.621 89.4996 185.949C87.3648 186.66 84.981 186.711 83.2053 185.042C80.4798 186.657 77.6377 187.669 74.279 185.791C72.8496 187.222 75.4196 187.92 73.7675 189.391C70.3629 188.37 71.0837 191.315 68.2874 193.015C68.5154 193.757 69.3613 194.379 69.261 195.174C65.9385 198.212 68.683 200.151 67.9962 202.704C65.5775 204.386 62.9984 204.193 62.1581 207.564C64.0208 208.721 64.9808 204.861 66.7097 205.28C68.9843 208.67 71.8433 211.953 73.517 215.436C75.359 214.657 77.8816 215.213 79.4591 217.571C82.8014 216.822 86.487 216.261 89.2871 216.961C90.3578 215.89 89.4524 215.177 90.2391 214.165C91.6997 213.62 93.1622 213.125 94.8707 213.908C95.3757 209.44 98.0603 205.934 99.7053 201.928C99.6488 201.062 97.8947 200.503 97.8243 199.639C98.4541 198.555 98.7974 197.515 99.0098 196.506C99.1748 195.355 97.1577 195.685 97.5748 195.013C101.372 190.868 105.694 183.193 111.235 181.728C115.55 183.173 119.647 184.881 121.928 189.139C121.934 190.007 120.135 191.181 119.382 192.813C118.526 193.485 117.328 192.229 116.557 193.325C113.567 199.903 113.661 205.93 117.476 211.275C119.482 212.154 121.515 213.101 123.622 214.537C128.032 215.232 131.843 212.594 136.077 212.279C135.193 210.657 137.158 208.296 138.753 207.697C139.433 202.608 140.001 197.54 136.423 193.223C139.892 188.217 144.863 191.419 148.898 189.495C153.263 193.87 156.576 198.429 160.39 202.898C160.126 199.065 156.666 195.316 152.477 191.476C153.045 189.814 152.876 188.285 153.355 186.646C154.771 186.374 155.998 185.132 157.649 186.155C158.916 186.996 158.025 188.228 159.063 189.118C161.33 184.934 165.289 178.431 171.121 183.13C173.032 181.619 170.579 180.893 171.633 179.53C176.141 177.958 186.135 183.85 188.064 187.949C184.183 188.228 180.426 185.223 178.111 189.458C175.819 193.661 180.937 198.303 186.075 197.946C189.579 195.313 193.87 193.773 191.202 189.126C196.766 187.75 202.784 195.218 202.511 199.932C201.869 201.507 201.278 203.08 202.431 204.33C202.688 204.118 202.979 204.137 203.339 204.46C204.869 203.744 206.018 200.963 207.384 199.343C209.668 199.575 211.823 199.134 214.35 200.703C214.783 202.378 213.755 205.863 215.939 206.257C214.847 204.199 216.869 200.21 219.339 199.209C220.639 199.915 221.885 200.328 223.146 200.861C225.711 199.074 229.2 198.657 230.578 195.123C232.204 194.972 234.229 196.984 235.746 196.234C237.24 194.411 234.455 193.357 236.058 191.499C237.602 191.413 239.729 194.542 240.889 192.377C241.387 190.727 238.582 189.683 238.371 188.162C239.576 184.861 241.493 183.78 243.236 181.143C244.01 181.096 244.885 181.678 245.599 181.297C245.144 180.689 243.532 181.312 243.93 180.14C244.948 178.777 246.367 179.627 247.251 177.49C245.799 176.532 244.335 176.467 243.578 174.944C247.648 168.263 241.903 163.369 240.733 157.63C242.822 153.019 247.099 151.956 248.561 149.197C247.034 149.891 245.712 151.798 244.009 151.481C243.611 150.159 244.443 148.169 242.494 147.962C240.895 150.005 241.788 151.597 241.72 153.362C240.27 153.927 239.134 156.303 237.505 155.88C234.739 154.535 235.179 152.601 234.547 150.861C232.737 149.997 231.184 150.587 229.279 149.194C228.107 148.041 230.289 146.28 228.56 145.228C227.141 144.378 226.33 146.918 225.135 147.307C222.398 146.043 222.559 145.266 220.355 143.496C218.148 145.312 215.87 146.702 212.899 144.266C210.696 146.62 208.394 148.431 205.31 145.929C204.05 145.956 203.082 147.634 201.79 147.444C201.951 146.984 201.133 145.285 200.355 145.951C201.859 148.1 197.697 150.91 196.082 151.397C195.431 152.88 196.999 153.954 195.666 155.561C194.936 155.262 194.332 155.695 193.536 155.07C193.57 151.651 197.419 147.554 197.681 144.086C194.081 141.627 189.371 140.857 187.222 136.338C187.455 136.001 187.224 135.755 187.346 135.439C188.298 135.295 189.145 134.617 189.863 133.229C196.05 133.185 199.695 128.119 205.222 126.06C199.853 125.503 193.752 134.78 186.239 127.749C184.215 129.582 188.06 131.565 185.927 132.484C183.747 129.853 185.257 126.569 184.059 123.768C187.316 114.065 198.314 113.925 200.987 104.328C193.317 95.679 183.675 113.683 176.524 109.64C172.103 107.136 175.983 104.276 176.683 100.844C173.464 99.8176 172.774 105.203 170.179 105.242C167.142 103.357 169.185 100.55 169.181 98.1148C165.551 96.4016 167.124 93.6227 165.82 90.8336C163.506 90.434 161.89 93.8889 159.47 92.8689C158.082 89.2183 154.239 82.6857 160.14 80.4731C159.931 77.4928 162.428 77.2771 164.721 76.7248C164.059 74.5021 165.752 73.7281 167.397 72.1434C166.05 67.9249 167.57 61.0091 161.306 59.5147C160.046 58.4711 160.751 57.0858 159.226 56.0902C155.63 57.2237 151.376 54.6892 148.141 57.8126L148.121 57.8234ZM188.058 163.66C188.444 162.418 190.107 160.457 191.811 161.808C191.768 163.591 189.477 164.351 188.058 163.66ZM187.297 130.489C188.938 129.315 191.055 130.806 192.925 130.934C191.375 132.293 187.824 133.433 187.297 130.489ZM174.438 186.876C174.264 190.515 174.279 195.672 175.59 198.065C175.397 194.305 175.975 190.399 174.438 186.876ZM193.398 217.329C193.276 216.223 197.55 212.883 196.331 210.955C194.908 212.974 192.001 216.799 193.398 217.329Z" fill="#FFB503"/>
</g>
<defs>
<clipPath id="clip0_320_198576">
<rect width="200.92" height="221.91" fill="white" transform="translate(0.0415039 166) rotate(-55.2768)"/>
</clipPath>
</defs>
</svg>
