<svg xmlns="http://www.w3.org/2000/svg" width="776" height="143" fill="none"><path fill="#111214" fill-rule="evenodd" d="M752.697 75.442c-.386-.128-.964-.171-1.852-.071-.057-.072-.057-.114-.096-.171.174 0 .347-.014.501-.029-.192-.028-.385-.057-.559-.085-.424-.74.097-1.167.945-1.807-2.623-.1-2.488-1.608-4.821-1.053-.116-.228-.096-.384-.039-.513 6.172.556 5.034-.611 2.199-.455.983-.384 3.529-.925 1.736-1.636.809 1.337-3.568.47-2.083 1.665a9.407 9.407 0 0 0-1.774.327c.27-.285.81-.398.694-.882-.772.1-1.446.17-2.044.242.212-.655.347-1.352.578-2.021 1.717-.455 2.854-1.096 1.774-1.822-.096.342-.25.655-1.137.57a3.57 3.57 0 0 1 .655-.74c-1.967-.228-.347-2.064.868-2.675-3.394-2.434 8.177-2.733 7.251-5.394-.347.598-4.127 1.637-2.7 1.38.598-.014 1.196-.483 1.504.072-.925.228-1.388.782-3.066.455.868-.996-4.262-4.553-1.35-4.909-.212.028.27.797.405.626 1.08-1.295-.559-2.106 1.774-2.035-.578-.768-.964-.242-1.407-.669.135-.554.462-.981 1.157-1.152 1.523.284.54.84.289 1.522 1.138.214 3.49-.313 2.121-.797-.25.37-.713.584-1.581.527.578-.854 1.716-1.096 1.697-1.423-.926-.114-1.138.285-2.025.2.54-.94.501-.598-.347-1.224-1.446.47-1.446.142-2.565.483.617.157.964.441.868.954-1.041-.883-1.851-1.252-2.989-.143-5.458-3.201-9.797-5.265-17.028-7.484-.251-1.082-1.62-2.946.482-3.6-.386.71 2.005.853 2.95.455-2.217.327-1.118-1.053-1.465-1.68.694.37 2.237.3 2.044 1.096-.694-.014-1.08-.199-1.446-.37-.251.783.925.826 1.87.996.039-.512.482-.754 1.119-.853-.965.91 1.697 1.323.289 1.522-.791-.057-.289-.782-1.408-.669-.405 1.025 3.163 1.452 3.452.47-2.43-.228.964-.142.154-1.195-.964-.143-1.041.355-1.581.526.077-.412-.154-.669-.366-.925.752-.128 2.526.484 2.526-.17-1.504-.612-5.168.227-2.912-.755-1.234-.1-1.601.399-2.565.484.174-.925-1.388-.967-2.854-1.053.096-.711-.733-.925-.251-1.821 1.08.07 4.05-.157 2.604-.783-.714.256-2.334-1.394-2.7-2.248-.058-1.124 3.124.028 3.606-.726.501.996 12.728 2.248 16.565 3.543.155-.44-.019-1.11.656-1.18.868.583-.713.853.289 1.522 2.314-.17 3.337 1.224 4.937.54-1.543.925 1.292.74 2.372 1.025 4.127 1.124 9.392 3.728 11.416 4.497-.617 0-1.195.028-1.079.555 2.372-.57 2.294 1.55 3.702 2.305-1.909.285-1.639 1.124-2.237 1.707-1.176-.654-.54-1.45-.212-2.134-1.08-.285-1.774 1.31-2.526.17 1.33-.697 2.622-.44 3.606-.725-1.311-.94-1.639.512-3.529.128.231-.583-.579-.626-.868-.953 2.43.711 1.215-1.494.579-.57.308.029.578.072.462.328-1.214-.285-4.107-.47-4.609.683 1.794.2 2.816.654 3.819 1.394-1.524.015-1.909.84-4.069.413 0-.398 2.14-.811.655-1.181-2.063.797-4.956-.313-7.848-1.295-.135.555-.463.982-1.157 1.153 0-.185-.02-.356-.463-.328 2.083-.483-.868-.611.694-1.48-2.661-.611-1.774-.1-4.03.1.038-.413.327-.654.617-.882-2.16-.2-3.78-.669-5.361-1.167-.135.356-.039.854-.617.882-.367-.555-2.141-.612-.83-1.252-2.545.085-3.587-.598-5.399-.868-.135.228-.097.598-.579.583-.038 1.01 2.411.911.289 1.523 1.794.655 2.893-.157 3.491.17-.694.37-1.601.527-.116.897-.385-.925 1.177-.483 2.064-.498.578 2.035 5.824 1.864 8.369 1.921-.617.014-1.041.185-1.196.555 3.452.157 5.979 1.75 5.612 2.988.502-.74 2.16-.668 3.144-1.053-.116.527 0 .94.327 1.224-.867-.569-2.352.256-3.104.754 1.446.868 3.297-.085 4.107-.697.174 1.494 2.102.825 2.777 1.65 5.053-.839 3.896 2.676 7.29 5.493.212-1.593.829-3.813-.598-3.059.308-1.181 1.678.427 1.62-.825-.405-.356-.907-.142-2.449-.427.154-1.864-2.102-1.935-3.703-2.291-.347-.854 2.815-.214 1.658-1.124-1.581.797-.482-.527-.327-1.224-.868-.228-2.18.783-2.488-.128 1.176.057 1.543-.441 3.028-.157-.29 1.096 2.024 2.306 2.738 1.95-1.427-.811.598-.157.578-.57-.694-.113-.482-.682-.867-.953 1.195-.028 1.06-.996 2.603-.782.945.284.309 2.803 1.755 1.906-1.041-1.152-.154-2.12-2.623-2.846.965-.526 1.485.484 2.083-.498-2.661-.768-2.391-1.366-3.163-2.575-1.33.27-3.818-.427-3.779-1.694-2.276-.384.192 1.01-1.119.854-1.138-.142-1.041-.853-.347-1.224-1.408-.056-3.047-.426-1.871-.996l-2.487-.128c1.022-.64-2.372-1.764-1.909-.697-.405-1.11-1.042-1.565-1.408-.669-.579-.085-.482-.498-.386-.925-2.738.456-2.777-.967-4.551.385.906-.954.926-1.281 1.273-2.05-2.565.783-1.196-.526-1.871-.996-2.025-1.38-4.107.015-5.438-.569.058-.398.906-.227 1.08-.555-1.851-.07-1.678.37-2.449-.427-.154.228-.097.598-.579.584-1.003-1.765-5.187-1.139-6.807-1.537-.135-.043.598-.57.578-.583-2.777-.555-10.066-.214-9.642-2.89-2.314-.583-4.184-1.408-5.149-2.674 11.108 1.394 13.268.967 19.632 3.088.54-.285 1.08-.555 1.62-.826-.251 1.153.405.128 1.465.37 1.466 1.053 5.361 2.22 8.794 1.637 0 .47-.212 1.038.868.953.559-.54-1.35-1.081.154-1.195 1.196.754.752 2.063 2.276 1.622-.444-.413 1.079-.94.289-2.106-1.697-.555-.444 1.01-1.62.825.019-.526.231-.925.656-1.18-1.524-.428-1.273.412-2.083.497.058-.825.906-.569.154-1.195-2.372-.527-4.281-.555-5.361-1.167-.424 1.067-1.562.313-1.948-.398-.135.555-.462.982-1.157 1.152-.019-.455.328-1.096-.347-1.224.058.627-2.121 1.295-2.102.797 1.986-.626.309-1.821 2.314-2.305-1.157.285 7.714 2.889 8.736 1.665-.366 1.38 2.314 1.921 3.876 1.366-.038.299-.462.342-.578.584 1.157.156 2.005.455 2.912.74.27-.499-.637-.797.115-.897 1.428 1.096 3.896 1.594 5.863 1.195a179.934 179.934 0 0 1-8.138-2.817c-.116.355-.251.697-1.08.555.251-1.252-.154-.74-.964-.356-.309-.37-4.551-2.263-4.359-1.124-2.545-.769-2.622-1.437-5.843-1.195 1.62-.826-1.89-.456-1.832-1.295-.983 1.55-2.217-1.523-3.529.128.039-.413.328-.655.617-.883-1.002-.042-1.986-.1-2.989-.142-1.157.384.521.769-.617.868-1.022-.128.058-1.337-1.33-1.28-.772.654 1.137 1.195-.174 1.195-1.639-.356-.174-.57-.289-1.523-2.7.185-7.695-1.58-10.337-1.423.83.043.386-.825 1.119-.854 4.416.982 10.568 1.423 16.199 2.619.115-.356.019-.854.617-.883.096.413.636.612.328 1.224.906-.128 2.873.498 3.027-.156-1.465-.27.56-.626.155-1.21-9.97-2.305-20.326-3.742-31.434-4.866 0 0 .096-.598.077-.598-4.127-.299-5.824-.598-8.89-1.039-6.248-.91-13.036-1.437-19.766-2.177-7.676-.84-14.946-2.818-21.58-3.486-.038 0 .135-.598.077-.598-5.052-.84-10.78-1.338-15.35-1.366-.675-.213.077-1.153-.829-1.252-.521 1.095-1.485-.2-2.565.484-5.457-2.918-426.532-.427-431.527-2.49-.964-.143-1.041.355-1.581.526.019-.384-.579-.441-.367-.925-2.102-.1-3.529.341-4.435-.527.135.997-3.49.997-3.606.726 0-.313 2.237-.498.617-.868-1.254.299-2.893.057-4.995-.242-.52.783-4.184.555-6.171 1.21.058-.399.116-.811.174-1.196-.694-.028-1.08-.199-1.466-.37.212 1.01-1.099.427-1.543.228-.077.413.155.669.386.925-1.928.47-4.262-.398-.887-.953-2.333.057-2.95-.555-4.493-.228.038-.413.328-.655.617-.882-1.851-.1-1.446 1.394-3.645 1.024 1.157-.882-.463-.526-1.003-.042.714-.868.714-1.238-.79-1.551-.27 1.166.52 1.793 1.716 2.205-1.446.598-10.201.484-10.452-.512-9.122.555-17.202-.455-26.13.526.539.2 2.506 1.082 1.253 1.879-.656-1.139-4.32-.313-6.923-.64 1.427-.37-.193-1.523-.906-.655 2.314.313-1.64 1.266-2.565.484.077.597-.752.555-1.119.853 4.339.328 8.948.285 14.329 1.608-1.755 1.025-4.648-.483-7.136.854-.829-.042-.154-.854-.868-.953-.559 1.252-3.606.74-5.65.939-1.157-.455.694-1.096-.347-1.224-.868.484-2.333.54-4.069.399-.386 1.18 3.433.754 3.491.17.057.627.887.854 1.33 1.267-8.832.057-14.367 1.58-21.367 2.277.791-1.722-6.518.626-7.424-.67-1.177.57-4.378 1.794-5.111.655-1.735 1.139-3.201.484-4.262 1.907-.867-.81-2.584.555-4.531.085-.232.584.597.627.867.954-2.584-.17-1.35.57-4.03.1-3.568 2.675-16.97 3.472-17.414 6.403-6.075 1.395-11.185 3.472-15.832 5.877 2.93-1.124 7.096-.37 7.27-1.765.752.114 2.237 1.238.79 1.551-.019-.355.213-.853-.366-.925-2.758 2.021-6.788 4.027-12.805 5.72-.135-.526.849-.74.116-.896-.52.541-2.584 1.637-3.143 1.053 1.195-1.992 8.369-2.931 7.135-4.482-4.07 3.03-12.15 4.98-14.618 8.054 1.967-1.708 5.863-1.551 5.92-3.03 1.177.696.54.127 2.411.725-.308 1.224-4.262 1.565-2.893 2.889.907-1.665 3.298-1.153 5.342-2.462.752 2.718-5.63 4.041-8.427 2.917-.27 1.793-5.65 1.693-4.474 3.415 1.041-.584 1.562-1.523 3.683-1.338.868.584-.713.854.29 1.523-1.91.398-3.568.982-4.764 1.878 2.739-.498 4.764-1.508 6.711-2.561 2.739.242 9.045.313 9.797.142-.752-.057-1.91 0-1.948-.242h-7.675c2.198-1.18 4.358-2.405 7.405-2.988.096-.526 0-.94-.347-1.224 1.543.94 2.43-.711 4.108-.711.5-.91-1.293-.64-.791-1.551 1.022.64 1.928-.214 2.892.412 8.023-2.945 16.604-4.838 23.238-8.21 1.948.754 5.708-1.551 7.637-.84.501-.597-.174-1.892-.887-.953 1.273.313-1.659.313-1.62.825.173-1.195-2.469-.512-.502-.028-2.14-.783-2.603.697-4.474-.214-2.063.996-7.675 2.363-8.138.811 5.747-.028 10.26-3.642 17.55-3.67.713-.157.23-1.153 1.156-1.153 1.64.626.405 1.095 1.794 1.593-.193-1.195 1.755.071 2.487.128.135-.555.463-.982 1.157-1.152.888.74-.173.327-.617.882 1.89.384 2.199-1.067 1.697-1.423-2.854.285-2.545-.37-3.143 1.053-.81-.797-2.584-1.096-2.7-2.248 1.813-.513-.058.128.945.355 5.959-1.608 13.268-3.059 18.417-2.717.482-1.736 5.534-1.253 5.342-2.462.443-.114 4.898.569 4.069-.399 5.303-.156 11.628-.114 17.741.029.386-.157 1.177-.029 1.89.042l-1.89-.042c-.116.042-.212.114-.231.227 4.107.555 7.675 1.04 10.452.513.038.569-.636.64-.656 1.18 2.526.584 1.562-1.308 3.201-1.351.213.455-.79 1.523.29 1.523 1.793-1.01 5.476-.313 8.543-.185-.482.868-1.427 1.408-2.739 1.679-4.744-2.007-5.862.498-12.4-.911.637-.413.675-.726.155-1.195-.945-.399-5.188.142-5.072.355 2.14.555 3.625-.028 4.493.214.27 1.423-4.377.896-4.532.085-1.986 1.153-2.294.47-5.554.328.135 1.835 3.78.355 4.86 1.138-1.099.996-4.782.057-6.672 1.181 2.43.427 5.92-.84 6.942.64-.386 0-.868.029-1.408.057h-3.239s-.058.071-.078.114c-1.774.014-3.374-.1-3.741-.598.598-.014 1.408.129 1.524-.227-.598-.1-.251-.356.077-.598-1.254-.014-1.485-.54-2.411-.726-.617.826-.829.712-1.157 1.153-2.14-1.053-7.463-.583-10.047.114 1.215-.327-1.871 1.195-2.025.2-2.738 1.963-9.333 1.707-14.926 2.888-2.14 1.451-6.422 1.366-9.334 2.262.791.071 1.736.043 1.408.67-2.487-.485-5.554 1.265-8.716 1.394-.27.498.636.796-.116.896-3.53.1-7.309 1.31-10.452 3.116.887.328 1.793-.825 1.986.1-.482.64-2.391.27-2.661 1.081 3.201-.754 4.898-.554 6.807-2.077.752.91 2.623-.925 3.49.17-.019.2-.057.4-.076.598-3.607-1.195-4.243 1.708-6.673 1.181-1.562 1.181-6.094 2.163-8.793 1.992.385 1.182-7.116 1.01-7.425 2.96.694-.113 1.1-.44 1.678-.626.443 0 .906-.014 1.33-.028-1.272 1.465-5.862 1.608-5.823 2.931-1.427-.327-4.204.868-4.802 2.177 1.253-.156 5.9-.299 4.261-1.907.984.057.521.854 1.91.698 1.986-1.224 4.956-1.75 7.848-2.334-1.06.214-1.754-1.081-.867-.953 1.002.156 2.198-.128 3.548-.57 4.956.128 9.237.342 15.91-.256-5.38-.555-8.698.1-14.502-.242 1.35-.498 2.834-1.067 4.416-1.494.135.441.52.541-.116.897.887.284.964 0 1.003-.3.366.072.52.186.501.343-.058 0-.077.014 0 .042v.057c.675 0 1.234 0 1.774-.028.521.042.907.085.714.1.733-.058 1.543-.2 2.391-.37.83-.086 1.717-.171 2.854-.186.155.285-.154.683.965.726 1.6-.427 4.339-.299 7.424-.256-4.995.484-10.24 1.039-13.846 1.58-3.028.469-6.017 1.422-7.425 1.152.155.156.212.341.174.598-3.317-.1-2.623.597-5.612.626.617.996 2.199.967-.193 1.494 4.011.057 2.334-.584 7.136-.854-.791-1.693 3.76-.327 1.697-1.423 8.562-.54 18.493-3.5 26.843-2.006a36.85 36.85 0 0 1 1.62-.826c-.077.484.155.598.54.584-.115.114.058.199.984.256.328-.441 3.297.028 5.534.057-.25.185-.27.412.251.654.656-.398 1.986-.583 2.526-.17.444-.64-.308-.868-1.157-.854-1.735-.185-5.129-.17-4.107-.626.077.142.154.284.405.341 1.677-.925 3.741-.384 5.708.114h-.463c-.868.726 5.458.612 7.27.356.733.057 1.427.057 1.967-.071-.559-.086-.732-.37-.906-.64 1.061-.37 3.606-.755 1.485.07 3.085-.825 6.036-.526 9.044-.782.54.057 1.042.156 1.447.356.115-.1.27-.2.424-.285.848.626 3.548.91 4.975.612.386.071.579.17.405.384-4.512.683-10.664-.427-13.518.484 29.486.114 51.123.484 74.65.754 1.041.1 2.063.2 3.047.313.038 0 .038.085.077.2-7.29.355-14.348.554-20.731.412 2.372 0 8.08-.37 5.805-.712-1.832.27-4.416.114-7.733.484-.56.783.289 1.21 1.928 1.438-5.554-.712-2.7-.242-5.805.483-3.529-.654-11.589.441-15.466-.483 5.13-.498 8.138-.37 12.574-.726-4.069.043 0-.37 0-.712-4.224 0-7.54-.213-10.645-.483-1.273 1.038 4.609.298 3.857 1.195-4.397.043-3.78.199-7.733 0 .405 1.11-3.645.37-3.857 1.679 3.567.91 9.353.299 12.573-.242-1.909.441-.559 1.153 2.893.953 1.658-1.067 4.455-.37 7.733-.953v.953c6.152 0 15.119-.426 10.626.954h3.876c4.705-1.409 22.64.199 29.003-2.149-.173.598 1.485.754 2.893.954 2.295-1.324 16.16-.484 20.307 0-4.012.028-.193.156 0 .483-1.119.2-2.604.313-4.841.242-.385-.412 1.447-.612 0-.725-5.303 1.351-13.769.768-18.359-.242-.732.81 3.915.298 2.893 1.195-3.317.17-12.708-.043-16.43.711 3.278.612 9.063-.54 12.573.242-5.014 1.509-10.568-.54-16.43.484-9.449-1.337-24.241-.285-30.952-.953-3.008 1.024-6.614-.385-8.716 0 1.176.057.598.27 0 .483 5.438.285 9.719.812 16.43.484.058.313 1.234.328.964.726-3.181.384-6.845-.84-6.768.242 4.454-.213 12.882 1.01 19.342 0-1.234-.413-5.785 0-5.805-.726 10.549-.427 26.478.626 40.613.242 3.896 2.263-21.116-.327-27.075.954 9.893.796 23.411-.584 30.932.953 12.034-.413 27.172-.427 35.792.726-8.35.355-13.981 1.366-20.307.483-4.724 1.338-9.507.3-14.501.712 6.826.071-.155 1.067-1.929 1.195 5.728.114 11.494-.27 12.574.484-8.659.74-14.888 1.537-26.111 1.195-.444-.668 5.264.185 4.84-.483-9.488.654-18.648-.242-29.023.725 3.625.698-7.945.342-6.653.968-.309 0-.54 0-.694.014.385.043.713.071 1.041.1.135.028.289.07.482.114.077-.029.154-.029.251-.043 3.104.213 4.724-.057 6.711.726a4.886 4.886 0 0 0-.656.242c-4.86.384-9.469-.797-13.48-.2.27.143.521.228.791.285-2.546.156-3.433-.897-4.243-.285 1.639.1-.212.313 0 .712 2.642-.328 3.491.185 4.609-.356 1.292.2 2.314-.228 2.257.413 2.063-.399 4.435-.555 5.438.569-.27 0-.598.213-.039.299 1.042-1.053 2.372-1.053 3.799-.868-.617.555-.887 1.124-2.507 1.38-3.471.085-6.286.057-9.025.228-1.292-.043-2.623-.214-3.799-.698 1.273.242 1.813-.028 1.62-.825-2.507.356-2.102.327-4.146 1.01.135-.355.983-.64.135-.91-.347.427-.887.697-1.62.825-5.728-.228-2.989.342.347.612-2.14.071-4.512.27-4.782.484 2.603.597 10.722.455 13.518-.242 4.609-.043 8.157.213 12.573.242 2.392.014 5.998-.256 9.199-.157.077.328-.347.712-1.041.84 1.465-.071 2.044-.142 1.812-.797 1.794.1 3.414.327 4.532.84-18.05-.029-37.315 1.351-58.007 1.679 1.08-.342 1.041-.584-.984-.712-3.355.811-7.251.128-9.661.954 1.735-.029 2.256.241 1.928.711 5.554-.242 7.753-.84 16.431-.712-1.08.342-1.061.584.964.712 16.719-.185 38.896-.811 51.258-.242-8.775.754-21.907.413-29.023.953 1.677 0 2.487.185 2.892.484-4.127.527-13.171-.654-16.43.726.154 0 .309 0 .463.029-.868 0-1.678.028-2.411.042 1.389.996 1.987.54 3.587 1.324-.386 0-.54.1-.656.227-.559.057-1.137.114-1.735.157-1.35-.242-1.446-.356-3.278-.527.038-.014.115-.028.154-.042h-.598s-.019 0-.039.014c-4.281.1-9.005-.086-11.917.47-.212.042-.328.07-.444.099-.598.142 0 .114 0 0 0-.085-.289-.2-1.485-.342a32.782 32.782 0 0 0-2.102-.142c0-.085 0-.17.039-.27 1.253.925 5.496-.327 7.386-.086-3.549-1.138-8.35.598-10.992-.939 2.372.029 8.138.242 6.228-1.024.116 1.081-2.236-.171-3.721.498.019-.3.52-.342.655-.584-3.105.057-7.135-.327-9.873.598-.714-.071-.637-.498-.54-.925-2.874.029-2.044.114-4.918.157.154 1.01-1.06 1.28-2.179 1.593a.694.694 0 0 1-.443-.142c0-.156-.001-.327-.039-.427.328-.54.231-1.394 1.543-1.238-.116.356-.984.64-.116.897-.077-.527 1.601-1.423.251-1.793-.232 1.238-.328.042-1.003-.043.521 1.423-2.989-.441-1.581.526.54.442.405.868.25 1.295-.289 0-.655.086-1.06.214-.078-.043-.193-.057-.386-.057-.039.1-.116.17-.193.242-.251.085-.521.185-.791.284a4.881 4.881 0 0 1-1.099-.028c0 .128-.038.256-.058.384-.212.057-.443.128-.655.157-1.967.355-4.089.498-5.998.64-.848-.128-1.041-.57-.81-1.252-1.504-.1-.366 1.636-2.025.199-.115.356-.038.854-.617.882l.116-.896c-1.196.128-2.372.284-2.661 1.081 1.755.484 3.529-.47 4.339.128-1.119.1-2.121.214-2.893.413-.983.256-2.873-.029-4.898-.142-.463.313-1.601.654-3.008.939-1.447-.142-4.764-.142-6.519-.086 1.543-.37 3.317-.967 5.805-.668-.154-.313-.077-.541.116-.726 3.162.1 6.556.626 6.171-.797-.135.228-.097.598-.579.584.174-1.594-.231-.37-1.003-.057-1.523-.257-1.022-.157-1.137-.555.713-.1 1.157-.2.887-.413-.367.028-.695.071-1.042.114a.382.382 0 0 0-.077-.114c-.038.057-.077.085-.115.128-.386.029-.753.085-1.158.114-.347-.228-.732-.57-1.195-.669-.174.256-.289.57-.444.84-.752.085-1.523.142-2.256.227-.328-.483-.309-1.138-.868-.64.116.256.289.47.463.683-.482.057-.926.128-1.408.2-.424-.186-1.003-.157-.096-.627-1.581.484-1.427.17-3.066.455.154-1.095-4.86-1.366-6.133.911-1.292-.598 1.851-1.722.328-2.405-1.157.157.174 2.092-1.736 1.722.174-.17 1.389-1.096.174-1.195-.309.128-.984.128-1.234.256-.79 0-1.37.128-1.87.285 0-.029 0-.057.018-.086-1.08.157-1.986.413-2.911.669-.579-.157-1.293-.057-2.045.128-.135-.242-.366-.484-1.002-.754.578-.114 1.195-.2 1.832-.114-.868-.014-1.35-.2-1.62-.47.058-.07.096-.142.154-.213 2.102-.2 1.64.74 3.298.74.597-.669-.598-.555-1.08-.74.135 0 .27.028.443 0-.27-.142-.443-.27-.559-.399.02-.042.02-.07.058-.113h-.116c-.463-.769 1.562-1.295.926-1.893-1.196.256-1.543 1.096-2.7 1.38.135-.355.983-.64.135-.896-3.953.384-5.805.57-8.427-.712 3.722-1.565 14.906.086 11.744-1.536 2.063-.157 2.314-.256 2.893.754 1.292-2.135 4.416-.285 6.633-.882.02.455-.327 1.095.348 1.223.038-.853 3.027.399 3.066-.455-1.292.413-1.331-1.096-.386-.925-.424.712 1.986.797 1.041-.256 3.298-1.167 5.304.156 8.1-.512 0 .398-1.832 1.038-.656 1.18.81-.412 1.061-1.223 2.199-1.408 2.063.84 3.047.043 5.515-.029-.077.413.154.67.386.925-.598.015-1.408-.128-1.543.228.752.114 0 .498-.579.57-.154-1.14-2.429.184-2.873-1.054-1.176.57.309.996-.694 1.48 4.589-.128 7.193.256 11.069-.37-.386-.085-.54-.284-.405-.626-1.793.071-2.526-.384-2.873-1.053.327-.413.867-.697 1.62-.825.636.74 1.157.725-.155 1.21 3.144-.67 7.29-1.14 12.072-.314.617-.825.829-.711 1.157-1.152.386.555 1.678.64 2.372 1.024.791-1.238-1.542-.882-1.793-1.594 0-.654.54-.939 1.62-.825.058.598-.752.555-1.119.854 1.215-.527 3.144.74 4.532-.085-1.736-.584-2.102-1.438-3.818-1.395.752-1.31 7.135-1.153 7.501.071-1.002.598-4.454-.54-4.609.683 2.893-.227 4.687.256 8.543-.185.868.57-.81.897.83 1.252 1.041-.512.501-1.195-.29-1.522 1.717-.043 2.835.227 2.334 1.323l3.49.171c.251-.697 1.138-1.195.251-1.807-2.353.555-4.127.057-6.441-.612 4.416.313 8.62-.086 13.769.896-.096.157.154.242.559.27-.173.214-.598.3 0 .442.155-.356.579-.157 1.003.057.116-.228.27-.37.463-.47 1.446-.028 3.105-.114 3.028.228-.078.327-6.943.142-3.857.484 2.198-.185 4.705-.242 7.173-.285 1.003 0 1.562.043 2.662.498 0-.2.945-.356 1.137-.54.656 0 1.312-.015 1.948-.029-.154 1.053 2.083.583 2.97.27-1.35-.27-1.35-.185-2.083-.284 3.028-.086 5.477-.27 6.499-.811-2.526.37-11.166.298-8.697-.484-3.144.142-4.648.27-7.193.37-.097-1.139 1.928.54 2.68-.427-.308-.029-.578-.071-.463-.327 0-.1 0-.185-.077-.242 5.381-.057 10.53-.1 14.695-.57-2.16-.654-2.488-1.053-2.893-1.679-1.909.797-4.57.029-5.804.47 1.08.057 1.504.27 1.928.484-3.683-.071-7.463.284-3.857.711-5.496-.626-10.317-.028-14.097.57-11.879-.185-26.516-1.025-37.006.056-5.863-.398-17.048-.796-22.158.726.887-1.28-4.281-.953-5.477-.27 1.234-1.352-2.43.1-3.529.128.077-.413-.154-.669-.366-.925-1.697-.327-1.987.356-3.53.128-.867 1.096 1.293.64.791 1.551-1.484-.47-1.427 0-3.49-.17.848-.413.54-1.21-.29-1.523.637 1.223-2.16 0-2.12.797 1.099.384-1.235 1.081-1.698 1.422-.848-.64-1.735-.555-.79-1.55-1.967-.057-2.72-.342-4.532.085 1.003.626 3.047.498 3.394.768-1.041.029-.29 1.324-1.659 1.124.232-.683.039-1.138-.829-1.252-.386 1.025-1.697.882-3.066.456-.077.825-.906.569-.174 1.195-2.352.27-3.336 1.58-5.553.327-.116.356-.02.854-.618.882.695-1.38-3.74-.128-3.856-1.095.135-.356.038-.854.617-.883.752 1.082 4.165-.611 4.898.854 1.658.086 1.832-.896 3.606-.726-.752-1.28 1.196-.44 2.237-1.707 0 .313.617.27.54-.27-2.025-.257-6.171-.214-9.931-.797-1.697 1.665-3.76.654-6.23 1.508-1.35-1.039-3.47-.142-4.898-.84-.135 1.21-3.606.072-4.59.683 0-.384-.578-.44-.385-.924-3.008.227-5.38 1.038-7.502-.072-.366.726-1.87.328-3.143 1.053-4.165-.896-8.35-.256-9.623.74.039-.412.328-.654.617-.882-9.333.768-15.234-.341-24.722 1.21-1.813-.954-4.281-.627-6.017 0 .27-.1 1.041.555.926.64.192-.142-3.549.2-1.659 1.124 2.68-.1 4.3.655 4.898.84-1.215.512-2.372.042-4.05.398.598.157.965.441.868.954-1.735-.143-2.237.597-3.143 1.053 1.485.683 2.295.227 4.32 1.422-2.41-.611-1.736.968-3.606.74 0-.341.79-.44.077-.597-.058.185-.135.356-.54.27 0 .342-.79.427-.077.598 1.06-.143 4.609-.157 6.44.626-1.696.555-5.573-.455-6.595.583 1.273.413 3.009-.426 2.99.157-1.177.854.366 2.163-1.852 2.632 0-.37-.058-.725-.906-.654.096.953-1.447.725-1.697 1.437 3.78 2.405 12.11 2.106 21.425 1.964-2.527.74-5.246 1.394-9.025 1.465-.097.114-.251.171-.367.257-.964-.057-1.716 0-2.044.426-1.523-.412-1.273.413-2.083.498.656-1.664-5.592-1.337-5.014.057 1.408.114 1.292-.853 2.623-.782-.56.384-.945.868-1.658 1.124-.926-.085-1.64-.285-1.91-.697.598.113 1.832-.783.618-.883-1.659 1.466-3.664 2.661-4.648 4.61.058.627 1.273.655 1.33 1.282 1.948-.257 4.86.128 7.502.426-.154.883-.81 1.75-1.851 2.49-.116-.241.039-.597-.56-.626-1.195.499.656.897-.732 1.48 1.466-.128 2.893-.37 3.008.698-1.022.384-2.449.54-3.162 1.11 2.757-.029 1.716 2.063-.097 1.21-.733 1.095 2.025.654 2.353 1.28-.733 1.451-3.24.071-3.838 1.693 1.948.427.54-.968 2.507-.526-1.562.91.907.597 1.157.939-2.198.455 1.485.654 1.119 1.238-.25 1.266-.79 1.508-.193 2.405-.617-.015-.713-.27-1.196-.328.213 1.139 1.215 2.676-1.986 1.75 1.157 1.04 1.851 1.722 3.568 1.31.289.754.54 1.21 2.314 1.878 0-.512.54-.768 1.292-.868.154.413.83.598.52 1.224-1.118-1.01-3.78 1.11-2.43-.37-2.14.412-3.335 1.337-4.493 2.277 3.78.398 1.485 1.95 2.18 3.386 2.295.1 1.716.385 3.683.114-.02.299-.54.342-.675.584 2.507-.314 1.562-.555 3.683.113 2.102-.555-1.388-1.067.097-1.21.771.143 1.215.428 1.157.94 2.063-.128 3.953-.37 4.994-1.053-.019 1.252.405.071 1.235.043 2.102.341-.675 1.195 2.989.996.231-.584-.79-.626-1.157-.94 2.179.684 2.777-.042 4.339-.469-.135.754-1.254.91.52 1.224.135-.356-.038-.854.695-.882.077.355-.174.853.54.925.636-.385 1.08-.883 1.947-1.153 1.389.882 3.741-.37 5.496.47 1.389-.385-.713-.755.694-.883 1.119.598 1.543.071 3.067.086-.116.355-1.138.64-.077.896-.135-.697 1.793-.285 1.909-.854-.714-.156-1.37-.355-1.794-.654a49.76 49.76 0 0 0 2.623.17c-.771.612-1.581 1.182-2.314 1.822-.617.91 1.909.64 1.292 1.551-1.35-.071-.405-1.01-2.063-.968 1.08 1.395 1.022 1.608 1.157 3.046-5.439-.584 1.292-.911-1.948-2.163-1.524.455-1.157 3.258-3.009 1.707.637.584-2.217.94-.096 1.21.887-.527.81.825 2.16-.228-.193.555.752.683.617 1.224-2.063-1.082-2.99 1.209-1.581 1.764-1.562.797-2.662-.128-3.626.797.83.071 2.025 0 2.102.37-.713-.014-1.427-.043-2.14-.071.347.455-.965 1.537.578 1.523.155-.442-.154-1.125.81-1.182-1.388 1.409 1.89 1.025 2.72 1.594.038.754-1.601.712-2.585.982.56-.384.56-1.537-.29-.768-.443.612-.365 1.223-.52 1.793-.887.028-1.562.099-1.813.256.444.085 1.023.128 1.62.156-.115.185-.308.356-.559.527-1.311.057-2.526.128-3.51.256 3.722.228-2.622.384-2.41.697 1.851-.043 3.22-.185 5.014-.242.752.598 1.504 1.196 2.449 1.708-3.24-1.167-.656 2.732-2.97 1.423-.56 1.181 1.774 1.266 1.215 2.447-2.237-.085-.386 1.125-2.97 1.423 1.292.328 2.45-.825 2.854.086.155.811-3.953-.413-2.931.811.328.327 3.51-.1 1.35.939 2.276.441.617-.953 2.893-.512-.078.797-.135 1.608-.212 2.405-2.392-.94-.174 1.892-2.874.213-.887.911 1.06.768 1.33 1.252-2.564-.142-4.358 1.608-3.837 3.202.135-.769.27-1.537 2.256-1.437 0 1.167-3.008 2.533-2.39 2.945.057-.185.134-.355.732-.284-.02.298-.598.341-.771.583 1.812.029 3.664.057 3.625-.797-1.215-.156-1.851.384-2.14-.071 1.021-.043 1.234-.455 2.179-.541 0 1.537 5.689-.683 3.644-1.095-.173.227-.058.597-.752.583.25-.583-.906-.626-1.35-.939 4.3.626 10.298-4.539 8.254-4.867.56-.057.849-.227.771-.583 4.822-.029 4.34-3.259 8.91-4.255 6.537 1.281 11.223-1.693 17.009-.683h-.251s.077.071.096.114c-1.504.057-3.008.128-4.493.242 2.873.427 4.493.598 5.67.711.501.171 1.099.399 1.138.811-3.607.129-1.987.883-5.11 1.352 2.853-.071 3.085.385 4.145 1.637l-2.854-.086c.482 1.053-.906 1.253-1.562 1.765 6.017.825 1.003 2.775 1.852 3.372-.714-.028-1.428-.042-2.122-.071 1.273 1.437-.713.399-1.504.854 2.16.37-.405 1.01-.81 1.181.964.897 3.51 1.195 4.088 2.234-2.507-.242-1.832 1.01-4.339.769-.058.597-.096 1.195-.154 1.807-.424-.1-2.68-.84-2.835-.086 3.337.057-.462 1.21 1.292 1.551-1.812-.028-3.664-.057-3.625.797 2.198.413 1.755-.412 2.892-.512-.289.697-1.504 1.209-.154 1.807-1.003-.099-1.157-.526-2.083-.669-.327 2.362 8.987 1.068 11.205 2.462-1.659.085-2.025 1.267-3.606.498-.174.74 1.04.968 1.292 1.551-2.006-.541-2.642.142-4.3.171 1.831.726 3.663-.342 4.955.455-1.427.996-5.9.555-7.25 1.594 3.258.427 1.002.797-.136 1.508 1.987.47 7.058 2.021 8.486.868-.888-.768-2.681.242-2.816-.384 1.196-.583 3.915-.697 3.51.712 4.435.868 11.204-.555 14.212.441 1.775-.356-.675-1.139.81-1.181.579.455.984.982 2.777.996 1.678-1.067.926-.399 2.893-.512-1.176.185-1.022-1.452.096-1.196.135.228.56.37 1.389.342.077.455-.347 1.11.598 1.224.559-.897 1.504.327 2.834.085 1.235-1.153-3.046-.199-2.757-.996 3.22-1.793 6.229 2.59 9.931.612-1.562 0-2.237-.313-2.063-.968 1.253.199 5.457 1.75 4.185 1.039-.02-.569-2.334-.285-2.045-.968 2.237-.071 2.739.512 4.224.74.135-.356-.058-.868.79-.882-.694 1.85 11.243-.996 11.32.953.656-.427.656-1.152 2.912-.811-3.972 1.395 7.058.413 11.32.954-2.102-1.58-7.424-.996-6.19-2.604-.482.611-1.446.981-2.951 1.109.463-.725 2.797-.554 2.276-1.736-1.234-.014-2.199-.142-2.816-.384-.964.939 2.276.299 1.312 1.252-3.857-.924-.714 1.167-2.257 1.438-.829-.171-1.6-.37-2.082-.669-.868-.769 2.198-1.181.135-1.508-1.157 1.152-1.119.028-2.102-.37-1.774 1.138 1.253.967 1.234 2.148-1.466-.227-2.237-.711-3.471-1.01-.405 1.636-3.722.057-5.111 1.352-.115-.569.849-.641.81-1.181-2.275-.242-3.587-.015-4.319.469-.29-1.309 4.339-1.722 5.091-1.337-.135-1.992-10.645.555-11.937-1.893 2.68.014 6.402.512 7.154-.384-.173.654.502.968 2.064.968 2.198-.627.52-1.267.212-2.405 3.779-.171 6.016-.242 8.581-.342 0 1.11 1.234.911 2.102.37.077.356-.193.854.637.925 1.716-.555 6.73.726 4.975.157-1.581-.185-2.488-.612-2.738-1.295 18.223.91 46.128.498 65.432 1.736.501-2.434-6.673-1.494-7.656-2.049 6.171-.669 13.479-.271 19.94.313.135-.356-.058-.854.79-.883-.212 1.267.309.74 1.408.342.232.583 2.739.327 2.025 1.266-1.601-.128-2.681 0-2.893.513 4.224-.171 1.022.654 3.472 1.01.327-.37.964-.583 2.179-.541-.02.299-.598.342-.772.584 1.736-.911 4.937.868 6.499-1.011-1.33 1.139-8.119-2.305-4.281.171-1.022-.199-3.703.242-3.529-.413 2.546-.483-3.375-1.906.887-2.077-1.35.484.096.939 1.331 1.252-1.89-2.163 12.052-.697 8.736-2.149 1.677-.199 416.812.968 417.372.228-2.045-.228 1.118-.441.79-.882-3.799.043-423.62-.214-426.667.085-.733-.725.231-.797-1.292-1.551 1.254.598 3.973.285 5.014-.142-3.838-.071-8.504-.484-7.714-1.452-3.432.627-5.072.427-8.62.641.019-.299.058-.598.077-.897 7.849-.185 15.524.242 20.596.94.308-.527 247.978-1.125 362.913-.826-.019.043-.039.1.019.157 2.237-.228 4.031.697 4.821 0a10.133 10.133 0 0 1-.25-.143c32.436.086 53.167.257 52.742.527.695.057 1.158-.029 1.485-.171 3.202.057 6.634.057 9.99 0 .328 1.039 6.055.598 6.364-.142 1.369-.043 2.68-.085 3.876-.142-1.1.241-2.141.583-3.202 1.01 3.607-.142 3.973.043 7.811.242-1.427-1.679 5.843-.37 8.697-1.537-2.681-.185-4.898-.285-6.827-.285-.752-.512.058-1.095 1.273-1.622a8.72 8.72 0 0 1 2.796.911c1.022-.655-1.735-1.195.097-1.21.732.185 3.182.484 4.898 1.053.694-1.423-2.623-1.337-4.108-1.935-1.735 1.025-4.898.199-7.096.171 1.041-.342 1.812-.74 4.821-.697.752-1.153-2.411-1.551-4.821-2.092 1.774 0 6.055-.641 2.41-.925-1.465.057-4.821.882-4.84.469.501-.298 1.562-.483 3.625-.469a14.965 14.965 0 0 1-1.542-.484c.154-.37.674-.569 1.446-.669.077 1.437 8.716 2.064 9.874 1.21-1.196.185-3.047-.697-1.37-.655 1.504.84 5.651-.327 8.505.569-4.667-1.835-12.863-.654-20.249-1.536a1.921 1.921 0 0 1-.405-.712c1.408.114 2.989 0 3.741-.085-1.639-.256-2.757-.271-3.857-.427-.192-.996-.405-2.021-4.589-3.031 1.06-2.021 12.747-1.665 26.574-1.395 2.68-.341-1.524-.569 1.195-.697 5.188-.114 1.543.626 3.626.697.077-.142.173-.27 1.195-.242 3.664-.227 1.543-.384 0-.697 3.587.313 5.959.214 7.232-.469-2.623.042-3.838-.185-3.625-.698 4.435-.17-.213-.754 4.821-.925-1.427-.042-3.433.043-3.626-.227 1.717-.086 2.044-.285 3.626 0 .328-.697-.386-1.153-.27-1.608.482-.057.79-.199.925-.669h.02c-.135.712 1.272.74 2.391.896.154-.227.058-.583.656-.583.096.47 1.002.071 1.234-.27-1.196.028-2.295-.157-3.317-.37.231-.057.482-.128.752-.185-.868 0-1.601-.057-2.218-.128a15.435 15.435 0 0 0-1.543-.271c-2.487-.64-2.564-1.921-5.264-2.675 2.757.199 5.515.356 8.157.427-.347-.854 1.215-1.01 3.028-1.053-1.119.299-3.375.854-.463 1.181 2.275-.071 2.603-.854 3.953-1.252 2.526-.199 1.659 1.366 3.24.64-2.295-.754 3.51-2.547 4.05-1.494.096-.27.077-.484 0-.669.559.1 1.176.228 1.755.484.385-.156.443-.341.405-.484.578.057 1.137.1 1.716.157.54 1.01 1.311-.185 2.719 1.081-.386-.455.501-.612 1.176-.725l.54.042c-.578.328-.752.783.097 1.039.193-.527 1.272-.541 1.755-.896 4.184.298 8.273.398 12.342-.1-2.565-.897-8.119-.171-12.15-.356v-.099c-.308-.043-.617-.015-.925.028-1.427-.128-2.565-.413-3.201-.996-.83.1-2.102.299-3.491.341-.559-.967 1.601.328 1.601-.768-1.832.1-2.97-.341-3.857-.299.463-.242.54-.555.887-.939 2.218.484 5.631.313 7.849-.057-2.141.271-4.108-1.779-3.51-.711-1.003.654-2.97.668-5.438.498-.097-.071-.309-.143-.617-.228.578-.455-5.631-2.561-10.414-3.373.81.043 1.485.058 1.755-.07-.424-.086-.868-.157-1.331-.243 2.7-.355 9.604.826 9.835-.44a20.795 20.795 0 0 1-1.176-.1c3.182.142 6.152.142 8.447-.242-.328-.157-.907-.256-1.582-.313.097-.029.193-.043.29-.086-1.389-.27-4.359-1.337-6.094-.483 1.137-.057 2.314.256 3.374.483-2.256 0-4.917.072-6.981-.085-.327-.185-.617-.398-.906-.598 2.198.086 4.127.072 5.303-.227-2.835-.071-2.41-.811-2.719-1.395.521 0 1.042-.028 1.524 0h-.039c.694.057 1.331.114 1.909.157.386.07.791.17 1.157.299.058-.072.097-.129.155-.185 3.104.284 4.319.554 7.058 1.85 1.774.113 3.124.014 3.722-.499-3.78-.042-6.885-1.65-10.105-1.978.617-.313 1.504-.256 3.509.043 1.37-.484-.771-.91.83-1.48-1.794-.384-2.604 1.224-3.587.185.983-.085 3.432-.711 5.785-1.024-4.05.1-6.364-1.196-9.951-.313 2.507.114-1.6.953.637.925.192-.328.829-.442 1.465-.555-1.774.341.675 1.138-.81 1.18-1.311-.74-2.256-.44-3.124-.085-.578-.327-.443-.654 1.389-.81-4.166-.413.405-1.353-3.626-1.88 1.292.03 3.124.243 3.491-.07a174.802 174.802 0 0 1-4.571-1.01c3.375.327 2.951.611 6.21 1.052 0-.199.038-.398.058-.597 0-.185-.058-.356-.598-.328-.694.911-.502-.882-1.794-.654.675 1.323-3.432-.57-4.3.427-2.256-.54-4.532-1.096-6.827-1.65 1.35.227 2.642.198 3.896-.513 2.68.1 4.551 1.053 3.702-.185-.135.726-1.967.028-1.812-.327.231.213.578.327.732.042-.212-.057-.308-.128-.366-.199 1.716-.54 3.799.683 1.967 1.409 2.526.156.926-1.139 1.948-1.153.482-.057 1.195.029 1.253-.256-.694-.1-1.465-.213-2.295-.341a5.13 5.13 0 0 1 .791-.399c1.601.484 2.97 1.039 3.857 1.708 2.353.128.231-.242.694-.883 2.218-.284 4.146 1.04 4.879.442-1.388-1.295-5.091-.356-5.862-2.12 2.487.07 2.719-.684 5.399-.03.116-.398 1.157-1.607.116-.896-.347.498-3.703.456-6.672.683-2.141-.156-3.877-.355-9.913-1.166a3.454 3.454 0 0 0-.482-.342c.212-.157.502-.299.637-.299 2.43.584 1.6-.341 2.989.142.058-.298-.347-.384-.405-.626h.077c2.449.185 4.879.37 7.212.584-1.658-.94-5.939-1.395-11.03-1.722 2.391-.2 4.532-.37 5.014-.811.482 0 .906-.085 1.176-.399-.154.84 1.678.812 2.353 1.281.115-1.451 1.022.854 2.468-.227.501.868 4.03 1.736 4.86.754-.675.768.328.782.868 1.01-.984.028-1.794.156-2.18.526 1.89 0 3.047.029 4.339.356 0 .1.058.2.135.313.097-.07.212-.114.309-.156.27.085.54.156.848.27.039-.071.135-.1.213-.142.308.1.732.242.752.398-.482.057-1.215-.028-1.254.27.907-.142 3.144.442 3.086-.213-1.042.256-1.389-.27-1.292-.711.25-.029.482-.071.655-.143.135.228-.019.598.656.626 0-.199.039-.398.058-.597a24.363 24.363 0 0 0-1.138-.242c.058-.043.116-.1.193-.128.829.085 1.735.47 2.488.484 2.063.44 4.319.982 2.564 2.035.116-1.025-1.716-1.181-2.95-1.594-.849.683.038.555-.733 1.48 4.088.612 8.389 2.66 12.728 2.191-3.606-.612-4.436-1.195-7.232-1.722 2.546.043-2.256-1.152.135-1.508.019.953 3.259.484 2.931 1.594 1.871.284 1.254-.797 3.124-.513 1.157.484-1.176 1.238 1.1 1.537 1.388-1.067 4.107 1.238 4.879.441-1.64-.512.173-1.764 1.369-1.764-.54.91 1.639.626 1.099 1.537-.849 0-1.331-.185-1.813-.356.579 2.106 4.397-.982 6.692.811-1.408-.142-.752.84-1.909.84-1.215.056-1.177-.442-1.794-.655-.193.868.039 1.537 1.08 1.85.482-.783 1.929-1.053 3.182-1.409-.482 1.153 2.314.54 1.08 1.85 1.446-.213 2.565 1.138 3.047.398-1.099-.768.212-1.266.231-2.717-1.369-.456-2.372.711-2.449-.072.656-.284 1.292-.554 1.909-.853-1.658-.726-.443-2.704-2.815-3.103-.849.726 1.697 1.31-.116 1.509-2.14-1.139-1.215-2.633-.308-3.629-1.061-.057-1.909 0-2.488.228-.231.882 2.372 1.195-.116 1.508-1.89-.711-.463-1.48-.385-2.732-1.138-.1-1.389.299-2.469.228-.578-.712-.231-1.822-1.022-2.448.714.072 1.35.584 1.851.057-1.195-.07 1.157-1.138-1.118-1.238-.096 1.01-2.141.385-3.182.342-.559-.811-1.523-2.732 0-1.85a.689.689 0 0 0 0-.398c1.543.156 3.934.341 5.862.384.367.142.772.284 1.1.44-.232.698 3.008 2.334 4.011 3.444.212-.697 2.7-.1 3.066.086-.366-1.295-1.967-2.035-2.835-3.102 0 .526-.52.754-1.292.868.174-.47.232-.897 0-1.195 2.526.412 4.262-.072 7.926.924 6.268.413 6.325-.313.019-.298-.154-.783-6.171-1.025-8.427-.94l.251-.042Zm-2.083-40.057c-.463.768-1.253 1.295-3.143 1.053.694-.598 2.025-.754 3.143-1.053Zm-5.997-7.542-1.003-.043c-1.177-.47 1.022-.868-.328-1.223.444-.883 1.022.341 1.986.1 0 .54-.694.611-.655 1.18v-.014Zm-1.08-3.088c.135-.341.52-.142.501.029.54-.171.617-.67 1.581-.527-.578.797-1.735 1.181-3.181 1.352-.888-1.025 2.892-.285 1.118-.854h-.019Zm-4.937-.54c.366.227 1.311.54 1.504.07.212-.74 1.099 1.694-.694 1.48.135-.241.54-.27.578-.569-.077-.526-1.774.313-1.369-.967l-.019-.014Zm-658.504.256c-.772.882-3.067.668-4.648.982 1.524-.911 2.874-.883 4.648-.982Zm22.948-10.36c1.601-1.323 5.516-2.59 8.292-2.006-2.275 1.01-5.245 1.537-8.292 2.006ZM231.96 40.48c.984-.896 7.56-.768 10.626-.484-2.044.64-8.099.64-10.626.484Zm-44.932 11.939 1.215.043c-.579.07-1.157.156-1.736.242.405-.114.54-.214.521-.285Zm-13.982-3.6s.039-.071.02-.128v.128h-.039.019Zm-34.499-.612c1.003.47 3.857.057 5.052-.356 1.408.954-6.209 1.594-5.052.356Zm-3.491-.17c1.099 0 1.543.326 1.369.967-.829-.043-1.658-.086-2.487-.114.366-.285 1.195-.256 1.118-.854Zm3.201 2.276c-1.928 1.181-4.242.54-7.058.256 2.045-1.523 3.452.157 7.058-.256Zm-11.782-1.793c1.851.17 2.68.854 4.358 1.124-.212.94-3.78.512-4.513.071.058-.398.097-.797.155-1.195Zm-3.028.157c.482-.214 1.157-.27 2.025-.2-.097.427-.193.84.386.925-.193.512-2.835 0-2.411-.726Zm-28.676.697c1.08.797 4.532-.228 2.912.754 2.198-.014 6.403-1.466 6.981.341.656-1.906 3.838.64 4.185-1.309 1.215.214 1.562.883 2.873 1.053.309-.626-.636-.612-1.408-.669 1.697-.483 5.284-.711 5.4.868-3.568.883-10.24-.498-13.152.868-3.143-1.622-7.617.413-10.953-.54.482-.868 2.93-.328 3.181-1.352l-.019-.014ZM8.088 67.487c-1.466-.27.56-.612.173-1.195.425-.029.463.142.463.327.02.228.386.285.79.313 0 .171.02.356.059.555-.579 0-1.37-.37-1.466 0h-.02Zm4.455-1.11s.115-.128.23-.17c.117.028.213.042.329.056-.193.043-.367.086-.56.114Zm-2.72 27.037c1.196-.498-.752-.954 1.331-1.167-.887-.484-2.72-.54-2.333-1.58 1.832.356 3.008.997 3.529 1.922-2.295-.513-.232 1.337-2.527.825Zm3.607 1.025c-.791.839-.675-.513.057-.612-.308-.257-.597-.513-.54-.925.753.37 1.929 1.693 1.833.057.81.227 1.08.683 1.118 1.238-.868.711-2.256-.399-2.468.227v.014Zm720.387-19.965c.251 1.338 1.331.612 3.414.769.077.725 0 1.138-.077 1.437-1.235-.498-2.45-1.181-3.703-1.551-.096-.257.039-.612.366-.655Zm4.474 4.198c0 .2 0 .384-.077.54-.115.1-.25.2-.405.271-.058 0-.096.028-.154.028.135-.597-.501-.426-1.119 0-.057 0-.096 0-.154-.028 0-.598 1.042-.868 1.929-.797l-.02-.014Zm-7.906-1.195c.482.056.655.298.675.569-.232-.015-.463-.029-.714-.057.039-.157.058-.313.039-.512Zm-1.061-1.694c.193.057.347.128.579.171-.579.427-1.003.925-2.527.825.598-.341.656-.597-.038-.797 0-.142-.193-.256-.694-.355 1.292.156 2.41.299 2.68.156Zm-1.369 1.324c.656.056.656.398.636.754-.25-.014-.501-.043-.771-.057.251-.114.386-.299.135-.697Zm-1.774-.527c0 .157-.02.313-.077.455-.27-.085-.521-.199-.695-.341.251-.014.502-.057.752-.114h.02Zm-3.741.484c.192-.029.405-.057.578-.1-.058.128-.173.3-.289.498-.116 0-.212-.014-.328-.028 0-.128 0-.256.019-.37h.02Zm-.116 1.238v.128c-.656-.085-1.389-.142-1.871-.299a85.05 85.05 0 0 0 1.89.185l-.019-.014Zm-72.336-25.486c.116.413.637.612.347 1.224-1.292.398-3.876-.114-5.052.356.193-.754-1.022-.783-1.331-1.28.617 1.11-1.716.099-1.62.825 2.083-.086 3.047.597 1.369.967 2.295.128 4.899.114 6.441.626.116-.355.02-.853.617-.882.039.356-.212.854.367.925.501-.498 2.314-.726 1.003.057.964.142 1.041-.356 1.581-.527.424.84 4.204 1.253 4.455.527 7.038 2.22 26.342 2.348 35.039 4.14-1.253 1.78-7.906 1.296-9.661 1.04.926.142-2.777-1.182-3.433-.47.579 1.096 4.204.64 6.403.925-.56.54 1.35 1.081-.155 1.21.232-1.153-.405-.129-1.465-.37.116 2.86-3.414 1.11-5.149.953-2.16-.2-5.207.996-8.042.213-.385.754-1.388.925-2.526.897.328-.043.521-.114.386-.256-2.025.185-1.813-.484-3.529-.413a.611.611 0 0 0-.058.256c-5.785-1.266-11.494-3.23-16.045-1.067 2.507-.228 2.353 2.22 4.185 1.337-.675-.085-.926-.355-1.176-.64 2.198-.128 5.862 0 4.821 1.053 1.542-.384 3.702-.384 6.016-.2 0 .03 0 .058.02.1.463-.056.964.072 1.446.186.058.227.077.412-.829.512-3.838-.228-6.576-.057-9.257.242-2.333-.228-4.859-.484-7.251-.84.386-1.195 5.207.342 3.163-1.11-3.992.327-9.97-.697-10.973-1.238.116-.569 2.044-.142 1.929-.854-1.1.1-6.191.143-14.464.143.309-.086.598-.171.81-.27-6.884-.2 2.334-1.424-3.876-1.196 1.042-1.153 2.044-.64-.945-1.437 3.105-.584 4.513-1.494 6.769-1.68 0-.569-1.678-.71-.964-1.436 5.901-.27 5.766-.94 7.733-1.793.443.028.791.184.694.782 1.581-.37 2.603.043 3.953.498.251-.967-1.427-.939-1.793-1.593-.174.27-1.986.91-2.044.199 1.543-.811 5.399-.285 6.672-1.181.579.796 4.32 1.451 4.397.825-.212.484.559.84.945.356-.501-.029-.559-.555.077-.598v-.043ZM691.7 84.45c-.636-1.167-3.259-2.006-6.036-1.394a1.27 1.27 0 0 0-.443-.413c2.854-.555 5.573-1.138 6.923-.54.038-.043.096-.058.154-.086.656.071 1.485-.057 2.083-.242.25.057.501.114.79.17.02-.042.078-.07.116-.099.386.256.984.427.945.868-.771.043-1.466.014-2.391.27a10.552 10.552 0 0 0-2.006-.341c.367.91.617 1.508-.154 1.807h.019Zm18.224 17.446c.231-.029.405-.086.501-.171.193.057.367.128.521.199-.405.285-1.061.427-1.041-.014l.019-.014Zm3.529.911c.116-.015.193-.043.289-.057-.077.057-.154.085-.212.156-.019-.028-.038-.071-.077-.099Zm-105.466 25.727h-6.461c1.64-.171 4.012-.185 5.419-.384 1.061.114 1.177.256 1.042.384Zm-9.7 0a42.137 42.137 0 0 0 2.622-.156 7.15 7.15 0 0 0-.675.156h-1.967.02Zm-10.183 0h-2.372c.271-.156.849-.299 1.91-.398.192.128.328.256.462.398Zm-6.865.014h-8.041c3.066-.114 5.939-.256 8.041 0Zm-12.843 0h-4.706c.791-.284.598-.526.425-.725h3.047c.867.156 1.716.298 1.215.711l.019.014Zm-28.965-.768h2.777c1.002.242 1.369.612 2.892.768h-5.727c-.077-.27-.386-.597.058-.768Zm-129.109-2.647a17.059 17.059 0 0 1-1.427-.242c4.609.157 8.311-.754 13.325-.726h.367c1.697.029 3.548.157 5.631.484-2.392-.071-2.411.313-3.626.47-1.543 0-1.678-.299-3.606-.228.231.1.347.185.366.242h-11.03Zm-206.247-3.244c-.906-.057-1.793-.086-2.526-.057.116-.527 1.6-.641 3.317-.598-.579.029-1.042.114-1.312.384.02.171.251.242.521.256v.015Zm.251.014c1.138-.029 3.124-.569 2.854-.043-.212.071-.54.114-.926.157a88.972 88.972 0 0 1-1.928-.114Zm41.056.043c.193-.072.347-.171.444-.313-4.628.128-5.766.056-9.064.313h-2.43c-3.548-.769-13.229-.74-17.221-.029-2.834 0-4.512-.028-4.879-.043-.154-.697 2.083-.27 2.218-.839-7.135.313-19.284-1.508-24.992.427-1.003-1.01-5.207-1.252-6.287-1.395 1.523-.099 8.755-.185 20.383-.242v.171c2.604 0 5.651.086 6.789-.213 4.608-.015 9.7-.029 15.253-.043-4.049.726-11.377.228-16.006.953h25.359c-.289-.426 0-.725.656-.981h7.193c1.832.17 3.683.341 5.438.526-3.027.413-.848.384-2.41.925 4.455-.398 5.419.128 6.036.47.231-.342 2.912-.214 4.84-.228-1.06-1.039 7.097-1.082 9.681-.697 1.215-.313 1.986-.698 3.625-.925a169.34 169.34 0 0 0 1.717-.086h28.155c-3.683 1.267-23.488-.427-23.855 1.025 4.937-.384 10.163.384 13.287.228 2.314 1.01-11.551.071-7.232.697 3.665-.1 7.907.043 7.984.327h-44.662l-.02-.028ZM62.065 57.755l.116-.897c1.369-.285 2.854.725 2.989.142 1.272.57-2.912 1.153-3.105.754Zm1.909 6.46s-.077.042-.116.056c0-.028-.038-.042-.058-.07h.174v.013Zm5.361-.157c1.91-.185 3.703-.484 5.014-.868.116.768 2.218.498 3.317 1.366.116-.356.038-.854.617-.882.058.341.482.498.906.654 1.157-.384-.52-.768.618-.882.308.427.096.669.27.868-5.535 1.025-11.841 1.494-18.147.797 2.719-.57 4.975-.384 7.386-1.067l.02.014Zm-2.777-6.489s.02-.128.077-.2c.232.03.405 0 .579-.013l-.637.213h-.019Zm.887.57c.463-.186.868-.37 1.196-.57-.116.327-.482.484-.637.783-.135-.1-.327-.157-.559-.214Zm7.483.853c1.04.242.212 1.864-.29 2.106-1.041-.242-.212-1.864.29-2.106ZM76.2 56.93l-.173 1.195c-1.948.142-1.717-1.537.173-1.195Zm38.126 6.46c.115-.213.27-.356.443-.484.328.228.636.37.945.441-.482.029-.964.043-1.388.043Zm-5.342-2.704c.308.143.559.328.675.57-1.524-.043-2.719-.27-3.086-.812.81.356 1.601.37 2.411.257v-.015Zm5.631 6.632h.077-.077Zm24.896-4.113c-.116.014-.251.029-.386.043.155 0 .309 0 .463-.014 1.851.512 5.149.683 5.959-.114h1.022c-.174.085-.347.185-.54.27 1.254.028 1.62-.484 2.488.114a.924.924 0 0 1-.077-.356l2.121.043v.114c2.275.256 3.375.113 4.975.028 2.488.071 5.072.128 7.772.142 4.59.029 9.295-.27 13.441-.44a1.652 1.652 0 0 0-.347.113c.675.086.926.37 1.176.64-.231.029-.482.057-.732.086-2.893 0-5.959-.029-9.701.085.367.27 2.122.399 3.491.527-6.402.47-13.673.512-17.028-.826-.135.427-.482.57-.733.655-3.895-.285-9.661.043-13.788.114.212.043.482.085.752.114-1.543.028-2.97.057-4.146.085-.155.398.25.54.655.697-1.099-.042-2.391-.028-3.644 0 .81-.142 1.6-.27 2.352-.412-1.215-.655-6.499.654-6.036-1.31.463 0 .907-.014 1.292-.113 1.042-.057 1.871-.143 2.758-.171.135.014.27.014.386.043v-.057c1.234 0 2.603.156 4.724.797-.193-1.68-3.779-.57-4.088-1.736a1.96 1.96 0 0 1 .251-.114c1.35.412 2.719-.086 4.069-.541.27.47.771.783 1.292 1.01a30.195 30.195 0 0 0-1.408-.114c.135.214.559.427 1.138.598h.077Zm9.97-1.238c2.603 0 4.262-.028 7.309.598 1.408-1.28 6.113.156 6.769-.1-1.389-.612 10.452-.74 11.223.071-3.934.057-6.46.128-5.689-.498-2.661.541-12.072 1.608-12.573.484-1.504.242-3.375.285-5.458.285.02-.313.077-.64-.385-.698-.656.399-.386.427-.232.698-.578 0-1.176 0-1.774-.015.309-.142.81-.17.964-.44-.424-.072-.366-.214-.173-.385h.019Zm28.232-1.437c.598.356 1.582.384 2.604.398a89.245 89.245 0 0 0-3.491.285c0-.242 0-.455.058-.64l.829-.043Zm25.552-.925c-.54-.043-.848-.128-.964-.228.366.071.675.143.964.228Zm79.934-13.846c6.19-1.565 24.125-.74 40.613-.711 1.388-1.736 14.984-.441 19.342-1.437.212-1.11-3.452.227-4.84-.484 3.799-.868 19.901-.882 24.182.242-12.843-.612-16.372 1.11-29.003 1.679 9.989.583 24.722.185 31.896 0-1.118-.057.868-1.65 4.84-.953 1.427-.911-4.319-.043-2.892-.954 13.383-.526 15.813.327 29.968-.242-2.604-.711-11.879.228-14.502-.484 2.931-1.608 8.311-.37 12.573-.242 14.329.442 30.2.3 44.489.484 12.381.157 25.899.228 38.666.954-.232.256-1.929.156-1.929.483 5.458.185 22.158-.754 28.04.712-12.439-.327-26.825.612-32.88-.242-17.78.299-46.186.882-58.991-.484-15.678 1.523-27.789.598-42.542.954 16.431.669 28.599.768 44.47.953 1.119.356 1.119.612 0 .954 3.703-.129 6.152-.328 9.662 0-1.543.91-7.348.284-8.698.241-.327 1.21 10.144-.27 8.698 1.196-9.623-.1-18.243.242-26.111.483 3.336.185 6.479.3 9.488.385-22.505-.072-44.875-.143-66.165-.2-.675-.085-.945-.27-.367-.668-3.162.569-8.87.512-14.501.483.27-.498 3.606-.227 3.876-.725-9.681.17-17.973-.2-27.076 0 1.64.47 4.494.64 7.733.726-.636.042-1.253.07-1.889.1-12.265-.03-23.932-.058-34.809-.086 4.031-.484 10.703-.356 14.464-.256 9.14-1.096 22.061-1.238 30.932-2.391-16.161-.484-22.717-.114-36.737-.484v.014ZM230.996 34.93c.154.185.694.27 1.215.356-9.546.029-15.023.086-15.254.143 0 .056 3.124.113 8.813.142-4.493.114-8.659.185-11.686-.313 2.931-.142 8.755-.256 16.893-.342l.019.014Zm-38.819-7.37h.115c.058.113.058.241.077.355-.327-.028-.636-.057-.964-.07.232-.115.482-.2.752-.271l.02-.015Zm-10.838-.129c.154.1.308.185.598.228-.945.285-5.072-.185-6.441-.626.019-.114.096-.185.173-.256 1.061-.142 2.835-.17 4.686-.2-.308.086-.598.2-.829.356 1.003.072 1.389.242 1.659.399-.502.057-1.003.114-1.428.199.56-.057 1.08-.085 1.582-.1Zm-10.626-1.465c.154.07.289.142.386.256-.926.313-3.549.341-4.783-.1 1.485.313 2.951.1 4.397-.156Zm11.455.597c1.273-.014 2.449-.042 3.336-.113.907.27 1.813.626 2.661.754a102.642 102.642 0 0 0-5.129 0c-.289-.228-.579-.441-.868-.655v.014Zm24.51 3.53c-1.311-.072-2.854-.03-3.451-.47 0-.029.057-.057.115-.086 1.099.029 2.179.057 3.259.1.174.114.232.27.077.47v-.015Zm-5.804-2.163c-.289.028-.579.056-.829.085-.097-.071 0-.128.173-.2.232.03.444.072.656.1v.014Zm-1.331.27c-1.465.085-2.873.028-4.242-.057.964.043 1.967.071 2.796-.356-.193.299.559.384 1.446.413Zm3.124-2.192c4.031.242 7.618.498 9.469.726-2.198.982-8.543-.028-13.866-.384.309-.071.598-.142.81-.242-1.754-.185-3.76-.085-5.341.029-2.642-.072-4.937 0-6.133.298-.868-2.12 5.033-.967 8.119-.81 1.601.085 3.24.17 4.86.27a3.941 3.941 0 0 1-.54.213c.887-.071 1.755-.085 2.622-.1Zm-9.796-1.437c-2.546 1.039-5.13-.284-7.02-.043 1.967-1.294 4.416.114 7.02.043Zm-2.816 2.277c-.077.17-.019.299.058.398-.347 0-.713-.014-1.06-.028a2.222 2.222 0 0 0 1.002-.37Zm6.596.512c-1.119 0-2.218-.014-3.298-.042 1.003-.114 2.121-.072 3.298.042Zm65.297 7.87c-7.598 0-14.406.014-20.307.028 6.673-.384 14.078-.384 20.307-.029Zm5.592.483c-4.57.683-11.879.27-19.496-.043 5.843.015 12.361.029 19.496.043Zm51.971.043c29.718.27 59.069.669 91.312.896-2.372.64-4.628.071-6.769.954-25.262-.84-44.547-.64-66.724-.712-19.091-.07-41.249-.1-62.385-1.167 13.287.015 28.329.029 44.547.029h.019Zm-8.273 2.092c11.166-1.068 22.582-.086 34.809-.242-8.292.953-24.144.227-34.809.242Zm18.378 4.795c-.809 1.494-3.856-.142-6.768.484V42.4c3.644.228 4.531 0 6.768.242Zm-14.501.953c-5.342.627-10.838.242-18.378.484 4.339-1.081 12.361-.669 18.378-.483Zm-19.343-1.437c4.455 0 9.45-.1 12.574.242-3.24.1-12.574 1.067-12.574-.242Zm4.841-2.874c6.094-.54 7.27-.74 13.537-.484-1.234 1.38-11.435.37-13.537.484Zm8.697 3.358c3.298-.783 7.463-.128 12.554-.242-1.408.712-9.873.612-12.554.242Zm45.434-.968c-2.507.868-8.948.157-12.573.242 2.507-.953 8.581-.626 12.573-.242Zm-67.688-1.906c-2.719.697-4.358.227-8.697.242 1.388-.655 4.396-.185 7.733-.726-.155.284.212.427.964.484Zm18.378 1.437c-6.499.726-15.64.74-22.235-.242 9.025.071 16.025-.043 22.235.242Zm54.15 2.874c-.809.456-4.242.64-5.804.242 1.813-.47 3.375-.413 5.804-.242Zm274.764 8.794a.38.38 0 0 1-.192-.256c.173.014.308.029.327.057 0 .071-.057.142-.135.214v-.015Zm2.932 13.632c3.259-.555 7.945-.17 12.708.242-1.735.313-3.452.541-5.13.712a104.517 104.517 0 0 0-5.341-.427c-1.369-.185-2.893-.327-4.455-.455 0-.057-.019-.114 0-.171-.675-.014-1.543-.029-2.526-.043-.868-.071-1.736-.142-2.584-.213h5.476c-.212.1-.327.185-.366.256 1.408.028 2.16.07 2.179.1h.039Zm2.699-2.93c1.138-.4 1.89 0 4.32-.172-.077.868-3.529.598-4.32.171Zm25.707 16.164a.549.549 0 0 1 .173.47c-.81-.157-1.292-.086-1.735 0a30.249 30.249 0 0 0-1.177-.072c.386-.398 1.659-.754 2.392-.583-.058.114-.155.242-.29.456.212-.114.424-.2.656-.285l-.019.014Zm13.171-15.567s.154.028.193.057c-.656.612-1.369.412-2.411.227.039-.014.097-.042.154-.057-.173.015-.308 0-.482 0a7.593 7.593 0 0 0-1.195-.1c-.097-.028-.212-.042-.309-.07.502-.128 1.273-.2 2.025-.2a1.925 1.925 0 0 0-.193.086c.81 0 1.504.028 2.218.057Zm-3.105 1.722c0-.2.039-.399.058-.598-.019-.043-.116-.057-.154-.1 1.311-.284 2.969-.028 4.223.27-1.138.883-3.433.655-5.207.385.405 0 .791 0 1.099.043h-.019Zm10.645 18.043c.328-.1.54-.157.714-.2.173.015.308.043.443.086 0 .1-.058.256-.038.427-.54-.071-1.1-.114-1.64-.17.174-.086.309-.2.348-.385h.192c0 .071-.038.128 0 .242h-.019Zm-377.762 35.83c-2.565.086-4.165 0-5.785-.099h5.438c.116.028.212.057.328.099h.019ZM142.461 65.139c2.604.029 4.474-.142 6.422.185-1.832.1-3.51.214-4.898.313 2.16-.042 4.088-.07 5.94-.085.173.043.327.085.501.128-2.603.256-2.738-.014-4.358.768 2.372.74 4.493-.81 7.096.143-3.162 0-5.631.028-7.174.37h-.925c-1.697-.3-3.626-.498-5.612-.626 1.678-.1 3.529-.214 5.4-.228-1.601.043-2.642-.185-2.372-.982l-.02.014Zm10.395-.569c.135.071.328.157.675.299-1.485-.156-3.356-.242-5.361-.299 1.523-.028 3.104-.042 4.686 0Zm17.915-3.443c1.986-.385 3.529-.584 5.168.199h-.058.039c-1.234.612-3.24.569-5.535.27a58.45 58.45 0 0 0 4.513-.512c-1.042-.071-2.7 0-4.127.028v.014Zm33.092-1.238c.54.626-1.08.284-2.546.184.54-.142 1.678-.127 2.546-.184Zm80.821 5.635c1.581.213 2.121.184 4.32.128-.135.07-.328.128-.502.185-.443.1-.887.185-1.33.27-2.045.185-4.976-.185-7.599-.071-.096-.071-.212-.114-.269-.214-.213.114-.405.2-.618.285-.115 0-.231 0-.347.028-.694-.64 2.025-.44 3.279-.611H284.684ZM637.53 77.548c3.221.128 7.059.384 9.565.526-.462.256-1.349.413-2.41.527-2.526-.014-4.879-.071-7.078-.328.039-.27.001-.583.695-.54a4.662 4.662 0 0 0-.772-.171v-.014Zm-482.399 35.147c.56.071 1.1.157 1.639.242-.404.043-.887.114-1.523.228.135-.214.077-.37-.116-.47Zm-1.35-6.83c.309-.043.54-.071.772-.1.115.128.308.285.675.513 4.242-.427 3.972.17 7.27.455.154-.085.347-.142.559-.199.097.114.289.27.521.455-1.794 0-3.741 0-5.94-.028.54.128.945.227 1.292.313-.463.099-.81.227-.925.441-2.372-.071-2.797-.512-1.427-.797-1.08.085-1.929.057-2.662 0 .058-.142.193-.285.463-.427-2.295.185-1.485.214-2.815-.384-.212.085-.425.156-.637.242a10.992 10.992 0 0 0-2.102-.285c2.16.029 4.089.014 4.937-.199h.019Zm-1.812-40.327h2.738c0 .199-.039.398-.058.583-1.427.057-2.352-.114-3.027-.384.096-.071.231-.128.347-.185v-.014Zm26.246-1.722c1.658-.085 4.705-.242 8.138-.242-2.758.228-5.284.299-7.907.313-.077-.028-.173-.043-.251-.071h.02Zm7.578-.669c-.867-.028-1.735-.057-2.603-.071 0-.043 0-.085.019-.128.945.028 1.813.1 2.584.2Zm152.521 3.458c2.449-.882 8.311-.512 11.59-.47-1.466.755-7.406.399-11.59.47Zm-110.616 48.979c-.443.669-11.262 1.224-10.876 0 4.937.228 4.879-.029 10.876 0Zm-8.446-.228c.116-1.024 4.879-.498 7.251-.469-1.485.327-4.146.441-7.251.469Zm7.251-2.106c-1.755.47-6.73.726-12.169.854.116-.057.27-.114.348-.199-4.378-.043 3.336-.626-.386-1.224-.772.768-2.835-.455-4.166-.441.116-.1.27-.171.425-.242 6.942.028 13.614.114 19.573.327-6.402-.242-3.722.954-3.625.925Zm-60.727-6.403c-1.215-.157-1.851.384-2.14-.071a9.943 9.943 0 0 0-.425-.271c1.717-.37 4.937 0 6.654-.142 1.022.128 1.889.313 2.468.527-2.179.042-4.204.071-6.345.085a1.597 1.597 0 0 0-.192-.128h-.02Zm-8.89-2.803c.232-.114.559-.214.907-.299 1.812 0 3.721.028 5.206-.128.309.085.617.17.849.299-1.003.213-2.893.398-4.571.398.367-.085.656-.199.791-.356-1.061.057-2.14.071-3.182.086Zm1.929 1.793c-.772.056-1.543.113-2.372.199-.752-.527 1.118-.555 2.449-.683-.058.156-.155.327-.135.469h.058v.015Zm-1.91-.541c.309-.1.714-.242 1.37-.456.443.057.578.171.617.299-.752.029-1.408.086-1.967.143l-.02.014Zm3.105-35.447c1.562.072 3.144.157 4.783.242-.791.1-1.504.242-2.141.413-3.297-.057-7.019-.2-11.397-.57.251-.156.367-.27.386-.34 1.909 0 3.895.056 5.939.142-.347.056-.694.142-1.041.213a65.703 65.703 0 0 0 3.471-.114v.014Zm5.111.683c.675-.113 1.33-.227 2.005-.341 1.601.085 3.221.156 4.918.213-1.466.043-2.932.086-4.416.143-.81 0-1.64 0-2.507-.029v.014Zm12.978-1.892c.463-.256.752-.384 1.601.313-.02-1.153.597-.085 2.159-.228.039-.44.193-.612.444-.669 2.372.015 5.033.129 7.579.285-1.543 1.466-3.722-.583-5.535.854-1.041-2.135-1.35.071-2.044.2-1.176-.798-3.664.141-4.204-.755Zm15.023-.057 1.292.128c0 .114.077.242.462.413-.597-.171-1.157-.37-1.754-.527v-.014Zm29.755 36.755c-4.801.057-10.22.171-14.347.285a.482.482 0 0 0 0-.484c3.452.868-.733-.754 2.738-.341.039-.882-3.297-1.067-3.625-1.879 3.895.157 6.094.271 7.675.143 3.452.939 11.551.341 17.24 1.11-7.656.441-12.477.042-18.127.697 4.898.242 8.408-.712 8.446.469Zm-56.696 1.865c.482.028 1.042.028 1.659.028-.02.029-.058.043-.077.057-.521-.014-1.061-.043-1.582-.057v-.028Zm2.122.113s-.193-.056-.348-.071c1.62 0 3.51-.085 4.879-.042.039.028.116.057.135.085-1.33.114-2.969.1-4.666.043v-.015Zm-5.612 4.952h1.543c-.058.057-.174.072-.193.128a6.11 6.11 0 0 1-1.35-.128Zm-1.08 1.082h.019-.116.097Zm2.565.967c-.27.029-.482.086-.56.143a11.318 11.318 0 0 1-1.484-.128c.54-.114 1.272-.1 2.044-.015Zm-2.662-2.803c.213-.156.405-.341.444-.498a26.75 26.75 0 0 1 1.369-.156c-.308.113-.655.227-.79.427.289.028.655.099 1.06.199-.675 0-1.388.028-2.083.042v-.014Zm1.755-.512c.675.071 1.215-.057 1.312-.228a45.364 45.364 0 0 1 3.664-.057c-.097.029-.212.043-.309.071-2.044.214-4.03.527-4.686.228l.019-.014Zm15.601-.057s.097 0 .155.014H178.851l.019-.014Zm1.967.228h.078-.078Zm18.224-16.123a3.178 3.178 0 0 1-.54-.242c.367 0 .733 0 1.08-.014 0 .043 0 .086-.019.128.116-.057.27-.085.405-.128 1.215-.014 2.43-.043 3.625-.057.675.086 1.331.2 1.909.285a478.97 478.97 0 0 1-6.46.043v-.015Zm-3.162 0a4.102 4.102 0 0 1-.483-.185c.695 0 1.37-.028 2.045-.028a.453.453 0 0 0 .192.213h-1.754Zm6.016-2.461c-.115 0-.212 0-.328-.029.097 0 .174-.028.27-.028 0 .014.058.028.058.057Zm-6.344 1.75h1.928c0 .085-.038.156-.038.228-.83.028-1.562.113-2.122.199-.038-.2.058-.342.251-.427h-.019Zm2.642.213c.385-.341 1.118-.227 1.33.057-.463-.028-.906-.057-1.33-.057Zm-7.328-2.504c2.179.114 4.416.17 6.672.213.347.043.675.072.964.128-2.545-.07-5.11.029-8.003.143-.019-.185.116-.342.367-.47v-.014Zm76.096 3.4c1.33 0 2.7.015 4.069.044-.424.085-.945.142-1.524.184h-1.369c-.386-.07-.752-.142-1.176-.213v-.014Zm-55.867-17.303c.54.143 1.041.328 1.485.598-2.064-.797-7.213-.228-10.202-.626 2.912 0 5.882 0 8.736.028h-.019Zm-39.572 13.618c.097-.028.251-.057.405-.07.29.013.56.028.849.056a7.51 7.51 0 0 1-1.254.029v-.015Zm18.764 3.173h-.039.039Zm.733 12.836c-.887-.071-1.755-.143-2.565-.228 2.083-.256 4.686-.27 7.405-.213a82.796 82.796 0 0 1-4.84.441Zm33.651-5.208c-2.623.085-4.86.227-7.81.242a7.451 7.451 0 0 0 1.427-.57c3.259.356 2.989.2 6.383.313v.015Zm-16.314 3.941c-.367-.028-.772-.042-1.158-.057.193-.085.405-.17.618-.27.443.057.694.157.559.327h-.019Zm56.773 3.487c8.851-1.11 18.204-.385 30.199-.698-6.132 1.068-20.846.683-30.199.698Zm32.629-.698c3.143.2 6.615-.697 8.427 0 1.562.74-10.008.74-8.427 0Zm10.857.242c.424-.768 6.962-.37 10.857-.469-.54.74-8.311.839-10.857.469Zm18.108 1.622c4.995-.028 14.483-1.835 19.323-.227-6.614.526-10.279.185-19.323.227Zm45.897-2.319c-2.912.711-10.78 1.067-15.698.697 3.857-.498 8.775-.782 15.698-.697Zm-13.287-1.636c2.083-.769 10.163-.37 15.698-.47-5.284.527-7.386.384-15.698.47Zm33.825-.47c3.799-.427 9.488-.498 15.697-.455-2.738.64-9.815.427-15.697.455Zm-75.016-14.201s.192-.072.347-.1c.154.043.308.071.462.1h-.809Zm-134.818 2.134c-.79.071-1.562.128-2.275.214l-4.86-.086c2.276-.043 4.571-.128 7.135-.128Zm-19.728 19.95s.174.114.348.185c1.311-.042 2.352-.057 3.239-.071h.02c.81 0 1.485 0 2.121.057-.27.185-.54.384-.752.598-3.433-.214-4.32-.513-6.268-.74.463 0 .887-.014 1.292-.029Zm6.422.513a.538.538 0 0 1 .232-.257c.501.057 1.022.143 1.562.242a24.96 24.96 0 0 0-1.794.015Zm-4.512-3.686c.192-.171.771-.341 1.292-.327.405.099.925.185 1.504.242l-2.796.085Zm47.497-2.049c1.716.64 6.21.868 5.998.014-.078-.071-.27-.142-.521-.199 3.085-.028 6.634.057 11.628.1-3.124 1.11-9.314.796-16.411.697h-.54a1.49 1.49 0 0 0-.598-.569c.155 0 .309-.015.463-.029l-.019-.014Zm-1.909.583h-.154.154Zm155.49 5.137c.733-1.124 8.08.214 9.642-.469 3.51.768-6.152.782-9.642.469Zm-39.861-1.166c-5.631-.185-15.659.939-24.163.227 5.38-.327 19.708-1.252 24.163-.227Zm-59.184.711c-.52.285-1.542.484-3.625.47 5.766.17 16.912-.513 21.733-.698 7.984 1.651 28.676-.54 38.666.698 13.132-.1 30.411-.883 39.86.241-46.012-.113-83.482.812-123.208.698 7.579-.086 15.274-1.338 26.574-1.395v-.014Zm47.826-22.127h-25.976c-.675-.029-1.196-.086-1.62-.171 8.523 0 17.587 0 27.056.014.212.043.385.1.54.157ZM149.79 69.593c-.116 0-.213.029-.328.043-.097-.014-.174-.028-.27-.043h.598Zm2.237 35.674c.713.071.694.285.617.513-.405-.029-.81-.057-1.254-.086.559 0 .926-.099.637-.427Zm56.156 9.918c1.06-.27 2.603-.369 3.972-.54.887.014 1.639.057 2.237.128a5.69 5.69 0 0 0 1.022.242c.174.099.27.199.193.341-2.931-.042-5.129-.057-6.942-.099a2.15 2.15 0 0 0-.482-.072Zm104.058.869h6.056c.077.142-.097.256-.405.355-1.871 0-3.703 0-5.535.014-.193-.099-.27-.213-.116-.369Zm64.024 1.849c-1.658.2-8.87.968-7.231-.227 2.97-.029 5.824-.043 7.231.227Zm-14.482-.455c.791.626.27.541 3.432.911-10.085 0-19.997-.015-29.601-.029 4.146-.099 8.292-.284 11.667-.654-2.912.868 10.066-.285 14.502-.228ZM634.194 77.42c.251-.171.54-.313.849-.427.154.156.019.384-.251.44h-.578l-.02-.013ZM180.51 62.336s.173.114.212.185a132.552 132.552 0 0 0-4.127 0c.231-.285.27-.64.251-.996.443.071.906.142 1.369.213-.232.114-.425.27-.502.541.675.128 1.929 0 2.777.043l.02.014Zm.462.584c-.694.298-1.542.156-2.41.056.829-.028 1.639-.042 2.41-.056Zm-3.702 3.372c-1.35.028-2.7.071-4.05.114-1.099-.954 3.298-1.01 4.05-.114Zm-30.103 3.102c.443.1.868.228 1.273.384-.444.057-.887.128-1.35.185-1.312 0-2.854-.128-4.436-.1h-.463c.579-.54 3.395-.583 4.995-.483l-.019.014Zm-66.898 36.499c-.212-.796 2.392-.256 2.257-1.024 1.022.085 1.407.427 1.369.925a33.45 33.45 0 0 0-3.626.099Zm4.32-.071c.02-.299.058-.583.077-.896 1.119-.057 1.6.114 2.18.27.038.1.23.199.462.299-.308.285-.983.398-1.948.37-.25-.028-.52-.043-.771-.057v.014Zm8.717-.384c-.097 0-.193 0-.29.014-.81-.242-1.118-.668-1.176-1.195 2.7-.256 2.295 1.38 3.568.114 2.314.654-1.273.768-2.102 1.067Zm4.165-.413c-.347-.441-.347-.725-.154-.91.771.114 1.6.242 2.43.37-.618.242-1.389.427-2.276.54Zm39.784 7.016s.115-.043.154-.071c.135.071.231.142.308.199-.212-.043-.385-.086-.462-.143v.015Zm80.203 7.271c-.674.598-4.975.171-5.688-.171 1.214-.811 3.162.527 5.688.171Zm-4.011-1.124c.984-.114 1.717-.27 2.179-.512-.115.242-.038.398.155.526h-2.334v-.014Zm22.505.071s.154-.057.212-.114c-4.339-.199-13.441.228-18.108-.469 8.794.014 13.441-.228 24.164-.228-1.427.441-.598.669.501.825h-6.75l-.019-.014Zm14.56 1.437c4.474 0 9.121 0 13.923-.014-.771.085-1.369.199-1.697.313-4.763.228-9.353.242-13.287-.228.386-.028.714-.056 1.061-.071Zm10.433-1.408c3.259-.385 10.529 0 15.08-.143-1.948-.711-13.383.413-12.072-.939 3.529.014 7.502 0 11.821-.028h33.594c.829.27 4.917.156 7.714.028.424.655 1.099.569 3.374 1.11h-7.771c-.656-.043-1.234-.085-1.639-.171.038.071 0 .114 0 .171-18.533 0-35.522-.014-50.101-.028Zm149.145 1.949c-4.724.441-12.342.455-18.127.228 3.664-.541 12.458-.086 18.127-.228Zm-48.307.47h-7.232c.193-.669 8.485-.982 7.232 0Zm8.041 1.238c4.609-.37 10.433-.698 12.477-.086a2.703 2.703 0 0 1-.289.086h-12.188Zm54.749-.086c6.152-.341 8.176-.085 15.717-.227-.328.099-1.042.213-2.006.313h-13.499c-.077-.029-.154-.043-.212-.086Zm260.358-56.748c-2.545-.029-3.702.27-4.975-.242.444-.356.81-.54 1.157-.626 1.446.057 2.739.114 3.934.17-.038.243-.077.47-.096.712l-.02-.014Zm-443.309-6.219c-.154-.583 2.063-.583 3.876-.683-.019.27-.444.513-1.022.683h-2.854Zm23.199-.683c-4.57-.1-8.08.072-11.609.242.771-.882 9.43-1.024 11.609-.242Zm-8.697-.711c1.041-.697 4.609-.783 8.697-.726-1.929.484-4.435.826-8.697.726Zm118.02-5.123a53.116 53.116 0 0 1-2.95.086v.725c3.182.328 5.881-.085 11.609 0-2.218-.683.231-.74 3.452-.825h11.108c-3.163.128-6.171.356-8.756.825 10.472-.1 21.04.826 31.916.242-22.023 2.135-38.318 1.01-65.74 1.921-.81-.284-1.273-.64-.965-1.195-2.912 2.077-12.457.868-21.29.953 3.086-1.494 15.409.342 17.395-1.679 2.623 0 4.532 1.01 5.805 0-3.298-.725-8.293.171-12.574 0 1.543-1.167 5.284-.626 8.562-1.024 7.348 0 14.849 0 22.428-.015v-.014Zm-33.998.029c-2.353.128-4.86.256-7.637.298.289.67-5.92 1.053-7.733 1.922-4.86-.157-6.634.014-9.661-.242.096-.612 3.606-.385 4.821-.726-3.876-.555-11.899-.085-17.414-.242 1.118-.299 5.265-.811 0-.712.077-.113.231-.213.424-.298h37.2Zm-12.477 3.899c.289.626-.347 1.024-2.893.953-.154.526 3.433.114 4.84.242-10.278.896-29.64.783-40.612.711 10.702-1.053 26.843-.754 38.665-1.92v.014Zm-20.307-1.921c1.755-.37 2.97-.868 6.769-.726-.154.754-3.818.654-6.769.726Zm-37.701 0c11.185-.47 21.715-.541 31.916-.242-7.502 1.224-22.717.398-31.916.242Zm162.182-2.078c5.631 0 11.262 0 16.874-.014-4.436.569-12.593.498-16.874.014Zm29.852-2.874c-11.802-.043-23.758-.086-35.753-.114 11.706-.185 22.408-.612 36.139.028-.116.029-.251.057-.386.086Zm-161.14 2.974c-.463.626-2.951.74-5.766.782.617-.27 1.195-.555 2.005-.782h3.761Zm-58.432-.157c.193.114.347.256.463.456-1.273.284-4.59.042-5.535-.484 1.601 0 3.298.028 5.072.028Zm-.501 2.135c-2.604 1.053-13.615.967-16.431.242 4.532-.314 10.626-.242 16.431-.242Zm-42.272 6.147c-.135.085-.25.185-.327.299-.791 0-1.659 0-2.565-.029.713-.27 1.234-.583 1.639-.91 1.215.07 1.581.17 1.601.298-.193.072-.309.185-.367.342h.019Zm-3.683.27a17.192 17.192 0 0 0-2.931-.085 290.48 290.48 0 0 1-8.91-.47c5.497-.227 10.53-.27 12.227.57h-.386v-.015Zm-59.531 4.838c-1.099-.113-1.813.029-2.198.185-.29 0-.637-.028-.984-.056 1.157-.27 2.527-.541 3.24-.143h-.058v.014Zm-11.204 1.509c-.636-.114-1.099-.285-1.659-.413.907-.071 1.543-.1 1.659.413Zm-.019.427c0 .07 0 .128-.039.227-.405.057-1.003-.042-1.581-.1a48.383 48.383 0 0 0 1.62-.113v-.014Zm.617-.328s-.058-.014-.077-.028c.713-1.053 3.201.711 3.529-.128.096.142.115.242.135.341-.116 0-.27 0-.386.029.193.028.309.07.424.1.058.74-2.063.17-3.124-.143.174-.028.367-.043.521-.071a10.041 10.041 0 0 1-1.042-.085l.02-.015Zm-.502-.654s-.019-.1-.019-.142c1.138-.129 2.218-.27 3.259-.413.714.043 1.736.071 3.143.1.328-.043.791-.171 1.312-.3.231.143.501.257.79.342-3.413 0-6.537.185-8.485.427v-.014Zm8.987 1.935c1.234.398 3.529.37 6.055.356.694.057 1.234.17 1.427.455-1.195.157-2.198.313-3.124.441-2.314-.142-4.435-.484-4.898-1.18.173-.015.366-.043.54-.072Zm-.174 1.793a65.75 65.75 0 0 1-3.509.2c-.097-.229.077-.4.231-.527 1.118.07 2.256.1 3.278.327Zm-58.586-.413c.83-.042 1.64-.07 2.295-.085-.656.27-1.388.484-2.16.683-.463.114-.925.228-1.427.313.482-.356-.154-1.081 1.427-.313.058-.313-.038-.47-.135-.598Zm-2.352 1.068c-3.472.498-7.444.44-10.838.184 1.793-.426 6.923-.896 11.223-1.152 0 .299-.096.64-.482.968h.116-.02Zm105.061 47.129c4.378-.228 8.678-.498 13.094-.698 1.311 0 2.661-.042 4.069-.099-.27 0-.656.427-1.041.427a24.19 24.19 0 0 0 3.201-.484c.289.199.598.398 1.041.555.502-.114 2.777-.214 6.557-.285.309.498 1.022.456-.116 1.082 1.003-.043 1.929-.072 2.797-.1-4.417 1.978-12.15-.583-17.067-.626-1.273 0 .521.697-.791.882-1.543.214-8.099-.071-11.744-.654Zm120.277 3.856h-6.518v-.783c1.022-.042 1.137.086 1.215.228.115.441 4.493-.356 6.036.228-.039.142-.309.256-.733.327Zm1.89 0c.096-.982 1.851-2.021 9.7-1.48-.965-.683 3.182-.384 3.606-.797h7.232c-.405.029-.81.071-1.196.1 1.89.028 4.204-.029 3.625.469-6.768-.213-4.512.228-6.036.698-8.273 0-8.311.142-15.697.241.694.342.463.598.347.783h-1.601l.02-.014Zm5.033 0c-.463-.228-2.179-.47-2.584-.555 8.485.455 14.907-.157 19.342 0-2.97-.669 7.251-.769 9.661-1.167-1.176 0-1.446-.37-.887-.569h1.003c.791.953 1.292.384 2.006 0h2.757c2.025.284-3.336.839 2.372 1.024-6.498.072-9.468.812-14 1.253h-19.651l-.019.014Zm127.875 3.159h.077-.097.02Zm39.051-.014c2.738-.228 8.33-.313 12.361 0H472.09Zm74.476 2.689h3.24c.443.171.424.356-.83.584 4.629-.37 1.428-.37 6.056 0 .925-.086.887-.342 1.041-.57h1.254c.443.513 3.182.968 3.722.57-1.833.056-.791-.342.25-.57h1.003c.039.271-.154.584.559.726h-15.794c.887-.171-.096-.47-.52-.754l.019.014Zm141.374-43.5c.115-.043.308-.072.52-.086a.824.824 0 0 1 .155.185c-.232-.028-.444-.07-.675-.1Zm.81-6.603c0-.27.173-.427.424-.512.791.07 1.543.142 2.256.199-.983.37-2.333.711-2.7.313h.02Zm4.397-1.964a15.42 15.42 0 0 1-.907-.284c.289-.114.598-.214.907-.328 1.041.143 2.063.3 2.95.513-.906.085-1.909.1-2.95.085v.014Zm2.082 2.291c-.27.797-1.446.954-2.661 1.082.058-.94 1.408-.968 2.661-1.082Zm-2.873-1.053-.174.086h-.115c.096-.029.192-.043.27-.086h.019Zm3.76 4.397c.367-.128.81-.242 1.312-.341h.231c.598.242 1.504.54 2.873.967a68.823 68.823 0 0 1-4.396-.64l-.02.014Zm2.064-17.716c-1.485-.726-4.243-.17-6.769.27a69.893 69.893 0 0 0-5.342-.184 1.341 1.341 0 0 1-.347-.698c.791.698 1.62.954 1.041-.256 1.119-.114.637.612 1.408.683.81-.1.559-.925 2.083-.512-.096-.413-1.215-.313-1.948-.398 3.279-.057 8.678-.328 11.031-.072-.27.456-1.601.185-1.157 1.153v.014ZM635.409 53.13a4.592 4.592 0 0 1-.598-.1c.193-.113.425-.227.675-.312-.058.17-.077.299-.077.398v.014Zm-164.92-3.67c1.871-.2 4.763-.186 6.402.028-2.121 0-4.261-.015-6.402-.029Zm176.664-5.351c-.058.313-.077.669-.578.683-.116-.256-.347-.456-.617-.626.405-.015.79-.043 1.195-.057ZM190.692 3.61c-.945-.74-3.259.967-3.414-.769 1.1.27 3.954-.355 3.414.769Zm-3.144 15.866c-.192.868-3.683 1.096-2.989-.142 1.003.042 1.987.1 2.989.142Zm-11.532.028c-1.755.072-4.667.513-5.438-.569.193-.47 1.466-.882 2.738-.996a15.52 15.52 0 0 0 1.987.114c.733.213 1.138.655.694 1.451h.019Zm-5.187 1.267c-.386.925-2.006.996-3.645 1.024.675-.725 2.623-.555 3.645-1.024Zm8.389-2.618c2.661.113 4.242.341 5.438.569-.56 1.48-3.086 1.55-6.171 1.21.713-.982 1.06-.428.733-1.78Zm5.958-3.33c-.154.654-1.35.583-2.564.484.443-.598 1.677-1.153 2.564-.484Zm-4.57.384c-2.546.142-2.237-.128-2.642 1.081-1.022-.128.058-1.337-1.331-1.28.251-1.067 4.147-1.139 3.973.199Zm-19.149-6.688c.559-.583 2.005-.555 3.567-.427-.405 1.053-2.391.74-3.567.427Zm-8.563-3.444c0-.555-.193-1.024-.829-1.252.636-.81 2.893.285 1.408.669 1.735.128 2.218-.626 3.606-.726-.039.3-.077.598-.135.897 3.471-.697 5.226.341 10.009.185-2.314 1.21-8.871-.143-14.059.213v.014Zm14.386 8.567c.56.085.232.313-.038.299.501.227 4.628.227 6.017 0 1.253.668.54 1.053 1.832 1.294-.367.228-.887.783-.116.897-2.179 1.38-4.513-1.85-6.441-.626-.791-.91-1.138-.74-2.372-1.025.231-.384.945-.427 1.118-.854v.015Zm1.967 4.027c-.655-.029-1.33-.071-1.986-.1-.424 1.067 1.35.982 2.854 1.053-.058.399-.096.797-.154 1.195-1.446-1.323-3.201.399-6.46-.313 1.504-1.28-2.912-1.58-3.124-2.874 4.84.868 7.848-.64 8.87 1.039Zm-10.992 3.386c.752-.056 3.915.854 3.568-.426 1.716.498.926.54 2.912.754-1.601 1.195-4.474.37-6.595.583-.039-.512.964-.74.115-.896v-.015Zm.656-4.81c1.716.328.444 1.082-.193 1.495 1.582.128 3.857-.114 3.356 1.067-2.816.2-2.584-.512-5.439-.569-.308-.982 1.698-.327 1.659-1.124-4.513.313-8.466.441-10.51-.214 2.777-.882 7.887-.1 11.127-.654Zm-23.238 1.281c-.559.584-2.005.555-3.567.427.54-1.337 1.62-.384 3.567-.427ZM83.548 32.041c.038-.256.096-.498.597-.427.174.043.213.185.213.341-.251.029-.521.057-.791.072l-.02.014Zm30.643.683c-.058-.1 0-.17.405-.213.173 0 .27.056.347.113-.328.029-.56.071-.752.1Zm11.532.783s.192-.072.289-.128c-.791-.072-1.736-.043-1.408-.67.752.413 1.697.698 2.642.854-.578 0-1.061-.028-1.523-.056Zm18.86-4.056c-1.157.37.52.768-.617.868-9.16-.783-19.979.17-31.742 1.167-2.43.2-6.538.555-10.973.967-1.177-.939 7.771-.37 4.994-.839-6.903.512-11.107.228-15.215.156 5.11-1.309 11.262-3.457 14.965-2.404.559-1.523-2.199.398-2.411-.726.945.185 2.661-.683 1.62-.825 0 .17-.444.327-.501-.029 2.603-1.039 6.344-.555 7.752-1.736.328.57 6.672-.014 8.138-.811-.559-.768-1.581.47-1.948-.398 1.929-.171 3.414-.655 6.056-.314-.348-1.465 3.027-.27 3.201-1.351-.54 0-1.254-.2-.463-.328.848.314 1.35.797 2.372 1.025 2.218-1.167 6.884.313 9.199-1.366-.849-.213-2.97.213-2.951-.441.019-.854 3.201.526 2.603-.783-1.619.37-2.024-.085-2.912-.74 0 .982-2.024.54-2.198 1.395 1.254.028 1.639-.498 1.948.398-3.24-.142-5.111.897-6.383-.91-.328.426.366 1.579-.714 1.48-.733-.584.598-.997-.791-1.552-.289 1.053-1.195-1.124-1.504-.07 1.774.568-2.005-.172-1.118.853.733.085 1.851-.014 1.948.398-1.929 1.623-9.18 2.576-12.805 2.092-.83 1.28-4.706 1.494-7.675 1.139-.309.725-3.838 1.038-3.761 1.935-3.182-.014-7.984.284-8.755 1.693-.964-.782-4.146.826-5.477-.27 1.755-.37 2.391-.2.617-.883 2.102.214 6.113.84 4.07-.398 1.754.925 2.776-1.11 4.512-.085.578-1.551 3.51.142 3.78-1.935-1.389-.755-5.535 1.266-7.02-.043 6.615-2.092 9.102.384 14.193-1.124-1.697.128-.713-.655-.385-.925-2.141.925-4.32.199-6.133.91.077-.412-.154-.668-.366-.924 1.735-.214 4.994.056 6.094-1.38h.906c-.193.142-.193.298.135.511.251-.185.579-.313.926-.412.115.014.231.028.328.057v-.128c1.272-.285 2.931-.3 3.934-.769-.598-.057-1.158-.142-.926-.654 1.311-.057 3.278 0 2.623-.783-1.717.811-6.017.27-3.24 1.65-.637 0-1.697.043-2.546.171-.154-.185-.405-.341-.829-.455-1.678.114-2.854.2-3.799.256 1.234-.697 3.876-.697 4.763-.697.405-.854 7.232-2.633 8.755-1.68 6.056-3.002 15.505 0 21.213-1.08-.173.654.289.981 1.369.981.232-.583-.597-.626-.867-.953 2.005-.37.925.825 1.87.996 1.716-.185 5.419-.256 7.425.669-.926.028-4.127.1-3.067.455 1.871.057 3.742-.114 4.976.242.116.854-2.681-.37-2.565.484 1.311.299 4.513.498 5.091-.655-.945 1.224 2.565.171 2.372 1.025-4.628.84-13.152 1.437-17.009-.228.424.968-.038.683-.25 1.807 1.87-.754 10.201.854 14.154-.81-.193.74.637.981 1.331 1.266 2.083-1.765 6.634-.513 9.584-.442 4.686.114 8.62.442 11.378 1.167-.559-.085-.733-.37-.906-.64.694-.384 2.198-.185 3.529-.128.135.441.52.54-.116.896 1.716.057 3.587.029 3.895.797.753-.64 3.202-.242 4.282.427-.174-.028-.463-.057-.984-.057-1.736-.014-3.028.27-4.551.242a.217.217 0 0 0-.135 0 11.645 11.645 0 0 1-2.083-.242c-1.234.014-1.35.313-2.892.242 0 .086-.058.157-.116.228-1.446-.313-1.929-.37-2.816-.47h.02-.039c-.578-.057-1.35-.156-2.7-.356a.417.417 0 0 0 0 .342c-2.005 0-3.857.014-3.992.47-.289-.114-.501-.256-.559-.427-.058.398-.116.797-.154 1.21.906.526 3.568.327 1.369.981.752-.128 2.526.484 2.526-.17-.385-.086-.983-.058-.945-.342.251 0 .579-.029.945-.086.463.214 1.389.427 2.449.57-.424.668-2.41.227-2.622 1.067 1.89-.697 3.336.114 5.072-.356-.868-.085-1.543-.27-1.852-.64 1.215.128 2.449.156 3.221-.029 1.6.143 3.201.47 5.11.996.54-1.337 1.62-.384 3.568-.427-.155-.199-.56-.569-1.042-.953 2.604.085 4.629.484 7.483.27a.506.506 0 0 1 .154.1c-1.157.498-4.069-.256-5.072.356 1.832.356 3.876.37 5.805.555-1.466.028-3.105.043-5.168.028.231.726 2.68.128 3.856.968 1.64-.1 3.317-.157 4.976-.2.289.114.559.228.829.37-5.92-.27-11.841.356-16.411-.44 2.276-.029 4.879-.285 5.785-.698-4.146.2-7.328.114-9.661.242.154.313 1.543.456 3.24.456-.328.483-1.37.455-2.025.711 0-.341.79-.427.077-.598-10.279 0-19.767.356-32.571-.085l-.058-.057Zm-38.916-7.001c.251-.028.521-.043.791-.057-.29.043-.56.071-.791.057Zm44.103 10.843v-.711c-.598.056-1.581.014-2.507 0 .135-.143.174-.328 0-.555 2.392.227 5.419-.584 5.959.142-1.273.085-2.449.213-3.432.427 1.099 0 2.314-.085 3.509-.157 0 .128-.038.285-.135.484 1.466.085 1.659-.27 1.852-.57h.578c.27.172.579.285.926.357-1.832.114-3.587.754-6.73.612l-.02-.029Zm8.273-.54s.155 0 .251-.015c.058.029.135.043.193.071a5.234 5.234 0 0 0-.424-.057h-.02Zm8.1 0c.154.113.27.255.405.412-.502-.071-.945-.185-1.312-.356.29-.028.598-.042.907-.057Zm1.311.483c1.234-.028 2.507-.057 3.838-.071-1.427.1-2.719.142-3.838.071Zm12.284.057s.077-.057.193-.128c1.485.014 2.989.043 4.493.085-1.6.043-3.182.072-4.686.043Zm30.952 2.874c3.162.072 12.226-.47 14.501.484-4.377-.27-13.267.57-14.501-.484Zm34.808.712c-.251-.64 6.807-.683 7.733-.242.039 1.053-4.3-.17-7.733.242Zm11.59 4.795c2.507-.44 2.912.1 5.804-.242 1.524.826-6.479 1.139-5.804.242Zm.964-3.358c-.983-.156-1.003-.555-2.893-.47 2.816-.227 9.604-.853 9.662.243-1.524.683-5.188-.541-6.769.241v-.014Zm24.183-.711c-2.469-.413-10.915.455-14.502-.242 3.24-.427 13.017-.968 14.502.242Zm-13.538 4.311c5.38-.156 17.125.043 24.183.242-4.359.37-21.348.826-24.183-.242Zm14.502 5.265h-9.681c1.852-.156 9.18-1.053 9.681 0Zm-19.342 1.21c-.27.156-2.469.37-4.995.47h-4.84c-1.235-.072-2.257-.214-2.739-.456h12.554l.02-.014Zm-21.271 0c1.909.156 4.05.27 5.882.455h-5.882c-.135-.114-.154-.256 0-.44v-.015Zm-15.466-.242c-4.204.74-10.491.341-14.521.669h-5.207c2.951-1.067 14.598-1.053 19.728-.669Zm-26.439.683h-1.986a11.572 11.572 0 0 1 1.986 0Zm6.711 1.85c.058-.17.039-.285-.039-.384.155-.072.29-.143.425-.228a19.97 19.97 0 0 1 1.176-.043c0 .043.039.072 0 .128a8.193 8.193 0 0 1-1.813.982c-.925.014-1.658 0-2.025-.213.772.057 1.543 0 2.257-.242h.019Zm.559.441c.425-.526 1.601-.228 2.662.029 0 .042 0 .07.057.113-.964-.142-1.89-.142-2.719-.142Zm13.364 6.375c4.069.768 8.64.242 14.502.242.212 1.11-3.452-.242-4.84.484.347.327 2.275.256 2.179.683-2.796 0-5.38 0-7.752.028 1.581-.071 3.992.085 3.625-.47-.983-.54-4.455.314-7.733 0v-.953l.019-.014Zm-9.661.953c4.474.214 6.981-.555 8.697.242-1.89-.014-3.567.143-5.13.313-4.146.057-6.614.157-7.135.27.772-.839-3.914-1.024-4.821-1.052a252.474 252.474 0 0 0-4.59-.114c4.204-.142 8.466-.313 12.998-.384.367.341 1.157.398 0 .725h-.019Zm-28.715.072c1.62 1.266 11.629.199 17.472.611-5.882.328-13.48-.156-18.725.755-.116-.242 4.165-.484.964-.712-.598.128-1.35.242-2.198.342.328-.598 1.716-.64 2.487-.996Zm-9.237.867c-.463.2-.945.385-1.485.527-1.504-.014-2.68-.114-3.104-.27 1.234-.157 3.239-.128 4.608-.256h-.019Zm-7.501 1.452c-3.24.455-6.345.441-9.411.455-.367-.284-.656-.612-1.678-.597-.193.555-1.003-.2-1.253.27.327.057.539.17.578.356-.887 0-1.774.042-2.661.1-2.16.042-4.821.327-6.595.483 1.581.057 2.815.057 3.895.057-.675.228-1.253.512-1.832.811-1.793 0-3.625.029-5.4.157-.289-.029-.559-.057-.867-.086-.251-.412 0-1.081-.714-1.266-.154.982-.636.384-1.215-.057.637-.2 1.273-.356 1.89-.356.829 0 .521 1.039 1.157.94.309-.043-.193-1.11.096-1.21 1.485-.47 2.874.27 4.899.142 2.005-.114 4.204-.37 6.325-.597 5.284-.114 10.741-.456 12.786.384v.014Zm-17.048-2.433c-.038.398-.058.797-.096 1.21-3.124-.157-5.361.042-7.309.37-2.276 0-3.857.127-5.033-.072 4.975-.811 9.584-1.451 12.457-1.508h-.019Zm-18.031 2.476c2.353 0 5.014-.114 7.56-.256-1.312.298-2.642.597-4.185.81-.058-.028-.096-.07-.193-.099-1.408.2-3.78.185-6.017.285l-.983-.043a719.81 719.81 0 0 1 3.818-.683v-.014Zm-9.218 5.877c-.501.085-1.06.156-1.658.227-.019-.043-.039-.057-.058-.114.501-.028.964-.085 1.446-.128h.27v.014Zm-1.272-4.668c.212-.085.424-.17.597-.313v.014c-.173.143-.347.27-.617.328v-.043l.02.014Zm-.058.342s.058.07.077.128c-.656.27-1.755.484-2.951.626.81-.27 1.697-.669 2.874-.754Zm-2.604 4.752c-.347.029-.694.043-1.041.057.424-.085.791-.142 1.041-.057Zm-1.485-4.04a1.593 1.593 0 0 1-.867-.599c.424-.1.945-.113 1.465-.113-.231.227-.54.44-.598.711Zm-1.735-2.263a33.82 33.82 0 0 1-2.7.299c.154-.285 1.466-.285 2.7-.3Zm-5.265-1.78c-1.08.157-2.179.314-3.24.47.656-.583 1.91-.583 3.24-.47Zm-8.929-.938c.116.085.27.17.502.284-.193.114-1.119.3-1.794.257.425-.185.868-.356 1.292-.541Zm1.89 1.266c-.327.413-.231.612 0 .74-.385.057-.771.114-1.137.17-.733-.298-1.813-.412-2.392-.782 1.235-.669 1.813-.27 3.529-.128Zm-7.482.356c.713-.043 1.35-.142 1.91-.256.27.1.54.213 1.002.284-.906.527-1.928.427-2.931.328 0-.114 0-.242.019-.356Zm-.077 1.053c.636-.555 2.237-.57 2.353.114-.791.114-1.582.242-2.392.355 0-.156.02-.298.039-.455v-.014Zm2.005 2.547c-.077.114-.135.2-.154.285l-.964.085c.308-.157.733-.256 1.118-.37Zm-3.567.555c-.56.057-1.138.128-1.794.27-.405-.284-.173-.47.367-.597.52.114.983.227 1.446.341l-.02-.014Zm-2.43-4.61a1.9 1.9 0 0 0 1.08-.413.76.76 0 0 1 .077.327c-.444.1-.848.143-1.157.086Zm2.121-.67a.5.5 0 0 0-.173.385c-.116.029-.232.057-.367.1 0-.171.135-.328.54-.484ZM87.752 56.9c1.446.498 2.68 0 4.512-.085.058.142.058.228.058.327-1.37.441-2.314 1.053-3.953.626-.077.072-.135.143-.193.2-.502-.186-.79-.47-.444-1.096l.02.028Zm.308 1.68c.039.156.039.27-.405.384-.366-.057-.694-.1-.983-.157.443-.313.906-.341 1.388-.228Zm-1.562 11.255c.174-.085.27-.17.328-.256 4.532-.57 9.41-.626 14.155-.583-.617.583-1.967.81-3.375 1.024 0-.17-.56-.356-.714-.014 1.273.683 4.957-.242 4.802-.996 3.394.042 6.711.1 9.681.028 1.543-.355-1.022-.939.714-1.18 1.484-.072-.463 1.365 1.754.953 1.562-.128 1.177-.555.888-1.082l3.509.043c-.347.512-2.545-.498-2.526.797 1.755-.2 1.562.47 3.047.398.366-.583 1.215-.882 2.083-1.195.385 0 .771-.014 1.137-.029a.307.307 0 0 0-.154.2c1.446.683 3.915.427 6.248.355 0 0-.038.029-.019.043 1.658.085 2.758.2 3.625.256.193.057.405.086.579.17-.039.3.347.385.405.627-2.141-.342-4.667.142-5.477-.27.482.355 1.061.54 1.697.669-6.595.711-11.532.142-18.185.142.116-.299 3.761-.185 1.89-.54-10.452 1.194-24.048 1.806-32.07 1.436.83-.242 1.736-.427 2.623-.626.077.029.154.057.27.085.289-.128.617-.241.925-.355.598-.114 1.215-.171 1.832-.256a.434.434 0 0 0 .309.156h.02Zm-5.457-5.677c0-.385.096-.797.347-1.182h.655c.444.541 2.141.27 2.855.114.289-.057.636-.1.983-.114-1.504.441-3.124.826-4.821 1.181h-.02Zm1.253-7.841c.405.256 1.08.384 1.948.398.135-.54-.52-.654-.347-1.223 2.314-.342-.52 1.949 1.793 1.593-.289.57-1.485.47-1.195 1.452-1.736-.94-2.064-.797-5.4-.868-.579-1.608 3.355-.029 3.182-1.352h.02Zm-.54 2.803c-1.022.17-2.025.327-2.931.498-.713-.213-1.234-.484-1.35-.81.579.07.887-.03 1.041-.257 1.177.711 2.315.583 3.26.57h-.02Zm-7.424-6.816c.424-.028.463.142.463.327-.29.484 1.85.057 2.024-.199.598.54 1.832.726 1.254 1.878-.309-.953-2.758-.81-3.818-1.394.038-.2.057-.398.077-.598v-.014Zm-2.122 4.497s.135.014.213.028c.289.142.482.17.674.114.174.029.367.057.579.085.154-.014.27-.1.366-.199h.174c-.308.655-1.022 1.025-2.16 1.11.058-.384.097-.754.154-1.138Zm-1.176 1.394c1.446.384-1.138 1.38 1.832 1.295.231 1.039-2.083.285-1.697 1.423-1.1-.185.501-1.75-1.832-1.295-1.06-.37 2.334-.299 1.697-1.423Zm-3.432-8.04c1.099 0 1.542.328 1.369.982-.83.854-2.488-.925-2.565.47-.502-1.324-3.047.54-4.436-.527.791-2.191 5.342.655 5.632-.939v.014Zm-11.59.342c1.85.114 1.369.413 2.989.142.096 1.082-3.587 1.153-2.99-.142Zm3.432 4.397c.097.37-1.581.968-1.543.228-.482-.015-.424.355-.578.583-.868.071-.907-.285-.907-.655-.578-.07-.906.029-1.04.257-1.12-1.224 2.95-.812 4.068-.399v-.014Zm-4.512 8.908c.27 0 .54-.014.79-.014.097 0 6.885 1.309 4.03-.1.618.17 1.39.299 2.2.384-1.66 1.053-4.668.413-6.21 1.765-1.524 0-2.527-.228-3.028-.698-.193-.683 2.391-1.081 2.198-1.351l.02.014Zm-10.761.782c1.041-.142 1.986-.27 2.893-.398 2.68-.114 5.11-.285 7.116-.356-2.912.669-7.29 1.992-9.99.769l-.02-.015Zm-1.967 36.614c1.35.071.405 1.01 2.063.967.058.655-2.545.057-3.587.185.058-.597 1.967-.327 1.524-1.152Zm-4.03 13.76c.019-.299.057-.598.077-.897 1.658-.042 2.738.128 3.529.413-.637.427-2.334.356-3.606.498v-.014Zm113.623 13.49c2.199-.996 6.094-.214 7.849-.057-.617 1.366-5.863.057-7.849.057Zm8.524.555c.559-.598 2.256-1.167 3.606-.484-.174.654-1.851.583-3.606.484Zm7.096.227c4.59-2.646 18.552 1.509 21.541-1.75 1.485.342-2.005 1.978 2.719 1.594-4.474 1.181-16.584-.356-24.26.156Zm220.382-5.051c-.212 0-.443 0-.636.014 1.774.384 5.438.085 8.852-.014h3.432c.83.042 1.582.114 2.199.256-4.397.128-3.182.64-5.284.711h-1.292c-.212 0-.425 0-.656-.014.174 0 .289 0 .424.014-47.266 0-92.7 0-127.566-.142.135-.028.251-.071.328-.114-.212-.057-8.447-.156-11.551.057-2.739 0-5.4-.028-7.965-.043h.193c-3.606-.156-11.339-.412-17.221-.128-17.163-.17-27.731-.427-28.927-.797 3.915.228 90.444.214 185.709.214l-.039-.014Zm-181.62 2.035c.675-1.153 8.254-.328 9.989 0-.983.782-6.961.583-9.989 0Zm9.064 2.39c-.058-.313 158.98-.854 280.896-.854.174.086.444.143.907.157.173-.071.366-.114.559-.157h4.879c1.041.114 2.063.214 3.027.157.078-.057.078-.114.039-.157h15.138c.135.057.29.114.521.157 3.028.327 5.612.1 6.788-.142h6.923c1.331.199 2.526.455 3.548.782-123.053.029-322.222.086-323.206.057h-.019Zm395.098-.071c1.582-.114 3.587 0 5.072-.156 0 .056-.096.113-.212.156h-4.86Zm80.243-43.856c1.138 0 3.105.384 3.027-.783.078.299.521.441.83.64a.366.366 0 0 0-.29.257c-.443.014-.848.156-1.08.313-.809-.157-1.639-.3-2.487-.441v.014Zm9.661.64c.617-.242 1.524-.17 2.391-.071-.694-.028-1.369.057-1.716.142a6.877 6.877 0 0 0-.675-.07Zm2.314 1.58-.135-.2c.135-.028.29-.042.425-.085-.116.086-.232.185-.29.299v-.014Zm.926-.769c.154-.185.251-.412.27-.725.058 0 .116.014.154.028 0 .313-.193.526-.424.697Zm6.113-1.565c-.116.057-.231.1-.328.156.135-.056.29-.1.425-.127.25.056.482.127.732.199a1.315 1.315 0 0 0-.906.455 13.172 13.172 0 0 1-.656-.1c.077-.156.213-.313.405-.427-.25.114-.405.257-.443.427-.386-.056-.772-.113-1.177-.17.039-.157-.115-.285-.771-.342.039.114.019.17.019.242-3.972-.54-7.964-.953-9.025-.54-1.06-.271-1.87-.641-2.796-.983.54.114.964.214 1.369.285-.038.028-.077.057-.096.1 2.545.825 12.284.327 3.548.114-.116-.057-.482-.157-.906-.242-.039-.129 0-.285.038-.456 3.549.171 7.406.64 10.568 1.423v-.014Zm-3.645-3.017s-.077.029-.173.014c-.579-.1-2.199.057-3.587.356a15.829 15.829 0 0 0-2.044-.754c1.909.114 3.857.228 5.804.37v.014Zm.579-7.812s-.116-.028-.174-.028c.502-.612 1.37-.982 3.086-.74-.482.597-1.311.953-2.912.768Zm6.055-16.634c-.771.654 1.138 1.195-.154 1.195-2.912-.413-13.866-.754-18.725-2.434.058-.398.906-.227 1.08-.554-2.681-.072-3.452-1.281-5.477-.27-.077-.115.598-.57.579-.57-4.05-.84-14.213-1.864-19.343-1.551-3.259-.953-14.27-2.078-13.942-.683 2.719-.655 4.493.54 6.768 1.85-3.22-.64-4.531-.142-7.675 1.138 0-.754.907-.896 1.196-1.451-2.989.512-1.061-1.082-2.199-2.22-2.41.669-6.305-2.035-6.479-.313-1.35-.57-8.157-2.22-8.003-.1 1.523.071 4.3-.868 4.493.214-1.716-.555-.443 1.01-1.62.825-1.774-.712-2.507.968-4.512.085-.039.854-1.659.57-2.411.925h-.27c-.019-.199-.019-.412-.366-.455.733-.242 1.697-.37 3.047-.455.308-.726-.502-.883-1.389-.997.27-.199.695-.227 1.832.242-.52-.384-.752-.668-.79-.925.636-.014 1.215-.128 1.619-.384-.25 0-.732 0-1.446-.014.444-.384 1.639-.669 3.529-1.067-2.372.085-4.165-1.907-.964-1.68-.039-1.038-5.13-.81-3.876-2.148 2.95.726 1.35-.882 3.876-.968 1.466-.028 2.873-.07 4.223-.128.212.897 2.835 1.324 3.896.712-.482-.256-.733-.612-1.273-.84 10.471-.555 18.05-1.835 28.637-2.376a.45.45 0 0 1 .135.028c1.929-.455 4.359.072 3.78 1.694 6.017 1.067 11.108 1.38 14.116 3.116 6.21.897 18.822 3.572 25.051 7.57-7.078-1.835-15.409-3.7-22.968-4.454.405-.042.983.043 1.041-.256-3.779-.07-8.948-1.522-11.917-.882-1.138-1.21-4.089-.925-5.304-1.466-.366.527 1.292 1.324-.192 1.509.809-1.153-1.736-.811-.29-1.523-2.083.512-6.904-1.594-7.521-.071-1.215-1.38-4.107.498-3.374-1.067-.521 1.451-2.16-.783-3.028.156 1.138.441 2.623.712 2.796 1.65-1.755-.753-.019.798-1.658 1.125 1.388-.014 2.661-1.807 4.088-.712-1.697-.697-2.642 1.267-1.562.527.482-.427 1.658-.356 2.565-.47-.695.37-.81 1.082.328 1.224.135-.341.829-.284 1.542-.228.27-.498-.636-.81.116-.896 1.369-.157-.54 1.395.829 1.252.425-1.494.849.27 1.987.1-.675-.868 1.465-1.28 1.581-.527-1.157-.526-1.601.954-.617.883 2.237-.47 2.757.611 5.939.597-.27-.782-.559-1.409.733-1.778.058.426.752.54.868.953-2.025-.185.019.427-.656 1.181 2.507.17 6.171 1.437 7.02.043.173.142-.328.81-.116.896 3.008 1.338 13.673 2.106 19.092 3.358 2.16.498 3.509 1.665 4.242 2.021-.366-.185 2.526.043.907.655 1.619 0 2.024.64 3.934.498-.328.427.366 1.58-.695 1.48l.116-.897c-2.95.982-5.901-.228-6.769-1.85V57.1Zm6.538 22.753c.231-.384-.251-.64-1.1-.854h.097c-.077 0-.193-.014-.27-.028-1.003-.242-2.411-.441-3.722-.726 1.369-.228 2.719-.327 4.108.014.038-.057.096-.085.135-.128 2.95.769 5.881 1.68 8.735 1.38-.906-.498-2.719 0-4.242-.725 1.465-.797 3.22.512 4.937-.157-.039.882 1.311 1.167 2.333 1.58.733-.47-.096-1.167-1.466-1.58h.27c.039 0 .039.029.078.043.192 0 .327-.043.482-.071.482-.029.983-.043 1.407-.086-.173.37-.482.712-.713.797a13.683 13.683 0 0 1 1.697-.07c-.097.056-.154.099-.289.198.231-.07.501-.114.771-.156 1.292.057 2.526.284 3.703.583-.29.27-.521.555-.617.825-1.235-.298-2.546-.64-3.414-1.309-.598.37-1.369 1.423 1.119 1.238-.444.627-1.08.598-1.813.413a.65.65 0 0 0 .077-.285c-.231.029-.405.086-.617.129-.598-.171-1.253-.37-1.928-.385.405.2.867.37 1.33.513a14.44 14.44 0 0 0-1.832.555c-2.989-.826-5.901-1.509-9.295-1.665l.039-.043Zm10.24 1.921c.694-.128 1.465-.2 1.851-.54 2.7.682 5.882.995 7.232 2.817-3.433-.626-6.306-1.494-9.083-2.277Zm8.813-.256c-.463-.299-1.157-.498-1.91-.683.232-.2-.192-.64.29-.91.212.056.405.113.617.17.116.384.463.398.829.256.328.1.636.213.964.313-.115.384-.328.697-.771.84l-.019.014Zm.925-1.75s-.077-.029-.096-.057a.541.541 0 0 0 .116-.143c0 .072 0 .128-.02.2Zm2.893 2.063s.077-.085.096-.142a.83.83 0 0 1 .212.07c-.115.043-.212.043-.327.072h.019Zm1.118-4.084c.309-.043.772-.2 1.389-.142-.424.526 1.678 1.309-.135 1.508.038-.683-.482-1.053-1.292-1.28 0-.03 0-.058.019-.086h.019Zm-.482 2.817c.328 0 .386-.142.425-.284 1.08.256.038.555-.078.91-.212 0-.404 0-.597-.014.096-.199.173-.398.231-.597l.019-.015Zm.482-5.962c-.385-.512-1.504-.413-1.716-.669.926-.085 1.62-.284 2.16-.54 1.562.47 3.047.925 4.358 1.38-1.851-.142-3.548-.157-4.821-.17h.019Z" clip-rule="evenodd"/></svg>