<svg xmlns="http://www.w3.org/2000/svg" width="894" height="38" fill="none" xmlns:v="https://vecta.io/nano"><path opacity=".5" d="M231.741 8.26465H229.895C227.686 8.26465 225.895 10.0555 225.895 12.2646V18.3528M231.741 28.4409H229.895C227.686 28.4409 225.895 26.65 225.895 24.4409V18.3528M225.895 18.3528H1.52588e-05" stroke="url(#A)"/><path d="M359.04 36.217c-.052 0-.104-.052-.156-.104l-2.496 1.092h2.652v.312h-8.216v-.208h-.728v.208h-2.964c-.156-.312-.52-.468-1.404-.208l-.312-.312h-.052v-4.836c.156.052.312.104.52.104.052-.156.156-.26.208-.416l-.728-.156v-5.408c.052-.052.052-.052.104-.052-.052-.052-.052-.052-.104-.052V13.493c.104-.052.208-.104.26-.156h.052c.728.364.26.78 0 1.144l-.104.104.104-.104c.364 0 .936 0 1.04-.104l.416-.572h-.988v-.832c-.156.104-.312.26-.468.364h-.052c-.052 0-.156-.052-.26-.052V9.541c.312.156.728-.052 1.924-.52h-1.924V6.993l.156-.156s-.104 0-.156-.052v-1.56h.416c-.156-.156-.26-.312-.416-.468V1.481l2.392.104v-.572l.832-.26c-.052-.052-.156-.104-.208-.104h3.016v11.076c-.052-.104-.208-.208-.26-.312-.26.104-.52.208-.624.312-.052.052.208.208.416.364.208-.104.416-.208.468-.312v5.044c-.312.104-.572.156-.936.312l.936.156v4.524l-.572-.156c-.052 0-.26.156-.26.208.104.104.312.208.468.312.104-.052.208-.156.364-.208v4.264c-.208.104-.416.156-.624.26.052.052.104.052.156.104l.468-.312v2.964c-.26.052-.468.104-.676.312l.676.26v1.3c-.156.156-.26.312-.208.416 0 .052.104.104.208.156v.468h7.644v4.056zm-7.8-21.216c-.052 0-.104 0-.208.052.104.052.156.052.208.104.052 0 .052-.052.104-.104-.052 0-.052-.052-.104-.052zm3.276 20.644c-.208 0-.416.104-.624.156.156.104.26.26.468.364.052 0 .364-.104.624-.208-.208-.156-.312-.26-.468-.312zm-3.744-17.108h-.468c.052.26.156.468.208.676h.416l-.156-.676zm.156-12.532c-.052 0-.052.052-.104.104.052-.052.052-.104.104-.104l.104-.104-.104.104zm-.364-1.04l-.364-.364-.416.208c.052.104.208.208.364.312.052 0 .416-.104.416-.156zm-.676-1.04c-.156-.104-.26-.208-.416-.312.156.104.26.208.416.312.052.052.104.052.156.104-.052-.052-.104-.052-.156-.104zm-.104 2.964l-2.392 1.196 2.34.104c.416-.52 1.144-.884.208-1.352h-.26c.052 0 .052.052.104.052zm-1.352 18.148c.104.104.26.208.364.312v1.456c1.248-.104 1.248-.624 1.196-1.092 0-.156-.728-.26-1.144-.364-.156-.104-.26-.208-.416-.312zm.936-12.22h.26c-.104 0-.156-.052-.26-.104v.104zm.312 3.952c-.052.052-.104.104-.104.156.052-.052.104-.052.156-.052 0-.052-.052-.052-.052-.104zm.208 7.332c.052 0 .104-.052.156-.052-.104 0-.208-.052-.312-.052.052.052.104.104.156.104zm-1.144-2.652c0 .104-.104.26-.052.364 0 .052.26.052.416.104.052-.104.104-.26.104-.364.052 0-.208-.052-.468-.104zm-.104-5.304c.156 0 .26-.052.364-.104-.104-.052-.208-.104-.312-.208-.104.104-.156.156-.208.26l.156.052zm-1.872-13.208c-.104.104-.156.156-.208.26.104 0 .26.052.364.052.104-.052.156-.156.208-.208-.156-.052-.26-.052-.364-.104zm-.208 4.004c1.56-1.144.78-2.028.104-2.86-1.04.884.364 1.716-.104 2.86zm.676 22.88c-.364-.052-.728-.052-1.092-.052v.208c.312 0 .676.052 1.04.052 0 0 .052-.156.052-.208zm-.832-2.964c-.052 0 .052.104.052.104h.416c-.052-.104-.104-.156-.208-.26-.104.052-.208.104-.26.156zm.468-1.924c.468-.572.468-.572-.208-.936a7.75 7.75 0 0 0 .208.936zm-.312-7.956c-.052.104-.156.156-.208.26.156 0 .312.104.416.104.104-.052.156-.156.208-.26-.104-.052-.26-.052-.416-.104zm-.26 1.976c-.052.052-.156.052-.208.052 0 0 .052.052.052.104.052 0 .156 0 .208-.052 0 0-.052-.052-.052-.104zm.728 1.82c.416-.728.052-.988-1.404-.884.572.416.988.624 1.404.884zm-.468.78c-1.196.364-.936.624 0 1.144v-1.144zm-.312 11.908l.312-.156c-.156-.052-.26-.104-.416-.104-.052 0-.156.104-.156.104.052.052.156.104.26.156zm1.144 2.496c.52-1.508.52-1.508-.936-1.872l.936 1.872zm.728-13.156c-.052 0 .208.312.312.312.26-.052.52-.156.884-.208-.208-.208-.416-.416-.468-.416-.26.104-.52.156-.728.312zm.312 12.064h.572c-.052-.364-.156-.728-.26-1.04h-.416l.104 1.04zm.728-1.716c.104-.208.208-.416.364-.624-.156-.052-.312-.052-.416-.104l-.364.676c.156.052.26.052.416.052zm.208-4.108c.052.052.104 0 .156 0-.104-.052-.208-.052-.312-.052.052.052.104.052.156.052zm.364 7.592c.156-.052.364-.104.52-.208-.104-.052-.26-.104-.364-.156-.104.052-.312.104-.312.156-.052.052.104.156.156.208zm.78-2.236l1.092-.468c-.416-.104-.676-.26-.884-.208-.26.052-.468.208-.728.312l.52.364zm.988 1.092c.104-.052.208-.104.312-.104-.052-.104-.104-.208-.208-.26-.052 0-.26.052-.364.104.052.104.156.156.26.26zm1.352 1.664l3.172.208c-.156-.312-.156-.572-.364-.676-.988-.26-1.664.052-2.808.468zm2.652-2.548c.208-.052.364-.104.52-.208-.104-.052-.26-.104-.364-.156-.104.052-.312.104-.312.156-.052.052.104.156.156.208zm1.716.78c.104-.052.208-.156.312-.26-.156-.052-.364-.156-.52-.208-.104.104-.312.208-.26.208.104.104.312.208.468.26zm-2.132-2.132c1.3.78 1.924.364 2.548-.156l-2.548.156zm-9.724 4.264v-.364c.052.104.156.156.26.26-.052 0-.052.052-.052.104h-.208zm2.392-36.504c-1.56-.104-1.976-.104-2.392.104V.649h2.86c-.156.104-.312.26-.468.364zm29.521 32.552h-.312c-.156 0-.312.156-.468.26.26 0 .572.104.78.052v3.64h-2.08c.052 0 .104 0 .156-.052s-.156-.26-.312-.312c-.156 0-.468.104-.572.208-.052 0 0 .104.104.156h-1.144c-.052-.156-.26-.312-1.092-.26.156.104.312.208.468.26h-4.368c-.052-.104-.364-.26-.884-.572-.26.208-.416.416-.416.572h-4.576v-.624c.104-.052.156-.156.208-.208-.052 0-.104-.052-.208-.052v-8.424l.832-.936c-.312 0-.572 0-.832.052v-6.084c.104.052.156.052.208.104v-.416h-.208V9.749c.052-.052.104-.104.208-.156-.104 0-.156-.052-.208-.052v-6.76c.156 0 .26 0 .364-.052.208-.052.26-.312.364-.468h-.728V.649h11.856c-.52.156-.364.312.312.884.104-.364.208-.624.312-.884h1.976v2.132c-.572.208-.988.468-1.196.988.52 0 .884-.052 1.196-.156v2.392h-2.34c-.052-.052-.26-.052-.416-.104v.104h-5.668v5.98h7.02v2.34c-.208-.104-.364-.26-.52-.26s-.468.208-.416.26c.104.104.364.208.52.364.156-.104.26-.208.416-.312v3.016h-7.02v.416 14.196c-.052.052-.052.052-.104.052l.104.104h.052c.052 0 .104.052.156.104l.104-.104h8.372v1.404zm-2.288-31.252c-.104.052-.156.156-.208.26.156 0 .312.104.416.052.104 0 .156-.156.208-.208-.156-.052-.312-.104-.416-.104zm-11.908 23.244c.104-.052.208-.208.156-.26 0-.052-.26-.104-.364-.104-.104.052-.156.156-.208.26.104 0 .312.104.416.104zm11.128-12.948c-.104 0-.208-.052-.312-.052.052.052.052.052.052.104.104 0 .156 0 .26-.052zm-.312 2.132v.936c.104.052.26.156.26.156.728-.312.312-.52-.156-.728 0-.156-.052-.26-.104-.364zm-1.352 1.456h-1.248c.104.416.208.728 1.196.832.468.052.936-.052 1.716-.156l-1.664-.676zm-2.34-3.952c-.26.052-.468.208-.832.364.364.104.624.26.728.26.26-.104.416-.26.572-.416.052-.052-.364-.26-.468-.208zm2.756-10.66c-.052 0-.104 0-.156-.052.052.052.104.052.156.052.052.052.104.052.156.052-.052 0-.104 0-.156-.052zm-1.092.884c-.052 0-.104.052-.156.052 0 .052.104.052.104.052.052 0 .104-.052.156-.052l.624-.312c-.052-.052-.104-.104-.208-.104-.156.104-.364.208-.52.364zm-.624 2.184c-.052.052-.208.156-.156.208s.26.104.416.104c.052-.052.104-.156.156-.208a.98.98 0 0 0-.416-.104zm-.728-2.6c-.104-.052-.312.052-.468.052l.312.312c.104-.052.26-.104.364-.156-.104-.052-.104-.208-.208-.208zm-.364 1.82c-.052.052-.104.156-.156.208 0 0 .156.104.208.052.104 0 .208-.052.312-.104-.104-.052-.26-.104-.364-.156zm-1.716-2.496c-.052 0-.26.104-.364.156.104.104.26.208.416.312.052 0 .26-.104.468-.156l-.52-.312zm-.104 2.6c-.156.052-.364.208-.364.312 0 .052.312.104.572.208l.364-.364c-.156-.052-.416-.156-.572-.156zm-1.144 1.716c.416-.884.364-.884-1.456-.676l1.456.676c.676.624.676.624 1.664.156l-1.664-.156zm-2.34 18.252c-.052.052-.104.156-.208.208.156.052.312.104.416.104.104-.052.104-.156.208-.208-.156-.052-.26-.052-.416-.104zm-.156-6.24c0 .052.156.104.156.104.156-.052.26-.104.364-.156-.104-.052-.156-.104-.26-.156-.104.104-.208.156-.26.208zm.416 11.856l-.676.728c.156.052.312.052.468.104l.78-.676c-.156-.052-.364-.104-.572-.156zm.936-14.768c-1.144.676-1.144.676-.208 1.404l.208-1.404zm-.728-1.612c1.092.78 1.092.78 2.184.26l-2.184-.26zm1.092-5.2c-.052.052.104.156.156.208.104 0 .26-.052.416-.104-.052-.052-.104-.156-.156-.208-.156 0-.364.052-.416.104zm0-6.604c-.728-.364-1.3-.52-2.132-.208.624.624 1.196.728 2.132.208zm-2.392 9.984c-.052.052-.208.156-.156.208s.26.104.416.156c.052-.104.156-.208.104-.26 0-.052-.208-.052-.364-.104zm.26 10.764h-.312v.208c.104-.104.208-.156.312-.208zm-.052-8.684c.052-.104.104-.156.104-.208-.052 0-.104 0-.208.052.052 0 .052.052.104.156zm.052 15.34c0 .052 0 .104-.052.156.052 0 .156-.052.156-.052 0-.052-.052-.104-.104-.104zm-.416-12.428c-.052 0-.208.052-.156.104 0 .052.104.104.156.156l.312-.156c-.104 0-.208-.052-.312-.104zm-.52-1.612c.104-.052.156-.052.208-.052s0-.052 0-.104h-.156c0 .052 0 .104-.052.156zm-.416 14.144c.104 0 .156 0 .208.052-.052-.052-.104-.052-.156-.104-.052 0-.156 0-.208-.052.052.052.104.052.156.104zm3.172 3.796c-.468-.988-1.456-1.3-2.964-.884.52.78 1.924.624 2.964.884.052 0 .156.052.208.052-.052 0-.104-.052-.208-.052zm-.208.78c-.052.052-.156.052-.208.104.104 0 .156.052.26.104 0-.052.052-.052.052-.104l-.104-.104zm.156 3.952c.052 0 .312-.052.52-.052-.156-.156-.26-.26-.416-.364-.052 0-.26.052-.416.052.104.104.208.26.312.364zm.312-2.132c.104.104.26.156.468.312.208-.208.364-.312.468-.416-.104-.052-.312-.104-.364-.104-.208.052-.416.156-.572.208zm.676-9.464c.104 0 .26-.052.416-.104-.104-.052-.208-.156-.312-.26l-.312.156c.052.052.104.208.208.208zm.156 5.2c-.052 0-.104 0-.156.052.052 0 .104.052.104.052.052 0 .156-.052.208-.052-.052 0-.104-.052-.156-.052zm.208 5.304c.052-.104.208-.156.156-.208-.052-.104-.26-.104-.364-.156-.052.104-.208.208-.156.208.052.104.26.104.364.156zm0-7.28c.26-.104.416-.208.52-.312.052-.052-.104-.208-.156-.208-.208 0-.52.052-.572.104-.052.104.104.208.208.416zm.26-6.708h.208c.052-.052 0-.104 0-.104-.052 0-.104-.052-.156-.052 0 .052-.052.104-.052.156zm.364 2.496c.104 0 .208-.104.364-.104l-.312-.156c-.052.052-.156.104-.208.208 0 0 .104.052.156.052zm-.156-3.952c.312-.156.624-.468.572-.676-.052-.156-.676-.26-1.196-.416-.208.468-.416.832-.624 1.144h-.572v.78c.416-.104.78-.26.624-.78.416 0 .936.052 1.196-.052zm.52-6.136c0 .104.156.156.208.26.156-.104.312-.156.468-.208l-.312-.156c-.156.052-.312.052-.364.104zm1.092 22.1c.052 0 .104 0 .156-.052 0 0 0-.052-.052-.104 0 .052-.052.104-.104.156zm.468-2.808c.104.468.26.884 1.56.936l-.936-1.092-.624.156zm3.12 1.716c.104-.052.156-.156.208-.208-.156-.052-.312-.104-.416-.104-.052.052-.104.156-.156.208.104.052.26.104.364.104zm.416-2.548c.052-.104.052-.156.052-.208-.416-.104-.832-.156-1.248-.208-.052.104-.104.208-.104.312l1.3.104zm1.404 3.38c0-.052.052-.104.052-.104 0-.052-.104-.052-.156-.052-.052.052-.052.052-.052.104 0 0 .104.052.156.052zm.468-.728h.208l-.104-.208c-.156 0-.312.052-.468.104.104 0 .208.104.364.104zm.208-3.12c.104-.104.208-.208.208-.312 0-.052-.26-.104-.52-.156 0 .156-.104.26-.052.364 0 .052.26.104.364.104zm23.206 4.836h-1.248c.26-.78.052-1.04-.572-1.872-.208.936-.364 1.456-.52 1.872l-3.328-.052c-.156-.052-.26-.104-.416-.208l-.52-4.264h-4.992l-.312 2.6-.728-.416-.728 1.196c.104.052.26.104.364.208l.988-.312-.156 1.248h-1.352c0-.052.052-.052.052-.104-.364-.052-.78-.052-1.144-.104.052-.52 0-.988-1.352-1.092l-.624.936 1.976.156c.052.052.104.104.104.208l-3.744-.052.364-2.496c0 .052.052.156.104.208.156-.052.312-.052.364-.104s-.052-.156-.104-.208c-.104 0-.312.052-.364.104l.728-4.836.104-.52.26-1.768.052.052v.052c.052 0 .104 0 .208.052-.052-.052-.156-.052-.208-.052v-.052c.052-.156.052-.312.104-.468-.052 0-.052.052-.104.052l.26-1.612c.052 0 .104 0 .156.052.156-.104.312-.208.416-.312-.156-.052-.364-.104-.52-.208l.312-2.08c.104-.052.208-.052.26-.104-.052-.052-.156-.052-.208-.104l.572-3.848c.104 0 .156 0 .26-.052-.104-.052-.156-.104-.208-.104l.208-1.3c.208 0 .468-.052.676-.104-.104-.104-.156-.26-.26-.26s-.26 0-.416.052l.156-.676c.52-.104.624-.572 1.04-.832-.312.052-.624-.052-.936-.104l.468-2.964s.052-.052.104-.052c-.052-.052-.052-.052-.104-.052l.988-6.24c.416.312.78.208 1.976-.156-.624-.156-1.144-.26-1.924-.364l.156-.884c.26-.104.26-.208.052-.52l.416-2.756.312.312c.208-.052.468-.052.468-.104-.052-.104-.104-.26-.208-.364a1.87 1.87 0 0 1-.572.104l.208-1.248h7.124l.26 1.664c-.052.052-.104.156-.156.208.052 0 .156.052.208.052l1.144 7.748c-.104.052-.208.052-.312.104.052.052.104.104.156.104.052-.052.104-.052.156-.104l.208 1.3c-.104-.052-.26-.052-.312-.052-.104 0-.156.156-.208.208.156.052.312.104.416.104.052 0 .104-.052.156-.104l.78 5.252h-.208c.052.364.104.676.312.884l.52 3.536-1.612.52.312.312c.676.104 1.092 0 1.404-.416l1.3 8.996c-.312.052-.624.156-.988.26l1.144.572.416 2.86c-.26 0-.52-.052-.78-.052-.312 0-.676.052-.988.052v.26c.572.052 1.196.052 1.82.052l.364 2.6zm-3.692-21.476c-.052 0-.156.052-.156.052.052.052.104.156.156.208l.312-.156c-.104-.052-.208-.104-.312-.104zm1.924 10.348c-.156-.052-.26-.104-.364-.104-.052 0-.208.052-.156.104s.104.104.208.156l.312-.156zm-.728-3.172l-.572.26.572-.26c.052 0 .052-.052.104-.052-.052 0-.052.052-.104.052zm-.572 1.872c-.208-.052-.468.104-.728.208.156.156.26.312.468.416.208.052.52-.052 1.04-.156-.364-.26-.52-.468-.78-.468zm-.884-1.144s-.26-.104-.364-.104c-.156 0-.416.104-.416.104.052.104.208.208.416.416.156-.208.312-.312.364-.416zm-.468 3.484c-.104-.052-.208-.104-.312-.208-.104.104-.208.156-.26.208 0 .052.156.104.156.104.156 0 .26-.052.416-.104zm-.832-13.624c-.884.052-1.352.364-1.612.728l.416.26 1.404-.884.78-.312c-.104-.052-.208-.156-.312-.208-.208.156-.416.26-.676.416zm.052 4.004c-.104-.104-.208-.208-.364-.312-.156.104-.312.156-.468.26.156.104.312.156.52.26l.312-.208zm-1.404-8.58c-.52-1.092-.52-1.092-1.768-.676l1.768.676zm-1.612-3.9l1.248-.572-.416-.26-1.092.676c.052.052.156.104.26.156zm1.716 1.82c.052.104.312.156.416.104.104 0 .104-.104.208-.208-.156-.052-.312-.052-.468-.104-.052.104-.208.156-.156.208zm.884-1.196s-.052-.208-.104-.208l-1.248.052c.052.156.104.26.156.364l1.196-.208zm-1.872-4.628l-1.404.936.52.572c.78-.312.832-.936 2.184-.884l-1.3-.624zm0 6.344c-.884-.468-1.404-.364-1.82.312l1.82-.312zm-1.092 2.86c.104-.468-.26-.624-1.04-.676.104.156.104.208.156.312-.312-.052-.572-.052-.988-.052-.052.208-.156.416-.208.624l2.08-.208zm-1.196 4.368c.104 0 .156-.104.208-.208-.156-.052-.312-.104-.416-.104-.104.052-.156.156-.208.26.156 0 .312.104.416.052zm.104.52c-.26 0-.468-.052-.676-.052-.104 0-.156.156-.208.26.26 0 .416.052.676.052.052 0 .104-.156.208-.26zm-.78-13.988l-.312.156s.052.104.104.104h.416c-.052-.104-.156-.156-.208-.26zm-1.612-.26h.208c.052 0 .104 0 .156-.052-.052-.052-.104-.052-.156-.104-.052.052-.156.104-.208.156zm-.624 1.768c.052.052.104.052.156.104l1.248.676c0-.52-.052-1.04-1.196-.728-.104 0-.156 0-.208-.052zm.468 1.3c.052 0 .104-.052.104-.104 0 0-.104-.052-.208-.052 0 .052-.052.104-.052.156h.156zm.676 1.352c0 .156.208.26.416.468.26-.26.52-.364.468-.468-.104-.104-.312-.208-.52-.208-.104 0-.364.156-.364.208zm.468 6.916c-.156-.104-.26-.208-.364-.312-.052 0-.364.104-.364.104.052.104.156.208.208.312.26-.052.364-.104.52-.104zm-.52-4.888c-.104.052-.208.156-.26.208 0 0 .156.104.208.104.104-.052.208-.104.364-.156l-.312-.156zm-.468.832c-.104.052-.156.156-.208.208l.416.156c.052-.104.208-.208.156-.26s-.26-.052-.364-.104zm-.26 2.08s-.052.052-.052.104h.26c0-.052 0-.052-.052-.104h-.156zm.052 3.068c-.364.208-.676.26-.676.364 0 .156.156.312.312.468.052.052.572-.052.572-.104 0-.208-.104-.416-.208-.728zm1.976 3.172l-2.756-.156c-.156.728.78.988 2.132 1.3.26-.416.416-.78.624-1.144zm0 4.992c-.052-.104-.156-.156-.208-.208-.104.052-.208.156-.312.208.156 0 .26.052.416.052.052.052.156-.052.104-.052zm-3.796-6.812c.156 0 .26-.052.416-.052-.052-.104-.104-.156-.156-.26-.156.052-.312.052-.364.104s.052.156.104.208zm-.572 6.5c-.208.208-.104.468.52.572l.156-.416c.156-.052.312-.052.52-.104h.052-.052c.104-.156.26-.312.416-.468-.312-.052-.572-.156-.676-.104-.364.156-.728.312-.936.52zm2.756 6.24h-.988c-.26 0-.468.364-.676.52l-1.248.104.364.364.884-.468c.52.052 1.144 0 1.56.104h.104v-.624zm-.468-3.848s0 .052.052.104c.052 0 .104-.052.208-.052v-.104c-.104 0-.156.052-.26.052zm-2.444 2.444c.156-.052.312-.052.416-.156.052 0-.052-.104-.104-.208-.156.052-.364.052-.468.104-.052.052.104.156.156.26zm1.092-2.964c0-.052-.104-.156-.156-.208-.156 0-.364.052-.52.104.104.104.208.156.26.208.156-.052.364-.052.416-.104zm-1.612.78c-.832.572-.728.78.208.884.312.052.624.156.884.156.156-.052.208-.312.312-.468-.312.052-.572.052-.832.156-.156 0-.26.104-.364.156l-.208-.884zm-1.456 8.008l1.456-.156c.052 0 0-.26 0-.26l-1.456-.104v.52zm.884 2.912c.052 0 .104-.052.104-.104-.052 0-.104 0-.156-.052-.052.052-.052.104-.104.156h.156zm1.82-1.508c.052 0 .104 0 .156.052-.052-.052-.104-.052-.156-.052-.468-.312-.936-.572-1.768-.312.208.884 1.04.468 1.768.312zm.52-3.224c.156.156.26.312.416.468.104-.052.208-.052.312-.104-.208-.156-.468-.26-.676-.364a2.59 2.59 0 0 0-.988-.52l.104.676.832-.156zm.884 3.952c.104 0 .26-.052.364-.052-.104-.052-.208-.156-.312-.208-.052.052-.156.104-.208.208 0 0 .104.052.156.052zm.832-.884c.052 0 .104-.052.208-.104-.26-.104-.52-.26-.832-.364.104-.26.208-.468.26-.728-.676.208-2.028.416-.364.78l.728.416zm.208-13.52c.052.104.104.26.208.572.936-.624.416-1.092.104-1.716-.312.312-.416.52-.624.624-.312.104-.728.052-1.092.104 0 .052 0 .104-.052.156l1.456.26zm.312 5.148l.728-.208-.104 1.04c-.26 0-.468-.052-.78-.052.364.208.52.312.728.364l-.156 1.196s-.052 0-.052-.052v.364h1.508 2.236l-.312-2.6c.052 0 .052.052.104.052 0-.052.052-.052.104-.104-.052 0-.104-.052-.156-.104l-.052.052-.52-4.316c.052 0 .104-.052.104-.052s-.052-.052-.104-.052l-.104-.936c.052-.052.156-.052.208-.052-.052-.104-.104-.208-.208-.26 0 0 0 .052-.052.052l-.156-1.196.572.156c.364.156.728.364 1.092.572.052.312.052.624.104 1.04 1.456-.676 1.456-.676-.104-1.04l-1.04-.624-.208-1.092c-.156.052-.312.052-.52.104l-.312-2.964 1.716-.572c-1.3-.156-1.612-.208-1.768.156l-.208-1.768-.676 5.356c-.156.052-.364.052-.572.104l.572.156-.884 7.02c-.312 0-.572.052-.884.052.052.052.104.156.156.208zm5.356-3.068c.104-.052.156-.156.26-.208l-1.04-.416c-.104.104-.208.156-.312.26l1.092.364zm.104.832c-.052-.104-.104-.208-.208-.26-.052 0-.26.052-.416.052.104.104.156.208.208.312.156-.052.26-.104.416-.104zm-.572.624c-.156.104-.468.208-.468.312.104.104.312.26.624.468.208-.208.52-.364.468-.416-.156-.156-.416-.26-.624-.364zm.104 2.6c-.156 0-.312.156-.52.26.156.104.364.208.52.208.208 0 .364-.104.676-.26-.26-.104-.52-.208-.676-.208zm-4.628 3.64c.104-.052.26-.104.364-.156-.052-.104-.104-.208-.208-.208-.104-.052-.26.052-.416.052.104.104.156.208.26.312zm.988 2.392c.364 0 .676.052 1.04.052 0-.104-.052-.208-.052-.364-.312.052-.676.052-.988.104v.208zm1.3-1.664c.052-.052.156-.104.208-.156-.104-.052-.26-.052-.364-.104 0 .104-.052.156-.052.208s.208.104.208.052zm1.456-.676l1.404-.728c-.312-.156-.572-.312-.884-.416-.156-.156-.364-.26-.52-.416v.156c.156.104.312.208.52.26-.208.364-.364.78-.52 1.144h-.52-.052c0-.208-.052-.364-.104-.572-.104 0-.26.052-.364.052.156.156.312.364.468.52 0 0 .052 0 .052.052h.52v-.052zm2.6 4.784c.052-.104.156-.208.156-.364l-.468-.104c-.052.156-.104.26-.052.364 0 .052.208.104.364.104zm-.468-2.704h1.56c.104.104.26.208.364.312-.104-.104-.26-.208-.364-.312.052-.728-.468-1.04-1.82-.78l.156.728c-.312.052-.624.052-.988.052-.052-.052-.104-.052-.156-.052.052 0 .104.052.156.052l.572.728c.104-.052.208-.052.364-.052l.156-.676zm1.768 1.456l2.548.52c-1.144-1.144-1.3-1.196-2.548-.52zm23.091-20.488l-.572-.416c-.104.052-.26.104-.416.156l.832.78c.052-.052.104-.052.156-.052v.676h-.364c-.104 0-.156-.052-.208-.052.052 0 .104.052.156.052.052.26.208.416.416.52v2.028l-.884.104c-.208-.156-.364-.26-.52-.416a5.25 5.25 0 0 1-.832.676c.156.052.26.104.364.156l.936-.416.936.364v6.5c-.156.104-.26.208-.416.364-.624.572-.988 1.144.208 1.664.052 0 .104 0 .208-.052v1.924h-.312c.104.156.208.312.312.416v1.508c0 .832-.156 1.612-.416 2.392l-1.56.156h-.052l-.052-.052v.052h.052.052v.884c-.26.052-.572.156-.832.26.104.052.156.104.26.156l.572-.416 1.352-.208c-.78 1.82-2.184 3.276-3.952 4.16h-.052c-.26.104-.468.208-.728.364l-1.612.416c.104-.052.156-.104.208-.156s-.104-.156-.208-.26c-.156.052-.468.104-.572.208 0 .052.052.156.104.26-.26 0-.572.052-.832.052h-1.872l-.156-.52c-.208 0-.468.052-.676.104.052.156.156.312.208.416h-5.824v-2.912c.104-.052.26-.104.364-.104-.156-.104-.26-.208-.364-.26v-.52.052-.052-3.952h.52c0-.104-.052-.208-.052-.364-.156 0-.312.052-.468.052v-5.772c.104-.104.26-.156.468-.26h-.364-.104v-1.196-.78-.676-.156c.468.052 1.144.208 1.404-.052-.052-.208-.156-.416-.312-.728l-1.092.156v-1.924c.312-.052.52-.156.572-.364-.208-.052-.364-.052-.572-.104v-3.12l.78-.312c-.26-.156-.52-.312-.78-.416V.649h4.056c-.156.052-.364.156-.468.26l.468.312c.208-.156.468-.208.468-.312s-.156-.208-.26-.26h4.056a8.26 8.26 0 0 1 6.188 2.808c-.104.052-.208.052-.208.104-.052.052.104.156.156.208.052 0 .156-.052.208-.052 1.196 1.404 1.924 3.224 1.924 5.2v3.848zm-.156 8.996c-.052.052-.052.052-.052.104l.104.052.104-.104c0-.052-.104-.052-.156-.052zM415.67 6.629c-.156 0-.26.104-.416.156.052.052.156.156.208.156l.676-.156c-.208-.104-.312-.156-.468-.156zm.364 11.076c.052 0 .052-.052.104-.052-.052 0-.052.052-.104.052v.052c-.884.468-.884.468-.104.988l.104-.988v-.052zm.208 2.756c-.104 0-.156 0-.208-.052-.052.052-.156.052-.156.104 0 0 .052.052.104.052s.156-.052.26-.104zm-2.86-7.124c.156.104.26.208.416.312-.156-.104-.26-.208-.416-.312-.052-.052-.104-.052-.156-.052.052 0 .104 0 .156.052zm1.092 2.548c-1.404.312-1.404.312-.416 1.196l.416-1.196zm-.884 8.32c-.104-.052-.26-.104-.364-.156-.052.104-.104.156-.156.26a1.18 1.18 0 0 0 .208.052l.312-.156zm-.052-2.132c.052 0 .156.052.208.104 0-.052.052-.052.052-.104l-.104-.104c-.052.052-.104.052-.156.104zm.468 1.04c-.156.052-.364.052-.416.104s.104.156.156.26c.156-.052.364-.052.416-.104s-.104-.156-.156-.26zm-.312-3.796c.208.104.416.208.676.26.052 0 .26-.156.468-.26-.26-.104-.416-.26-.624-.26-.156 0-.312.156-.52.26zm.728-6.448c.208 0 .416 0 .572-.052-.104-.468-.208-.936-.468-1.404-.052-.052-.832-.052-1.404-.052l1.3 1.508zm.104-4.732c-.052.052-.156.104-.208.156 0 .052.104.104.156.104.104 0 .208-.052.364-.104l-.312-.156zm-.988-1.404a1.58 1.58 0 0 1 .364-.26l-1.248-.572c-.104.104-.156.156-.26.208l1.144.624zm-.52 11.7c-.052 0-.156-.052-.208-.052-.052.052-.104.104-.052.104s.104.052.208.052c0-.052.052-.104.052-.104zm.052-16.692l-.52.156c.104.104.156.156.26.208.156-.052.364-.052.416-.104s-.104-.156-.156-.26zm-1.768 2.496c-.052 0-.104-.052-.208-.052.104 0 .156.052.208.052h.52.052l1.352-.156c-.104-.104-.156-.208-.208-.26l-1.144.416h-.052-.52zm-.884.676c-.156.052-.26.104-.364.156 0 0 .052.104.104.104.156 0 .26 0 .416-.052-.052-.052-.104-.104-.156-.208zm-1.248-3.692c-.104 0-.26.052-.364.104.052.052.052.156.156.208.104 0 .26-.052.416-.104-.052-.052-.104-.156-.208-.208zm.312 2.08c-.156-.052-.26-.052-.416-.104-.052.052-.156.156-.156.208.052.052.26.052.416.104.052-.052.104-.156.156-.208zm-2.08-2.028c-.416.728-.104.988 1.196 1.248l-1.196-1.248zm.624 2.184l-2.548-1.092c.208.52.208.728.416.884.312.26.78.468 1.196.676h-.52c-.104 0-.156 0-.208-.052.052.052.104.052.156.052h.572a7.78 7.78 0 0 0 .936-.468zm-2.548 12.532v-.052c.728-.208 1.248-.468.728-1.092l-2.08.78.832.312v.052h.52zm-.052 2.652c-.312-.156-.52-.312-.676-.26-.208.052-.416.156-.624.26.208.104.416.208.624.208s.364-.104.676-.208zm.26-6.24s0 .052-.052.052c.052.052.156.052.156.052.052 0 .052-.052.104-.104h-.208zm0-7.072c0 .052.104.156.156.208l.52-.156-.312-.156c-.104 0-.312.052-.364.104zm.832 13.572c-.052.104-.104.208-.156.364.052-.156.104-.26.208-.364 0-.052.052-.052.104-.104-.052.052-.104.052-.156.104zm.104-10.4c.052-.052.104-.156.156-.208 0-.052-.156-.104-.208-.104l-.312.156c.104.052.26.104.364.156zm-.572-1.3l1.248-.26c-.052-.052-.104-.208-.156-.208l-1.248.052.156.416zm1.352 18.148c-.208.156-.468.312-.572.468-.052.052.312.208.468.26.208-.156.416-.364.572-.52-.156-.052-.312-.156-.468-.208zm-.468-1.352s.052.052.052.104c.052 0 .156-.052.26-.052-.156-.052-.208-.052-.312-.052zm.728-1.092s.052-.052.052-.104h-.208s0 .052-.052.104h.208zm-.416-11.648c.104 0 .208-.052.312-.104-.104-.052-.156-.156-.208-.208-.052 0-.156.052-.156.104s0 .156.052.208zm-2.236-7.124c-.104 0-.156.156-.208.26.208.052.468.052.676.104.052 0 .104-.156.208-.312-.26 0-.468-.052-.676-.052zm-.572-3.172c-.052.052-.052.156-.052.208h.416c-.052-.104-.104-.156-.156-.26 0 0-.208 0-.208.052zm-.208 7.28c-.052.104-.052.156-.052.26a1.18 1.18 0 0 0 .208.052c.052-.052.156-.104.208-.208-.104 0-.26-.052-.364-.104zm-.312 1.768c-.104.052-.104.156-.156.208.104.052.26.104.364.052.104 0 .104-.104.208-.208-.156 0-.312-.052-.416-.052zm-1.456-5.72c.052 0 .156.052.156 0 .052 0 .104-.052.104-.104-.052 0-.104 0-.208-.052 0 .052-.052.104-.052.156zm.364 2.184c.052 0 .156 0 .208-.052h-.364c.052.052.104.052.156.052zm.416-4.16c.156-.104.26-.208.468-.312-.26-.104-.468-.26-.624-.208-.208 0-.312.156-.468.26.208.052.416.156.624.26zm-.78 34.632c.104-.052.156-.156.208-.26-.156 0-.312-.104-.416-.052-.104 0-.104.104-.208.208a2.34 2.34 0 0 0 .416.104zm.52-9.672c.052 0 .104-.052.208-.104-.26-.104-.52-.26-.78-.416l-.312-.312c.052.104.104.26.156.416l.728.416zm.312-3.172c.052 0 .156-.052.26-.052-.104-.052-.208-.052-.312-.052.052 0 .052.052.052.104zm.884-7.332c-.208.052-.364.104-.52.208-.052.052.156.208.26.208.208 0 .364-.104.572-.156-.156-.104-.208-.208-.312-.26zm1.04 6.656h-1.56c.78.416 1.56.676 1.976.468l-.416-.936v.468zm-1.092 12.844c.052 0 .104 0 .156-.052 0 0-.052-.052-.052-.104-.052.052-.104.104-.104.156zm0-1.456c.312-.052.52-.156.884-.312-.364-.156-.624-.26-.78-.26-.208.052-.468.208-.468.312-.052.052.312.26.364.26zm-.416-3.224c.052.052.052.104.052.104h.312c-.156-.052-.26-.052-.364-.104zm1.248 2.132c.104-.052.26-.104.364-.156-.052-.052-.052-.156-.156-.208-.052 0-.26.052-.416.052.104.104.156.208.208.312zm-.676-2.964c1.56-1.04 1.56-1.04.104-2.028l-.624.468c1.352.364.364 1.04.52 1.56zm.728-2.6c.156 0 .416-.104.624-.156-.104-.104-.208-.26-.26-.26-.208 0-.468.052-.676.104.104.104.156.26.312.312zm.156-2.132c-.728.78-.052.832.832.78.156.624.676.416 1.508.104l-1.456-.104-.884-.78zm1.092 2.34l-.208 1.664c1.716-.624 1.716-.832.208-1.664zm.156 4.316c-.052-.052-.104-.052-.104-.104-.052.052-.156.052-.156.104l.104.104c.052-.052.104-.052.156-.104zm.156 4.16c.156 0 .364-.104.884-.312-.416-.104-.624-.208-.832-.208-.156 0-.468.156-.468.208.052.104.26.26.416.312zm1.976-2.34c.052-.104.208-.312.156-.416s-.364-.156-.572-.26c.208-.26.416-.572-.468-.624h-.26c.052 0 .104.052.156.104l.572.52c0 .156-.052.312 0 .416s.26.208.416.26zm2.288 1.04c.052-.052.052-.104.104-.104-.104 0-.156-.052-.208-.052-.052.052-.104.104-.052.104 0 0 .104 0 .156.052zm-.468-2.34c.26 0 .468-.052.676-.104-.052-.104-.104-.26-.156-.26-.208 0-.468.052-.676.052l.156.312zm.936-1.612c.26 0 .52.052.78 0 .156 0 .208-.26.26-.364.312 0 .624 0 .832-.052v-.416l-.832.468c-.156-.052-.364-.104-.52-.104.364-.416.572-.936.624-1.508.104-.052.208-.052.26-.104-.052-.052-.156-.104-.208-.156v-9.152c0-.052.052-.052.052-.104h-.052V8.813c0-.884-.416-1.612-.988-2.132.104-.104.156-.26.26-.416-.104-.052-.26-.052-.416-.104-.052.104-.156.156-.26.26-.416-.26-.884-.416-1.404-.416h-1.716v3.12c-.156.052-.26.104-.26.156l.26.26v11.336c-.104.104-.208.156-.26.26 0 .052.104.156.26.26v6.24c-.052 0-.104 0-.156.052-.468.26-.416.728.156.988v2.028c-.104-.052-.208-.156-.312-.208l-.312.156c.208.052.416.156.624.26v.208c-.26.416-.364.624 0 .832v.208h.468c.208.052.468.104.728.208.052.052.104.052.208.052-.052 0-.156 0-.208-.052 0-.052-.052-.156-.052-.208h.572c.624 0 1.144-.26 1.612-.572zm2.132 2.86c1.352-.208.26-1.04 1.508-1.352l-2.912-.624 1.352 1.924c-1.248-.208-1.248-.208-1.248.52.468-.208.884-.312 1.3-.468zm1.352-6.812c.26-.052.676-.312.676-.52 0-.156-.416-.364-.624-.572l-.936.572c-.104.052-.208.156-.26.208.364.104.78.312 1.144.312zm.52-3.12c.052-.104.156-.208.208-.364.468-.26 1.3-.52.052-1.04 0 .416-.052.728-.052 1.04-.052.156-.156.26-.208.364zm.676 4.732h.052v-.052l-.052.052zm2.34-1.04l-2.288.364c-.104-.104-.26-.208-.364-.312.104.104.26.208.364.312 1.092.26 1.092.26 2.288-.364zm-.52-5.772c-.728-.52-1.404-.26-2.548.156l2.34.208c.052 0 .26-.312.208-.364zm-1.872-11.596c.104 0 .312-.052.416-.104-.052-.052-.052-.208-.156-.208-.104-.052-.312.052-.468.104.104.052.104.156.208.208zm1.82.208c.104-.052.26-.156.208-.208-.156-.104-.312-.156-.52-.26-.052.104-.104.156-.208.26.156.052.364.156.52.208zm.78 13.624l-.26-.416c.104-.052.156-.052.26-.104v.52zm18.169 8.892h-.312c-.156 0-.312.156-.468.26.26 0 .572.104.78.052v3.64h-2.08c.052 0 .104 0 .156-.052s-.156-.26-.312-.312c-.156 0-.468.104-.572.208-.052 0 0 .104.104.156h-1.144c-.052-.156-.26-.312-1.092-.26.156.104.312.208.468.26h-4.368c-.052-.104-.364-.26-.884-.572-.26.208-.416.416-.416.572h-4.576v-.624c.104-.052.156-.156.208-.208-.052 0-.104-.052-.208-.052v-8.424l.832-.936c-.312 0-.572 0-.832.052v-6.084c.104.052.156.052.208.104v-.416h-.208V9.749c.052-.052.104-.104.208-.156-.104 0-.156-.052-.208-.052v-6.76c.156 0 .26 0 .364-.052.208-.052.26-.312.364-.468h-.728V.649h11.856c-.52.156-.364.312.312.884.104-.364.208-.624.312-.884h1.976v2.132c-.572.208-.988.468-1.196.988.52 0 .884-.052 1.196-.156v2.392h-2.34c-.052-.052-.26-.052-.416-.104v.104h-5.668v5.98h7.02v2.34c-.208-.104-.364-.26-.52-.26s-.468.208-.416.26c.104.104.364.208.52.364.156-.104.26-.208.416-.312v3.016h-7.02v.416 14.196c-.052.052-.052.052-.104.052l.104.104h.052c.052 0 .104.052.156.104l.104-.104h8.372v1.404zm-2.288-31.252c-.104.052-.156.156-.208.26.156 0 .312.104.416.052.104 0 .156-.156.208-.208-.156-.052-.312-.104-.416-.104zm-11.908 23.244c.104-.052.208-.208.156-.26 0-.052-.26-.104-.364-.104-.104.052-.156.156-.208.26.104 0 .312.104.416.104zm11.128-12.948c-.104 0-.208-.052-.312-.052.052.052.052.052.052.104.104 0 .156 0 .26-.052zm-.312 2.132v.936c.104.052.26.156.26.156.728-.312.312-.52-.156-.728 0-.156-.052-.26-.104-.364zm-1.352 1.456h-1.248c.104.416.208.728 1.196.832.468.052.936-.052 1.716-.156l-1.664-.676zm-2.34-3.952c-.26.052-.468.208-.832.364.364.104.624.26.728.26.26-.104.416-.26.572-.416.052-.052-.364-.26-.468-.208zm2.756-10.66c-.052 0-.104 0-.156-.052.052.052.104.052.156.052.052.052.104.052.156.052-.052 0-.104 0-.156-.052zm-1.092.884c-.052 0-.104.052-.156.052 0 .052.104.052.104.052.052 0 .104-.052.156-.052l.624-.312c-.052-.052-.104-.104-.208-.104-.156.104-.364.208-.52.364zm-.624 2.184c-.052.052-.208.156-.156.208s.26.104.416.104c.052-.052.104-.156.156-.208a.98.98 0 0 0-.416-.104zm-.728-2.6c-.104-.052-.312.052-.468.052l.312.312c.104-.052.26-.104.364-.156-.104-.052-.104-.208-.208-.208zm-.364 1.82c-.052.052-.104.156-.156.208 0 0 .156.104.208.052.104 0 .208-.052.312-.104-.104-.052-.26-.104-.364-.156zm-1.716-2.496c-.052 0-.26.104-.364.156.104.104.26.208.416.312.052 0 .26-.104.468-.156l-.52-.312zm-.104 2.6c-.156.052-.364.208-.364.312 0 .052.312.104.572.208l.364-.364c-.156-.052-.416-.156-.572-.156zm-1.144 1.716c.416-.884.364-.884-1.456-.676l1.456.676c.676.624.676.624 1.664.156l-1.664-.156zm-2.34 18.252c-.052.052-.104.156-.208.208.156.052.312.104.416.104.104-.052.104-.156.208-.208-.156-.052-.26-.052-.416-.104zm-.156-6.24c0 .052.156.104.156.104.156-.052.26-.104.364-.156-.104-.052-.156-.104-.26-.156-.104.104-.208.156-.26.208zm.416 11.856l-.676.728c.156.052.312.052.468.104l.78-.676c-.156-.052-.364-.104-.572-.156zm.936-14.768c-1.144.676-1.144.676-.208 1.404l.208-1.404zm-.728-1.612c1.092.78 1.092.78 2.184.26l-2.184-.26zm1.092-5.2c-.052.052.104.156.156.208.104 0 .26-.052.416-.104-.052-.052-.104-.156-.156-.208-.156 0-.364.052-.416.104zm0-6.604c-.728-.364-1.3-.52-2.132-.208.624.624 1.196.728 2.132.208zm-2.392 9.984c-.052.052-.208.156-.156.208s.26.104.416.156c.052-.104.156-.208.104-.26 0-.052-.208-.052-.364-.104zm.26 10.764h-.312v.208c.104-.104.208-.156.312-.208zm-.052-8.684c.052-.104.104-.156.104-.208-.052 0-.104 0-.208.052.052 0 .052.052.104.156zm.052 15.34c0 .052 0 .104-.052.156.052 0 .156-.052.156-.052 0-.052-.052-.104-.104-.104zm-.416-12.428c-.052 0-.208.052-.156.104 0 .052.104.104.156.156l.312-.156c-.104 0-.208-.052-.312-.104zm-.52-1.612c.104-.052.156-.052.208-.052s0-.052 0-.104h-.156c0 .052 0 .104-.052.156zm-.416 14.144c.104 0 .156 0 .208.052-.052-.052-.104-.052-.156-.104-.052 0-.156 0-.208-.052.052.052.104.052.156.104zm3.172 3.796c-.468-.988-1.456-1.3-2.964-.884.52.78 1.924.624 2.964.884.052 0 .156.052.208.052-.052 0-.104-.052-.208-.052zm-.208.78c-.052.052-.156.052-.208.104.104 0 .156.052.26.104 0-.052.052-.052.052-.104l-.104-.104zm.156 3.952c.052 0 .312-.052.52-.052-.156-.156-.26-.26-.416-.364-.052 0-.26.052-.416.052.104.104.208.26.312.364zm.312-2.132c.104.104.26.156.468.312.208-.208.364-.312.468-.416-.104-.052-.312-.104-.364-.104-.208.052-.416.156-.572.208zm.676-9.464c.104 0 .26-.052.416-.104-.104-.052-.208-.156-.312-.26l-.312.156c.052.052.104.208.208.208zm.156 5.2c-.052 0-.104 0-.156.052.052 0 .104.052.104.052.052 0 .156-.052.208-.052-.052 0-.104-.052-.156-.052zm.208 5.304c.052-.104.208-.156.156-.208-.052-.104-.26-.104-.364-.156-.052.104-.208.208-.156.208.052.104.26.104.364.156zm0-7.28c.26-.104.416-.208.52-.312.052-.052-.104-.208-.156-.208-.208 0-.52.052-.572.104-.052.104.104.208.208.416zm.26-6.708h.208c.052-.052 0-.104 0-.104-.052 0-.104-.052-.156-.052 0 .052-.052.104-.052.156zm.364 2.496c.104 0 .208-.104.364-.104l-.312-.156c-.052.052-.156.104-.208.208 0 0 .104.052.156.052zm-.156-3.952c.312-.156.624-.468.572-.676-.052-.156-.676-.26-1.196-.416-.208.468-.416.832-.624 1.144h-.572v.78c.416-.104.78-.26.624-.78.416 0 .936.052 1.196-.052zm.52-6.136c0 .104.156.156.208.26.156-.104.312-.156.468-.208l-.312-.156c-.156.052-.312.052-.364.104zm1.092 22.1c.052 0 .104 0 .156-.052 0 0 0-.052-.052-.104 0 .052-.052.104-.104.156zm.468-2.808c.104.468.26.884 1.56.936l-.936-1.092-.624.156zm3.12 1.716c.104-.052.156-.156.208-.208-.156-.052-.312-.104-.416-.104-.052.052-.104.156-.156.208.104.052.26.104.364.104zm.416-2.548c.052-.104.052-.156.052-.208-.416-.104-.832-.156-1.248-.208-.052.104-.104.208-.104.312l1.3.104zm1.404 3.38c0-.052.052-.104.052-.104 0-.052-.104-.052-.156-.052-.052.052-.052.052-.052.104 0 0 .104.052.156.052zm.468-.728h.208l-.104-.208c-.156 0-.312.052-.468.104.104 0 .208.104.364.104zm.208-3.12c.104-.104.208-.208.208-.312 0-.052-.26-.104-.52-.156 0 .156-.104.26-.052.364 0 .052.26.104.364.104zm21.334-.312c0 3.536 1.144 5.148 1.144 5.148l-1.612-.052c-.104 0-.156-.052-.26-.052 0-.052-.104.052-.156.052h.052-4.056s-.312-.312-.624-1.248c.052 0 .052 0 .104-.052-.052 0-.104 0-.104-.052-.26-.78-.52-1.976-.52-3.744v-8.06c0-1.508-1.196-2.704-2.704-2.756h-1.3v2.236c-.052.052-.156.104-.156.156s.104.104.156.104v1.664l-1.404.312 1.404.104v11.336h-6.032v-.416c.052.104.104.156.156.26h.364c-.052-.364-.156-.676-.26-1.04-.104 0-.156 0-.26.052v-8.944c.104 0 .26.052.364.052.052-.104.104-.26.104-.364 0-.052-.26-.052-.416-.104 0 .052 0 .052-.052.104v-5.512-5.408-8.32c.052.052.104.052.104.052.104-.052.156-.156.208-.26-.104 0-.208-.052-.312-.052v-1.04c.104-.052.156-.104.26-.104-.104-.052-.156-.104-.26-.156V.649h1.612.104 6.604c4.524 0 8.268 3.64 8.268 8.216-.156.312-.156.52 0 .624v3.848c0 .52-.052 1.092-.156 1.612-.052-.052-.416.156-.416.208.052.104.156.156.26.26-.364 1.456-1.092 2.756-2.132 3.796 1.196 1.456 1.924 3.276 1.924 5.304v.52s-.052 0-.052-.052c-.26.208-.52.364-.468.416.104.156.312.26.52.364v2.444c-.052 0-.104.052-.156.052.052.052.104.104.156.104v4.056zm-12.376-12.532c-.104 0-.364.26-.312.312.208.104.468.208.728.26.052 0 .26-.208.468-.364-.364-.104-.624-.208-.884-.208zm-.52-1.924l.676-.052-.156-.884c-.312.052-.572.052-.832.104.104.26.156.572.312.832zm.728-15.132c-.208.208-.468.364-.52.468 0 .104.312.208.468.26.208-.104.468-.208.572-.364.052-.052-.26-.156-.52-.364zm-.728 8.84c-.26 0-.52.208-.676.364-.052 0 .26.26.416.26.26.052.572-.052 1.144-.156-.468-.26-.676-.468-.884-.468zm-.52 12.116c-.156.052-.416.104-.416.156 0 .104.104.208.208.364.156-.052.52-.104.52-.156 0-.104-.208-.26-.312-.364zm-2.236-22.256h1.456c-.364-.156-.52-.312-.728-.312-.26 0-.52.052-.78.104.052.104.052.156.052.208zm.676 4.836c.156-.052.416-.052.416-.104 0-.104-.052-.208-.052-.364l-.52.104c0 .104.104.26.156.364zm.104 4.42h-.156c-.052 0-.052.052-.052.052.052.052.104.052.156.052.052-.052.104-.052.052-.104zm-.052 8.528c-.052.052-.156.104-.208.156 0 0 .104.104.156.104.104-.052.208-.052.364-.104l-.312-.156zm.104-4.524c.104.052.208.156.26.208.104-.052.156-.156.26-.208-.156 0-.26-.052-.416-.104l-.104.104zm-.572 7.124c-.052.104.156.208.26.364.208-.104.416-.156.676-.208-.208-.156-.312-.26-.416-.364-.208.052-.52.104-.52.208zm.52 3.12c-.156.312-.312.676-.468.988.26 0 .468.052.676.052l.156-1.04h-.364zm2.236 12.116c0-.052.052-.104.104-.156-.104 0-.156 0-.208.052.052 0 .052.052.104.104zm1.768-.468c.416-.624.104-1.04-1.04-.988-.988.052-1.924.26-3.12.416l4.16.572zm-1.04-4.888c-1.3.312-1.3.312-.52.988.156-.312.312-.572.52-.988zm.624-2.496c-.52-.156-.78-.312-1.04-.312s-.52.208-.78.312c.26.104.468.312.728.312s.572-.156 1.092-.312zm.416-10.192h.208c0-.052 0-.104-.052-.156-.052 0-.104.052-.156.052v.104zm.26-3.536c.052-.104.104-.156.208-.26-.156-.052-.312-.052-.468-.104-.052.052-.208.156-.156.208.052.104.26.104.416.156zm.104-7.124c.052-.052.208-.156.156-.208s-.26-.104-.416-.156c-.052.104-.208.208-.156.26s.26.104.416.104zm9.516 16.952l-2.34-.936c-.104-.26-.156-.468-.26-.728-.156.052-.26.104-.416.104.156.208.364.416.572.624.208.832.208.832 2.444.936zm-4.108-10.868c.78.208 1.3.364 1.82.52.572-.572.572-.988-.468-1.352-.416.26-.728.468-1.352.832zm2.496 7.644c.052.052.26.052.364.104.104-.052.208-.156.156-.208 0-.052-.26-.104-.364-.104s-.208.156-.156.208zm.26-4.472c.624-.78.624-.78-.572-1.508l.572 1.508c-.052.156-.104.26-.208.364.104-.104.156-.208.208-.364zm-.468-5.928c.052 0 .156-.052.208-.052-.052-.052-.104-.052-.156-.104-.052.052-.156.104-.208.156h.156zm-.468-5.044c-.104 0-.312.052-.364.104s.052.156.156.208c.104 0 .26-.052.416-.104-.052-.052-.104-.156-.208-.208zm-.988 2.444c-.052.052-.052.364.052.364.26.052.624.052.884 0 .208 0 .312-.208.468-.312.052-.156.104-.26.208-.416-.104.156-.156.26-.208.416-.156-.052-.312-.156-.468-.156-.312 0-.676.052-.936.104zm-2.496-4.42h-.156c0 .052 0 .104.052.156.052-.052.104-.104.104-.156zm-2.08-1.3c-.156 0-.416.052-.624.104.208.104.364.312.52.312.26 0 .572-.104.832-.208.052-.052.156-.104.208-.156-.104.052-.156.104-.26.104-.208-.052-.416-.156-.676-.156zm-.572 17.628h.364c-.052-.104-.104-.156-.156-.208-.104.052-.208.052-.312.104 0 0 .052.104.104.104zm2.912-5.252c-.468 1.092-.468 1.092.988 1.092-.364-.416-.676-.728-.988-1.092zm.988-2.392V8.813c0-1.56-1.248-2.808-2.808-2.808h-1.716v10.192h1.768a2.74 2.74 0 0 0 2.756-2.756zm-.104-5.72c0 .052.312.208.364.156.208-.052.312-.156.468-.26-.156-.052-.26-.104-.52-.156-.104.052-.26.156-.312.26zm.624 17.108c-.468.624-.312.936.884 1.04-.052-.312-.052-.468-.156-.624-.104-.104-.416-.208-.728-.416zm.52 2.496c.208-.052.364-.156.572-.208h.936c-.052-.208-.156-.468-.208-.676h-.416c-.104.208-.208.416-.364.676-.156.052-.364.156-.52.208zm.884 3.432c0 .104.26.26.468.26.156 0 .364-.156.624-.26-.26-.104-.468-.26-.624-.26s-.468.156-.468.26zm.832 3.536c.104-.052.208-.104.26-.156-.052-.104-.156-.208-.26-.208s-.26.052-.416.104c.156.104.26.208.416.26zm.676 1.976c.052 0 .104-.052.156-.052-.052-.052-.104-.104-.104-.156-.052.052-.156.104-.156.104 0 .052.052.104.104.104zm0-9.308c0 .104.312.156.676.312.104-.208.26-.364.26-.572 0-.052-.364-.104-.572-.156-.104.156-.312.312-.364.416zm1.04 2.392c-.104.052-.26.208-.208.208.104.104.312.208.468.26.104-.052.156-.156.312-.26-.208-.104-.364-.156-.572-.208zm.052 5.148c.156-.052.416-.104.52-.208.052-.104-.104-.208-.26-.416-.208.208-.416.26-.468.364s.104.156.208.26zm.884 2.444c.104-.052.104-.156.208-.26-.156 0-.312-.104-.468-.104-.104.052-.104.156-.208.26a1.93 1.93 0 0 0 .468.104zm20.082-21.216c-.208.208-.416.26-.416.364-.052.052.104.156.156.26.208-.052.468-.104.52-.208-.312.572-.624 1.04-1.04 1.508a12.99 12.99 0 0 1 .936 1.248c-.26-.104-.468-.208-.78-.364l-.364.936c-.156.052-.364.052-.416.156-.104.104-.156.312-.156.468-.052 0 .364.052.364.052.156-.104.208-.26.26-.364s0-.208 0-.26c.416-.052.832-.052 1.352-.104.572 1.04.936 2.236.936 3.536h-.104c.052.208.104.364.156.52v4.524h-.78c-.052-.052-.104-.052-.156-.104.052.052.104.052.156.104.156.572.208.78.78.832v.416.156l-.468.156c.156.052.26.104.416.104 0 .624-.104 1.196-.26 1.716-.104.052-.156.052-.208.052.052.104.052.156.104.26a8.44 8.44 0 0 1-2.08 3.484h-.884c.208.104.416.156.572.26-1.456 1.3-3.38 2.08-5.46 2.08h-.208c-.104 0-.208-.052-.312-.052-.052 0-.052.052-.052.052h-3.12c-.104-.052-.26-.104-.416-.156-.26-.052-.572-.104-.832-.104 0 0-.052.052-.052.104h.884v.156h-4.212v-1.456c.364-.416.676-.884 1.04-1.352.312.156.624.26.936.416 0 0 0-.052.052-.052h-.208v-.52l-.78.156c-.364-.052-.676-.104-1.04-.104v-.884c.416-.156.728-.312 1.04-.468l.78.624v-1.092c-.052-.052-.156-.104-.26-.104-.104-.52-.26-1.04-1.56-.624v-.988a3.83 3.83 0 0 0 .728-.208l-.728-.156v-2.86s.052 0 .052.052c1.196.572 1.352.52 1.924-.676-.676-.052-1.352-.104-1.976-.104v-1.248c.156.052.26.104.416.104.208.26.468.468.676.728.156-.052.312-.156.468-.208l-.936-.624c-.156-.312-.26-.676-.52-1.248l-.104.104v-1.3c.468-.104 1.04-.26 1.664-.156-.676-.468-.624-.936-1.56-.676h-.104v-4.368a3.53 3.53 0 0 1 .624.624c.312-.156.676-.364.988-.52l.312-.468c-.156 0-.26 0-.416-.052v.468c-.364-.052-.78-.156-1.508-.312v-1.82c.312.364.572.676.832.936.156-.052.312-.052.468-.104-.104-.312-.156-.676-.26-.988.052-.052.052-.104.104-.104-.052 0-.052.052-.104.052v.052l-1.04-.208v-3.12-3.38c.156-.208.364-.416.52-.624.052-.052.052-.104.104-.104-.052 0-.052.052-.104.104-.156-.052-.364-.052-.52-.104V.649h2.808l2.028 1.196c.52-.52.728-.936-.156-1.196h-.052 3.692c1.508 0 2.964.416 4.16 1.144-.416.312-.832.624-1.248.988 1.3.156 1.456.156 2.132-.364a8.23 8.23 0 0 1 2.86 4.108c-.624.104-1.04.208-1.56.312.364.312.624.52 1.144.936.208-.364.312-.624.52-.884a47.73 47.73 0 0 1 .156 1.04c-.052.052-.104.052-.156.104-.312.156-.624.364-.936.52l-.104.104c-.572.78-.572.78 1.144 1.404l-1.144-1.404.104-.104c.312-.156.676-.312.988-.468h.104c.052.26.104.52.104.832v3.12c0 1.508-.416 2.912-1.144 4.108.052-.104-.104-.208-.26-.416zm-13.832 21.528c.156-.052.364-.104.572-.156l-.728-.572c-.104 0-.26.052-.364.104.156.208.312.416.52.624zm12.896-26.572h-.052c-1.612.208-1.612.208-1.56 1.248.624-.52 1.092-.884 1.56-1.248h.052c.052-.104.104-.26.156-.364-.052.104-.104.26-.156.364zm-.988-4.212c-1.404.364-1.456.728-.78 1.144.156.104.624.052 1.092.104-.104-.416-.156-.728-.312-1.248zm-1.716 12.792c.728-.26.572-.468 0-1.612v1.612zm.312-10.244c-.104-.104-.208-.156-.312-.26l-.312.156c.104.052.104.156.208.208.104 0 .26-.052.416-.104zm-.312-1.092c.052-.052-.26-.208-.416-.364-.208.104-.468.208-.52.312 0 .104.208.208.312.364.208-.104.468-.208.624-.312zm-.468-2.6c-.208.052-.468.104-.468.156.052.104.156.26.208.364.208-.052.52-.104.52-.156.052-.156-.156-.26-.26-.364zm-1.404-4.108c-.052 0-.208.156-.156.208.052.104.26.156.364.26l.468-.312c-.26-.052-.468-.156-.676-.156zm.676 2.08c-.156-.052-.312-.104-.416-.104-.104.052-.156.156-.208.26.156 0 .312.104.416.052.104 0 .156-.156.208-.208zm-.676 1.976h-.364c.052 0 .104.052.156.052s.104-.052.208-.052zm-.364.936l-.156.156c.052 0 .104 0 .208-.052-.052 0-.052-.052-.052-.104zm-1.248-.78c-.052-.052-.104-.052-.156-.104-.208.104-.364.26-.572.364-.104.104-.26.156-.364.26-.052 0-.104 0-.104.052h-.832v.208l-.052.052c-.052.052 0 .156.052.26v8.424h1.768c.364 0 .728-.104 1.04-.208.416.572.988 1.092 1.508 1.144.364-.208.78-.52 1.3-.884l-1.456-.312c-.104-.26-.26-.468-.364-.676.468-.468.728-1.144.728-1.872V8.813c0-1.56-1.248-2.808-2.808-2.808h-.884s.052-.052.104-.052c.104-.104.26-.156.416-.26a3.61 3.61 0 0 0 .676-.26zm3.016 21.84c.572-.728.312-1.092-.52-1.248v-2.912c0-1.508-1.196-2.704-2.704-2.756h-1.82v6.812c-.208.156-.26.416-.26.832.104-.052.156-.104.26-.104v.52h-.104c.052.104.052.156.104.208v2.184c-.676.156-.884.468-.364.988.156-.052.26-.104.364-.156v.52h1.716c1.56 0 2.808-1.248 2.808-2.808v-.104c.572-.416.52-.728 0-.988v-.728c.052.052.052.052.104.052 0-.052-.052-.052-.052-.104h-.052v-.78c.156.156.312.364.52.572zm.364 3.64l-.104-.104c0 .052 0 .156-.052.208.052-.052.156-.052.156-.104zm-3.38 1.404c-.052-.052-.156-.104-.26-.156-.104.104-.208.156-.26.208.104.052.26.052.364.052.052 0 .156-.052.156-.104zm-2.704-14.612l.884 1.872c.364-.312.572-.468.676-.624.156-.208.312-.468.364-.676.208-.728-.208-.832-1.924-.572zm3.432-.728c.052 0 .104.052.156.052h.572c.052 0 .052 0 .104-.052-.104-.052-.26-.156-.416-.26-.104.104-.26.156-.416.26zm1.248 2.808c.104-.052.208-.104.312-.104h-.468c.052 0 .104.052.156.104h-.052.052c.104.156.26.312.364.468.104-.052.208-.052.312-.104-.208-.104-.468-.26-.676-.364zm-3.848-17.732c-.676.988-.676.988 1.56 1.82l-1.56-1.82zm-1.04 2.6c-.104.052-.208.156-.156.208 0 .104.26.104.364.156.104-.104.208-.208.208-.26-.052-.052-.312-.052-.416-.104zm-.312 1.716c-.052.052-.104.052-.208.104.052 0 .156.052.208.052.052-.052.104-.052.156-.104-.052 0-.104-.052-.156-.052zm-.884-2.86c-.052 0-.104.104-.104.104.104.052.208.052.312.104l.208-.208h-.416zm-.312-.936c-.052 0-.156 0-.156.052l.104.104c.052-.052.156-.104.208-.156h-.156zm.52 8.684l-1.352.884c.676.104 1.248.26 1.82.364.052.156.052.364.104.52-.832.052-1.248.312-1.04.78s.52.884 1.56.988c.156.104.364.156.52.208 0 0 .104-.052.156-.104-.208-.052-.416-.052-.624-.104-.208-.624-.364-1.196-.572-1.768.572-.208 1.248-.364.104-.624-.208-.312-.364-.676-.676-1.144zm.156 5.98c-.104.052-.208.104-.26.156.104.052.208.104.364.104 0 .052.156-.052.104-.052-.052-.104-.156-.156-.208-.208zm-.312-1.04c.156-.052.312-.104.468-.104l-.624-.936c-.208.052-.364.104-.52.156.208.26.416.572.676.884zm-1.612-10.244c-.104.052-.26.104-.26.156 0 .104.156.156.208.26.104-.104.26-.156.26-.208 0-.104-.156-.156-.208-.208zm.416 4.212l-.312-.156c-.104.052-.156.104-.208.208 0 0 .104.104.156.052.104 0 .208-.052.364-.104zm-1.768-7.696c-.052 0-.104-.052-.156-.052.052 0 .104.052.156.052.208.052.416.104.624.104-.208 0-.416-.052-.624-.104zm-.884.832c0 .052 0 .052.052.156.052-.104.104-.156.104-.208-.052 0-.104.052-.156.052zm.156.832a4.49 4.49 0 0 0 .832.52c.104-.052.26-.156.416-.26-.312-.104-.624-.26-.936-.416l-.312.156zm.832 10.504c.052-.052.208-.156.156-.208s-.26-.052-.364-.104c-.052.052-.208.156-.156.208s.26.104.364.104zm-.364-1.196c.052-.052.104-.052.104-.104s-.052-.052-.104-.104v.208zm.156-1.82c.156-.156.312-.26.416-.312-.156-.104-.364-.208-.468-.208-.208 0-.312.156-.468.26.156.052.312.156.52.26zm.78-4.368c.052-.052.156-.104.208-.156a.98.98 0 0 0-.416-.104v.208a1.18 1.18 0 0 0 .208.052zm-1.144 14.404c.208 0 .312-.156.52-.312-.208-.104-.416-.156-.572-.26-.156.156-.312.26-.468.416.208.052.416.156.52.156zm2.548-1.924c-1.872-.312-1.872-.312-1.612.572.52-.208 1.04-.364 1.612-.572zm-1.82 4.524c.208 0 .468-.156.936-.364-.52-.156-.78-.26-1.092-.26-.156 0-.468.26-.468.26.156.156.364.364.624.364zm.416 1.144c.208.104.416.26.676.312.052.052.312-.104.624-.26-.364-.156-.572-.26-.884-.312-.104 0-.26.156-.416.26zm.52 3.38c-.052-.052-.052-.104-.052-.156-.052 0-.156.052-.208.052 0 .052 0 .104.052.104h.208zm-1.508.884c.26.104.468.26.884.52-.052-.26-.052-.416-.156-.416a3.07 3.07 0 0 0-.728-.104zm2.028 2.704h.26s0-.052-.052-.104h-.156c0 .052-.052.052-.052.104zm-1.144-2.34c.312.676.988.884 2.08.52.832-.312.468-.676-.26-.988l-1.82.468zm1.456-6.032c.104 0 .208.052.26.052 0 0 0-.052-.052-.104-.052 0-.104.052-.208.052zm1.404 12.272c0-.104.052-.26 0-.364-.104-.156-.364-.26-.52-.364-.104.052-.208.104-.312.104.104.26.208.468.364.728.156-.052.312-.052.468-.104zm-.208-14.716c.78-.468.208-.572-.572-.624-.052 0-.104 0-.208-.052.104.052.156.052.208.052.156.208.312.416.468.572l-2.704-.364c.728.78 1.352 1.352 1.924 1.976.936-.416.936-.988.884-1.56zm.052-1.872c.26-.208.52-.312.572-.468.052-.052-.26-.208-.364-.312-.26.104-.52.208-.676.364-.052.052.26.208.468.416zm1.612 13.728c.052-.052.104-.052.208-.104-.312-.104-.572-.208-.832-.312l-.052-.052v.052c-.052-.104-.104-.104-.156-.156v.312l.156-.156h.052c.208.156.416.26.624.416zm3.692 3.952c.156-.936.156-.936-2.548-1.092.78.312 1.612.676 2.548 1.092zm.208-1.768v-.884c-.988.052-1.924.156-2.808.572 1.3.416 1.404.468 2.808.312zm0-1.352c-.104-.104-.208-.208-.312-.26l-.312.156c.052.052.104.156.208.156.104.052.26 0 .416-.052zm0-.884v-1.56c-1.456.572-1.404.936 0 1.56zm1.248 2.548c.156 0 .26-.052.364-.052h-.26-.156c-.156.052-.312.052-.468.052-.052-.052-.104-.052-.104-.052h-.052c.052 0 .104 0 .156.052.104.104.208.26.312.364.104-.104.156-.26.208-.364zm.312-11.024c.104.208.208.364.312.52.104 0 .26-.052.364-.052-.052-.156-.156-.364-.208-.52-.156 0-.312.052-.468.052zm1.092 4.888c0-.26.052-.468.052-.728h-.468c-.052.208-.156.416-.208.624 0 .052.416.052.624.104zm.156-1.924c.156-.104.364-.208.364-.312-.052-.104-.26-.156-.52-.312-.156.156-.312.26-.312.364.052.104.312.156.468.26zm-.364-7.488l.104.104c.052-.052.104-.052.104-.104s-.052-.052-.052-.104c-.052.052-.156.052-.156.104zm.78 14.248c.156 0 .364-.052.52-.052-.052-.156-.104-.208-.156-.312-.104.052-.26.052-.364.104v.26zm.78-.832c.208 0 .468-.208.832-.364-.364-.156-.624-.364-.832-.364-.208.052-.572.26-.572.364s.364.312.572.364zm2.444-3.224c-.312-.104-.468-.208-.676-.208-.156 0-.26.156-.416.26.156.052.364.156.52.208.156 0 .312-.156.572-.26zm.208-5.356c-.156-.052-.26-.104-.416-.104s-.26.052-.416.104c.104.104.208.208.416.364.208-.156.312-.26.416-.364zm-1.092-5.044c-.104 0-.364.156-.364.208 0 .156.156.26.364.468.312-.26.52-.364.52-.468-.104-.104-.312-.208-.52-.208zm-.26 3.328c-.104.052-.156.052-.26.104.052 0 .052.052.104.104.052-.052.156-.052.208-.052 0-.052-.052-.104-.052-.156zm-.936 1.82s-.156.052-.104.104.156.104.26.156c.052-.052.156-.104.26-.208-.156 0-.26-.052-.416-.052zm-.364-.78c-.052 0-.156 0-.208.052.052 0 .104.052.156.104.052 0 .104-.052.156-.052l-.104-.104zm.052 6.552l-.832.988v.364c.572.26 1.092.468 1.664-.052-.052 0-.052-.052-.104-.052.052 0 .104.052.156.052.312-.156.572-.26.988-.468l-1.872-.832zm-.416-1.976c-.052 0-.156.052-.156.052 0 .052.052.104.104.104s.104-.052.156-.052c-.052-.052-.052-.104-.104-.104zm-.052-2.808c.052 0 .156-.052.156-.052 0-.052-.104-.104-.104-.156-.052.104-.052.156-.052.208zm.312-11.804c.208-.104.416-.156.624-.26-.052-.052-.104-.104-.208-.104-.156.104-.312.26-.468.364-1.82.208-1.82.208-.468 1.144l.52-1.144zm.624-.988c.052-.104.104-.156.156-.26-.156 0-.26-.052-.416-.104-.052.104-.208.208-.156.26s.26.052.416.104zm.988-1.3l-.468.312c.312.104.676.26 1.04.416 0 0 .26-.156.26-.208-.26-.156-.572-.312-.832-.52zm-14.3 21.06c-.52-.052-.832-.104-1.04-.052v-1.092c.52.156 1.04.364 1.56.572-.156.208-.312.364-.52.572zm34.288-23.764c-.156-.104-.312-.26-.52-.364-.104.052-.208.104-.312.208.26.052.52.156.728.208.208.364.468.676 1.248.416.156-.052.156-.156.208-.26v8.996 1.352c-.052-.052-.052-.104-.104-.156l-.468.156c.052.104.156.156.208.208.156-.052.312-.052.364-.104v4.992c-.208.104-.416.26-.468.416-.052.052.364.26.468.26v1.872c-.312.052-.624.156-.884.364-.468.312-.624.676.468.988.104-.052.26-.156.416-.208v.78c0 .104-.052.208-.052.364-.052 0-.104-.052-.156-.052v1.248c0-.052.052-.052.052-.052-.104.676-.364 1.352-.624 1.924h-.052c-.052.052-.104.156-.156.208l.052.052c-.52 1.04-1.248 1.924-2.132 2.652 0 0-.052-.052-.052-.104-.104.052-.208.052-.312.104-.052.104-.052.26-.104.416-1.352.936-2.964 1.508-4.732 1.508a7.98 7.98 0 0 1-4.784-1.56c.208.104.468.208.728.312l.312-.312-1.144-.312-.156.156c-.572-.468-1.092-.936-1.508-1.508.104.052.26.156.364.156.26 0 .572-.104 1.092-.26-.468-.208-.728-.364-.988-.364-.208 0-.468.208-.572.312a8.04 8.04 0 0 1-1.664-4.888v-1.768h.052-.052v-10.92c.208.052.416.052.78.052 0-.468-.312-.624-.78-.676v-.884c.104.052.156.156.26.208.312.104.572.156.832.156v-1.248c-.26-.104-.52-.156-.78-.26-.104.104-.208.156-.312.26v-4.94c.052 0 .104.052.156.052.208-.104.468-.208.572-.364.052-.052-.26-.208-.468-.364-.104.052-.156.104-.26.156v-.52-.052c.312.052.624.104.832-.208.104-.156-.312-.468-.52-.676-.052-.052-.104-.052-.208-.104.468-3.588 3.12-6.448 6.604-7.124-.26.104-.52.26-.78.312 1.248.156 1.404.156 1.456-.364.312 0 .624-.104.936-.104 4.576 0 8.268 3.744 8.268 8.32v.936h-1.352zm.26-2.756c-.104 0-.156.052-.208.052.104.052.156.104.26.156.052-.052.052-.052.052-.104s-.052-.104-.104-.104zm-.26.832c-.104 0-.26.104-.416.104.156.104.26.208.364.26l.312-.156c-.104-.052-.156-.156-.26-.208zm-2.652 8.112c-.104.468-.052.832.988.884h.052c.052 0 .104.052.156.052-.052 0-.104-.052-.156-.052h-.052c-.312-.312-.676-.572-.988-.884h-.052c.104-.104.208-.156.208-.26-.052-.156-.208-.312-.312-.416 0-.052-.208 0-.208 0 0 .156-.052.312 0 .468.052.104.208.156.312.208h.052zm.884 6.24l-.312-.156c-.052.052-.156.104-.26.208a1.18 1.18 0 0 0 .208.052c.104-.052.208-.104.364-.104zm-1.976.936c.208-.052.364-.156.52-.208a1.65 1.65 0 0 0-.26-.312c-.156.104-.468.104-.52.208-.052.052.156.208.26.312zm.416 8.996c0-.052-.052-.104-.052-.104h-.208c-.052.052 0 .104-.052.104h.312zm-.52-7.124c-.104 0-.156-.052-.208-.052-.052.052-.052.104-.052.156h.156l.104-.104zm.624-10.712c.26-.052.52-.156.936-.312-.364-.104-.624-.208-.728-.208-.208.052-.416.156-.52.26-.052.052.26.26.312.26zm.208-2.704c.624-.364 1.092-.676 1.872-1.144l-1.56-.52c-.416.468-.78.832-1.144 1.248.312.156.572.312.832.416zm-.156-4.524c.052 0 .104 0 .156-.052 0 0-.052-.052-.104-.052-.052-.052-.104 0-.156 0 .052.052.052.104.104.104zm.312.728c-.572.572-.104.936.988 1.508.364-.832.364-1.248-.988-1.508zm0-4.836c-.052.052-.104.052-.208.052l.104.104c.052-.052.052-.104.104-.156zm-.312 1.716l-.312.156c.26.104.468.208.728.312-.052.26-.104.572-.26.832-.26.416.208.572.884.572v.052.624c.156 0 .312 0 .468-.052-.156-.208-.312-.364-.468-.572v-.052c.104-.156.104-.364.312-.52.78-.572.312-.832-.78-.936l-.572-.416zm-1.144 4.888c.104.052.364-.052.676-.104-.208-.208-.26-.364-.468-.416-.104 0-.52.104-.52.156 0 .104.156.26.312.364zm-1.404-4.264l-.312.156c.104.052.26.104.364.104.052.052.156-.052.156-.052-.052-.104-.156-.156-.208-.208zm-.572-3.068c-.104.052-.156.104-.26.156h.208c.052 0 .104-.052.156-.052-.052-.052-.104-.052-.104-.104zm-3.12-.468c-1.144.052-1.3.364-.884 1.092.468-.312.78-.416.884-.52.104-.156 0-.364 0-.572zm.52 2.392c-.728.416-1.196.676-1.664.988.156.052.312.156.468.208.728-.208 1.508-.364 1.196-1.196zm-1.716 2.392c0 .052-.052.104-.104.104.052 0 .104-.052.156-.052.416.052.884.312 1.248-.104.052-.052-.104-.156-.104-.26-.416.104-.78.208-1.144.364 0-.052-.052-.052-.052-.052zm.728 1.456c.468-.728-.052-.884-1.04-.78-.156 0-.364.104-.676.26.624.208 1.092.364 1.716.52zm-.936 7.748c.052-.052.052-.104.104-.104-.052-.052-.104-.052-.156-.052v.104l.052.052zm.312.936c-.052-.052-.26.052-.416.052.052.104.052.208.156.26a1.93 1.93 0 0 0 .468-.104c-.052-.052-.104-.208-.208-.208zm-1.196-12.844l-.312.156c.104.052.208.104.364.156 0-.104.104-.156.104-.208s-.156-.104-.156-.104zm-1.3 13.312c-.156 0-.364.26-.52.364.312.156.624.312.988.364.156 0 .416-.208.884-.416-.624-.156-.988-.26-1.352-.312zm.728 4.94c0-.104-.104-.26-.156-.364-.156.052-.364.052-.416.104 0 .104.052.26.104.364.208-.052.468-.104.468-.104zm-2.08-9.88h.676l-.156-.728h-.416c-.052.26-.052.468-.104.728zm.884 6.604c-1.924.832-1.924.988-.312 1.508.156-.572.208-1.04.312-1.508zm-1.716 8.528c0 .052.052.104.104.104s.104-.052.156-.052l-.104-.104c-.052 0-.156.052-.156.052zm.416 4.524c.156-.052.416-.104.468-.208.052-.052-.156-.208-.26-.364-.208.156-.416.26-.468.364 0 .052.208.208.26.208zm-.052-7.124c-.156 1.144 1.768.572 2.444 1.196.156-1.352-1.456-.988-2.444-1.196.728-.156 1.456-.26 2.132-.416-.676-.156-1.404-.156-2.08-.104-.052 0 0 .312-.052.52zm1.976 2.86c-.104-.052-.26-.104-.364-.156-.052 0-.156.104-.156.104.052.104.156.156.26.208.104-.052.208-.104.26-.156zm-.676 1.456c0 .104.104.156.156.26.156-.104.312-.156.468-.208-.104-.052-.208-.104-.26-.156-.156.052-.312.052-.364.104zm1.04 4.992c.208 0 .624-.208.624-.312-.052-.208-.312-.416-.468-.624-.208.052-.416.104-.572.208-.104.104-.312.312-.26.416.104.156.468.312.676.312zm.312-2.132c.156-.26.312-.468.416-.728-.156-.052-.312-.052-.468-.104-.208.208-.364.416-.52.624.156.052.364.156.572.208zm.624-8.736c.104-.104.208-.156.26-.208-.052-.052-.156-.156-.26-.156-.104-.052-.26.052-.364.052.104.104.208.208.364.312zm.728 8.06c.052 0 .052-.052.052-.104h-.156s-.052.052-.052.104c0 0 .156.052.156 0zm.208-10.296c.156.104.26.208.416.312-.156-.104-.26-.208-.364-.312h-.052l-1.092-1.092c-.572.78 0 1.04 1.092 1.092zm.884 6.864c-1.04.364-1.092.676 0 .988v-.988zm.104 3.328c-.208 0-.416.052-.884.156.676.208.832.312 1.092.312.052 0 .26-.156.208-.208-.052-.104-.26-.208-.416-.26zm.26 3.224c.156 0 .468-.104.468-.156-.052-.156-.26-.26-.416-.416-.312.208-.468.26-.572.364.156.104.312.208.52.208zm.936 1.404v-.676h-.364c0 .26.052.468.052.676h.312zm-.312-2.496c.208-.104.364-.208.52-.26-.364-.156-.676-.312-.988-.468-.104.052-.208.104-.312.208.26.156.52.312.78.52zm1.924 4.264l.052-.052c-.052-.052-.104-.052-.208-.052 0 0 0 .052-.052.104h.208zm.572-3.796c.052-.104.208-.208.156-.26s-.26-.052-.364-.104c-.104.104-.208.208-.156.26s.26.052.364.104zm1.248 4.004c0-.052.052-.104.104-.104-.052-.052-.104-.104-.156-.104 0 0-.104.052-.156.052.052.052.156.104.208.156zm-.208-3.9h.312c-.052-.052-.052-.104-.104-.104h-.156c-.052.052-.052.104-.052.104zm.52-3.328v-.78c.156-.052.364-.104.364-.156 0-.104-.208-.208-.312-.312h-.052v-2.132c.104.052.208.156.26.208l.624-.312c-.26-.156-.572-.312-.884-.468v-11.18c.156-.052.312-.104.312-.156 0-.104-.156-.208-.26-.312h-.052v-1.092c.052 0 .104.052.156.052l.468-2.236c-.26.052-.416.104-.624.156v-3.64-.104l.104.104c.104 0 .364-.156.728-.26-.312-.156-.52-.26-.78-.364-.052 0-.104.052-.156.052-.26-.936-1.092-1.664-2.132-1.664-1.3 0-2.288.988-2.288 2.236v1.3c-.468-.104-.832-.104-.884.312-.728.468-.676.884.624 1.196-.208-.416-.364-.78-.572-1.144.26-.104.572-.156.832-.26v4.68c-.104 0-.208 0-.312.052.052.052.104.156.104.208.104 0 .156 0 .208-.052v5.044c-.78.52-.884.728 0 1.144v3.328c-.52-.156-.728-.26-.884-.26-.052 0-.312.156-.26.208a.68.68 0 0 0 .416.312c.156 0 .364-.052.728-.156v6.448c0 1.248.988 2.236 2.288 2.236a2.22 2.22 0 0 0 2.236-2.236zm.52-6.552h-.208s0 .052-.052.052c.052.052.156.052.208.052s.052-.052.052-.104zm.208 4.368c-.052-.052-.104-.156-.156-.208-.156 0-.364 0-.416.052 0 .052.052.208.156.208.104.052.26 0 .416-.052zm.364 6.5c.104 0 .104-.104.156-.208-.104 0-.26-.052-.416-.104-.052.104-.156.208-.104.26 0 .052.26.104.364.052zm.312-1.352c.104 0 .364-.312.364-.312-.364-.208-.78-.364-1.508-.676.052.676.208 1.04 1.144.988zm.78-5.148c.052 0 .156-.052.156-.052-.052-.104-.156-.156-.208-.208-.104.052-.208.104-.26.156.104.052.208.104.312.104zm-.156-4.264c.78 0 1.196.052 1.872.052-.416-.26-.624-.416-.832-.572.052 0 .052-.052.104-.052-.052 0-.104.052-.104.052v.052c-.26.104-.52.208-1.04.468zm.936 9.984c.104-.052.26-.104.364-.156-.052-.052-.052-.156-.156-.208-.104 0-.26.052-.416.052.052.104.156.208.208.312zm.364-1.872c.156-.052.312-.052.416-.104.052-.052-.104-.156-.156-.208-.104 0-.312 0-.364.052s.052.156.104.26zm.468-4.056c.208-.156.468-.26.52-.416.052-.104-.208-.208-.364-.416-.364.312-.572.416-.572.52s.26.208.416.312zm.78-15.34c-.052.052-.104.052-.156.052 0 .052.052.104.104.104.104-.052.156-.052.26-.104-.052 0-.104-.052-.208-.052zm-.26 1.508c-.104 0-.26.052-.416.104.104.052.156.156.26.208.052 0 .208-.052.364-.052-.052-.104-.104-.208-.208-.26zm-.312 7.072c-.052.052-.208.156-.156.208s.26.052.364.104c.052-.052.208-.156.156-.208s-.208-.052-.364-.104zm23.473 16.484h-1.248c.26-.78.052-1.04-.572-1.872-.208.936-.364 1.456-.52 1.872l-3.328-.052c-.156-.052-.26-.104-.416-.208l-.52-4.264h-4.992l-.312 2.6c-.26-.156-.468-.26-.728-.416l-.728 1.196c.104.052.26.104.364.208.312-.104.624-.208.988-.312l-.156 1.248h-1.352c0-.052.052-.052.052-.104-.364-.052-.78-.052-1.144-.104.052-.52 0-.988-1.352-1.092l-.624.936a63.39 63.39 0 0 1 1.976.156c.052.052.104.104.104.208l-3.744-.052.364-2.496c0 .052.052.156.104.208.156-.052.312-.052.364-.104s-.052-.156-.104-.208c-.104 0-.312.052-.364.104l.728-4.836.104-.52.26-1.768.052.052v.052c.052 0 .104 0 .208.052-.052-.052-.156-.052-.208-.052v-.052c.052-.156.052-.312.104-.468-.052 0-.052.052-.104.052l.26-1.612c.052 0 .104 0 .156.052.156-.104.312-.208.416-.312-.156-.052-.364-.104-.52-.208l.312-2.08c.104-.052.208-.052.26-.104-.052-.052-.156-.052-.208-.104l.572-3.848c.104 0 .156 0 .26-.052-.104-.052-.156-.104-.208-.104l.208-1.3c.208 0 .468-.052.676-.104-.104-.104-.156-.26-.26-.26s-.26 0-.416.052l.156-.676c.52-.104.624-.572 1.04-.832-.312.052-.624-.052-.936-.104l.468-2.964s.052-.052.104-.052c-.052-.052-.052-.052-.104-.052l.988-6.24c.416.312.78.208 1.976-.156-.624-.156-1.144-.26-1.924-.364l.156-.884c.26-.104.26-.208.052-.52l.416-2.756.312.312c.208-.052.468-.052.468-.104-.052-.104-.104-.26-.208-.364a1.87 1.87 0 0 1-.572.104L506.6.649h7.124l.26 1.664c-.052.052-.104.156-.156.208.052 0 .156.052.208.052l1.144 7.748c-.104.052-.208.052-.312.104.052.052.104.104.156.104.052-.052.104-.052.156-.104l.208 1.3c-.104-.052-.26-.052-.312-.052-.104 0-.156.156-.208.208.156.052.312.104.416.104.052 0 .104-.052.156-.104l.78 5.252h-.208c.052.364.104.676.312.884l.52 3.536-1.612.52.312.312c.676.104 1.092 0 1.404-.416l1.3 8.996c-.312.052-.624.156-.988.26.416.208.78.416 1.144.572l.416 2.86c-.26 0-.52-.052-.78-.052-.312 0-.676.052-.988.052v.26c.572.052 1.196.052 1.82.052l.364 2.6zm-3.692-21.476c-.052 0-.156.052-.156.052.052.052.104.156.156.208l.312-.156c-.104-.052-.208-.104-.312-.104zm1.924 10.348c-.156-.052-.26-.104-.364-.104-.052 0-.208.052-.156.104s.104.104.208.156l.312-.156zm-.728-3.172c-.208.104-.364.156-.572.26.208-.104.364-.156.572-.26.052 0 .052-.052.104-.052-.052 0-.052.052-.104.052zm-.572 1.872c-.208-.052-.468.104-.728.208.156.156.26.312.468.416.208.052.52-.052 1.04-.156-.364-.26-.52-.468-.78-.468zm-.884-1.144s-.26-.104-.364-.104c-.156 0-.416.104-.416.104.052.104.208.208.416.416.156-.208.312-.312.364-.416zm-.468 3.484c-.104-.052-.208-.104-.312-.208-.104.104-.208.156-.26.208 0 .052.156.104.156.104.156 0 .26-.052.416-.104zm-.832-13.624c-.884.052-1.352.364-1.612.728.156.104.26.156.416.26.468-.312.936-.572 1.404-.884l.78-.312c-.104-.052-.208-.156-.312-.208-.208.156-.416.26-.676.416zm.052 4.004c-.104-.104-.208-.208-.364-.312-.156.104-.312.156-.468.26.156.104.312.156.52.26l.312-.208zm-1.404-8.58c-.52-1.092-.52-1.092-1.768-.676.572.208 1.092.416 1.768.676zm-1.612-3.9c.416-.208.832-.364 1.248-.572-.156-.104-.26-.156-.416-.26-.364.208-.728.468-1.092.676.052.052.156.104.26.156zm1.716 1.82c.052.104.312.156.416.104.104 0 .104-.104.208-.208-.156-.052-.312-.052-.468-.104-.052.104-.208.156-.156.208zm.884-1.196s-.052-.208-.104-.208c-.416 0-.832.052-1.248.052.052.156.104.26.156.364.364-.052.78-.104 1.196-.208zm-1.872-4.628c-.52.312-.936.624-1.404.936.156.156.312.364.52.572.78-.312.832-.936 2.184-.884-.624-.312-.988-.468-1.3-.624zm0 6.344c-.884-.468-1.404-.364-1.82.312.832-.156 1.3-.26 1.82-.312zm-1.092 2.86c.104-.468-.26-.624-1.04-.676.104.156.104.208.156.312-.312-.052-.572-.052-.988-.052-.052.208-.156.416-.208.624.78-.052 1.404-.104 2.08-.208zm-1.196 4.368c.104 0 .156-.104.208-.208-.156-.052-.312-.104-.416-.104-.104.052-.156.156-.208.26.156 0 .312.104.416.052zm.104.52c-.26 0-.468-.052-.676-.052-.104 0-.156.156-.208.26.26 0 .416.052.676.052.052 0 .104-.156.208-.26zm-.78-13.988l-.312.156s.052.104.104.104h.416c-.052-.104-.156-.156-.208-.26zm-1.612-.26h.208c.052 0 .104 0 .156-.052-.052-.052-.104-.052-.156-.104-.052.052-.156.104-.208.156zm-.624 1.768c.052.052.104.052.156.104.416.208.832.468 1.248.676 0-.52-.052-1.04-1.196-.728-.104 0-.156 0-.208-.052zm.468 1.3c.052 0 .104-.052.104-.104 0 0-.104-.052-.208-.052 0 .052-.052.104-.052.156h.156zm.676 1.352c0 .156.208.26.416.468.26-.26.52-.364.468-.468-.104-.104-.312-.208-.52-.208-.104 0-.364.156-.364.208zm.468 6.916c-.156-.104-.26-.208-.364-.312-.052 0-.364.104-.364.104.052.104.156.208.208.312.26-.052.364-.104.52-.104zm-.52-4.888c-.104.052-.208.156-.26.208 0 0 .156.104.208.104.104-.052.208-.104.364-.156l-.312-.156zm-.468.832c-.104.052-.156.156-.208.208.156.052.26.104.416.156.052-.104.208-.208.156-.26s-.26-.052-.364-.104zm-.26 2.08s-.052.052-.052.104h.26c0-.052 0-.052-.052-.104h-.156zm.052 3.068c-.364.208-.676.26-.676.364 0 .156.156.312.312.468.052.052.572-.052.572-.104 0-.208-.104-.416-.208-.728zm1.976 3.172l-2.756-.156c-.156.728.78.988 2.132 1.3.26-.416.416-.78.624-1.144zm0 4.992c-.052-.104-.156-.156-.208-.208-.104.052-.208.156-.312.208.156 0 .26.052.416.052.052.052.156-.052.104-.052zm-3.796-6.812c.156 0 .26-.052.416-.052-.052-.104-.104-.156-.156-.26-.156.052-.312.052-.364.104s.052.156.104.208zm-.572 6.5c-.208.208-.104.468.52.572.052-.156.104-.26.156-.416.156-.052.312-.052.52-.104h.052-.052c.104-.156.26-.312.416-.468-.312-.052-.572-.156-.676-.104-.364.156-.728.312-.936.52zm2.756 6.24h-.988c-.26 0-.468.364-.676.52-.416.052-.832.052-1.248.104l.364.364c.312-.156.572-.312.884-.468.52.052 1.144 0 1.56.104h.104v-.624zm-.468-3.848s0 .052.052.104c.052 0 .104-.052.208-.052v-.104c-.104 0-.156.052-.26.052zm-2.444 2.444c.156-.052.312-.052.416-.156.052 0-.052-.104-.104-.208-.156.052-.364.052-.468.104-.052.052.104.156.156.26zm1.092-2.964c0-.052-.104-.156-.156-.208-.156 0-.364.052-.52.104.104.104.208.156.26.208.156-.052.364-.052.416-.104zm-1.612.78c-.832.572-.728.78.208.884.312.052.624.156.884.156.156-.052.208-.312.312-.468-.312.052-.572.052-.832.156-.156 0-.26.104-.364.156l-.208-.884zm-1.456 8.008l1.456-.156c.052 0 0-.26 0-.26-.468-.052-.988-.052-1.456-.104v.52zm.884 2.912c.052 0 .104-.052.104-.104-.052 0-.104 0-.156-.052-.052.052-.052.104-.104.156h.156zm1.82-1.508c.052 0 .104 0 .156.052-.052-.052-.104-.052-.156-.052-.468-.312-.936-.572-1.768-.312.208.884 1.04.468 1.768.312zm.52-3.224c.156.156.26.312.416.468.104-.052.208-.052.312-.104-.208-.156-.468-.26-.676-.364a2.59 2.59 0 0 0-.988-.52l.104.676.832-.156zm.884 3.952c.104 0 .26-.052.364-.052-.104-.052-.208-.156-.312-.208-.052.052-.156.104-.208.208 0 0 .104.052.156.052zm.832-.884c.052 0 .104-.052.208-.104-.26-.104-.52-.26-.832-.364.104-.26.208-.468.26-.728-.676.208-2.028.416-.364.78.26.156.52.312.728.416zm.208-13.52c.052.104.104.26.208.572.936-.624.416-1.092.104-1.716-.312.312-.416.52-.624.624-.312.104-.728.052-1.092.104 0 .052 0 .104-.052.156.52.104.988.156 1.456.26zm.312 5.148c.208-.052.468-.156.728-.208l-.104 1.04c-.26 0-.468-.052-.78-.052.364.208.52.312.728.364l-.156 1.196s-.052 0-.052-.052v.364h1.508 2.236l-.312-2.6c.052 0 .052.052.104.052 0-.052.052-.052.104-.104-.052 0-.104-.052-.156-.104l-.052.052-.52-4.316c.052 0 .104-.052.104-.052s-.052-.052-.104-.052l-.104-.936c.052-.052.156-.052.208-.052-.052-.104-.104-.208-.208-.26 0 0 0 .052-.052.052l-.156-1.196c.208.052.416.104.572.156.364.156.728.364 1.092.572.052.312.052.624.104 1.04 1.456-.676 1.456-.676-.104-1.04-.364-.208-.676-.416-1.04-.624-.052-.312-.104-.624-.208-1.092-.156.052-.312.052-.52.104l-.312-2.964 1.716-.572c-1.3-.156-1.612-.208-1.768.156l-.208-1.768-.676 5.356c-.156.052-.364.052-.572.104.208.052.364.104.572.156l-.884 7.02c-.312 0-.572.052-.884.052.052.052.104.156.156.208zm5.356-3.068c.104-.052.156-.156.26-.208-.364-.156-.728-.26-1.04-.416-.104.104-.208.156-.312.26.364.104.728.26 1.092.364zm.104.832c-.052-.104-.104-.208-.208-.26-.052 0-.26.052-.416.052.104.104.156.208.208.312.156-.052.26-.104.416-.104zm-.572.624c-.156.104-.468.208-.468.312.104.104.312.26.624.468.208-.208.52-.364.468-.416-.156-.156-.416-.26-.624-.364zm.104 2.6c-.156 0-.312.156-.52.26.156.104.364.208.52.208.208 0 .364-.104.676-.26-.26-.104-.52-.208-.676-.208zm-4.628 3.64c.104-.052.26-.104.364-.156-.052-.104-.104-.208-.208-.208-.104-.052-.26.052-.416.052.104.104.156.208.26.312zm.988 2.392c.364 0 .676.052 1.04.052 0-.104-.052-.208-.052-.364-.312.052-.676.052-.988.104v.208zm1.3-1.664c.052-.052.156-.104.208-.156-.104-.052-.26-.052-.364-.104 0 .104-.052.156-.052.208s.208.104.208.052zm1.456-.676c.468-.26.936-.468 1.404-.728-.312-.156-.572-.312-.884-.416-.156-.156-.364-.26-.52-.416v.156c.156.104.312.208.52.26-.208.364-.364.78-.52 1.144h-.52-.052c0-.208-.052-.364-.104-.572-.104 0-.26.052-.364.052.156.156.312.364.468.52 0 0 .052 0 .052.052h.52v-.052zm2.6 4.784c.052-.104.156-.208.156-.364 0 0-.26-.052-.468-.104-.052.156-.104.26-.052.364 0 .052.208.104.364.104zm-.468-2.704h1.56c.104.104.26.208.364.312-.104-.104-.26-.208-.364-.312.052-.728-.468-1.04-1.82-.78.052.312.104.52.156.728-.312.052-.624.052-.988.052-.052-.052-.104-.052-.156-.052.052 0 .104.052.156.052l.572.728c.104-.052.208-.052.364-.052.052-.208.104-.416.156-.676zm1.768 1.456c.884.156 1.716.312 2.548.52-1.144-1.144-1.3-1.196-2.548-.52zm22.364-.832c0 3.536 1.144 5.148 1.144 5.148l-1.612-.052c-.104 0-.156-.052-.26-.052 0-.052-.104.052-.156.052h.052-4.056s-.312-.312-.624-1.248c.052 0 .052 0 .104-.052-.052 0-.104 0-.104-.052-.26-.78-.52-1.976-.52-3.744v-8.06c0-1.508-1.196-2.704-2.704-2.756h-1.3v2.236c-.052.052-.156.104-.156.156s.104.104.156.104v1.664c-.416.104-.832.208-1.404.312.572.052.988.052 1.404.104v11.336h-6.032v-.416c.052.104.104.156.156.26h.364c-.052-.364-.156-.676-.26-1.04-.104 0-.156 0-.26.052v-8.944c.104 0 .26.052.364.052.052-.104.104-.26.104-.364 0-.052-.26-.052-.416-.104 0 .052 0 .052-.052.104v-5.512-5.408-8.32c.052.052.104.052.104.052.104-.052.156-.156.208-.26-.104 0-.208-.052-.312-.052v-1.04c.104-.052.156-.104.26-.104-.104-.052-.156-.104-.26-.156V.649h1.612.104 6.604c4.524 0 8.268 3.64 8.268 8.216-.156.312-.156.52 0 .624v3.848c0 .52-.052 1.092-.156 1.612-.052-.052-.416.156-.416.208.052.104.156.156.26.26-.364 1.456-1.092 2.756-2.132 3.796 1.196 1.456 1.924 3.276 1.924 5.304v.52s-.052 0-.052-.052c-.26.208-.52.364-.468.416.104.156.312.26.52.364v2.444c-.052 0-.104.052-.156.052.052.052.104.104.156.104v4.056zm-12.376-12.532c-.104 0-.364.26-.312.312.208.104.468.208.728.26.052 0 .26-.208.468-.364-.364-.104-.624-.208-.884-.208zm-.52-1.924l.676-.052-.156-.884c-.312.052-.572.052-.832.104.104.26.156.572.312.832zm.728-15.132c-.208.208-.468.364-.52.468 0 .104.312.208.468.26.208-.104.468-.208.572-.364.052-.052-.26-.156-.52-.364zm-.728 8.84c-.26 0-.52.208-.676.364-.052 0 .26.26.416.26.26.052.572-.052 1.144-.156-.468-.26-.676-.468-.884-.468zm-.52 12.116c-.156.052-.416.104-.416.156 0 .104.104.208.208.364.156-.052.52-.104.52-.156 0-.104-.208-.26-.312-.364zM522.62 1.533h1.456c-.364-.156-.52-.312-.728-.312-.26 0-.52.052-.78.104.052.104.052.156.052.208zm.676 4.836c.156-.052.416-.052.416-.104 0-.104-.052-.208-.052-.364l-.52.104c0 .104.104.26.156.364zm.104 4.42h-.156c-.052 0-.052.052-.052.052.052.052.104.052.156.052.052-.052.104-.052.052-.104zm-.052 8.528c-.052.052-.156.104-.208.156 0 0 .104.104.156.104.104-.052.208-.052.364-.104l-.312-.156zm.104-4.524c.104.052.208.156.26.208.104-.052.156-.156.26-.208-.156 0-.26-.052-.416-.104l-.104.104zm-.572 7.124c-.052.104.156.208.26.364.208-.104.416-.156.676-.208-.208-.156-.312-.26-.416-.364-.208.052-.52.104-.52.208zm.52 3.12c-.156.312-.312.676-.468.988.26 0 .468.052.676.052l.156-1.04h-.364zm2.236 12.116c0-.052.052-.104.104-.156-.104 0-.156 0-.208.052.052 0 .052.052.104.104zm1.768-.468c.416-.624.104-1.04-1.04-.988-.988.052-1.924.26-3.12.416l4.16.572zm-1.04-4.888c-1.3.312-1.3.312-.52.988.156-.312.312-.572.52-.988zm.624-2.496c-.52-.156-.78-.312-1.04-.312s-.52.208-.78.312c.26.104.468.312.728.312s.572-.156 1.092-.312zm.416-10.192h.208c0-.052 0-.104-.052-.156-.052 0-.104.052-.156.052v.104zm.26-3.536c.052-.104.104-.156.208-.26-.156-.052-.312-.052-.468-.104-.052.052-.208.156-.156.208.052.104.26.104.416.156zm.104-7.124c.052-.052.208-.156.156-.208s-.26-.104-.416-.156c-.052.104-.208.208-.156.26s.26.104.416.104zm9.516 16.952l-2.34-.936c-.104-.26-.156-.468-.26-.728-.156.052-.26.104-.416.104.156.208.364.416.572.624.208.832.208.832 2.444.936zm-4.108-10.868c.78.208 1.3.364 1.82.52.572-.572.572-.988-.468-1.352-.416.26-.728.468-1.352.832zm2.496 7.644c.052.052.26.052.364.104.104-.052.208-.156.156-.208 0-.052-.26-.104-.364-.104s-.208.156-.156.208zm.26-4.472c.624-.78.624-.78-.572-1.508l.572 1.508c-.052.156-.104.26-.208.364.104-.104.156-.208.208-.364zm-.468-5.928c.052 0 .156-.052.208-.052-.052-.052-.104-.052-.156-.104-.052.052-.156.104-.208.156h.156zm-.468-5.044c-.104 0-.312.052-.364.104s.052.156.156.208c.104 0 .26-.052.416-.104-.052-.052-.104-.156-.208-.208zm-.988 2.444c-.052.052-.052.364.052.364.26.052.624.052.884 0 .208 0 .312-.208.468-.312.052-.156.104-.26.208-.416-.104.156-.156.26-.208.416-.156-.052-.312-.156-.468-.156-.312 0-.676.052-.936.104zm-2.496-4.42h-.156c0 .052 0 .104.052.156.052-.052.104-.104.104-.156zm-2.08-1.3c-.156 0-.416.052-.624.104.208.104.364.312.52.312.26 0 .572-.104.832-.208.052-.052.156-.104.208-.156-.104.052-.156.104-.26.104-.208-.052-.416-.156-.676-.156zm-.572 17.628h.364c-.052-.104-.104-.156-.156-.208-.104.052-.208.052-.312.104 0 0 .052.104.104.104zm2.912-5.252c-.468 1.092-.468 1.092.988 1.092-.364-.416-.676-.728-.988-1.092zm.988-2.392V8.813c0-1.56-1.248-2.808-2.808-2.808h-1.716v10.192h1.768a2.74 2.74 0 0 0 2.756-2.756zm-.104-5.72c0 .052.312.208.364.156.208-.052.312-.156.468-.26-.156-.052-.26-.104-.52-.156-.104.052-.26.156-.312.26zm.624 17.108c-.468.624-.312.936.884 1.04-.052-.312-.052-.468-.156-.624-.104-.104-.416-.208-.728-.416zm.52 2.496c.208-.052.364-.156.572-.208h.936c-.052-.208-.156-.468-.208-.676h-.416c-.104.208-.208.416-.364.676-.156.052-.364.156-.52.208zm.884 3.432c0 .104.26.26.468.26.156 0 .364-.156.624-.26-.26-.104-.468-.26-.624-.26s-.468.156-.468.26zm.832 3.536c.104-.052.208-.104.26-.156-.052-.104-.156-.208-.26-.208s-.26.052-.416.104c.156.104.26.208.416.26zm.676 1.976c.052 0 .104-.052.156-.052-.052-.052-.104-.104-.104-.156-.052.052-.156.104-.156.104 0 .052.052.104.104.104zm0-9.308c0 .104.312.156.676.312.104-.208.26-.364.26-.572 0-.052-.364-.104-.572-.156-.104.156-.312.312-.364.416zm1.04 2.392c-.104.052-.26.208-.208.208.104.104.312.208.468.26.104-.052.156-.156.312-.26-.208-.104-.364-.156-.572-.208zm.052 5.148c.156-.052.416-.104.52-.208.052-.104-.104-.208-.26-.416-.208.208-.416.26-.468.364s.104.156.208.26zm.884 2.444c.104-.052.104-.156.208-.26-.156 0-.312-.104-.468-.104-.104.052-.104.156-.208.26a1.93 1.93 0 0 0 .468.104zm21.486-24.18l-.572-.416c-.104.052-.26.104-.416.156a12.19 12.19 0 0 0 .832.78c.052-.052.104-.052.156-.052v.676h-.364c-.104 0-.156-.052-.208-.052.052 0 .104.052.156.052.052.26.208.416.416.52v2.028c-.312.052-.624.052-.884.104-.208-.156-.364-.26-.52-.416a5.25 5.25 0 0 1-.832.676c.156.052.26.104.364.156.312-.156.624-.26.936-.416.312.104.624.26.936.364v6.5c-.156.104-.26.208-.416.364-.624.572-.988 1.144.208 1.664.052 0 .104 0 .208-.052v1.924h-.312c.104.156.208.312.312.416v1.508c0 .832-.156 1.612-.416 2.392l-1.56.156h-.052l-.052-.052v.052h.052.052v.884c-.26.052-.572.156-.832.26.104.052.156.104.26.156.208-.156.364-.26.572-.416.468-.052.936-.104 1.352-.208-.78 1.82-2.184 3.276-3.952 4.16h-.052c-.26.104-.468.208-.728.364-.52.156-1.04.312-1.612.416.104-.052.156-.104.208-.156s-.104-.156-.208-.26c-.156.052-.468.104-.572.208 0 .052.052.156.104.26-.26 0-.572.052-.832.052h-1.872c-.052-.156-.104-.364-.156-.52-.208 0-.468.052-.676.104.052.156.156.312.208.416h-5.824v-2.912c.104-.052.26-.104.364-.104-.156-.104-.26-.208-.364-.26v-.52.052-.052-3.952h.52c0-.104-.052-.208-.052-.364-.156 0-.312.052-.468.052v-5.772c.104-.104.26-.156.468-.26h-.364-.104v-1.196-.78-.676-.156c.468.052 1.144.208 1.404-.052-.052-.208-.156-.416-.312-.728-.416.052-.78.104-1.092.156v-1.924c.312-.052.52-.156.572-.364-.208-.052-.364-.052-.572-.104v-3.12l.78-.312c-.26-.156-.52-.312-.78-.416V.649h4.056c-.156.052-.364.156-.468.26a6.44 6.44 0 0 0 .468.312c.208-.156.468-.208.468-.312s-.156-.208-.26-.26h4.056a8.26 8.26 0 0 1 6.188 2.808c-.104.052-.208.052-.208.104-.052.052.104.156.156.208.052 0 .156-.052.208-.052 1.196 1.404 1.924 3.224 1.924 5.2v3.848zm-.156 8.996c-.052.052-.052.052-.052.104l.104.052.104-.104c0-.052-.104-.052-.156-.052zm-2.704-15.132c-.156 0-.26.104-.416.156.052.052.156.156.208.156.208-.052.416-.104.676-.156-.208-.104-.312-.156-.468-.156zm.364 11.076c.052 0 .052-.052.104-.052-.052 0-.052.052-.104.052v.052c-.884.468-.884.468-.104.988.052-.416.052-.728.104-.988v-.052zm.208 2.756c-.104 0-.156 0-.208-.052-.052.052-.156.052-.156.104 0 0 .052.052.104.052s.156-.052.26-.104zm-2.86-7.124c.156.104.26.208.416.312-.156-.104-.26-.208-.416-.312-.052-.052-.104-.052-.156-.052.052 0 .104 0 .156.052zm1.092 2.548c-1.404.312-1.404.312-.416 1.196.156-.468.312-.78.416-1.196zm-.884 8.32c-.104-.052-.26-.104-.364-.156-.052.104-.104.156-.156.26a1.18 1.18 0 0 0 .208.052l.312-.156zm-.052-2.132c.052 0 .156.052.208.104 0-.052.052-.052.052-.104l-.104-.104c-.052.052-.104.052-.156.104zm.468 1.04c-.156.052-.364.052-.416.104s.104.156.156.26c.156-.052.364-.052.416-.104s-.104-.156-.156-.26zm-.312-3.796c.208.104.416.208.676.26.052 0 .26-.156.468-.26-.26-.104-.416-.26-.624-.26-.156 0-.312.156-.52.26zm.728-6.448c.208 0 .416 0 .572-.052-.104-.468-.208-.936-.468-1.404-.052-.052-.832-.052-1.404-.052.52.572.884 1.04 1.3 1.508zm.104-4.732c-.052.052-.156.104-.208.156 0 .052.104.104.156.104.104 0 .208-.052.364-.104l-.312-.156zm-.988-1.404a1.58 1.58 0 0 1 .364-.26c-.416-.208-.832-.364-1.248-.572-.104.104-.156.156-.26.208.364.208.78.416 1.144.624zm-.52 11.7c-.052 0-.156-.052-.208-.052-.052.052-.104.104-.052.104s.104.052.208.052c0-.052.052-.104.052-.104zm.052-16.692c-.156.052-.364.104-.52.156.104.104.156.156.26.208.156-.052.364-.052.416-.104s-.104-.156-.156-.26zm-1.768 2.496c-.052 0-.104-.052-.208-.052.104 0 .156.052.208.052h.52.052l1.352-.156c-.104-.104-.156-.208-.208-.26-.416.156-.78.26-1.144.416h-.052-.52zm-.884.676c-.156.052-.26.104-.364.156 0 0 .052.104.104.104.156 0 .26 0 .416-.052-.052-.052-.104-.104-.156-.208zm-1.248-3.692c-.104 0-.26.052-.364.104.052.052.052.156.156.208.104 0 .26-.052.416-.104-.052-.052-.104-.156-.208-.208zm.312 2.08c-.156-.052-.26-.052-.416-.104-.052.052-.156.156-.156.208.052.052.26.052.416.104.052-.052.104-.156.156-.208zm-2.08-2.028c-.416.728-.104.988 1.196 1.248a27.68 27.68 0 0 0-1.196-1.248zm.624 2.184c-.78-.364-1.456-.624-2.548-1.092.208.52.208.728.416.884.312.26.78.468 1.196.676h-.52c-.104 0-.156 0-.208-.052.052.052.104.052.156.052h.572a7.78 7.78 0 0 0 .936-.468zm-2.548 12.532v-.052c.728-.208 1.248-.468.728-1.092-.728.26-1.352.52-2.08.78.416.156.624.26.832.312v.052h.52zm-.052 2.652c-.312-.156-.52-.312-.676-.26-.208.052-.416.156-.624.26.208.104.416.208.624.208s.364-.104.676-.208zm.26-6.24s0 .052-.052.052c.052.052.156.052.156.052.052 0 .052-.052.104-.104h-.208zm0-7.072c0 .052.104.156.156.208.156-.052.364-.104.52-.156l-.312-.156c-.104 0-.312.052-.364.104zm.832 13.572c-.052.104-.104.208-.156.364.052-.156.104-.26.208-.364 0-.052.052-.052.104-.104-.052.052-.104.052-.156.104zm.104-10.4c.052-.052.104-.156.156-.208 0-.052-.156-.104-.208-.104l-.312.156c.104.052.26.104.364.156zm-.572-1.3c.416-.104.832-.156 1.248-.26-.052-.052-.104-.208-.156-.208-.416 0-.832.052-1.248.052.052.156.104.26.156.416zm1.352 18.148c-.208.156-.468.312-.572.468-.052.052.312.208.468.26.208-.156.416-.364.572-.52-.156-.052-.312-.156-.468-.208zm-.468-1.352s.052.052.052.104c.052 0 .156-.052.26-.052-.156-.052-.208-.052-.312-.052zm.728-1.092s.052-.052.052-.104h-.208s0 .052-.052.104h.208zm-.416-11.648c.104 0 .208-.052.312-.104-.104-.052-.156-.156-.208-.208-.052 0-.156.052-.156.104s0 .156.052.208zm-2.236-7.124c-.104 0-.156.156-.208.26.208.052.468.052.676.104.052 0 .104-.156.208-.312-.26 0-.468-.052-.676-.052zm-.572-3.172c-.052.052-.052.156-.052.208h.416c-.052-.104-.104-.156-.156-.26 0 0-.208 0-.208.052zm-.208 7.28c-.052.104-.052.156-.052.26a1.18 1.18 0 0 0 .208.052c.052-.052.156-.104.208-.208-.104 0-.26-.052-.364-.104zm-.312 1.768c-.104.052-.104.156-.156.208.104.052.26.104.364.052.104 0 .104-.104.208-.208-.156 0-.312-.052-.416-.052zm-1.456-5.72c.052 0 .156.052.156 0 .052 0 .104-.052.104-.104-.052 0-.104 0-.208-.052 0 .052-.052.104-.052.156zm.364 2.184c.052 0 .156 0 .208-.052h-.364c.052.052.104.052.156.052zm.416-4.16c.156-.104.26-.208.468-.312-.26-.104-.468-.26-.624-.208-.208 0-.312.156-.468.26.208.052.416.156.624.26zm-.78 34.632c.104-.052.156-.156.208-.26-.156 0-.312-.104-.416-.052-.104 0-.104.104-.208.208a2.34 2.34 0 0 0 .416.104zm.52-9.672c.052 0 .104-.052.208-.104-.26-.104-.52-.26-.78-.416l-.312-.312c.052.104.104.26.156.416.26.156.468.26.728.416zm.312-3.172c.052 0 .156-.052.26-.052-.104-.052-.208-.052-.312-.052.052 0 .052.052.052.104zm.884-7.332c-.208.052-.364.104-.52.208-.052.052.156.208.26.208.208 0 .364-.104.572-.156-.156-.104-.208-.208-.312-.26zm1.04 6.656h-1.56c.78.416 1.56.676 1.976.468-.156-.312-.312-.624-.416-.936v.468zm-1.092 12.844c.052 0 .104 0 .156-.052 0 0-.052-.052-.052-.104-.052.052-.104.104-.104.156zm0-1.456c.312-.052.52-.156.884-.312-.364-.156-.624-.26-.78-.26-.208.052-.468.208-.468.312-.052.052.312.26.364.26zm-.416-3.224c.052.052.052.104.052.104h.312c-.156-.052-.26-.052-.364-.104zm1.248 2.132c.104-.052.26-.104.364-.156-.052-.052-.052-.156-.156-.208-.052 0-.26.052-.416.052.104.104.156.208.208.312zm-.676-2.964c1.56-1.04 1.56-1.04.104-2.028l-.624.468c1.352.364.364 1.04.52 1.56zm.728-2.6c.156 0 .416-.104.624-.156-.104-.104-.208-.26-.26-.26-.208 0-.468.052-.676.104.104.104.156.26.312.312zm.156-2.132c-.728.78-.052.832.832.78.156.624.676.416 1.508.104-.728-.052-1.092-.104-1.456-.104-.26-.208-.52-.468-.884-.78zm1.092 2.34a28.92 28.92 0 0 1-.208 1.664c1.716-.624 1.716-.832.208-1.664zm.156 4.316c-.052-.052-.104-.052-.104-.104-.052.052-.156.052-.156.104l.104.104c.052-.052.104-.052.156-.104zm.156 4.16c.156 0 .364-.104.884-.312-.416-.104-.624-.208-.832-.208-.156 0-.468.156-.468.208.052.104.26.26.416.312zm1.976-2.34c.052-.104.208-.312.156-.416s-.364-.156-.572-.26c.208-.26.416-.572-.468-.624h-.26c.052 0 .104.052.156.104.156.156.364.364.572.52 0 .156-.052.312 0 .416s.26.208.416.26zm2.288 1.04c.052-.052.052-.104.104-.104-.104 0-.156-.052-.208-.052-.052.052-.104.104-.052.104 0 0 .104 0 .156.052zm-.468-2.34c.26 0 .468-.052.676-.104-.052-.104-.104-.26-.156-.26-.208 0-.468.052-.676.052l.156.312zm.936-1.612c.26 0 .52.052.78 0 .156 0 .208-.26.26-.364.312 0 .624 0 .832-.052v-.416c-.26.156-.572.312-.832.468-.156-.052-.364-.104-.52-.104.364-.416.572-.936.624-1.508.104-.052.208-.052.26-.104-.052-.052-.156-.104-.208-.156v-9.152c0-.052.052-.052.052-.104h-.052V8.813c0-.884-.416-1.612-.988-2.132.104-.104.156-.26.26-.416-.104-.052-.26-.052-.416-.104-.052.104-.156.156-.26.26-.416-.26-.884-.416-1.404-.416h-1.716v3.12c-.156.052-.26.104-.26.156l.26.26v11.336c-.104.104-.208.156-.26.26 0 .052.104.156.26.26v6.24c-.052 0-.104 0-.156.052-.468.26-.416.728.156.988v2.028c-.104-.052-.208-.156-.312-.208l-.312.156c.208.052.416.156.624.26v.208c-.26.416-.364.624 0 .832v.208h.468c.208.052.468.104.728.208.052.052.104.052.208.052-.052 0-.156 0-.208-.052 0-.052-.052-.156-.052-.208h.572c.624 0 1.144-.26 1.612-.572zm2.132 2.86c1.352-.208.26-1.04 1.508-1.352-1.144-.26-1.976-.468-2.912-.624a33.37 33.37 0 0 1 1.352 1.924c-1.248-.208-1.248-.208-1.248.52.468-.208.884-.312 1.3-.468zm1.352-6.812c.26-.052.676-.312.676-.52 0-.156-.416-.364-.624-.572-.312.208-.624.364-.936.572-.104.052-.208.156-.26.208.364.104.78.312 1.144.312zm.52-3.12c.052-.104.156-.208.208-.364.468-.26 1.3-.52.052-1.04 0 .416-.052.728-.052 1.04-.052.156-.156.26-.208.364zm.676 4.732h.052v-.052l-.052.052zm2.34-1.04c-1.144.208-1.716.26-2.288.364-.104-.104-.26-.208-.364-.312.104.104.26.208.364.312 1.092.26 1.092.26 2.288-.364zm-.52-5.772c-.728-.52-1.404-.26-2.548.156l2.34.208c.052 0 .26-.312.208-.364zm-1.872-11.596c.104 0 .312-.052.416-.104-.052-.052-.052-.208-.156-.208-.104-.052-.312.052-.468.104.104.052.104.156.208.208zm1.82.208c.104-.052.26-.156.208-.208-.156-.104-.312-.156-.52-.26-.052.104-.104.156-.208.26.156.052.364.156.52.208zm.78 13.624c-.104-.156-.156-.26-.26-.416.104-.052.156-.052.26-.104v.52z" fill="#080809"/><path opacity=".5" d="M662.259 8.26465H664.105C666.314 8.26465 668.105 10.0555 668.105 12.2646V18.3528M662.259 28.4409H664.105C666.314 28.4409 668.105 26.65 668.105 24.4409V18.3528M668.105 18.3528H894" stroke="url(#B)"/><defs><linearGradient id="A" x1="239.741" y1="18.353" x2="0" y2="18.353" gradientUnits="userSpaceOnUse"><stop/><stop offset="1" stop-opacity="0"/></linearGradient><linearGradient id="B" x1="654.259" y1="18.353" x2="894" y2="18.353" gradientUnits="userSpaceOnUse"><stop/><stop offset="1" stop-opacity="0"/></linearGradient></defs></svg>