<svg width="143" height="557" fill="none" xmlns="http://www.w3.org/2000/svg"><path fill-rule="evenodd" clip-rule="evenodd" d="M75.151 540.065c-.128-.276-.17-.691-.07-1.327-.072-.041-.115-.041-.172-.069 0 .124-.014.249-.028.359-.029-.138-.057-.276-.085-.401-.74-.304-1.167.07-1.808.678-.1-1.88-1.608-1.784-1.053-3.457-.227-.082-.384-.069-.512-.027.555 4.424-.612 3.608-.455 1.576-.385.705-.925 2.53-1.637 1.244 1.338.581.47-2.558 1.665-1.493a5.08 5.08 0 0 1 .327-1.272c-.284.194-.398.581-.882.498.1-.553.17-1.037.242-1.466-.655.152-1.352.249-2.02.415-.456 1.231-1.096 2.046-1.822 1.272.342-.069.655-.18.57-.816a3.54 3.54 0 0 0-.74.47c-.228-1.41-2.064-.249-2.676.623-2.433-2.434-2.732 5.862-5.393 5.198.598-.249 1.636-2.959 1.38-1.936-.014.429-.483.858.071 1.079.228-.664.783-.996.456-2.198-.996.622-4.554-3.056-4.91-.968.029-.152.797.193.627.29-1.295.774-2.106-.401-2.035 1.272-.769-.415-.242-.691-.669-1.009-.555.097-.982.332-1.153.829.285 1.093.84.387 1.523.208.213.815-.313 2.502-.797 1.521.37-.18.584-.512.527-1.134-.854.415-1.096 1.23-1.423 1.216-.114-.663.284-.815.199-1.451-.94.387-.598.359-1.224-.249.47-1.037.142-1.037.484-1.839.156.442.441.691.953.622-.882-.746-1.252-1.327-.142-2.143-3.202-3.912-5.265-7.023-7.485-12.208-1.081-.18-2.946-1.161-3.6.346.711-.277.854 1.438.455 2.115.328-1.59-1.053-.802-1.679-1.051.37.498.299 1.604 1.096 1.466-.014-.498-.2-.774-.37-1.037.783-.18.825.664.996 1.341-.512.028-.754.346-.854.802.91-.691 1.324 1.217 1.523.207-.057-.567-.783-.207-.669-1.009 1.025-.29 1.451 2.267.47 2.475-.228-1.742-.143.691-1.196.11-.142-.691.356-.746.527-1.133-.413.055-.669-.111-.925-.263-.128.539.484 1.811-.17 1.811-.613-1.078.227-3.705-.755-2.087-.1-.885.398-1.148.484-1.839-.925.124-.968-.996-1.053-2.046-.712.069-.925-.526-1.822-.18.072.774-.156 2.903-.782 1.866.256-.511-1.395-1.673-2.249-1.935-1.124-.042.029 2.239-.725 2.585.996.36 2.248 9.125 3.543 11.876-.441.111-1.11-.013-1.181.47.583.623.854-.511 1.522.208-.17 1.659 1.224 2.392.541 3.539.925-1.106.74.927 1.025 1.701 1.124 2.958 3.728 6.733 4.496 8.185 0-.443.029-.858.555-.775-.569 1.701 1.551 1.646 2.306 2.655.284-1.369 1.124-1.175 1.707-1.604-.655-.843-1.451-.387-2.134-.152-.285-.774 1.309-1.272.17-1.811-.697.954-.44 1.88-.725 2.585-.94-.94.512-1.175.128-2.53-.584.166-.626-.415-.954-.622.712 1.742-1.494.871-.569.415.029.221.071.415.327.332-.284-.871-.47-2.945.683-3.305.2 1.286.655 2.019 1.395 2.738.014-1.092.84-1.369.413-2.918-.399 0-.811 1.535-1.181.471.796-1.48-.313-3.554-1.295-5.627.555-.097.982-.332 1.152-.83-.185 0-.355-.014-.327-.332-.484 1.493-.612-.622-1.48.498-.612-1.908-.1-1.272.1-2.89-.413.028-.655.235-.883.443-.199-1.549-.668-2.71-1.167-3.844.356-.097.854-.027.883-.442-.555-.263-.612-1.535-1.252-.595.085-1.825-.598-2.571-.868-3.871.227-.097.597-.069.583-.415 1.01-.027.91 1.728 1.523.208.654 1.285-.157 2.074.17 2.502.37-.498.527-1.147.897-.083-.925-.276-.484.844-.498 1.48 2.035.414 1.864 4.175 1.92 6 .015-.443.186-.747.556-.857.156 2.475 1.75 4.286 2.988 4.023-.74.359-.669 1.549-1.053 2.254.526-.083.94 0 1.224.235-.57-.623.256-1.687.754-2.226.868 1.037-.085 2.364-.697 2.944 1.494.125.825 1.508 1.65 1.991-.84 3.623 2.675 2.793 5.493 5.227-1.594.152-3.814.594-3.06-.429-1.18.221.427 1.203-.825 1.161-.355-.29-.142-.649-.427-1.756-1.864.111-1.935-1.506-2.29-2.654-.854-.249-.214 2.018-1.125 1.189.797-1.134-.526-.346-1.224-.235-.227-.622.783-1.562-.128-1.784.057.844-.44 1.106-.156 2.171 1.096-.207 2.305 1.452 1.95 1.963-.812-1.023-.157.429-.57.415-.114-.498-.683-.346-.953-.622-.029.857-.996.76-.783 1.866.285.678 2.803.222 1.907 1.259-1.153-.747-2.12-.111-2.846-1.881-.526.692.484 1.065-.498 1.493-.768-1.908-1.366-1.714-2.576-2.267.27-.954-.426-2.738-1.693-2.71-.384-1.631 1.01.138.854-.802-.142-.816-.854-.746-1.224-.249-.057-1.009-.427-2.184-.996-1.341l-.128-1.783c-.64.732-1.765-1.701-.697-1.369-1.11-.29-1.566-.747-.67-1.009-.085-.415-.497-.346-.924-.277.455-1.963-.968-1.991.384-3.263-.953.65-1.28.664-2.049.913.783-1.839-.526-.857-.996-1.341-1.38-1.452.014-2.945-.57-3.899-.398.041-.227.65-.554.774-.071-1.327.37-1.203-.427-1.756.227-.11.597-.069.583-.414-1.764-.719-1.138-3.72-1.537-4.881-.042-.097-.569.429-.583.415-.555-1.991-.213-7.217-2.889-6.913-.583-1.659-1.408-3-2.675-3.692 1.395 7.964.968 9.513 3.088 14.075-.284.387-.555.774-.825 1.161 1.152-.179.128.291.37 1.051 1.053 1.051 2.22 3.844 1.636 6.305.47 0 1.039-.152.953.622-.54.401-1.08-.968-1.195.11.754.858 2.064.54 1.622 1.632-.412-.318-.939.774-2.106.207-.555-1.216 1.01-.318.826-1.161-.527.014-.925.166-1.181.47-.427-1.092.412-.912.498-1.493-.826.041-.57.65-1.196.11-.526-1.7-.555-3.069-1.166-3.843 1.067-.304.313-1.12-.399-1.397.555-.096.982-.331 1.153-.829-.456-.014-1.096.235-1.224-.249.626.042 1.295-1.521.797-1.507-.626 1.424-1.822.221-2.305 1.659.284-.829 2.888 5.53 1.664 6.263 1.38-.263 1.922 1.659 1.367 2.779.298-.027.341-.332.583-.415.157.83.455 1.438.74 2.088-.498.194-.797-.456-.896.083 1.095 1.023 1.593 2.793 1.195 4.203a106.68 106.68 0 0 0-2.818-5.834c.356-.083.698-.18.555-.775-1.252.18-.74-.11-.355-.691-.37-.221-2.263-3.263-1.125-3.125-.768-1.825-1.437-1.88-1.195-4.189-.825 1.162-.455-1.355-1.295-1.313 1.551-.705-1.523-1.59.128-2.53-.413.027-.654.235-.882.442-.043-.719-.1-1.424-.142-2.143.384-.829.768.373.868-.442-.128-.733-1.338.041-1.281-.954.655-.553 1.195.815 1.195-.125-.355-1.175-.569-.124-1.522-.207.185-1.936-1.58-5.516-1.423-7.411.042.595-.826.277-.854.802.982 3.166 1.423 7.577 2.618 11.614-.356.083-.854.014-.882.442.413.069.612.457 1.224.235-.128.65.498 2.06-.157 2.171-.27-1.051-.626.401-1.21.111-2.305-7.148-3.742-14.573-4.866-22.536 0 0-.598.069-.598.055-.298-2.959-.597-4.175-1.038-6.374-.911-4.479-1.438-9.346-2.178-14.171-.84-5.503-2.817-10.715-3.486-15.471 0-.028-.597.097-.597.055-.84-3.622-1.338-7.728-1.367-11.005-.213-.484-1.152.055-1.252-.595 1.096-.373-.199-1.064.484-1.838-2.917-3.913-.427-305.798-2.49-309.379-.142-.691.356-.746.526-1.133-.384.013-.44-.415-.925-.263-.1-1.507.342-2.53-.526-3.18.996.097.996-2.502.726-2.585-.313 0-.498 1.603-.868.442.298-.899.057-2.074-.242-3.581.782-.373.555-3 1.21-4.424-.4.041-.812.083-1.196.124-.029-.497-.2-.774-.37-1.05 1.01.152.427-.788.228-1.106.412-.056.668.11.925.276.47-1.382-.399-3.055-.954-.636.057-1.673-.555-2.115-.228-3.221-.412.027-.654.235-.882.442-.1-1.327 1.395-1.037 1.025-2.613-.882.83-.527-.332-.043-.719-.868.512-1.238.512-1.55-.567 1.166-.193 1.792.374 2.205 1.231.597-1.037.483-7.314-.513-7.494.555-6.539-.455-12.332.527-18.734.2.387 1.081 1.798 1.878.899-1.138-.47-.313-3.097-.64-4.963-.37 1.023-1.523-.139-.655-.65.313 1.659 1.267-1.175.484-1.839.598.055.555-.539.854-.802.327 3.111.285 6.415 1.608 10.273 1.024-1.259-.484-3.332.854-5.116-.043-.594-.854-.111-.954-.622 1.252-.401.74-2.586.94-4.051-.456-.83-1.096.498-1.224-.249.483-.622.54-1.673.398-2.917 1.181-.277.754 2.461.17 2.502.627.042.855.636 1.267.954.057-6.332 1.58-10.3 2.277-15.319-1.722.567.626-4.673-.669-5.323.57-.843 1.793-3.138.655-3.663 1.138-1.245.484-2.295 1.907-3.056-.811-.622.555-1.852.085-3.249.583-.166.626.429.953.622-.17-1.852.57-.967.1-2.89 2.675-2.557 3.472-12.166 6.403-12.484 1.395-4.355 3.473-8.019 5.877-11.35-1.124 2.1-.37 5.087-1.764 5.211.114.54 1.238 1.604 1.55.567-.355-.014-.853.152-.924-.262 2.02-1.977 4.027-4.867 5.72-9.18-.526-.097-.74.608-.896.082.54-.373 1.636-1.852 1.053-2.253-1.992.857-2.931 6-4.482 5.115 3.03-2.917 4.98-8.71 8.053-10.48-1.707 1.41-1.55 4.203-3.03 4.245.697.843.128.387.725 1.728 1.224-.221 1.566-3.055 2.889-2.074-1.665.65-1.153 2.364-2.462 3.83 2.718.54 4.041-4.037 2.917-6.042 1.793-.194 1.694-4.05 3.415-3.207-.583.746-1.522 1.12-1.337 2.64.583.622.854-.511 1.522.208.399-1.37.982-2.558 1.879-3.415-.498 1.963-1.509 3.415-2.562 4.811.242 1.963.313 6.484.143 7.024-.057-.54 0-1.37-.242-1.397v-5.502c-1.181 1.576-2.405 3.124-2.988 5.309-.527.069-.94 0-1.224-.25.939 1.107-.712 1.743-.712 2.946-.91.359-.64-.927-1.55-.567.64.733-.214 1.382.412 2.074-2.946 5.751-4.838 11.904-8.21 16.66.753 1.396-1.552 4.092-.84 5.474-.598.36-1.893-.124-.954-.635.313.912.313-1.19.826-1.162-1.196.125-.513-1.77-.029-.36-.782-1.534.698-1.866-.213-3.207.996-1.48 2.362-5.502.81-5.834-.028 4.12-3.642 7.355-3.67 12.581-.157.512-1.153.166-1.153.83.626 1.175 1.096.29 1.594 1.285-1.196-.138.07 1.259.128 1.784-.555.097-.982.332-1.153.83.74.635.328-.125.882-.443.385 1.355-1.067 1.576-1.422 1.217.284-2.046-.37-1.825 1.053-2.254-.797-.58-1.096-1.852-2.249-1.935-.512 1.3.128-.042.356.677-1.608 4.272-3.06 9.512-2.718 13.204-1.736.345-1.252 3.968-2.462 3.83-.114.317.57 3.511-.398 2.916-.157 3.803-.114 8.337.028 12.72-.156.277-.028.844.043 1.355l-.043-1.355a.289.289 0 0 1 .228-.166c.555 2.945 1.039 5.503.512 7.494.57.027.64-.456 1.181-.47.584 1.811-1.309 1.12-1.351 2.295.455.152 1.522-.567 1.522.207-1.01 1.286-.313 3.927-.185 6.125.868-.346 1.409-1.023 1.68-1.963-2.007-3.401.497-4.203-.912-8.89-.412.456-.725.484-1.195.11-.398-.677.143-3.719.356-3.636.555 1.535-.029 2.6.213 3.222 1.423.193.897-3.139.086-3.249 1.152-1.424.47-1.646.327-3.982 1.836.097.356 2.71 1.138 3.484.997-.788.057-3.429 1.181-4.784.427 1.742-.84 4.245.64 4.977 0-.276.03-.622.058-1.009v-2.323s.07-.041.114-.055c.014-1.272-.1-2.42-.598-2.682-.014.429.128 1.01-.228 1.092-.1-.428-.356-.18-.597.055-.015-.898-.541-1.064-.726-1.728.825-.442.711-.594 1.153-.83-1.053-1.534-.584-5.35.113-7.203-.327.871 1.196-1.34.2-1.451 1.963-1.963 1.707-6.692 2.888-10.701 1.452-1.535 1.366-4.604 2.263-6.692.07.567.042 1.244.669 1.01-.484-1.784 1.266-3.982 1.394-6.25.498-.193.797.456.896-.083.1-2.53 1.31-5.24 3.117-7.493.327.636-.825 1.285.1 1.424.64-.346.27-1.715 1.08-1.908-.753 2.295-.554 3.512-2.077 4.88.911.54-.925 1.88.171 2.503.2-.014.399-.042.598-.056-1.195-2.585 1.707-3.041 1.18-4.783 1.182-1.12 2.164-4.37 1.993-6.305 1.181.277 1.01-5.102 2.96-5.323-.114.498-.441.788-.626 1.203 0 .318-.014.65-.029.954 1.466-.913 1.608-4.203 2.932-4.175-.328-1.023.868-3.014 2.177-3.443-.157.899-.3 4.23-1.907 3.055.057.706.854.374.697 1.37-1.224 1.423-1.75 3.553-2.334 5.626.214-.76-1.08-1.258-.953-.622.157.72-.128 1.576-.57 2.544.129 3.553.343 6.623-.255 11.406-.555-3.857.1-6.235-.242-10.397-.498.968-1.067 2.033-1.494 3.166.44.097.54.374.896-.082.285.636 0 .69-.299.718.072.263.185.374.342.36 0-.041.014-.055.043 0h.056c0 .484 0 .885-.028 1.272.043.373.086.65.1.511-.057.526-.2 1.106-.37 1.715-.086.594-.171 1.23-.185 2.046.284.11.683-.11.726.691-.427 1.148-.3 3.111-.257 5.323.484-3.58 1.04-7.341 1.58-9.927.47-2.17 1.423-4.313 1.152-5.323.157.111.342.153.598.125-.1-2.378.598-1.88.626-4.023.996.442.968 1.576 1.494-.139.057 2.876-.583 1.673-.854 5.116-1.693-.567-.327 2.696-1.422 1.217-.541 6.138-3.501 13.258-2.007 19.245-.284.373-.555.76-.825 1.161.484-.055.598.11.583.387.114-.082.2.042.256.706-.44.235.029 2.364.057 3.968.185-.18.413-.194.655.18-.399.47-.584 1.423-.17 1.81-.641.318-.869-.22-.855-.83-.185-1.243-.17-3.677-.626-2.944.143.055.285.11.342.29-.925 1.203-.385 2.683.114 4.093v-.332c.725-.622.611 3.913.355 5.212.057.526.057 1.023-.07 1.41-.086-.4-.37-.525-.641-.65-.37.761-.754 2.586.071 1.065-.825 2.212-.527 4.328-.783 6.485.057.387.157.746.356 1.036-.1.083-.2.194-.284.305.626.608.91 2.544.611 3.567.072.276.171.414.385.29.683-3.235-.427-7.646.483-9.692.114 21.14.484 36.652.755 53.52.1.746.199 1.479.313 2.184 0 .028.085.028.199.055.356-5.226.555-10.286.413-14.862 0 1.7-.37 5.793-.712 4.161.27-1.313.114-3.166.484-5.544.782-.401 1.21.207 1.437 1.383-.712-3.982-.242-1.936.484-4.162-.655-2.53.441-8.309-.484-11.088-.498 3.678-.37 5.834-.726 9.014.043-2.917-.37 0-.711 0 0-3.028-.214-5.406-.484-7.632 1.039-.912.299 3.305 1.195 2.766.043-3.153.2-2.71 0-5.545 1.11.291.37-2.613 1.68-2.765.91 2.558.298 6.706-.242 9.015.44-1.369 1.152-.401.953 2.074-1.067 1.189-.37 3.193-.953 5.544h.953c0 4.41-.427 10.839.953 7.618v2.779c-1.408 3.373.2 16.231-2.148 20.794.597-.125.754 1.064.953 2.073-1.323 1.646-.484 11.586 0 14.559.029-2.876.157-.138.484 0 .199-.802.313-1.867.242-3.47-.413-.277-.612 1.037-.726 0 1.352-3.802.768-9.872-.242-13.162.811-.526.299 2.806 1.195 2.073.171-2.378-.042-9.111.712-11.779.612 2.35-.54 6.498.242 9.014 1.508-3.594-.54-7.576.484-11.779-1.338-6.775-.285-17.379-.954-22.191 1.025-2.156-.384-4.742 0-6.249.057.844.27.429.484 0 .285 3.899.811 6.968.484 11.78.313.041.327.885.726.691.384-2.281-.84-4.908.241-4.853-.213 3.194 1.01 9.236 0 13.867-.412-.884 0-4.147-.725-4.161-.427 7.562.626 18.983.242 29.117 2.262 2.793-.328-15.139.953-19.412.797 7.093-.583 16.785.953 22.177-.412 8.627-.426 19.48.726 25.66.356-5.986 1.366-10.023.484-14.558 1.338-3.387.299-6.816.712-10.397.07 4.894 1.067-.111 1.195-1.383.114 4.107-.27 8.241.484 9.015.74-6.208 1.536-10.674 1.195-18.72-.669-.318.185 3.774-.484 3.47.655-6.802-.242-13.369.726-20.808.697 2.6.341-5.696.967-4.77 0-.221 0-.387.015-.497.042.276.07.511.1.746.028.097.07.208.113.346-.028.055-.028.111-.043.18.214 2.226-.056 3.387.726 4.811.071-.18.157-.332.242-.47.384-3.484-.797-6.788-.2-9.664.143.193.228.373.285.567.157-1.825-.896-2.461-.284-3.042.1 1.175.313-.152.711 0-.327 1.894.185 2.502-.355 3.304.199.927-.228 1.659.412 1.618-.398 1.479-.555 3.18.57 3.899 0-.194.213-.429.298-.028-1.053.747-1.053 1.701-.868 2.724.555-.443 1.124-.636 1.38-1.797.086-2.489.057-4.508.228-6.471-.042-.926-.213-1.88-.697-2.724.242.913-.029 1.3-.825 1.162.355-1.798.327-1.507 1.01-2.973-.356.097-.64.705-.91.097.426-.249.697-.636.825-1.161-.228-4.107.341-2.143.611.249.072-1.535.27-3.236.484-3.429.598 1.866.456 7.687-.242 9.692-.042 3.304.214 5.848.242 9.014.014 1.714-.256 4.3-.156 6.595.327.055.711-.249.84-.747-.072 1.051-.143 1.466-.798 1.3.1 1.286.328 2.447.84 3.249-.029-12.941 1.352-26.753 1.68-41.588-.343.774-.584.747-.712-.705.81-2.406.128-5.198.953-6.927-.029 1.245.242 1.618.712 1.383-.242 3.982-.84 5.558-.712 11.779.341-.774.583-.76.712.692-.185 11.987-.812 27.886-.242 36.748.754-6.29.412-15.706.953-20.807 0 1.203.185 1.783.484 2.074.526-2.959-.655-9.443.726-11.78 0 .111 0 .221.028.332 0-.622.028-1.203.043-1.728.996.995.54 1.424 1.323 2.571 0-.276.1-.387.228-.47.057-.401.113-.816.156-1.244-.242-.968-.355-1.037-.526-2.35-.014.027-.029.082-.043.11v-.428s0-.014.014-.028c.1-3.069-.085-6.457.47-8.544.042-.153.071-.235.1-.318.142-.429.113 0 0 0-.086 0-.2-.208-.342-1.065a16.962 16.962 0 0 1-.142-1.507c-.086 0-.171 0-.27.028.924.898-.328 3.94-.086 5.295-1.139-2.544.598-5.987-.94-7.881.03 1.701.243 5.835-1.024 4.466 1.082.083-.17-1.604.498-2.668-.299.013-.341.373-.583.47.057-2.226-.328-5.116.597-7.079-.07-.512-.498-.456-.925-.387.029-2.06.114-1.466.157-3.526 1.01.111 1.28-.76 1.594-1.562a.414.414 0 0 0-.142-.318c-.157 0-.328 0-.427-.028-.541.235-1.395.166-1.238 1.106.355-.083.64-.705.896-.083-.526-.055-1.423 1.148-1.793.18 1.238-.166.043-.235-.043-.719 1.423.373-.44-2.143.527-1.134.441.388.868.291 1.295.18 0-.207.085-.47.213-.76-.042-.056-.057-.139-.057-.277.1-.027.171-.083.242-.138.086-.18.185-.373.285-.567a2.519 2.519 0 0 0-.029-.788c.129 0 .257-.028.385-.041.056-.153.128-.318.156-.47.356-1.41.498-2.931.64-4.3-.128-.609-.569-.747-1.252-.581-.1-1.078 1.637-.263.2-1.452.355-.083.853-.027.882-.442l-.897.083c.128-.857.285-1.7 1.082-1.908.483 1.258-.47 2.53.128 3.11.1-.801.213-1.52.412-2.073.257-.705-.028-2.06-.142-3.512.313-.332.655-1.147.94-2.157-.143-1.037-.143-3.415-.086-4.673-.37 1.106-.968 2.378-.669 4.162-.313-.11-.54-.056-.726.083.1 2.267.627 4.7-.796 4.424.227-.097.597-.07.583-.415-1.594.125-.37-.166-.057-.719-.256-1.092-.157-.733-.555-.816-.1.512-.2.83-.413.637.029-.263.072-.498.114-.747a.43.43 0 0 1-.114-.055c.057-.028.086-.056.129-.083.028-.277.085-.54.113-.83-.227-.249-.569-.525-.669-.857.257-.125.57-.208.84-.318.085-.54.142-1.092.228-1.618-.484-.235-1.139-.22-.64-.622.255.083.469.207.682.332.057-.346.129-.664.2-1.01-.185-.303-.157-.718-.627-.068.484-1.134.171-1.023.456-2.199-1.096.11-1.366-3.484.91-4.396-.597-.927-1.721 1.327-2.404.235.156-.83 2.091.124 1.722-1.245-.171.125-1.096.996-1.196.125.128-.221.128-.705.256-.885 0-.567.129-.982.285-1.341-.029 0-.057 0-.085.014.156-.774.412-1.424.668-2.088-.156-.415-.056-.926.129-1.466-.242-.096-.484-.262-.755-.718-.114.414-.199.857-.114 1.313-.014-.622-.199-.968-.47-1.161-.07.041-.141.069-.213.11-.199 1.507.74 1.175.74 2.364-.668.43-.555-.428-.74-.774 0 .097.029.194 0 .318a1.56 1.56 0 0 0-.398-.4c-.043.013-.071.013-.114.04v-.082c-.768-.332-1.295 1.12-1.892.663.256-.857 1.095-1.106 1.38-1.935-.356.097-.64.705-.897.097.385-2.835.57-4.162-.711-6.042-1.565 2.668.085 10.687-1.537 8.42-.156 1.479-.256 1.659.754 2.073-2.134.927-.284 3.167-.882 4.757.455.013 1.096-.236 1.224.248-.854.028.398 2.171-.456 2.199.413-.927-1.095-.954-.925-.277.712-.304.797 1.424-.256.747-1.166 2.364.157 3.802-.512 5.807.399 0 1.039-1.314 1.181-.47-.413.58-1.224.76-1.409 1.576.84 1.479.043 2.184-.028 3.954.413-.056.669.11.925.276.014-.428-.128-1.009.228-1.106.113.54.498 0 .569-.414-1.139-.111.185-1.743-1.053-2.06.569-.844.996.22 1.48-.498-.128 3.29.256 5.157-.37 7.936-.086-.277-.285-.387-.626-.29.07-1.287-.385-1.812-1.053-2.06-.413.234-.698.621-.826 1.16.74.457.726.83 1.21-.11-.669 2.254-1.139 5.226-.313 8.655-.826.442-.712.594-1.153.83.555.276.64 1.202 1.025 1.7-1.238.567-.883-1.106-1.594-1.286-.655 0-.94.387-.825 1.162.597.041.555-.54.853-.802-.526.871.74 2.253-.085 3.249-.583-1.245-1.437-1.507-1.395-2.738-1.309.54-1.152 5.116.072 5.379.597-.719-.541-3.194.683-3.305-.228 2.074.256 3.36-.185 6.125.569.622.896-.581 1.252.594-.512.747-1.195.36-1.523-.207-.042 1.231.228 2.032 1.324 1.673l.17 2.502c-.697.18-1.195.816-1.807.18.555-1.687.057-2.959-.612-4.618.313 3.166-.085 6.18.897 9.872.156-.069.242.111.27.401.214-.125.3-.429.441 0-.355.111-.156.415.057.719-.227.083-.37.193-.47.332-.028 1.037-.113 2.226.228 2.17.328-.055.143-4.977.484-2.765-.185 1.576-.242 3.374-.284 5.143 0 .719.042 1.12.498 1.908-.2 0-.356.678-.541.816 0 .47-.014.94-.029 1.396 1.053-.11.584 1.494.27 2.13-.27-.968-.184-.968-.284-1.494-.085 2.171-.27 3.927-.81 4.66.37-1.812.298-8.005-.485-6.236.143-2.253.27-3.332.37-5.157-1.138-.069.541 1.383-.427 1.922-.028-.221-.07-.415-.327-.332-.1 0-.185 0-.242-.055-.057 3.857-.1 7.549-.569 10.535-.655-1.548-1.053-1.783-1.68-2.074.798-1.369.03-3.276.47-4.161.057.774.27 1.078.484 1.382-.07-2.64.285-5.35.712-2.765-.626-3.94-.029-7.397.569-10.106-.185-8.517-1.025-19.011.057-26.532-.399-4.203-.797-12.222.726-15.886-1.281.636-.954-3.07-.27-3.926-1.353.885.099-1.742.127-2.53-.412.055-.668-.111-.925-.263-.327-1.217.356-1.424.128-2.53 1.096-.622.64.926 1.551.567-.47-1.065 0-1.023-.17-2.503-.413.608-1.21.387-1.523-.207 1.224.456 0-1.549.797-1.521.384.788 1.081-.885 1.423-1.217-.64-.608-.555-1.244-1.551-.566-.057-1.41-.342-1.95.085-3.25.626.72.498 2.185.769 2.434.028-.747 1.323-.208 1.124-1.19-.683.167-1.139.028-1.252-.594 1.024-.276.882-1.216.455-2.198.825-.055.57-.65 1.195-.124.27-1.687 1.58-2.392.328-3.982.355-.083.853-.014.882-.443-1.38.498-.128-2.682-1.096-2.765-.356.097-.854.028-.882.443 1.081.539-.612 2.986.854 3.511.085 1.19-.897 1.314-.726 2.586-1.28-.54-.441.857-1.708 1.604.313 0 .27.442-.27.387-.256-1.452-.213-4.425-.797-7.12 1.665-1.217.655-2.697 1.508-4.466-1.038-.968-.142-2.489-.84-3.512 1.21-.097.072-2.585.684-3.29-.384 0-.441-.415-.925-.277.228-2.157 1.039-3.858-.071-5.378.726-.263.327-1.341 1.053-2.254-.897-2.986-.256-5.986.74-6.899-.413.028-.655.235-.882.442.768-6.691-.342-10.922 1.21-17.724-.954-1.3-.627-3.07 0-4.314-.1.194.554.747.64.664-.143.138.199-2.544 1.124-1.19-.1 1.923.654 3.084.84 3.513.511-.871.042-1.701.398-2.904.156.429.44.691.953.622-.142-1.244.598-1.603 1.053-2.253.683 1.064.228 1.645 1.423 3.097-.612-1.729.968-1.245.74-2.586-.342 0-.441.567-.598.056.185-.042.356-.097.27-.388.342 0 .428-.566.598-.055-.142.76-.156 3.305.626 4.618.555-1.217-.455-3.996.584-4.728.413.912-.427 2.156.156 2.143.854-.844 2.163.262 2.633-1.328-.37 0-.726-.041-.655-.65.954.07.726-1.036 1.438-1.216 2.404 2.71 2.105 8.682 1.963 15.36.74-1.811 1.395-3.76 1.466-6.47.114-.07.17-.18.256-.263-.057-.691 0-1.23.427-1.465-.413-1.093.413-.913.498-1.494-1.665.47-1.338-4.01.057-3.594.114 1.009-.854.926-.783 1.88.384-.401.868-.677 1.124-1.189-.085-.664-.284-1.175-.697-1.369.114.429-.782 1.314-.882.443 1.466-1.19 2.66-2.627 4.61-3.332.626.041.655.912 1.281.954-.256 1.396.128 3.484.427 5.378.882-.11 1.75-.58 2.49-1.327-.242-.083-.597.027-.626-.401.498-.858.896.47 1.48-.526-.128 1.051-.37 2.074.697 2.157.384-.733.54-1.756 1.11-2.267-.028 1.977 2.063 1.23 1.21-.07 1.095-.525.654 1.452 1.28 1.687 1.452-.525.071-2.322 1.694-2.751.427 1.396-.968.387-.527 1.797.91-1.12.598.65.94.83.455-1.576.654 1.064 1.237.802 1.267-.18 1.509-.567 2.405-.139-.014-.442-.27-.511-.327-.857 1.138.152 2.675.871 1.75-1.424 1.039.83 1.722 1.327 1.31 2.558.753.207 1.209.387 1.878 1.659-.513 0-.769.387-.868.926.412.111.597.595 1.223.374-1.01-.802 1.11-2.71-.37-1.742.413-1.535 1.338-2.392 2.277-3.222.399 2.71 1.95 1.065 3.387 1.563.1 1.645.384 1.23.114 2.64.299-.014.341-.387.583-.484-.313 1.798-.555 1.12.114 2.641-.555 1.507-1.067-.995-1.21.07.143.552.427.87.94.829-.129 1.48-.37 2.834-1.053 3.58 1.252-.013.07.29.042.885.342 1.507 1.196-.484.996 2.143-.583.166-.626-.566-.939-.83.683 1.563-.042 1.992-.47 3.112.755-.097.911-.899 1.224.373-.355.097-.853-.028-.882.498.356.055.854-.125.925.387-.384.456-.882.774-1.153 1.396.883.996-.37 2.682.47 3.94-.384.996-.754-.511-.882.498.597.802.07 1.106.085 2.199.356-.083.64-.816.897-.056-.698-.097-.285 1.286-.854 1.369-.157-.512-.356-.982-.655-1.286.086.608.128 1.23.171 1.88.612-.553 1.181-1.133 1.821-1.659.911-.442.64 1.37 1.552.927-.072-.968-1.01-.29-.968-1.48 1.394.775 1.608.733 3.045.83-.583-3.899-.91.926-2.163-1.396.455-1.093 3.259-.83 1.708-2.157.583.456.939-1.59 1.21-.07-.527.637.825.581-.228 1.55.554-.14.683.538 1.223.441-1.081-1.479 1.21-2.142 1.765-1.133.797-1.12-.128-1.908.797-2.6.071.595 0 1.452.37 1.508a56.267 56.267 0 0 0-.072-1.535c.456.249 1.537-.691 1.523.415-.441.11-1.124-.11-1.181.58 1.409-.995 1.025 1.355 1.594 1.95.754.027.711-1.148.982-1.853-.385.401-1.537.401-.769-.207.612-.318 1.224-.263 1.793-.373.029-.636.1-1.12.256-1.3.086.318.128.733.157 1.161.185-.083.356-.221.526-.4.057-.94.128-1.812.256-2.517.228 2.668.385-1.88.698-1.728-.043 1.327-.185 2.309-.242 3.594.597.54 1.195 1.079 1.707 1.756-1.167-2.322 2.732-.47 1.423-2.129 1.181-.4 1.267 1.272 2.448.871-.086-1.604 1.124-.276 1.423-2.129.327.926-.826 1.756.085 2.046.811.11-.412-2.834.811-2.101.328.235-.099 2.516.939.967.442 1.632-.953.443-.512 2.074.797-.055 1.608-.096 2.405-.152-.939-1.714 1.893-.124.213-2.06.911-.636.769.76 1.253.954-.143-1.839 1.608-3.124 3.201-2.751-.768.097-1.536.194-1.437 1.617 1.167 0 2.533-2.156 2.946-1.714-.185.042-.356.097-.285.526.299-.014.342-.43.584-.553.028 1.3.056 2.626-.797 2.599-.157-.871.384-1.328-.071-1.535-.043.733-.456.885-.541 1.562 1.537 0-.683 4.079-1.096 2.613.228-.124.598-.041.584-.539-.584.18-.627-.65-.94-.968.626 3.084-4.539 7.383-4.866 5.918-.057.4-.228.608-.584.553-.028 3.456-3.258 3.11-4.254 6.387 1.28 4.687-1.694 8.047-.683 12.195v-.18s.071.055.113.069c.057-1.078.129-2.157.242-3.221.427 2.06.598 3.221.712 4.064.171.36.398.788.811.816.128-2.585.882-1.424 1.352-3.664-.071 2.046.384 2.212 1.636 2.973l-.085-2.046c1.053.345 1.252-.65 1.764-1.12.826 4.313 2.775.719 3.373 1.327-.029-.512-.043-1.023-.071-1.52 1.437.912.398-.512.853-1.08.37 1.55 1.011-.29 1.182-.58.896.691 1.195 2.516 2.234 2.931-.242-1.797 1.01-1.313.768-3.11.598-.042 1.195-.07 1.807-.111-.099-.304-.839-1.922-.085-2.033.057 2.392 1.209-.331 1.551.927-.029-1.3-.057-2.627.797-2.6.412 1.577-.413 1.259-.513 2.074.698-.207 1.21-1.078 1.808-.11-.1-.72-.527-.83-.669-1.493 2.362-.235 1.067 6.442 2.462 8.032.085-1.189 1.266-1.451.498-2.585.74-.125.967.746 1.551.926-.541-1.438.142-1.894.17-3.083.726 1.314-.341 2.627.456 3.553.996-1.023.555-4.23 1.594-5.198.426 2.336.796.719 1.508-.097.469 1.424 2.02 5.06.868 6.083-.769-.636.242-1.921-.384-2.018-.584.857-.698 2.806.711 2.516.868 3.18-.555 8.033.441 10.19-.355 1.272-1.138-.484-1.181.58.456.415.982.705.996 1.991-1.067 1.203-.398.664-.512 2.074.185-.843-1.451-.733-1.195.07.227.096.37.4.341.995.456.055 1.11-.25 1.224.428-.896.401.327 1.079.085 2.033-1.152.885-.199-2.185-.996-1.978-1.793 2.31 2.59 4.466.612 7.12 0-1.12-.313-1.603-.967-1.479.199.9 1.75 3.913 1.038 3-.569-.013-.284-1.672-.967-1.465-.071 1.604.512 1.963.74 3.028-.356.097-.868-.041-.883.567 1.85-.498-.996 8.06.954 8.115-.427.47-1.153.47-.811 2.088 1.394-2.848.412 5.06.953 8.116-1.579-1.507-.996-5.323-2.604-4.438.612-.346.982-1.037 1.11-2.116-.726.332-.555 2.005-1.736 1.632-.014-.885-.142-1.576-.384-2.019.939-.69.299 1.632 1.252.94-.925-2.765 1.167-.511 1.437-1.617-.171-.595-.37-1.148-.669-1.493-.768-.622-1.181 1.576-1.508.096 1.153-.829.028-.801-.37-1.506 1.138-1.272.968.898 2.149.884-.228-1.05-.712-1.603-1.011-2.488 1.637-.29.057-2.669 1.352-3.664-.569-.083-.64.608-1.181.58-.242-1.63-.014-2.571.47-3.096-1.309-.208-1.722 3.11-1.338 3.65-1.992-.097.555-7.632-1.892-8.558.014 1.921.512 4.59-.385 5.129.655-.125.968.36.968 1.48-.626 1.575-1.266.373-2.405.151-.171 2.71-.242 4.314-.341 6.153 1.11 0 .91.885.37 1.507.355.055.853-.139.925.456-.555 1.23.725 4.825.156 3.567-.185-1.134-.612-1.784-1.295-1.963.911 13.065.498 33.071 1.736 46.91-2.433.36-1.494-4.783-2.049-5.488-.669 4.424-.27 9.664.313 14.295-.356.097-.854-.041-.882.567 1.266-.152.74.221.341 1.01.584.165.328 1.963 1.267 1.451-.128-1.147 0-1.922.512-2.074-.171 3.028.655.733 1.011 2.489-.37.235-.584.691-.541 1.562.299-.013.341-.428.583-.553-.911 1.245.868 3.54-1.01 4.66 1.138-.954-2.305-5.821.171-3.07-.2-.733.242-2.654-.413-2.53-.484 1.825-1.907-2.419-2.078.636.484-.968.94.069 1.253.954-2.163-1.355-.698 8.641-2.149 6.263-.199 1.203.968 298.829.228 299.23-.228-1.465-.441.802-.883.567.043-2.723-.213-303.71.086-305.894-.726-.525-.797.166-1.551-.926.597.898.284 2.848-.143 3.594-.071-2.751-.483-6.097-1.451-5.53.626-2.461.427-3.636.64-6.18-.299.014-.597.041-.896.055-.185 5.627.242 11.13.939 14.766-.526.221-1.124 177.785-.825 260.187.042-.014.099-.028.156.013-.227 1.604.697 2.89 0 3.457a4.685 4.685 0 0 0-.142-.18c.085 23.255.256 38.118.526 37.813.057.498-.028.83-.17 1.065.057 2.295.057 4.756 0 7.162 1.038.235.597 4.341-.143 4.562-.042.982-.085 1.922-.142 2.779.242-.788.584-1.535 1.01-2.295-.142 2.585.043 2.848.242 5.599-1.679-1.023-.37 4.19-1.536 6.236-.185-1.922-.285-3.512-.285-4.894-.512-.54-1.096.041-1.622.912a5.12 5.12 0 0 0 .91 2.005c-.654.733-1.195-1.245-1.209.069.185.525.484 2.281 1.053 3.512-1.423.497-1.338-1.881-1.935-2.945 1.024-1.245.199-3.512.17-5.088-.341.747-.74 1.3-.697 3.456-1.152.54-1.551-1.728-2.092-3.456 0 1.272-.64 4.341-.925 1.728.057-1.051.883-3.456.47-3.47-.299.359-.484 1.12-.47 2.599a8.747 8.747 0 0 0-.483-1.106c-.37.111-.57.484-.669 1.037 1.437.055 2.063 6.249 1.209 7.079.185-.857-.697-2.185-.654-.982.839 1.079-.328 4.051.569 6.097-1.836-3.346-.655-9.222-1.537-14.517a2.202 2.202 0 0 0-.711-.29c.113 1.009 0 2.143-.086 2.682-.256-1.175-.27-1.977-.427-2.765-.996-.138-2.02-.29-3.031-3.291-2.02.761-1.664 9.139-1.394 19.052-.342 1.922-.569-1.092-.697.857-.114 3.72.626 1.107.697 2.6-.142.055-.27.124-.242.857-.228 2.627-.384 1.106-.697 0 .313 2.571.213 4.272-.47 5.185.043-1.881-.185-2.752-.697-2.6-.171 3.18-.754-.152-.925 3.457-.043-1.023.043-2.461-.228-2.599-.085 1.23-.284 1.465 0 2.599-.697.235-1.152-.277-1.608-.194-.057.346-.199.567-.668.664v.014c.711-.097.739.912.896 1.714-.228.111-.583.042-.583.47.469.069.071.719-.271.885.029-.857-.156-1.645-.37-2.378-.057.166-.128.346-.185.539 0-.622-.057-1.147-.128-1.59a8.27 8.27 0 0 1-.27-1.106c-.641-1.783-1.921-1.839-2.675-3.774.199 1.977.355 3.954.427 5.848-.854-.249-1.011.871-1.053 2.171.298-.802.853-2.42 1.181-.332-.072 1.631-.854 1.866-1.253 2.834-.199 1.811 1.366 1.189.641 2.323-.754-1.645-2.547 2.516-1.494 2.903a1.206 1.206 0 0 1-.669 0c.099.401.227.844.484 1.258-.157.277-.342.318-.484.291.057.414.099.815.156 1.23 1.011.387-.185.94 1.082 1.95-.456-.277-.612.359-.726.843l.043.387c.327-.415.782-.539 1.039.069-.527.139-.541.913-.897 1.258.299 3.001.398 5.932-.1 8.849-.896-1.839-.17-5.821-.355-8.71h-.1c-.043-.222-.014-.443.029-.664-.129-1.023-.413-1.839-.997-2.295.1-.595.299-1.507.342-2.503-.968-.4.327 1.148-.768 1.148.099-1.313-.342-2.129-.299-2.765-.242.332-.555.387-.939.636.483 1.59.313 4.037-.057 5.627.27-1.535-1.78-2.945-.712-2.516.655-.719.669-2.13.498-3.899-.071-.069-.142-.221-.227-.443-.456.415-2.562-4.037-3.373-7.466.043.581.057 1.065-.071 1.259-.086-.305-.157-.623-.242-.954-.356 1.935.825 6.885-.441 7.051a10.817 10.817 0 0 0-.1-.844c.143 2.282.143 4.411-.242 6.056-.156-.235-.256-.65-.313-1.134-.028.069-.042.139-.085.208-.27-.996-1.338-3.125-.484-4.369-.057.816.256 1.659.484 2.419 0-1.617.071-3.525-.085-5.005-.185-.235-.399-.442-.598-.649.085 1.576.071 2.958-.228 3.802-.07-2.033-.81-1.729-1.394-1.95 0 .373-.029.747 0 1.092v-.027c.057.498.114.954.156 1.369.071.276.171.566.3.829-.072.042-.129.069-.186.111.285 2.226.555 3.097 1.85 5.06.114 1.272.014 2.24-.498 2.668-.043-2.71-1.65-4.936-1.978-7.244-.313.442-.256 1.078.043 2.516-.484.981-.911-.553-1.48.594-.384-1.285 1.224-1.866.185-2.571-.086.705-.712 2.461-1.025 4.148.1-2.904-1.195-4.563-.313-7.135.114 1.798.954-1.147.925.457-.327.138-.441.594-.555 1.05.342-1.271 1.138.484 1.181-.58-.74-.94-.44-1.618-.085-2.24-.328-.415-.655-.318-.811.995-.413-2.986-1.352.291-1.879-2.599.029.927.242 2.24-.07 2.503a95.16 95.16 0 0 0-1.011-3.277c.327 2.419.612 2.115 1.053 4.452-.2 0-.398.028-.598.041-.185 0-.356-.041-.327-.428.91-.498-.882-.36-.655-1.286 1.324.484-.569-2.461.427-3.083-.54-1.618-1.095-3.249-1.65-4.894.227.967.199 1.894-.513 2.792.1 1.922 1.053 3.263-.185 2.655.726-.097.029-1.41-.327-1.3.214.166.327.415.043.526-.057-.153-.128-.222-.2-.263-.54 1.23.684 2.724 1.41 1.41.156 1.811-1.139.664-1.153 1.397-.057.345.028.857-.256.898-.1-.497-.214-1.051-.342-1.645a3.386 3.386 0 0 0-.398.567c.484 1.147 1.038 2.129 1.707 2.765.128 1.687-.242.166-.882.498-.285 1.59 1.039 2.972.441 3.498-1.295-.996-.356-3.65-2.12-4.203.071 1.783-.683 1.949-.029 3.871-.398.083-1.608.829-.896.083.498-.249.455-2.655.683-4.784-.157-1.535-.356-2.779-1.167-7.106a2.735 2.735 0 0 1-.341-.346c-.157.152-.3.359-.3.456.584 1.742-.34 1.148.143 2.143-.299.042-.384-.249-.626-.29v.055c.185 1.756.37 3.498.583 5.171-.939-1.189-1.394-4.258-1.721-7.908-.2 1.714-.37 3.249-.811 3.594 0 .346-.086.65-.399.844.84-.111.811 1.203 1.28 1.686-1.45.083.855.733-.227 1.77.868.36 1.736 2.89.754 3.484.769-.484.783.235 1.01.622.029-.705.157-1.285.527-1.562 0 1.355.029 2.185.356 3.111.1 0 .199.041.313.097-.071.069-.114.152-.157.221.086.193.157.387.27.608-.07.028-.099.097-.142.152.1.221.242.526.399.539.057-.345-.029-.871.27-.898-.142.65.441 2.253-.213 2.212.256-.747-.27-.996-.712-.926a1.428 1.428 0 0 1-.142.47c.228.096.598-.014.626.47-.2 0-.398.027-.598.041a13.571 13.571 0 0 1-.242-.815c-.042.041-.1.082-.128.138.086.594.47 1.244.484 1.783.441 1.48.982 3.097 2.035 1.839-1.024.083-1.181-1.23-1.594-2.115.683-.609.555.027 1.48-.526.612 2.931 2.661 6.015 2.192 9.125-.612-2.585-1.196-3.18-1.722-5.184.043 1.825-1.153-1.618-1.508.097.953.013.483 2.336 1.593 2.101.285 1.341-.797.899-.512 2.24.484.829 1.238-.844 1.537.788-1.067.995 1.238 2.945.44 3.498-.511-1.175-1.764.124-1.764.981.911-.387.626 1.176 1.537.788 0-.608-.185-.954-.356-1.299 2.106.415-.981 3.152.812 4.797-.143-1.009.84-.539.84-1.368.056-.871-.442-.844-.655-1.286.868-.138 1.536.027 1.85.774-.783.346-1.054 1.383-1.41 2.281 1.153-.345.541 1.659 1.85.775-.213 1.036 1.139 1.838.399 2.184-.768-.788-1.267.152-2.718.166-.455-.982.712-1.701-.071-1.756-.285.47-.555.926-.854 1.369-.726-1.189-2.704-.318-3.102-2.019.726-.608 1.31 1.217 1.508-.083-1.138-1.534-2.632-.871-3.628-.221-.057-.76 0-1.369.228-1.783.882-.166 1.195 1.7 1.508-.083-.712-1.355-1.48-.332-2.732-.277-.1-.816.299-.995.227-1.77-.711-.414-1.821-.165-2.447-.732.071.511.583.967.057 1.327-.071-.857-1.139.829-1.238-.802 1.01-.069.384-1.535.341-2.281-.81-.401-2.732-1.092-1.85 0a.984.984 0 0 1-.398 0c.157 1.106.342 2.82.384 4.203.143.262.285.553.441.788.698-.166 2.334 2.157 3.444 2.876-.697.152-.1 1.935.085 2.198-1.295-.263-2.035-1.41-3.102-2.032.527 0 .754-.374.868-.927-.47.125-.896.166-1.195 0 .413 1.811-.071 3.056.925 5.683.413 4.493-.313 4.534-.299.013-.782-.11-1.024-4.424-.94-6.041l-.042.179Zm-40.057-1.493c.769-.332 1.295-.899 1.053-2.254-.597.498-.754 1.452-1.053 2.254Zm-7.541-4.3-.043-.719c-.47-.843-.868.733-1.224-.235-.882.318.342.733.1 1.424.54 0 .612-.497 1.18-.47h-.013Zm-3.088-.774c-.342.097-.142.373.028.36-.17.387-.669.442-.526 1.133.797-.415 1.18-1.244 1.352-2.281-1.025-.636-.285 2.074-.854.802v-.014Zm-.541-3.539c.228.262.54.94.071 1.078-.74.152 1.694.788 1.48-.498-.242.097-.27.387-.57.415-.526-.055.314-1.272-.967-.982l-.014-.013Zm.256-472.107c.882-.553.669-2.199.982-3.332-.91 1.092-.882 2.06-.982 3.332ZM13.82 74.304c-1.322 1.148-2.589 3.954-2.006 5.945 1.01-1.631 1.537-3.76 2.007-5.945ZM40.19 166.73c-.897.705-.769 5.42-.484 7.618.64-1.465.64-5.807.484-7.618Zm11.938-32.214.043.871c.071-.414.157-.829.242-1.244-.114.29-.213.387-.285.373Zm-3.6-10.023s-.07.027-.128.013h.128v-.027.014Zm-.612-24.735c.47.719.057 2.766-.355 3.623.953 1.009 1.593-4.452.355-3.623Zm-.17-2.502c0 .788.327 1.106.967.982-.042-.595-.085-1.19-.114-1.784-.284.263-.256.857-.853.802Zm2.276 2.295c1.181-1.383.541-3.042.257-5.06-1.523 1.465.156 2.475-.257 5.06Zm-1.793-8.447c.171 1.327.854 1.921 1.125 3.124.939-.152.512-2.71.07-3.235-.398.041-.796.069-1.195.11Zm.157-2.171c-.213.346-.27.83-.2 1.452.428-.07.84-.139.926.276.512-.138 0-2.032-.726-1.728Zm.697-20.559c.797.774-.227 3.25.754 2.088-.014 1.576-1.465 4.59.342 5.005-1.907.47.64 2.75-1.31 3 .214.87.883 1.12 1.054 2.06-.626.221-.612-.456-.669-1.01-.484 1.217-.712 3.789.868 3.872.882-2.558-.498-7.342.868-9.43-1.622-2.253.413-5.46-.54-7.852-.869.345-.328 2.101-1.352 2.28l-.015-.013ZM67.197 6.226c-.27-1.05-.612.401-1.196.125-.028.304.143.332.328.332.227.013.284.276.313.566.17 0 .356.014.555.042 0-.415-.37-.982 0-1.05v-.015Zm-1.11 3.194s-.128.083-.171.166c.029.083.043.152.057.235.043-.138.085-.263.114-.4Zm27.036-1.95c-.498.858-.953-.539-1.166.955-.484-.636-.541-1.95-1.58-1.673.356 1.313.996 2.157 1.921 2.53-.512-1.645 1.338-.166.825-1.811Zm1.025 2.586c.84-.567-.512-.484-.612.042-.256-.222-.512-.429-.925-.388.37.54 1.694 1.383.057 1.314.228.58.683.774 1.238.802.712-.622-.398-1.618.228-1.77h.014ZM74.184 526.53c1.337.18.612.954.768 2.447.726.055 1.138 0 1.437-.055-.498-.885-1.18-1.756-1.55-2.655-.257-.069-.613.028-.655.263Zm4.197 3.207c.2 0 .385 0 .541-.055.1-.083.2-.18.27-.29 0-.042.029-.069.029-.111-.598.097-.427-.359 0-.802 0-.041 0-.069-.029-.11-.597 0-.867.746-.796 1.382l-.015-.014Zm-1.195-5.668c.057.346.299.47.57.484a7.038 7.038 0 0 0-.058-.512 1.984 1.984 0 0 1-.512.028Zm-1.693-.761c.057.139.128.249.17.415.427-.414.925-.719.826-1.811-.342.429-.598.47-.797-.028-.142 0-.256-.138-.356-.497.157.926.299 1.728.157 1.921Zm1.323-.981c.057.47.399.47.754.456-.014-.18-.042-.359-.057-.553-.114.18-.299.277-.697.097Zm-.526-1.272c.156 0 .313-.014.455-.055a1.421 1.421 0 0 0-.342-.498c-.014.18-.056.359-.113.539v.014Zm.483-2.682c-.028.138-.056.29-.1.414.129-.041.3-.124.499-.207 0-.083-.014-.152-.029-.235-.128 0-.256 0-.37.014v.014Zm1.238-.083h.129c-.086-.47-.143-.996-.3-1.341.072.456.129.898.186 1.355l-.015-.014Zm-25.485-51.861c.412.083.612.457 1.224.249.398-.926-.114-2.779.355-3.622-.754.138-.782-.733-1.28-.954 1.11.442.1-1.23.825-1.161-.085 1.493.598 2.184.968.981.128 1.646.113 3.512.626 4.618-.356.083-.854.014-.883.442.356.028.854-.152.925.263-.498.36-.725 1.659.057.719.143.691-.355.747-.526 1.134.84.304 1.252 3.014.526 3.194 2.22 5.046 2.348 18.886 4.141 25.121 1.779-.899 1.295-5.669 1.039-6.927.142.664-1.181-1.991-.47-2.461 1.096.415.64 3.014.925 4.59.541-.401 1.082.968 1.21-.11-1.153.166-.128-.291-.37-1.051 2.86.083 1.11-2.447.953-3.691-.199-1.549.996-3.733.214-5.766.754-.276.925-.995.896-1.811-.042.235-.114.373-.256.277.185-1.452-.484-1.3-.413-2.531a.847.847 0 0 1 .257-.041c-1.267-4.148-3.23-8.24-1.068-11.503-.227 1.797 2.22 1.687 1.338 3-.085-.484-.356-.663-.64-.843-.128 1.576 0 4.203 1.053 3.456-.385 1.106-.385 2.655-.2 4.314.029 0 .057 0 .1.014-.057.332.071.691.185 1.037.228.041.413.055.512-.595-.227-2.751-.057-4.714.242-6.636-.228-1.673-.484-3.484-.84-5.199-1.195.277.342 3.733-1.11 2.268.328-2.862-.697-7.148-1.237-7.867-.57.083-.143 1.465-.854 1.382.1-.788.142-4.438.142-10.369-.085.221-.17.429-.27.581-.2-4.936-1.423 1.673-1.196-2.779-1.152.746-.64 1.465-1.437-.678-.583 2.226-1.494 3.236-1.679 4.853-.569 0-.711-1.203-1.437-.691-.27 4.231-.94 4.134-1.793 5.544.029.318.185.567.783.498-.37 1.133.042 1.866.498 2.834-.968.18-.94-1.023-1.594-1.286.27-.124.91-1.424.2-1.465-.812 1.106-.285 3.871-1.182 4.783.797.415 1.452 3.097.825 3.153.484-.152.84.401.356.677-.028-.359-.555-.401-.597.055h-.043Zm31.633 29.906c-1.167-.457-2.007-2.337-1.395-4.328a1.135 1.135 0 0 1-.412-.318c-.556 2.046-1.139 3.996-.541 4.963-.043.028-.057.07-.086.111.072.47-.056 1.065-.241 1.493.056.18.113.36.17.567-.042.014-.07.055-.1.083.257.277.427.705.869.678.042-.553.014-1.051.27-1.715a5.66 5.66 0 0 1-.341-1.438c.91.263 1.508.443 1.807-.11v.014Zm17.445 13.065c-.028.166-.085.29-.17.359.057.139.128.263.199.374.284-.291.427-.761-.014-.747l-.015.014Zm.911 2.53c-.014.083-.043.138-.057.207.057-.055.086-.11.157-.152-.029-.014-.071-.027-.1-.055Zm25.728-75.613v-4.632c-.171 1.176-.185 2.876-.385 3.885.114.761.256.844.385.747Zm0-6.954a22.191 22.191 0 0 1-.157 1.88 4.08 4.08 0 0 1 .157-.484v-1.41.014Zm0-7.3v-1.701c-.157.194-.299.608-.399 1.369.128.138.256.235.399.332Zm.014-4.922v-5.766c-.114 2.199-.256 4.259 0 5.766Zm0-9.208v-3.374c-.285.567-.527.429-.726.305v2.184c.157.622.299 1.23.712.871l.014.014Zm-.769-20.766v1.99c.242.719.612.982.769 2.074v-4.106c-.271-.055-.598-.276-.769.042Zm-2.646-92.564a9.654 9.654 0 0 0-.242-1.023c.156 3.305-.754 5.959-.726 9.554v.263c.028 1.216.157 2.543.484 4.037-.071-1.715.313-1.729.469-2.6 0-1.106-.298-1.202-.227-2.585.099.166.185.249.242.263v-7.909Zm-3.245-147.866c-.057-.65-.085-1.286-.057-1.811-.526.083-.64 1.148-.597 2.378.028-.415.113-.747.384-.94.171.014.242.18.256.373h.014Zm.014.18c-.028.816-.569 2.24-.042 2.046.071-.152.114-.387.156-.663a42.706 42.706 0 0 0-.114-1.383Zm.043 29.435a.689.689 0 0 1-.313.318c.128-3.318.057-4.134.313-6.498v-1.742c-.768-2.544-.74-9.485-.028-12.347 0-2.032-.029-3.235-.043-3.497-.697-.111-.27 1.493-.84 1.589.313-5.115-1.508-13.825.427-17.918-1.01-.719-1.252-3.733-1.394-4.507-.1 1.092-.185 6.277-.242 14.614h.171c0 1.866.085 4.051-.214 4.867-.014 3.304-.028 6.954-.042 10.936.725-2.904.227-8.157.953-11.476v18.181c-.427-.207-.726 0-.982.47v5.157c.171 1.314.342 2.641.527 3.899.412-2.171.384-.608.924-1.728-.398 3.194.129 3.885.47 4.327-.341.166-.213 2.088-.228 3.471-1.038-.761-1.081 5.087-.697 6.94-.313.871-.697 1.424-.925 2.599-.028.457-.057.858-.085 1.231v20.185c1.266-2.64-.427-16.839 1.024-17.102-.384 3.539.385 7.286.228 9.526 1.01 1.659.071-8.282.697-5.185-.099 2.627.043 5.669.328 5.724v-32.02l-.029-.014ZM57.464 44.925l-.897.083c-.285.981.726 2.046.142 2.142.57.913 1.153-2.087.755-2.225Zm6.46 1.368s.043-.055.057-.083c-.029 0-.043-.027-.071-.041v.124h.014Zm-.157 3.844c-.185 1.369-.484 2.654-.868 3.595.769.083.498 1.59 1.366 2.378-.355.083-.853.027-.882.442.342.041.498.346.655.65-.384.83-.769-.373-.882.442.426.221.668.07.867.194 1.025-3.968 1.495-8.49.797-13.01-.569 1.95-.384 3.567-1.067 5.295l.014.014Zm-6.488-1.991s-.129.014-.2.055c.029.166 0 .29-.014.415l.214-.456v-.014Zm.569.636a5.4 5.4 0 0 1-.57.857c.328-.083.484-.346.783-.456-.1-.097-.156-.235-.213-.401Zm.854 5.364c.242.747 1.864.152 2.106-.207-.242-.747-1.864-.152-2.106.207Zm-2.064.913 1.196-.125c.142-1.396-1.537-1.23-1.196.125Zm6.46 27.333a1.38 1.38 0 0 0-.483.318c.227.235.37.457.44.678.03-.346.044-.692.044-.996Zm-2.703-3.83c.142.222.327.401.57.484-.044-1.092-.271-1.949-.812-2.212.356.581.37 1.148.256 1.729h-.014Zm6.631 4.038v.055-.055Zm-4.112 17.849c.014-.083.028-.18.042-.277 0 .111 0 .221-.014.332.512 1.327.683 3.691-.114 4.272v.733c.086-.125.185-.249.27-.387.029.898-.483 1.161.114 1.783a1.264 1.264 0 0 0-.355-.055l.042 1.521h.114c.256 1.631.114 2.419.029 3.567.07 1.783.128 3.636.142 5.572.028 3.29-.27 6.664-.441 9.636.028-.083.057-.166.114-.249.085.484.37.664.64.844.029-.166.057-.346.085-.526 0-2.074-.028-4.272.086-6.954.27.263.398 1.521.526 2.502.47-4.59.513-9.802-.825-12.208a.866.866 0 0 0 .654-.525c-.284-2.793.043-6.927.114-9.885.043.152.086.345.114.539.029-1.106.057-2.13.086-2.973.398-.11.54.18.697.47-.043-.788-.029-1.714 0-2.613-.143.58-.27 1.148-.413 1.687-.654-.871.655-4.66-1.309-4.328 0 .332-.014.65-.114.927-.057.746-.142 1.34-.17 1.977.014.097.014.194.042.276h-.057c0 .885.157 1.867.797 3.388-1.68-.139-.57-2.71-1.736-2.931a1.25 1.25 0 0 0-.114.18c.413.967-.085 1.949-.54 2.917.469.193.782.553 1.01.926a15.681 15.681 0 0 1-.114-1.01c.213.097.427.402.598.816v.056Zm-1.238 7.148c0 1.866-.029 3.055.597 5.24-1.28 1.009.157 4.382-.1 4.852-.611-.995-.74 7.494.072 8.047.057-2.821.128-4.632-.498-4.079.54-1.908 1.608-8.655.483-9.014.242-1.078.285-2.42.285-3.913-.313.014-.64.056-.697-.276.398-.47.427-.277.697-.166 0-.415 0-.843-.014-1.272-.142.221-.17.581-.441.691-.071-.304-.214-.262-.384-.124v.014Zm-1.438 20.24c.356.429.385 1.134.399 1.867.085-.954.185-1.825.284-2.503-.242 0-.455 0-.64.042-.014.194-.028.401-.043.594Zm-.925 18.32c-.042-.388-.128-.609-.227-.692.07.263.142.484.227.692Zm-13.845 57.307c-1.565 4.438-.74 17.296-.712 29.117-1.736.996-.44 10.743-1.437 13.867-1.11.152.228-2.474-.484-3.47-.868 2.724-.882 14.268.242 17.338-.612-9.208 1.11-11.739 1.68-20.794.583 7.161.184 17.724 0 22.867-.057-.801-1.651.623-.954 3.471-.91 1.023-.043-3.097-.953-2.074-.527 9.595.327 11.337-.242 21.485-.712-1.866.227-8.517-.484-10.397-1.608 2.102-.37 5.959-.242 9.014.441 10.273.299 21.651.484 31.896.156 8.876.227 18.568.953 27.721.256-.166.157-1.383.484-1.383.185 3.913-.754 15.886.712 20.103-.328-8.918.611-19.232-.242-23.573.298-12.747.882-33.113-.484-42.293 1.522-11.24.597-19.923.953-30.499.669 11.779.769 20.503.954 31.882.355.802.611.802.953 0-.128 2.654-.327 4.41 0 6.926.91-1.106.285-5.267.242-6.235 1.21-.235-.27 7.272 1.195 6.235-.1-6.899.242-13.079.484-18.72.185 2.392.299 4.646.384 6.803-.071-16.135-.142-32.173-.199-47.436-.085-.484-.27-.678-.669-.263.57-2.267.512-6.36.484-10.397-.498.194-.228 2.585-.726 2.779.171-6.941-.199-12.886 0-19.411.47 1.175.64 3.221.726 5.544.043-.456.071-.899.1-1.355-.029-8.793-.057-17.158-.086-24.956-.484 2.89-.356 7.674-.256 10.37-1.096 6.553-1.238 15.816-2.39 22.176-.484-11.586-.114-16.287-.484-26.338h.014Zm-10.829-37.426c.185.111.27.498.356.871.028-6.844.085-10.77.142-10.936.057 0 .114 2.24.142 6.318.114-3.221.185-6.208-.313-8.378-.142 2.101-.256 6.277-.341 12.111l.014.014Zm-7.371-27.831v.083c.114.041.242.041.356.055-.029-.235-.057-.456-.071-.691a2.4 2.4 0 0 0-.27.539l-.015.014Zm-.128-7.77c.1.11.185.221.228.428.284-.677-.185-3.636-.627-4.618-.113.014-.184.07-.256.125-.142.76-.17 2.032-.199 3.36a1.8 1.8 0 0 1 .356-.595c.071.719.242.996.398 1.189.057-.359.114-.719.2-1.023-.057.401-.086.774-.1 1.134Zm-1.466-7.618a.81.81 0 0 0 .256.276c.313-.663.342-2.544-.1-3.429.314 1.065.1 2.116-.156 3.153Zm.598 8.212c-.014.913-.043 1.756-.114 2.392.27.65.626 1.3.754 1.908a52.667 52.667 0 0 1 0-3.678 25.864 25.864 0 0 1-.654-.622h.014Zm3.529 17.573c-.071-.94-.029-2.047-.47-2.475-.028 0-.057.041-.085.083.028.788.057 1.562.1 2.336.113.125.27.166.47.056H29.8Zm-2.163-4.162c.028-.207.057-.415.085-.594-.07-.069-.128 0-.199.124.029.166.071.318.1.47h.014Zm.27-.954c.086-1.051.029-2.06-.057-3.041.043.691.072 1.41-.355 2.004.299-.138.384.401.412 1.037Zm-2.191 2.24c.242 2.89.498 5.461.726 6.788.981-1.576-.029-6.124-.385-9.94-.07.221-.142.428-.241.58-.185-1.258-.086-2.696.028-3.829-.071-1.894 0-3.54.299-4.397-2.12-.622-.968 3.609-.811 5.821.085 1.147.17 2.322.27 3.484a2.44 2.44 0 0 0 .213-.387c-.07.636-.085 1.258-.1 1.88Zm-1.437-7.024c1.038-1.825-.285-3.677-.043-5.032-1.295 1.41.114 3.166.043 5.032Zm2.276-2.018a.475.475 0 0 1 .399.041c0-.248-.014-.511-.028-.76a1.352 1.352 0 0 1-.37.719Zm.513 4.728c0-.802-.014-1.59-.043-2.364-.114.719-.071 1.521.043 2.364Zm7.869 46.814c0-5.447.014-10.328.028-14.558-.384 4.783-.384 10.093-.028 14.558Zm.484 4.01c.683-3.277.27-8.517-.043-13.978.014 4.189.028 8.862.043 13.978Zm.042 37.26c.27 21.305.67 42.348.897 65.465.64-1.701.071-3.318.953-4.853-.84-18.112-.64-31.937-.711-47.837-.071-13.687-.1-29.573-1.167-44.726.014 9.526.028 20.31.028 31.937v.014Zm2.092-5.931c-1.067 8.005-.085 16.19-.242 24.955.954-5.945.228-17.31.242-24.955Zm4.796 13.176c1.494-.581-.143-2.765.483-4.853h-.725c.227 2.613 0 3.249.242 4.853Zm.953-10.397c.626-3.83.242-7.77.484-13.176-1.082 3.111-.669 8.862-.484 13.176Zm-1.437-13.867c0 3.193-.1 6.774.242 9.014.1-2.323 1.067-9.014-.242-9.014Zm-2.875 3.47c-.54 4.369-.74 5.212-.483 9.705 1.38-.884.37-8.198.483-9.705Zm3.359 6.235c-.783 2.364-.128 5.351-.242 9.001.711-1.01.611-7.079.242-9.001Zm-.968 32.574c.868-1.798.157-6.416.242-9.015-.954 1.798-.626 6.153-.242 9.015Zm-1.907-48.529c.697-1.949.228-3.124.242-6.235-.654.995-.185 3.152-.726 5.544.285-.111.427.152.484.691Zm1.437 13.176c.726-4.659.74-11.212-.242-15.941.072 6.471-.042 11.489.242 15.941Zm2.875 38.823c.455-.581.64-3.042.242-4.162-.47 1.3-.413 2.42-.242 4.162Zm8.794 196.989a.39.39 0 0 0-.256-.138c.014.124.028.221.057.235.07 0 .142-.042.213-.097h-.014Zm13.632 2.101c-.555 2.337-.17 5.697.242 9.111.313-1.244.54-2.474.711-3.677a54.265 54.265 0 0 1-.427-3.83c-.185-.982-.327-2.074-.455-3.194-.057 0-.114-.013-.17 0-.015-.484-.03-1.106-.043-1.811l-.214-1.852v3.926c.1-.152.185-.235.256-.263.029 1.01.072 1.549.1 1.563v.027Zm-2.931 1.936c-.399.816 0 1.355-.171 3.097.868-.055.598-2.53.17-3.097Zm16.165 18.43a.675.675 0 0 0 .47.124c-.157-.581-.086-.926 0-1.244-.03-.277-.058-.553-.072-.844-.398.277-.754 1.189-.583 1.715.114-.042.242-.111.455-.208a3.25 3.25 0 0 0-.285.47l.015-.013Zm-15.568 9.443s.029.11.057.138c.612-.47.413-.982.228-1.728-.014.027-.043.069-.057.11.014-.124 0-.221 0-.345-.057-.263-.1-.54-.1-.858-.028-.069-.042-.152-.07-.221-.129.36-.2.913-.2 1.452.028-.055.057-.097.085-.138 0 .58.029 1.078.057 1.59Zm1.722-2.226c-.2 0-.398.027-.598.041-.042-.014-.056-.083-.1-.11-.284.94-.028 2.129.271 3.027.882-.815.655-2.461.384-3.733 0 .291 0 .567.043.788v-.013Zm18.043 7.631c-.1.235-.156.388-.199.512.014.124.043.221.086.318.1 0 .256-.042.427-.028-.072-.387-.114-.788-.171-1.175a.54.54 0 0 1-.385.249v.138c.072 0 .129-.027.242 0v-.014ZM119.477 221.7c.085-1.839 0-2.986-.1-4.147v3.898c.029.083.057.153.1.235v.014ZM64.849 102.564c.028 1.867-.142 3.208.185 4.604.1-1.313.213-2.516.313-3.512a250.987 250.987 0 0 0-.085 4.259c.042.124.085.235.128.359.256-1.866-.015-1.963.768-3.125.74 1.701-.811 3.222.142 5.088 0-2.267.029-4.037.37-5.143v-.663c-.299-1.217-.498-2.6-.626-4.024-.1 1.203-.213 2.53-.227 3.871.042-1.147-.185-1.894-.982-1.7l.014-.014Zm-.57 7.452c.072.097.157.235.3.484-.157-1.065-.242-2.406-.3-3.844a52.937 52.937 0 0 0 0 3.36Zm-3.443 12.844c-.384 1.424-.583 2.53.2 3.705v-.041.028c.611-.885.568-2.323.27-3.968a30.598 30.598 0 0 1-.513 3.235c-.07-.747 0-1.936.029-2.959h.014Zm-1.238 23.725c.626.387.285-.774.185-1.825-.142.387-.128 1.203-.185 1.825Zm5.635 57.944c.213 1.133.185 1.521.128 3.097.071-.097.128-.235.185-.36.1-.318.185-.636.27-.954.185-1.465-.184-3.567-.07-5.447-.072-.069-.114-.152-.214-.194.114-.152.2-.29.285-.442 0-.083 0-.166.028-.249-.64-.498-.441 1.452-.612 2.35v2.199Zm12.024 252.969c.128 2.309.384 5.06.527 6.858.256-.332.412-.968.526-1.729-.014-1.811-.07-3.498-.327-5.074-.27.028-.584 0-.54.498a2.575 2.575 0 0 1-.171-.553h-.015Zm35.148-345.85c.071.4.156.788.242 1.175.042-.291.114-.636.227-1.093-.213.097-.37.056-.469-.082Zm-6.831-.968c-.042.221-.071.387-.099.553.128.083.284.221.512.484-.427 3.041.171 2.848.455 5.212a1.548 1.548 0 0 0-.199.401c.114.069.271.207.456.373 0-1.286 0-2.682-.029-4.258.128.387.228.677.313.926.1-.332.228-.58.441-.663-.071-1.701-.512-2.005-.797-1.024a8.423 8.423 0 0 0 0-1.907c-.142.041-.284.138-.426.331.185-1.645.213-1.064-.385-2.018.086-.152.157-.304.242-.456a5.827 5.827 0 0 1-.284-1.507c.028 1.548.014 2.931-.2 3.539v.014Zm-40.327-1.3v1.963c.2 0 .399-.027.584-.041.057-1.023-.114-1.687-.385-2.171-.07.069-.128.166-.184.249h-.015Zm-1.721 18.817c-.086 1.189-.242 3.373-.242 5.834.227-1.977.298-3.788.313-5.668-.029-.055-.043-.125-.072-.18v.014Zm-.67 5.433c-.028-.622-.056-1.244-.07-1.866-.043 0-.086 0-.129.014.029.677.1 1.299.2 1.852Zm3.458 109.348c-.882 1.756-.512 5.959-.47 8.309.755-1.05.4-5.309.47-8.309Zm48.979-79.304c.669-.318 1.224-8.074 0-7.798.228 3.539-.028 3.498 0 7.798Zm-.227-6.056c-1.025.083-.498 3.498-.47 5.199.327-1.065.441-2.973.47-5.199Zm-2.106 5.199c.469-1.259.725-4.826.854-8.724-.057.082-.114.193-.2.248-.042-3.138-.626 2.392-1.223-.276.768-.553-.456-2.033-.442-2.987-.099.083-.17.194-.241.305.028 4.977.113 9.761.327 14.033-.242-4.59.953-2.669.925-2.599Zm-6.404-43.538c-.156-.871.385-1.327-.071-1.534a8.068 8.068 0 0 1-.27-.304c-.37 1.23 0 3.539-.142 4.769.128.733.313 1.355.526 1.77.043-1.562.071-3.014.085-4.549a1.343 1.343 0 0 1-.128-.138v-.014Zm-2.803-6.373a2.848 2.848 0 0 0-.299.649c0 1.3.029 2.669-.128 3.733.086.222.171.443.299.609.213-.719.398-2.074.398-3.277-.085.263-.199.47-.355.567.057-.761.071-1.535.085-2.281Zm1.793 1.382c.057-.553.114-1.106.199-1.7-.526-.54-.555.802-.683 1.756.157-.042.327-.111.47-.097v.041h.014Zm-.541-1.368c-.099.221-.242.511-.455.981.057.318.171.415.299.443a15.6 15.6 0 0 1 .142-1.411l.014-.013Zm-35.446 2.225c.071 1.12.156 2.254.242 3.429.1-.567.242-1.078.412-1.534a86.129 86.129 0 0 0-.569-8.171c-.156.179-.27.262-.341.276 0 1.369.057 2.793.142 4.258.057-.248.142-.497.214-.746a33.792 33.792 0 0 1-.114 2.488h.014Zm.683 3.664c-.114.484-.228.954-.342 1.438.086 1.148.157 2.309.214 3.526.042-1.051.085-2.102.142-3.166 0-.581 0-1.176-.028-1.798h.014Zm-1.893 9.305c-.256.332-.384.539.313 1.148-1.152-.014-.085.428-.227 1.548-.441.028-.612.138-.67.318.015 1.701.129 3.608.285 5.433 1.466-1.106-.583-2.668.854-3.967-2.134-.747.072-.968.2-1.466-.797-.843.142-2.627-.755-3.014Zm-.057 10.77c.043.318.086.622.129.927.113 0 .241.055.412.331-.17-.428-.37-.829-.526-1.258h-.015Zm36.756 21.333c.057-3.442.171-7.327.285-10.286a.65.65 0 0 1-.484 0c.868 2.475-.754-.525-.342 1.963-.882.028-1.067-2.364-1.878-2.599.156 2.793.27 4.369.142 5.503.939 2.474.342 8.281 1.11 12.36.441-5.489.043-8.945.697-12.996.242 3.511-.711 6.028.47 6.055Zm1.864-40.647c.029.345.029.746.029 1.189.028-.014.042-.042.056-.056-.014-.373-.042-.76-.056-1.133h-.029Zm.114 1.52s-.057-.138-.071-.248c0 1.161-.086 2.516-.043 3.498.029.027.057.083.085.096.114-.954.1-2.129.043-3.346h-.014Zm4.952-4.023v1.106c.057-.041.071-.124.128-.138a3.256 3.256 0 0 0-.128-.968Zm1.081-.774v.014-.083.069Zm.968 1.839c.028-.194.085-.346.142-.401a5.913 5.913 0 0 0-.128-1.065c-.114.387-.099.913-.014 1.466Zm-2.803-1.908c-.157.152-.342.29-.498.318-.057.304-.114.622-.157.981.114-.221.228-.47.427-.566.028.207.1.47.199.76 0-.484.029-.995.043-1.493h-.014Zm-.513 1.258c.072.484-.057.871-.227.94a23.108 23.108 0 0 0-.057 2.627c.028-.069.043-.152.071-.221.213-1.466.526-2.89.228-3.36l-.015.014Zm-.056 11.185s0 .069.014.111v-.125l-.014.014Zm.227 1.41v.056-.056ZM94.76 143.143a2.03 2.03 0 0 0-.242-.388c0 .263 0 .526-.014.775.042 0 .085 0 .128-.014-.057.083-.086.193-.128.29-.014.871-.043 1.742-.057 2.599.085.484.199.954.284 1.369.029-1.507.043-3.055.043-4.631h-.014Zm0-2.268a2.527 2.527 0 0 0-.185-.346c0 .498-.029.982-.029 1.466a.44.44 0 0 1 .214.138v-1.258Zm-2.462 4.314c0-.083 0-.152-.028-.235 0 .069-.029.124-.029.193.014 0 .029.042.057.042Zm1.75-4.549v1.383c.086 0 .157-.028.228-.028a9.56 9.56 0 0 1 .2-1.521c-.2-.027-.342.042-.428.18v-.014Zm.214 1.894c-.342.277-.228.802.057.954-.029-.332-.057-.65-.057-.954Zm-2.505-5.254a104.1 104.1 0 0 1 .214 4.784c.042.249.071.484.128.691-.071-1.825.028-3.663.142-5.737-.185-.014-.341.083-.47.262h-.014Zm3.401 54.557c0 .954.014 1.935.043 2.917.085-.304.142-.678.185-1.092v-.982c-.071-.276-.142-.539-.213-.843h-.015Zm-17.303-40.053c.142.387.327.746.597 1.064-.796-1.479-.227-5.171-.626-7.314 0 2.088 0 4.217.029 6.263v-.013Zm13.618-28.371c-.029.069-.057.18-.071.291.014.207.028.401.056.608.043-.318.057-.622.029-.899h-.014Zm3.173 13.453v-.028.028Zm12.835.525a55.449 55.449 0 0 0-.227-1.839c-.257 1.493-.271 3.36-.214 5.309.199-1.216.356-2.392.441-3.47Zm-5.208 24.126c.086-1.88.228-3.484.242-5.6a4.604 4.604 0 0 1-.569 1.024c.356 2.336.199 2.143.313 4.576h.014Zm3.942-11.697c-.029-.262-.043-.553-.057-.829-.085.138-.171.29-.27.442.056.318.156.498.327.401v-.014Zm3.486 40.703c-1.11 6.346-.384 13.052-.697 21.651 1.067-4.396.683-14.945.697-21.651Zm-.697 23.393c.199 2.254-.697 4.743 0 6.042.74 1.12.74-7.175 0-6.042Zm.242 7.784c-.769.304-.37 4.991-.47 7.784.74-.387.84-5.959.47-7.784Zm1.622 12.983c-.028 3.581-1.836 10.383-.228 13.853.527-4.742.185-7.369.228-13.853Zm-2.319 32.905c.711-2.088 1.067-7.729.697-11.254-.498 2.765-.783 6.29-.697 11.254Zm-1.637-9.526c-.768 1.493-.37 7.286-.469 11.254.526-3.788.384-5.295.469-11.254Zm-.469 24.25c-.427 2.724-.499 6.803-.456 11.254.64-1.963.427-7.037.456-11.254ZM92.241 228.53s-.071.138-.1.249c.043.111.072.221.1.332v-.581Zm2.135-96.655c.07-.567.128-1.12.213-1.632l-.085-3.484c-.043 1.631-.128 3.277-.128 5.116Zm19.95-14.144s.114.124.185.249c-.043.94-.057 1.686-.071 2.322v.014c0 .581 0 1.065.057 1.521.185-.193.384-.387.597-.539-.213-2.461-.512-3.097-.74-4.493 0 .331-.014.636-.028.926Zm.512 4.604a.506.506 0 0 0-.256.166c.057.359.142.732.242 1.12-.014-.429-.014-.858.014-1.286Zm-3.685-3.235c-.171.138-.342.553-.328.926.1.29.185.664.242 1.078l.086-2.004Zm-2.05 34.052c.641 1.231.868 4.452.015 4.3-.071-.055-.143-.193-.2-.373-.028 2.212.057 4.756.1 8.337 1.11-2.24.797-6.678.697-11.766v-.387a1.34 1.34 0 0 1-.569-.429c0 .111-.014.222-.028.332l-.015-.014Zm.584-1.368v-.111.111Zm5.137 111.476c-1.124.526.213 5.793-.47 6.913.769 2.517.783-4.41.47-6.913Zm-1.167-28.577c-.185-4.037.939-11.227.228-17.324-.328 3.857-1.253 14.13-.228 17.324Zm.711-42.431c.285-.374.484-1.107.47-2.6.171 4.134-.512 12.125-.697 15.582 1.65 5.724-.541 20.559.697 27.72-.1 9.416-.882 21.804.242 28.578-.114-32.988.811-59.851.697-88.332-.085 5.433-1.337 10.95-1.394 19.052h-.015Zm-22.127 34.287v-18.623a5.515 5.515 0 0 0-.17-1.161c0 6.111 0 12.609.014 19.397.042.152.1.277.156.387ZM69.303 107.818c0-.083.028-.152.042-.235l-.042-.194v.429Zm35.674 1.604c.071.511.284.497.512.442-.028-.29-.057-.581-.085-.899 0 .401-.1.664-.427.457Zm9.918 40.26c-.27.761-.37 1.867-.541 2.848.014.636.057 1.175.128 1.604.114.249.2.498.242.733.1.124.199.193.342.138-.043-2.101-.057-3.678-.1-4.977a1.14 1.14 0 0 1-.071-.346Zm.868 74.604v4.341c.142.055.256-.069.356-.29 0-1.341 0-2.655.014-3.968-.1-.139-.213-.194-.37-.083Zm1.85 45.901c.199-1.189.968-6.36-.228-5.185-.028 2.13-.042 4.176.228 5.185Zm-.455-10.383c.626.567.54.194.91 2.461 0-7.231-.014-14.337-.028-21.223-.1 2.973-.285 5.946-.655 8.365.868-2.088-.284 7.217-.227 10.397ZM77.129 455.106c-.17.18-.313.387-.427.609.157.11.385.013.441-.18v-.415l-.014-.014ZM62.046 129.842s.113.125.185.152a68.099 68.099 0 0 1 0-2.958c-.285.165-.64.193-.997.179.072.318.143.65.214.982a.818.818 0 0 1 .54-.36c.129.484 0 1.383.043 1.991l.015.014Zm.583.332c.299-.498.157-1.106.057-1.728-.029.594-.043 1.175-.057 1.728Zm3.372-2.655c.029-.967.072-1.935.114-2.903-.953-.788-1.01 2.364-.114 2.903Zm3.102-21.582c.1.318.228.623.385.913.057-.318.128-.636.185-.968 0-.94-.128-2.046-.1-3.18v-.332c-.54.415-.583 2.434-.484 3.581l.014-.014Zm36.5-47.96c-.797-.153-.256 1.714-1.025 1.617.086.732.427 1.009.925.981-.028-.885 0-1.797.1-2.599Zm-.071 3.096c-.299.014-.584.041-.897.055-.057.802.114 1.148.271 1.563.099.027.199.166.298.331.285-.22.399-.705.37-1.396-.028-.18-.042-.373-.056-.553h.014Zm-.384 6.25c0-.07 0-.139.014-.208-.242-.58-.669-.802-1.196-.843-.256 1.935 1.381 1.645.114 2.557.655 1.66.769-.912 1.068-1.507Zm-.413 2.986c-.441-.25-.726-.25-.911-.111.114.553.242 1.148.37 1.742.242-.442.427-.995.541-1.631Zm7.015 28.522s-.042.083-.071.11c.071.097.142.167.199.222-.042-.152-.085-.277-.142-.332h.014Zm7.272 57.501c.597-.484.17-3.567-.171-4.078-.811.871.526 2.267.171 4.078Zm-1.125-2.875c-.113.705-.27 1.23-.512 1.562.242-.083.399-.028.527.11v-1.672h-.015Zm.072 16.134s-.057.111-.114.152c-.199-3.111.227-9.636-.47-12.982.014 6.304-.227 9.636-.227 17.324.441-1.024.668-.429.825.359v-4.839l-.014-.014Zm1.437 10.439c0 3.207 0 6.539-.014 9.982.085-.553.199-.982.313-1.217.227-3.415.242-6.705-.228-9.526-.028.277-.057.512-.071.761Zm-1.409 7.479c-.384 2.337 0 7.549-.142 10.812-.712-1.396.412-9.595-.939-8.655.014 2.53 0 5.378-.029 8.475v24.085c.271.594.157 3.525.029 5.53.654.304.569.788 1.11 2.419v-5.571c-.043-.47-.086-.885-.171-1.175.071.027.114 0 .171 0 0-13.287-.015-25.467-.029-35.92Zm1.95 106.928c.441-3.387.455-8.848.227-12.996-.54 2.627-.085 8.932-.227 12.996Zm.469-34.633v-5.185c-.669.139-.982 6.084 0 5.185Zm1.238 5.765c-.37 3.305-.697 7.48-.085 8.946.028-.056.057-.125.085-.208v-8.738Zm-.085 39.252c-.342 4.41-.086 5.862-.228 11.268.1-.236.214-.747.313-1.438v-9.678c-.028-.056-.043-.111-.085-.152ZM64.82 491.482c-.028-1.825.27-2.655-.241-3.567-.356.318-.541.58-.627.829.057 1.037.114 1.963.171 2.821.242-.028.47-.056.712-.069l-.015-.014Zm-6.218-317.826c-.583-.111-.583 1.479-.683 2.779.27-.014.512-.318.683-.733v-2.046Zm-.683 16.632c-.1-3.276.071-5.793.242-8.323-.882.553-1.025 6.761-.242 8.323Zm-.712-6.235c-.697.746-.782 3.304-.725 6.235.483-1.382.825-3.18.725-6.235Zm-5.122 84.613c.057-.732.085-1.438.085-2.115h.726c.327 2.281-.086 4.217 0 8.323-.683-1.59-.74.166-.825 2.475v7.963c.128-2.267.355-4.424.825-6.276-.1 7.507.825 15.083.242 22.881 2.134-15.789 1.01-27.472 1.92-47.132-.284-.58-.64-.912-1.195-.691 2.078-2.088.868-8.931.954-15.264-1.494 2.212.341 11.047-1.68 12.471 0 1.88 1.011 3.249 0 4.162-.725-2.364.172-5.945 0-9.015-1.166 1.106-.625 3.789-1.024 6.139 0 5.268 0 10.646-.014 16.079h-.014Zm.028-24.374c.128-1.687.256-3.485.299-5.475.669.207 1.053-4.245 1.921-5.545-.157-3.484.014-4.756-.242-6.926-.612.069-.384 2.585-.726 3.456-.555-2.779-.085-8.53-.242-12.484-.298.801-.81 3.774-.711 0a.777.777 0 0 0-.299.304V244.292Zm3.9-8.946c.625.208 1.024-.249.953-2.074.526-.11.113 2.461.241 3.471.897-7.369.783-21.25.712-29.117-1.053 7.673-.754 19.245-1.921 27.72h.014Zm-1.922-14.558c-.37 1.258-.868 2.129-.726 4.853.755-.111.655-2.738.726-4.853Zm0-27.029c-.47 8.018-.54 15.567-.242 22.881 1.224-5.378.399-16.287.242-22.881Zm-2.077 116.274c0 4.037 0 8.074-.015 12.097.57-3.18.498-9.028.015-12.097Zm-2.875 21.402c-.043-8.461-.085-17.033-.114-25.633-.185 8.392-.611 16.066.029 25.91.028-.083.057-.18.085-.277Zm2.974-115.528c.626-.331.74-2.115.783-4.134-.27.443-.555.858-.783 1.438V215.907Zm-.156-41.892c.114.139.256.249.455.332.285-.912.043-3.29-.484-3.968 0 1.148.029 2.364.029 3.636Zm2.134-.359c1.053-1.867.968-9.761.242-11.78-.313 3.249-.242 7.618-.242 11.78Zm6.147-30.306a.962.962 0 0 1 .3-.235c0-.567 0-1.189-.03-1.839-.27.512-.583.885-.91 1.175.071.871.17 1.134.299 1.148a.507.507 0 0 1 .341-.263v.014Zm.27-2.641a8.854 8.854 0 0 1-.085-2.101 149.791 149.791 0 0 0-.47-6.388c-.227 3.941-.27 7.549.57 8.766v-.277h-.014Zm4.839-42.68c-.114-.788.028-1.3.185-1.576 0-.207-.029-.456-.057-.705-.27.83-.54 1.811-.142 2.323v-.042h.014Zm1.508-8.033c-.114-.456-.284-.788-.412-1.189-.072.65-.1 1.106.412 1.19Zm.427-.013c.071 0 .128 0 .228-.028.057-.29-.043-.719-.1-1.134-.028.401-.071.802-.114 1.162h-.014Zm-.327.442s-.014-.041-.029-.055c-1.053.511.712 2.295-.128 2.53.143.069.242.083.342.097 0-.083 0-.194.028-.277.029.138.071.221.1.304.74.042.17-1.48-.142-2.24-.029.125-.043.263-.072.374a5.19 5.19 0 0 0-.085-.747l-.014.014Zm-.655-.36s-.1-.013-.142-.013c-.128.816-.27 1.59-.413 2.336.043.512.072 1.245.1 2.254-.043.235-.17.567-.299.94.142.166.256.36.342.567 0-2.447.185-4.687.426-6.083H66.3Zm1.936 6.443c.398.885.37 2.53.355 4.342.057.497.171.884.456 1.023.156-.857.313-1.576.44-2.24-.142-1.66-.483-3.18-1.18-3.512a3.702 3.702 0 0 1-.072.387Zm1.792-.124c.086-.733.157-1.535.2-2.516-.228-.07-.399.055-.527.166.071.801.1 1.617.328 2.35Zm-.412-42.003a41.162 41.162 0 0 0-.086 1.646c.27-.47.484-.996.683-1.549.114-.332.228-.663.314-1.023-.356.346-1.082-.11-.314 1.023-.313.042-.47-.028-.597-.097Zm1.067-1.686c.498-2.489.441-5.337.185-7.77-.427 1.285-.896 4.963-1.153 8.046.3 0 .64-.069.968-.345v.083-.014Zm47.129 75.322c-.228 3.139-.498 6.222-.697 9.388 0 .94-.043 1.908-.1 2.917 0-.193.427-.47.427-.747-.1.899-.284 1.618-.484 2.296.2.207.399.428.555.746-.114.36-.213 1.991-.284 4.701.498.221.455.733 1.081-.083-.043.719-.071 1.383-.099 2.005 1.977-3.166-.584-8.711-.627-12.236 0-.913.698.373.883-.567.213-1.106-.071-5.807-.655-8.42Zm3.856 86.231v-4.673h-.782c-.043.733.085.816.227.871.442.083-.355 3.222.228 4.328.142-.028.256-.222.327-.526Zm0 1.355c-.981.069-2.02 1.327-1.48 6.955-.683-.692-.384 2.281-.796 2.585v5.185c.028-.291.071-.581.099-.858.029 1.355-.028 3.014.47 2.6-.214-4.853.227-3.236.697-4.328 0-5.931.142-5.959.242-11.254.341.498.598.332.783.249v-1.148l-.015.014Zm0 3.609c-.227-.332-.469-1.563-.555-1.853.456 6.083-.156 10.687 0 13.867-.668-2.129-.768 5.199-1.166 6.927 0-.843-.37-1.037-.57-.636v.719c.954.567.385.926 0 1.438v1.977c.285 1.452.84-2.392 1.025 1.7.071-4.659.811-6.788 1.252-10.037v-14.089l.014-.013Zm3.159 91.678v.055-.069.014Zm-.014 27.997c-.228 1.963-.313 5.973 0 8.862v-8.862Zm2.69 53.395v2.323c.17.318.355.304.583-.595-.37 3.318-.37 1.023 0 4.342-.085.663-.341.636-.569.746v.899c.512.318.967 2.281.569 2.668.057-1.313-.341-.567-.569.18v.719c.27.028.583-.111.726.401v-11.323c-.171.636-.47-.07-.755-.374l.015.014Zm-43.5 101.356a1.132 1.132 0 0 0-.086.374c.057.041.114.083.185.11-.029-.166-.071-.318-.1-.484Zm-6.603.581c-.27 0-.427.125-.513.304.071.567.143 1.106.2 1.618.37-.705.711-1.673.313-1.936v.014Zm-1.964 3.152a8.99 8.99 0 0 0-.285-.649c-.114.207-.213.428-.327.649.142.747.299 1.48.512 2.116.086-.65.1-1.369.086-2.116h.014Zm2.29 1.494c.798-.194.954-1.037 1.082-1.908-.939.041-.967 1.009-1.081 1.908Zm-1.052-2.06.085-.125v-.083c-.028.069-.043.138-.085.194v.014Zm4.397 2.696c-.128.262-.242.58-.342.94v.166c.242.428.541 1.078.968 2.06a36.526 36.526 0 0 0-.64-3.153l.014-.013Zm-17.716 1.479c-.726-1.065-.171-3.042.27-4.853a35.999 35.999 0 0 1-.185-3.83 1.58 1.58 0 0 0-.697-.248c.697.566.953 1.161-.256.746-.114.802.612.456.683 1.009-.1.581-.925.401-.513 1.494-.412-.07-.313-.871-.398-1.397-.057 2.351-.327 6.222-.071 7.909.455-.194.185-1.148 1.152-.83h.015Zm-10.516-45.003a2.405 2.405 0 0 0-.1-.428 2.377 2.377 0 0 0-.313.484c.171-.042.3-.056.399-.056h.014ZM49.168 337.74c-.2 1.341-.185 3.415.028 4.59 0-1.521-.014-3.056-.028-4.59Zm-5.35 126.657c.312-.041.668-.055.682-.415-.256-.083-.455-.249-.626-.442-.014.29-.043.567-.057.857ZM3.318 137.142c-.74-.677.968-2.336-.768-2.447.27.788-.356 2.834.768 2.447Zm15.867-2.253c.867-.139 1.095-2.641-.143-2.143.043.719.1 1.424.143 2.143Zm.028-8.268c.071-1.258.512-3.346-.57-3.899-.469.138-.881 1.051-.995 1.963.085.47.113.954.113 1.424.214.526.655.816 1.452.498v.014Zm1.266-3.719c.925-.277.997-1.438 1.025-2.613-.726.484-.555 1.88-1.025 2.613Zm-2.618 6.014c.114 1.908.342 3.042.57 3.899 1.48-.401 1.55-2.212 1.209-4.425-.982.512-.427.761-1.779.526Zm-3.33 4.272c.655-.111.584-.968.484-1.839-.598.318-1.152 1.203-.484 1.839Zm.384-3.277c.143-1.825-.127-1.603 1.082-1.894-.128-.733-1.338.042-1.28-.954-1.068.18-1.14 2.973.198 2.848ZM8.23 116.182c-.584.401-.555 1.438-.427 2.558 1.053-.29.74-1.714.427-2.558Zm-3.444-6.138c-.555 0-1.025-.139-1.252-.595-.811.456.284 2.074.669 1.01.128 1.244-.627 1.589-.726 2.585.299-.028.597-.055.896-.097-.697 2.489.342 3.747.185 7.176 1.21-1.659-.142-6.36.214-10.079h.014Zm8.566 10.314c.086.401.313.166.3-.028.227.36.227 3.318 0 4.314.668.898 1.052.387 1.294 1.313.228-.263.783-.636.896-.083 1.38-1.562-1.85-3.235-.626-4.618-.91-.566-.74-.815-1.024-1.7-.384.166-.427.677-.854.802h.014Zm4.027 1.41c-.028-.47-.07-.954-.1-1.424 1.068-.304.983.968 1.054 2.046.398-.041.796-.069 1.195-.11-1.323-1.037.398-2.296-.313-4.632-1.28 1.078-1.58-2.088-2.874-2.24.867 3.47-.64 5.627 1.038 6.36Zm3.387-7.881c-.057.539.854 2.807-.427 2.558.498 1.231.54.664.754 2.088 1.196-1.148.37-3.208.584-4.729-.513-.027-.74.692-.897.083h-.014Zm-4.81.47c.328 1.231 1.082.318 1.494-.138.128 1.134-.113 2.765 1.068 2.406.199-2.019-.513-1.853-.57-3.899-.981-.221-.327 1.217-1.124 1.189.313-3.235.441-6.07-.213-7.535-.882 1.991-.1 5.655-.655 7.977Zm1.281-16.66c.583-.4.555-1.438.427-2.557-1.338.387-.384 1.161-.427 2.557Zm14.514-37.37c-.256.027-.498.069-.427.428.043.124.185.152.342.152.028-.18.057-.373.071-.567l.014-.014Zm.683 21.969c-.1-.042-.17 0-.213.29 0 .124.057.193.114.249.028-.235.07-.401.1-.54Zm.783 8.267s-.071.139-.128.208c-.071-.567-.043-1.245-.669-1.01.413.54.697 1.217.854 1.895 0-.415-.029-.76-.057-1.093Zm-4.056 13.522c.37-.83.769.373.869-.443-.783-6.567.17-14.323 1.166-22.757.2-1.742.555-4.687.968-7.867-.94-.843-.37 5.572-.84 3.581.513-4.95.228-7.963.157-10.908-1.31 3.664-3.458 8.074-2.405 10.729-1.522.4.399-1.576-.726-1.729.185.678-.683 1.908-.825 1.162.17 0 .327-.318-.028-.36-1.04 1.867-.555 4.549-1.736 5.558.569.235-.015 4.784-.812 5.835-.768-.401.47-1.134-.398-1.397-.17 1.383-.655 2.447-.313 4.341-1.466-.248-.27 2.171-1.352 2.296 0-.388-.199-.9-.327-.332.313.608.797.968 1.024 1.7-1.166 1.59.313 4.936-1.366 6.595-.213-.608.214-2.129-.44-2.115-.854.014.526 2.295-.783 1.866.37-1.161-.086-1.451-.74-2.087.982 0 .54-1.452 1.394-1.576.029.898-.498 1.175.399 1.396-.143-2.323.896-3.664-.911-4.576.427-.235 1.58.262 1.48-.512-.584-.525-.996.429-1.551-.567 1.053-.207-1.124-.857-.071-1.078.569 1.272-.171-1.438.853-.802.086.525-.014 1.327.399 1.396 1.622-1.382 2.575-6.58 2.092-9.18 1.28-.595 1.494-3.373 1.138-5.503.726-.22 1.039-2.75 1.935-2.696-.014-2.28.285-5.724 1.694-6.277-.783-.69.825-2.972-.27-3.926-.37 1.258-.2 1.714-.883.442.213 1.507.84 4.383-.398 2.918.924 1.258-1.11 1.99-.086 3.235-1.55.415.143 2.516-1.935 2.71-.754-.996 1.266-3.968-.043-5.033-2.091 4.742.384 6.526-1.124 10.176.128-1.217-.654-.512-.925-.277.925-1.534.2-3.097.91-4.396-.412.055-.668-.11-.924-.263-.213 1.244.057 3.581-1.38 4.369v.65c.142-.138.299-.138.512.097-.185.18-.313.414-.413.663.015.083.029.166.057.235h-.128c-.285.913-.299 2.102-.768 2.82-.057-.428-.143-.829-.655-.663-.057.94 0 2.35-.782 1.88.81-1.23.27-4.313 1.65-2.322 0-.457.043-1.217.17-1.825-.184-.11-.34-.29-.454-.595.113-1.203.199-2.046.256-2.724-.698.885-.698 2.78-.698 3.416-.853.29-2.632 5.184-1.679 6.276-3.002 4.342 0 11.116-1.081 15.209.654-.125.982.207.982.981-.584.166-.626-.428-.954-.622-.37 1.438.826.664.996 1.341-.185 1.231-.256 3.885.67 5.323.028-.664.099-2.959.454-2.198.057 1.341-.113 2.682.242 3.567.854.083-.37-1.922.484-1.839.3.94.498 3.235-.654 3.65 1.224-.677.17 1.839 1.024 1.701.84-3.319 1.437-9.43-.227-12.195.967.304.683-.027 1.807-.179-.754 1.341.854 7.313-.811 10.148.74-.139.982.456 1.266.954-1.764 1.493-.512 4.756-.441 6.871.114 3.36.441 6.18 1.167 8.157-.086-.401-.37-.525-.64-.65-.385.498-.186 1.577-.129 2.53.442.097.541.374.897-.082.057 1.23.028 2.571.797 2.792-.64.54-.242 2.295.427 3.07a3.233 3.233 0 0 1-.057-.705c-.014-1.245.27-2.171.242-3.263-.015-.042-.015-.069 0-.097a6.1 6.1 0 0 0-.242-1.493c.014-.885.313-.968.242-2.074.085 0 .156-.042.227-.083-.313-1.037-.37-1.383-.47-2.019v.014-.027c-.056-.415-.156-.968-.355-1.936a.56.56 0 0 1 .341 0c0-1.438.015-2.765.47-2.862-.114-.207-.256-.359-.427-.401.399-.041.797-.083 1.21-.111.526.65.327 2.558.982.982-.129.539.483 1.811-.171 1.811-.086-.276-.057-.705-.342-.677 0 .18-.028.415-.085.677.213.332.427.996.57 1.756.668-.304.227-1.728 1.066-1.88-.697 1.355.114 2.392-.355 3.636-.086-.622-.27-1.106-.64-1.327.127.871.156 1.756-.03 2.309.143 1.147.47 2.295.997 3.663-1.338.388-.384 1.162-.427 2.558-.2-.11-.57-.401-.953-.746.085 1.866.483 3.318.27 5.364.028.041.057.083.1.111.498-.83-.257-2.918.355-3.637.356 1.314.37 2.779.555 4.162.029-1.051.043-2.226.029-3.705.726.166.128 1.921.967 2.765a73.881 73.881 0 0 0-.199 3.567c.114.207.228.401.37.594-.27-4.244.356-8.489-.441-11.765-.029 1.631-.285 3.498-.697 4.147.199-2.972.114-5.253.242-6.926.313.11.455 1.106.455 2.322.484-.235.455-.981.712-1.451-.342 0-.427.567-.598.055 0-7.369.356-14.171-.085-23.352l-.058-.041Zm-7-27.9c-.029.18-.043.373-.057.566.042-.207.07-.4.056-.566Zm10.843 31.619h-.712c.057-.429.014-1.134 0-1.797-.142.096-.327.124-.555 0 .228 1.714-.583 3.885.142 4.272.086-.913.214-1.756.427-2.461 0 .788-.085 1.659-.156 2.516.128 0 .284-.028.484-.097.085 1.051-.27 1.189-.57 1.328v.414c.171.194.285.415.356.664.114-1.313.754-2.572.612-4.825l-.028-.014Zm-.541 5.931s0 .111-.014.18c.028.041.042.097.07.138-.028-.11-.042-.207-.056-.304v-.014Zm0 5.807c.114.111.256.194.412.29a2.668 2.668 0 0 0-.355-.94c-.029.208-.043.429-.057.65Zm.484.94c-.029.885-.057 1.798-.072 2.751.1-1.023.143-1.949.072-2.751Zm.057 8.807s-.057.055-.129.138c.015 1.065.043 2.143.086 3.222.043-1.148.071-2.281.043-3.36Zm2.874 22.19c.071 2.268-.47 8.766.484 10.397-.27-3.138.569-9.512-.484-10.397Zm.712 24.956c-.64-.18-.683 4.88-.242 5.544 1.053.028-.171-3.083.242-5.544Zm4.795 8.309c-.441 1.797.1 2.088-.242 4.162.825 1.092 1.138-4.646.242-4.162Zm-3.358.691c-.157-.705-.555-.719-.47-2.073-.228 2.018-.854 6.885.242 6.926.683-1.092-.54-3.719.242-4.853h-.014Zm-.712 17.338c-.413-1.77.456-7.825-.242-10.397-.427 2.323-.967 9.332.242 10.397Zm4.312-9.706c-.157 3.858.043 12.277.242 17.338.37-3.125.825-15.305-.242-17.338Zm5.265 10.397v-6.94c-.157 1.327-1.053 6.581 0 6.94Zm1.21-13.867c.156-.194.37-1.77.469-3.581v-3.47c-.071-.885-.214-1.618-.455-1.963v9l-.015.014Zm0-15.25c.156 1.369.27 2.904.455 4.217v-4.217c-.114-.097-.256-.11-.441 0H48.1Zm-.242-11.088c.74-3.014.341-7.521.668-10.411v-3.733c-1.067 2.116-1.053 10.466-.669 14.144Zm.682-18.955v-1.424a5.96 5.96 0 0 0 0 1.424Zm1.85 4.811c-.17.042-.284.028-.384-.027-.071.11-.142.207-.227.304-.029.345-.043.608-.043.843.042 0 .071.028.128 0 .384-.373.711-.816.982-1.299.014-.664 0-1.189-.214-1.452.057.553 0 1.106-.242 1.617v.014Zm.442.401c-.527.304-.228 1.148.028 1.908.043 0 .071 0 .114.042-.142-.692-.142-1.355-.142-1.95Zm6.374 9.581c.769 2.918.242 6.194.242 10.397 1.11.152-.242-2.474.484-3.47.327.249.256 1.632.683 1.562 0-2.004 0-3.857.029-5.558-.072 1.134.085 2.862-.47 2.6-.54-.705.313-3.194 0-5.544h-.953l-.015.013Zm.954-6.926c.213 3.207-.555 5.005.242 6.235-.014-1.355.142-2.558.313-3.678.057-2.972.156-4.742.27-5.115-.84.553-1.024-2.807-1.053-3.456a130.06 130.06 0 0 1-.114-3.291c-.142 3.014-.313 6.07-.384 9.319.342.262.399.829.726 0v-.014Zm.071-20.587c1.266 1.162.2 8.337.612 12.526.327-4.217-.157-9.664.754-13.424-.242-.083-.484 2.986-.711.691.128-.429.242-.968.341-1.576-.598.235-.64 1.23-.996 1.783Zm.868-6.622c.2-.332.384-.678.526-1.065-.014-1.078-.113-1.922-.27-2.226-.156.885-.128 2.323-.256 3.305v-.014Zm1.451-5.379c.456-2.322.442-4.548.456-6.746-.285-.263-.612-.471-.598-1.203.555-.139-.2-.719.27-.899.057.235.171.387.356.415 0-.636.043-1.272.1-1.908.043-1.549.327-3.457.484-4.729a52.01 52.01 0 0 1 .057 2.793c.227-.484.512-.898.81-1.313 0-1.286.03-2.599.157-3.871-.028-.208-.057-.401-.085-.623-.413-.179-1.082 0-1.267-.511.982-.111.385-.456-.056-.871-.2.456-.356.912-.356 1.355 0 .594 1.038.373.939.829-.043.222-1.11-.138-1.21.069-.47 1.065.27 2.06.143 3.512-.114 1.438-.37 3.014-.598 4.535-.114 3.788-.455 7.701.384 9.166h.014Zm-2.433-12.221c.399-.028.797-.042 1.21-.07-.157-2.239.042-3.843.37-5.24 0-1.631.128-2.765-.072-3.608-.81 3.567-1.45 6.871-1.508 8.931v-.013Zm2.476-12.927c0 1.686-.114 3.594-.256 5.42.299-.941.598-1.895.811-3.001-.028-.041-.071-.07-.1-.138.2-1.01.185-2.71.285-4.314l-.043-.705c-.227.899-.455 1.811-.683 2.737h-.014Zm5.877-6.61c.085-.359.156-.76.228-1.188-.043-.014-.057-.028-.114-.042-.029.36-.085.692-.128 1.037v.194h.014Zm-4.667-.912c-.086.152-.171.305-.313.429h.014c.142-.124.27-.249.327-.442h-.043l.015.013Zm.341-.041s.071.041.128.055c.27-.47.484-1.258.626-2.115-.27.58-.668 1.216-.754 2.06Zm4.753-1.867c.028-.248.043-.497.057-.746-.085.304-.142.567-.057.746Zm-4.041-1.064c-.128-.304-.342-.484-.598-.622-.1.304-.114.677-.114 1.05.228-.165.441-.387.712-.428Zm-2.263-1.245c.128-.635.242-1.285.299-1.935-.285.11-.285 1.05-.299 1.936Zm-1.779-3.774c.157-.774.314-1.562.47-2.323-.583.47-.583 1.37-.47 2.323Zm-.939-6.401c.086.083.171.193.285.36.114-.14.299-.803.256-1.287-.185.305-.356.623-.54.927Zm1.267 1.355c.412-.235.612-.166.74 0 .057-.277.113-.553.17-.816-.298-.525-.412-1.3-.782-1.715-.669.885-.27 1.3-.128 2.53Zm.355-5.365a7.161 7.161 0 0 1-.256 1.369c.1.194.214.387.285.719.526-.65.427-1.383.327-2.102-.114 0-.242 0-.356.014Zm1.053-.055c-.555.456-.569 1.604.114 1.687.114-.567.242-1.134.356-1.715-.157 0-.299.014-.455.028h-.015Zm2.548 1.438c.113-.056.199-.097.284-.11.029-.222.057-.457.085-.692-.156.221-.256.525-.37.802Zm.555-2.558c.056-.4.128-.816.27-1.286-.285-.29-.47-.124-.598.263.114.373.228.705.342 1.037l-.014-.014Zm-4.61-1.742c-.03.263-.129.512-.414.774.128.042.228.056.328.056.1-.318.142-.609.085-.83Zm-.67 1.52a.606.606 0 0 1 .384-.124c.029-.082.057-.165.1-.262-.17 0-.327.097-.484.387ZM56.61 63.34c.498 1.037 0 1.922-.086 3.236.143.041.228.041.328.041.44-.982 1.053-1.659.626-2.834.07-.055.142-.097.199-.138-.185-.36-.47-.567-1.096-.318l.029.014Zm1.679.222c.156.027.27.027.384-.29-.057-.263-.1-.498-.156-.706-.314.318-.342.65-.228.996Zm11.256-1.12a.66.66 0 0 1-.257.235c-.569 3.249-.626 6.747-.583 10.148.584-.443.811-1.41 1.025-2.42-.171 0-.356-.4-.015-.511.683.912-.242 3.553-.996 3.442.043 2.434.1 4.812.029 6.941-.356 1.106-.94-.733-1.181.511-.071 1.065 1.366-.331.953 1.259-.128 1.12-.555.843-1.081.636l.042 2.516c.513-.249-.498-1.825.797-1.811-.199 1.258.47 1.12.399 2.184-.584.263-.883.871-1.196 1.493 0 .277-.014.553-.028.816a.313.313 0 0 1 .2-.11c.682 1.036.426 2.806.355 4.479 0 0 .028-.028.043-.014.085 1.19.199 1.977.256 2.6.057.138.085.29.17.414.3-.027.385.25.626.29-.341-1.534.143-3.345-.27-3.926.356.346.54.76.669 1.217.712-4.729.142-8.268.142-13.038-.299.083-.185 2.696-.54 1.355 1.195-7.494 1.807-17.24 1.437-22.992-.242.594-.427 1.244-.626 1.88.028.055.056.11.085.194-.128.207-.242.442-.356.663-.114.429-.17.871-.256 1.314.071.041.142.11.157.221v.014Zm-5.678-3.913c-.384 0-.797.07-1.181.249v.47c.54.318.27 1.535.114 2.046-.057.208-.1.457-.114.705.441-1.078.825-2.24 1.181-3.456v-.014Zm-7.84.899c.255.29.384.774.398 1.396-.54.097-.655-.373-1.224-.249-.342 1.66 1.95-.373 1.594 1.286.569-.207.47-1.064 1.451-.857-.939-1.244-.797-1.48-.868-3.871-1.608-.415-.028 2.405-1.352 2.28v.015Zm2.803-.387c.17-.733.327-1.452.498-2.102-.214-.511-.484-.885-.811-.968.07.415-.029.636-.257.747.712.843.584 1.659.57 2.336v-.013Zm-6.816-5.323c-.029.304.142.332.327.332.484-.208.057 1.327-.2 1.451.541.429.726 1.314 1.879.899-.953-.221-.811-1.977-1.395-2.738-.199.028-.398.042-.597.056h-.014Zm4.496-1.521s.014.097.029.152c.142.207.17.346.114.484.028.124.056.263.085.415-.014.11-.1.193-.2.262v.125c.655-.221 1.025-.733 1.11-1.549-.384.042-.754.07-1.138.11Zm1.395-.844c.384 1.038 1.38-.815 1.295 1.314 1.038.166.284-1.493 1.423-1.217-.185-.788-1.75.36-1.295-1.313-.37-.76-.3 1.673-1.423 1.216Zm-8.04-2.46c0 .788.327 1.106.982.981.853-.594-.925-1.783.47-1.839-1.324-.36.54-2.184-.527-3.18-2.192.567.654 3.83-.94 4.038h.015Zm.341-8.31c.114 1.328.413.982.143 2.143 1.081.07 1.152-2.571-.143-2.143Zm4.397 2.461c.37.07.968-1.133.228-1.106-.014-.345.356-.304.583-.415.072-.622-.284-.65-.654-.65-.071-.414.028-.65.256-.746-1.224-.802-.811 2.115-.398 2.917h-.015Zm8.908-3.235c0 .194-.014.387-.014.567 0 .069 1.31 4.936-.1 2.89.171.442.3.995.385 1.576 1.053-1.19.412-3.346 1.764-4.452 0-1.093-.228-1.811-.697-2.17-.683-.14-1.082 1.714-1.352 1.575l.014.014Zm.783-7.715c-.142.747-.27 1.424-.399 2.074-.113 1.922-.284 3.664-.355 5.102.669-2.088 1.992-5.226.768-7.162l-.014-.014Zm36.613-1.41c.071.968 1.01.29.968 1.48.654.04.057-1.826.185-2.572-.598.041-.328 1.41-1.153 1.092Zm13.76-2.89c-.299.014-.597.042-.896.056-.043 1.189.128 1.963.412 2.53.427-.456.356-1.673.499-2.585h-.015Zm13.49 81.462c-.996 1.576-.213 4.369-.057 5.627 1.366-.443.057-4.203.057-5.627Zm.555 6.111c-.598.401-1.167 1.617-.484 2.585.655-.124.584-1.327.484-2.585Zm.228 5.088c-2.647 3.29 1.508 13.3-1.75 15.443.341 1.064 1.977-1.438 1.593 1.949 1.181-3.207-.355-11.89.157-17.392Zm-5.052 158c0-.152 0-.318.014-.456.385 1.272.086 3.899-.014 6.346v2.461c.043.594.114 1.133.256 1.576.128-3.152.641-2.281.712-3.788v-.927c0-.152 0-.304-.014-.47 0 .125 0 .208.014.304 0-33.887 0-66.46-.142-91.457a.757.757 0 0 1-.114.235c-.057-.152-.157-6.056.057-8.281 0-1.964-.029-3.872-.043-5.71v.138c-.157-2.586-.413-8.13-.128-12.347-.171-12.304-.427-19.881-.797-20.738.228 2.806.213 64.842.213 133.142l-.014-.028Zm2.035-130.211c-1.153.484-.327 5.918 0 7.162.783-.705.583-4.991 0-7.162Zm2.391 6.498c-.313-.041-.854 113.98-.854 201.386.085.124.142.318.156.65-.071.124-.113.262-.156.401v3.498c.114.746.213 1.479.156 2.17-.056.055-.113.055-.156.028v10.853c.057.097.114.207.156.373.328 2.171.1 4.024-.142 4.867v4.963c.199.954.455 1.812.783 2.544.028-88.222.085-231.014.057-231.719v-.014Zm-.071 283.262c-.114 1.133 0 2.571-.157 3.636.057 0 .114-.069.157-.152v-3.484Zm-43.857 57.529c0 .815.385 2.226-.782 2.17.299.056.44.374.64.595.028-.097.1-.166.256-.208.014-.318.157-.608.313-.774a55.482 55.482 0 0 1-.44-1.783h.013Zm.64 6.926c-.241.443-.17 1.093-.07 1.715-.029-.498.056-.982.142-1.231a3.575 3.575 0 0 1-.071-.484Zm1.58 1.659-.199-.096c-.028.096-.043.207-.085.304a.895.895 0 0 1 .298-.208h-.014Zm-.768.664c-.185.111-.413.18-.726.194 0 .041.014.083.029.11.313 0 .526-.138.697-.304Zm-1.566 4.383c.057-.083.1-.166.157-.235a1.38 1.38 0 0 0-.128.304c.057.18.128.346.2.525.028-.29.241-.525.455-.65-.029-.152-.057-.304-.1-.47a.977.977 0 0 0-.427.291c.114-.18.256-.291.427-.318-.057-.277-.114-.553-.17-.844-.157.028-.285-.083-.342-.553.114.028.17.014.242.014-.541-2.848-.954-5.71-.541-6.47-.27-.761-.64-1.341-.982-2.005.114.387.213.691.285.982a.243.243 0 0 1 .1-.069c.825 1.825.327 8.807.113 2.543-.057-.082-.157-.345-.242-.649-.128-.028-.285 0-.455.027.17 2.544.64 5.309 1.423 7.577h-.015Zm-3.016-2.613s.028-.056.014-.125c-.1-.414.057-1.576.356-2.571a9.574 9.574 0 0 1-.754-1.466c.113 1.369.227 2.765.37 4.162h.014Zm-7.812.415s-.029-.083-.029-.125c-.612.36-.982.982-.74 2.212.598-.345.954-.94.769-2.087Zm-16.635 4.341c.655-.553 1.195.816 1.195-.111-.412-2.088-.754-9.941-2.433-13.425-.398.042-.228.65-.555.775-.071-1.922-1.28-2.475-.27-3.927-.114-.055-.57.429-.57.415-.839-2.904-1.864-10.19-1.55-13.867-.954-2.337-2.078-10.231-.683-9.996-.655 1.949.54 3.221 1.85 4.853-.641-2.309-.143-3.25 1.138-5.503-.755 0-.897.65-1.452.857.513-2.143-1.081-.76-2.22-1.576.67-1.728-2.034-4.521-.313-4.645-.569-.968-2.22-5.849-.1-5.738.072 1.092-.867 3.083.214 3.221-.555-1.23 1.01-.318.825-1.161-.711-1.272.968-1.798.086-3.235.854-.028.57-1.189.925-1.729v-.193c-.2-.014-.413-.014-.456-.263-.241.526-.37 1.217-.455 2.185-.726.221-.882-.36-.996-.996-.2.194-.228.498.242 1.314-.384-.374-.669-.54-.925-.567-.014.456-.128.871-.384 1.161 0-.18 0-.525-.014-1.037-.385.318-.67 1.175-1.068 2.53.086-1.7-1.906-2.986-1.679-.691-1.038-.028-.81-3.678-2.148-2.779.725 2.115-.883.968-.968 2.779a95.705 95.705 0 0 1-.128 3.028c.896.152 1.323 2.032.711 2.793-.256-.346-.611-.526-.84-.913-.554 7.508-1.835 12.941-2.376 20.531a.25.25 0 0 0 .029.097c-.456 1.383.071 3.125 1.693 2.71 1.068 4.314 1.38 7.964 3.117 10.12.896 4.452 3.571 13.494 7.57 17.96-1.836-5.074-3.7-11.047-4.454-16.466-.043.29.043.705-.256.746-.071-2.71-1.523-6.415-.883-8.544-1.21-.816-.925-2.931-1.465-3.802.526-.263 1.323.926 1.508-.138-1.152.58-.81-1.245-1.522-.208.512-1.493-1.594-4.949-.072-5.392-1.38-.871.498-2.945-1.067-2.419 1.452-.374-.782-1.549.157-2.171.44.816.711 1.88 1.65 2.005-.754-1.258.797-.014 1.124-1.189-.014.995-1.807 1.908-.711 2.931-.697-1.217 1.267-1.894.526-1.12-.426.346-.355 1.189-.469 1.839.37-.498 1.081-.581 1.224.235-.342.097-.285.594-.228 1.106-.498.193-.811-.456-.896.083-.157.981 1.394-.387 1.252.594-1.494.304.27.609.1 1.424-.869-.484-1.281 1.051-.527 1.134-.527-.83.953-1.148.882-.442-.47 1.603.612 1.977.598 4.258-.783-.194-1.409-.401-1.779.525.427.042.54.539.954.622-.185-1.451.426.014 1.18-.47.171 1.798 1.438 4.425.043 5.033.143.124.811-.235.897-.083 1.337 2.157 2.106 9.802 3.358 13.687.498 1.549 1.665 2.517 2.02 3.042-.184-.263.043 1.811.655.65 0 1.161.64 1.452.498 2.82.427-.235 1.58.263 1.48-.497l-.896.083c.982-2.116-.228-4.231-1.85-4.853h-.043Zm22.754 4.687c-.385.166-.64-.18-.854-.788v.069a.908.908 0 0 0-.029-.194c-.242-.719-.44-1.728-.726-2.668-.227.981-.327 1.949.015 2.945-.057.027-.086.069-.128.097.768 2.115 1.679 4.216 1.38 6.263-.498-.65 0-1.95-.726-3.042-.797 1.051.512 2.309-.156 3.539.882-.027 1.166.94 1.58 1.673-.47.526-1.168-.069-1.58-1.051v.194c0 .028.028.028.042.055 0 .139-.042.235-.07.346-.03.346-.043.705-.086 1.009.37-.124.711-.345.797-.511a7.056 7.056 0 0 0-.071 1.216c.056-.069.1-.11.199-.207a3.155 3.155 0 0 0-.157.553c.057.926.285 1.811.584 2.654.27-.207.555-.373.825-.442-.299-.885-.64-1.825-1.31-2.447.37-.429 1.424-.982 1.239.802.626-.318.597-.774.412-1.3a.853.853 0 0 1-.284.056c.028-.166.085-.291.128-.443-.17-.428-.37-.899-.384-1.382.199.29.37.622.512.954.157-.457.327-.899.555-1.314-.825-2.143-1.508-4.231-1.665-6.664l-.043.028Zm1.92 7.341c-.128.498-.199 1.051-.54 1.327.683 1.936.996 4.217 2.817 5.185-.626-2.461-1.494-4.521-2.276-6.512Zm-.256 6.319c-.299-.332-.498-.83-.683-1.369-.199.166-.64-.139-.91.207.056.152.114.291.17.443.385.082.399.331.257.594.1.235.213.456.313.691.384-.083.697-.235.84-.553l.013-.013Zm-1.75.663s-.028-.055-.057-.069a.527.527 0 0 1-.142.083c.071 0 .128 0 .2-.014Zm2.063 2.074s-.085.055-.142.069a.5.5 0 0 0 .071.152c.043-.083.043-.152.071-.235v.014Zm-4.084.802c-.042.221-.199.553-.142.995.527-.304 1.31 1.203 1.509-.096-.683.027-1.053-.346-1.281-.927-.029 0-.057 0-.085.014v.014Zm2.818-.346c0 .235-.142.277-.285.304.257.775.555.028.911-.055 0-.152 0-.29-.014-.428-.2.069-.399.124-.598.165l-.014.014Zm-5.962.346c-.513-.277-.413-1.079-.67-1.231-.084.664-.284 1.162-.54 1.549.47 1.12.925 2.184 1.38 3.124-.142-1.327-.156-2.543-.17-3.456v.014Z" fill="#111214"/></svg>