<svg width="147" height="557" fill="none" xmlns="http://www.w3.org/2000/svg"><path fill-rule="evenodd" clip-rule="evenodd" d="M77.227 540.065c-.132-.276-.176-.691-.074-1.327-.073-.041-.117-.041-.176-.069 0 .124-.014.249-.029.359-.03-.138-.059-.276-.088-.401-.763-.304-1.204.07-1.864.678-.103-1.88-1.66-1.784-1.087-3.457-.235-.082-.396-.069-.528-.027.572 4.424-.631 3.608-.47 1.576-.396.705-.954 2.53-1.688 1.244 1.38.581.484-2.558 1.718-1.493.044-.401.161-.829.337-1.272-.293.194-.41.581-.91.498.103-.553.176-1.037.25-1.466-.676.152-1.395.249-2.085.415-.47 1.231-1.13 2.046-1.879 1.272.353-.069.675-.18.587-.816a3.67 3.67 0 0 0-.763.47c-.235-1.41-2.128-.249-2.76.623-2.51-2.434-2.818 5.862-5.563 5.198.617-.249 1.688-2.959 1.424-1.936-.015.429-.5.858.073 1.079.235-.664.808-.996.47-2.198-1.027.622-4.697-3.056-5.064-.968.03-.152.822.193.646.29-1.336.774-2.173-.401-2.1 1.272-.792-.415-.249-.691-.69-1.009-.572.097-1.012.332-1.188.829.293 1.093.866.387 1.57.208.22.815-.323 2.502-.822 1.521.382-.18.602-.512.543-1.134-.88.415-1.13 1.23-1.468 1.216-.117-.663.294-.815.206-1.451-.969.387-.617.359-1.262-.249.484-1.037.146-1.037.499-1.839.161.442.455.691.983.622-.91-.746-1.292-1.327-.147-2.143-3.302-3.912-5.43-7.023-7.72-12.208-1.116-.18-3.04-1.161-3.715.346.734-.277.881 1.438.47 2.115.338-1.59-1.086-.802-1.732-1.051.382.498.308 1.604 1.13 1.466-.014-.498-.205-.774-.381-1.037.807-.18.851.664 1.027 1.341-.528.028-.778.346-.88.802.939-.691 1.365 1.217 1.57.207-.059-.567-.807-.207-.69-1.009 1.057-.29 1.498 2.267.485 2.475-.235-1.742-.147.691-1.233.11-.147-.691.367-.746.543-1.133-.426.055-.69-.111-.954-.263-.133.539.499 1.811-.177 1.811-.63-1.078.235-3.705-.778-2.087-.102-.885.411-1.148.5-1.839-.955.124-.999-.996-1.087-2.046-.734.069-.954-.526-1.879-.18.074.774-.161 2.903-.807 1.866.264-.511-1.439-1.673-2.32-1.935-1.159-.042.03 2.239-.748 2.585 1.028.36 2.32 9.125 3.655 11.876-.455.111-1.145-.013-1.218.47.602.623.88-.511 1.57.208-.176 1.659 1.263 2.392.558 3.539.954-1.106.764.927 1.057 1.701 1.16 2.958 3.846 6.733 4.639 8.185 0-.443.03-.858.572-.775-.587 1.701 1.6 1.646 2.378 2.655.294-1.369 1.16-1.175 1.762-1.604-.675-.843-1.498-.387-2.202-.152-.294-.774 1.35-1.272.176-1.811-.72.954-.455 1.88-.749 2.585-.968-.94.529-1.175.133-2.53-.602.166-.646-.415-.984-.622.734 1.742-1.541.871-.587.415.03.221.073.415.337.332-.293-.871-.484-2.945.705-3.305.206 1.286.675 2.019 1.439 2.738.014-1.092.866-1.369.425-2.918-.41 0-.836 1.535-1.218.471.822-1.48-.323-3.554-1.336-5.627.573-.097 1.013-.332 1.19-.83-.192 0-.368-.014-.338-.332-.5 1.493-.632-.622-1.527.498-.631-1.908-.103-1.272.103-2.89-.426.028-.676.235-.91.443-.206-1.549-.69-2.71-1.204-3.844.367-.097.88-.027.91-.442-.572-.263-.631-1.535-1.292-.595.088-1.825-.616-2.571-.895-3.871.235-.097.616-.069.602-.415 1.042-.027.94 1.728 1.57.208.675 1.285-.161 2.074.176 2.502.382-.498.544-1.147.925-.083-.954-.276-.499.844-.514 1.48 2.1.414 1.923 4.175 1.982 6 .015-.443.19-.747.573-.857.161 2.475 1.805 4.286 3.082 4.023-.763.359-.69 1.549-1.086 2.254.543-.083.969 0 1.262.235-.587-.623.265-1.687.778-2.226.896 1.037-.088 2.364-.719 2.944 1.541.125.851 1.508 1.703 1.991-.866 3.623 2.76 2.793 5.666 5.227-1.644.152-3.934.594-3.156-.429-1.218.221.44 1.203-.851 1.161-.367-.29-.147-.649-.44-1.756-1.924.111-1.997-1.506-2.364-2.654-.88-.249-.22 2.018-1.16 1.189.822-1.134-.543-.346-1.262-.235-.235-.622.807-1.562-.132-1.784.058.844-.455 1.106-.162 2.171 1.13-.207 2.378 1.452 2.011 1.963-.836-1.023-.161.429-.587.415-.117-.498-.704-.346-.983-.622-.03.857-1.028.76-.808 1.866.294.678 2.892.222 1.967 1.259-1.189-.747-2.187-.111-2.936-1.881-.543.692.5 1.065-.513 1.493-.793-1.908-1.41-1.714-2.657-2.267.279-.954-.44-2.738-1.747-2.71-.396-1.631 1.042.138.88-.802-.146-.816-.88-.746-1.262-.249-.058-1.009-.44-2.184-1.027-1.341l-.132-1.783c-.66.732-1.82-1.701-.72-1.369-1.145-.29-1.614-.747-.69-1.009-.088-.415-.513-.346-.954-.277.47-1.963-.998-1.991.397-3.263-.984.65-1.322.664-2.114.913.807-1.839-.543-.857-1.028-1.341-1.423-1.452.015-2.945-.587-3.899-.41.041-.235.65-.572.774-.074-1.327.381-1.203-.44-1.756.234-.11.616-.069.601-.414-1.82-.719-1.174-3.72-1.585-4.881-.044-.097-.587.429-.602.415-.573-1.991-.22-7.217-2.98-6.913-.602-1.659-1.453-3-2.76-3.692 1.439 7.964.999 9.513 3.186 14.075-.294.387-.573.774-.852 1.161 1.19-.179.133.291.382 1.051 1.086 1.051 2.29 3.844 1.688 6.305.485 0 1.072-.152.984.622-.558.401-1.116-.968-1.233.11.778.858 2.128.54 1.673 1.632-.426-.318-.969.774-2.172.207-.573-1.216 1.042-.318.85-1.161-.542.014-.953.166-1.217.47-.44-1.092.425-.912.513-1.493-.851.041-.587.65-1.233.11-.543-1.7-.572-3.069-1.203-3.843 1.1-.304.323-1.12-.411-1.397.572-.096 1.012-.331 1.189-.829-.47-.014-1.13.235-1.263-.249.646.042 1.336-1.521.822-1.507-.646 1.424-1.879.221-2.378 1.659.294-.829 2.98 5.53 1.718 6.263 1.423-.263 1.981 1.659 1.409 2.779.308-.027.352-.332.602-.415.161.83.47 1.438.763 2.088-.514.194-.822-.456-.925.083 1.13 1.023 1.644 2.793 1.233 4.203a105.23 105.23 0 0 0-2.906-5.834c.367-.083.72-.18.572-.775-1.291.18-.763-.11-.367-.691-.381-.221-2.334-3.263-1.16-3.125-.792-1.825-1.482-1.88-1.232-4.189-.852 1.162-.47-1.355-1.336-1.313 1.6-.705-1.57-1.59.132-2.53-.426.027-.675.235-.91.442-.044-.719-.103-1.424-.147-2.143.396-.829.793.373.896-.442-.133-.733-1.38.041-1.322-.954.676-.553 1.233.815 1.233-.125-.367-1.175-.587-.124-1.57-.207.19-1.936-1.63-5.516-1.468-7.411.044.595-.852.277-.88.802 1.012 3.166 1.467 7.577 2.7 11.614-.367.083-.88.014-.91.442.426.069.631.457 1.262.235-.132.65.514 2.06-.161 2.171-.279-1.051-.646.401-1.248.111-2.378-7.148-3.86-14.573-5.02-22.536 0 0-.617.069-.617.055-.308-2.959-.616-4.175-1.071-6.374-.94-4.479-1.483-9.346-2.246-14.171-.866-5.503-2.907-10.715-3.596-15.471 0-.028-.617.097-.617.055-.866-3.622-1.38-7.728-1.41-11.005-.22-.484-1.188.055-1.29-.595 1.13-.373-.206-1.064.498-1.838-3.01-3.913-.44-305.798-2.569-309.379-.147-.691.367-.746.543-1.133-.396.013-.455-.415-.954-.263-.102-1.507.353-2.53-.543-3.18 1.028.097 1.028-2.502.749-2.585-.323 0-.514 1.603-.896.442.309-.899.06-2.074-.25-3.581.808-.373.573-3 1.249-4.424-.411.041-.837.083-1.234.124-.029-.497-.205-.774-.381-1.05 1.042.152.44-.788.235-1.106.425-.056.69.11.954.276.484-1.382-.411-3.055-.984-.636.059-1.673-.572-2.115-.235-3.221-.425.027-.675.235-.91.442-.102-1.327 1.439-1.037 1.057-2.613-.91.83-.543-.332-.044-.719-.895.512-1.277.512-1.6-.567 1.204-.193 1.85.374 2.275 1.231.617-1.037.5-7.314-.528-7.494.572-6.539-.47-12.332.543-18.734.206.387 1.116 1.798 1.938.899-1.175-.47-.323-3.097-.66-4.963-.382 1.023-1.571-.139-.676-.65.323 1.659 1.306-1.175.5-1.839.616.055.572-.539.88-.802.337 3.111.293 6.415 1.659 10.273 1.056-1.259-.5-3.332.88-5.116-.044-.594-.88-.111-.983-.622 1.292-.401.763-2.586.969-4.051-.47-.83-1.13.498-1.263-.249.5-.622.558-1.673.411-2.917 1.219-.277.778 2.461.176 2.502.646.042.881.636 1.307.954.059-6.332 1.63-10.3 2.348-15.319-1.776.567.646-4.673-.69-5.323.588-.843 1.85-3.138.676-3.663 1.174-1.245.499-2.295 1.967-3.056-.837-.622.572-1.852.088-3.249.602-.166.646.429.983.622-.176-1.852.588-.967.103-2.89 2.76-2.557 3.582-12.166 6.606-12.484 1.438-4.355 3.581-8.019 6.062-11.35-1.16 2.1-.381 5.087-1.82 5.211.117.54 1.277 1.604 1.6.567-.367-.014-.88.152-.954-.262 2.084-1.977 4.154-4.867 5.9-9.18-.542-.097-.763.608-.924.082.558-.373 1.688-1.852 1.086-2.253-2.055.857-3.024 6-4.624 5.115 3.127-2.917 5.138-8.71 8.309-10.48-1.762 1.41-1.6 4.203-3.127 4.245.72.843.132.387.749 1.728 1.262-.221 1.614-3.055 2.98-2.074-1.718.65-1.19 2.364-2.54 3.83 2.804.54 4.169-4.037 3.01-6.042 1.849-.194 1.746-4.05 3.522-3.207-.602.746-1.57 1.12-1.38 2.64.602.622.881-.511 1.571.208.411-1.37 1.013-2.558 1.938-3.415-.514 1.963-1.556 3.415-2.642 4.811.249 1.963.322 6.484.146 7.024-.058-.54 0-1.37-.25-1.397v-5.502c-1.218 1.576-2.48 3.124-3.082 5.309-.543.069-.969 0-1.262-.25.969 1.107-.734 1.743-.734 2.946-.94.359-.66-.927-1.6-.567.66.733-.22 1.382.426 2.074-3.04 5.751-4.991 11.904-8.47 16.66.778 1.396-1.6 4.092-.866 5.474-.617.36-1.953-.124-.984-.635.323.912.323-1.19.851-1.162-1.233.125-.528-1.77-.029-.36-.807-1.534.72-1.866-.22-3.207 1.027-1.48 2.437-5.502.837-5.834-.03 4.12-3.758 7.355-3.788 12.581-.161.512-1.189.166-1.189.83.646 1.175 1.13.29 1.645 1.285-1.234-.138.073 1.259.132 1.784-.573.097-1.013.332-1.19.83.764.635.338-.125.91-.443.397 1.355-1.1 1.576-1.467 1.217.293-2.046-.382-1.825 1.086-2.254-.822-.58-1.13-1.852-2.32-1.935-.528 1.3.133-.042.368.677-1.659 4.272-3.156 9.512-2.804 13.204-1.79.345-1.292 3.968-2.54 3.83-.117.317.588 3.511-.41 2.916-.162 3.803-.118 8.337.029 12.72-.162.277-.03.844.044 1.355l-.044-1.355a.297.297 0 0 1 .235-.166c.572 2.945 1.071 5.503.528 7.494.587.027.66-.456 1.219-.47.601 1.811-1.35 1.12-1.395 2.295.47.152 1.57-.567 1.57.207-1.042 1.286-.322 3.927-.19 6.125.895-.346 1.453-1.023 1.732-1.963-2.07-3.401.514-4.203-.94-8.89-.425.456-.748.484-1.232.11-.412-.677.146-3.719.367-3.636.572 1.535-.03 2.6.22 3.222 1.468.193.924-3.139.088-3.249 1.189-1.424.484-1.646.337-3.982 1.894.097.367 2.71 1.175 3.484 1.027-.788.058-3.429 1.218-4.784.44 1.742-.866 4.245.66 4.977 0-.276.03-.622.06-1.009v-2.323s.073-.041.117-.055c.014-1.272-.103-2.42-.617-2.682-.015.429.132 1.01-.235 1.092-.102-.428-.367-.18-.616.055-.015-.898-.558-1.064-.749-1.728.852-.442.734-.594 1.19-.83-1.087-1.534-.603-5.35.117-7.203-.338.871 1.233-1.34.205-1.451 2.026-1.963 1.762-6.692 2.98-10.701 1.497-1.535 1.41-4.604 2.334-6.692.073.567.044 1.244.69 1.01-.5-1.784 1.306-3.982 1.438-6.25.514-.193.822.456.925-.083.103-2.53 1.35-5.24 3.215-7.493.338.636-.852 1.285.103 1.424.66-.346.279-1.715 1.115-1.908-.778 2.295-.572 3.512-2.143 4.88.94.54-.954 1.88.176 2.503.206-.014.411-.042.617-.056-1.233-2.585 1.761-3.041 1.218-4.783 1.218-1.12 2.231-4.37 2.055-6.305 1.219.277 1.043-5.102 3.053-5.323-.117.498-.454.788-.645 1.203 0 .318-.015.65-.03.954 1.512-.913 1.659-4.203 3.024-4.175-.337-1.023.896-3.014 2.246-3.443-.161.899-.308 4.23-1.967 3.055.059.706.88.374.72 1.37-1.263 1.423-1.806 3.553-2.408 5.626.22-.76-1.116-1.258-.983-.622.16.72-.133 1.576-.588 2.544.132 3.553.353 6.623-.264 11.406-.572-3.857.103-6.235-.25-10.397-.513.968-1.1 2.033-1.54 3.166.454.097.557.374.924-.082.294.636 0 .69-.308.718.073.263.19.374.352.36 0-.041.015-.055.044 0h.059c0 .484 0 .885-.03 1.272.044.373.089.65.103.511-.059.526-.205 1.106-.382 1.715a14.98 14.98 0 0 0-.19 2.046c.293.11.704-.11.748.691-.44 1.148-.308 3.111-.264 5.323.5-3.58 1.072-7.341 1.63-9.927.484-2.17 1.467-4.313 1.188-5.323.162.111.353.153.617.125-.103-2.378.617-1.88.646-4.023 1.027.442.998 1.576 1.541-.139.059 2.876-.602 1.673-.88 5.116-1.747-.567-.338 2.696-1.468 1.217-.558 6.138-3.611 13.258-2.07 19.245-.294.373-.573.76-.852 1.161.5-.055.617.11.602.387.118-.082.206.042.264.706-.455.235.03 2.364.06 3.968.19-.18.425-.194.674.18-.41.47-.601 1.423-.176 1.81-.66.318-.895-.22-.88-.83-.191-1.243-.177-3.677-.646-2.944.147.055.293.11.352.29-.954 1.203-.396 2.683.117 4.093v-.332c.749-.622.632 3.913.367 5.212.06.526.06 1.023-.073 1.41-.088-.4-.382-.525-.66-.65-.382.761-.779 2.586.073 1.065-.852 2.212-.543 4.328-.807 6.485.058.387.16.746.367 1.036a1.991 1.991 0 0 0-.294.305c.646.608.94 2.544.631 3.567.074.276.176.414.396.29.705-3.235-.44-7.646.5-9.692.117 21.14.499 36.652.778 53.52.102.746.205 1.479.322 2.184 0 .028.088.028.206.055.367-5.226.572-10.286.426-14.862 0 1.7-.382 5.793-.734 4.161.279-1.313.117-3.166.499-5.544.807-.401 1.248.207 1.482 1.383-.734-3.982-.25-1.936.5-4.162-.676-2.53.455-8.309-.5-11.088-.513 3.678-.381 5.834-.748 9.014.044-2.917-.382 0-.734 0 0-3.028-.22-5.406-.5-7.632 1.072-.912.309 3.305 1.234 2.766.044-3.153.205-2.71 0-5.545 1.145.291.381-2.613 1.732-2.765.94 2.558.308 6.706-.25 9.015.455-1.369 1.19-.401.984 2.074-1.101 1.189-.382 3.193-.984 5.544h.984c0 4.41-.44 10.839.983 7.618v2.779c-1.453 3.373.206 16.231-2.216 20.794.616-.125.778 1.064.983 2.073-1.365 1.646-.499 11.586 0 14.559.03-2.876.162-.138.5 0 .205-.802.322-1.867.249-3.47-.426-.277-.631 1.037-.749 0 1.395-3.802.793-9.872-.25-13.162.837-.526.309 2.806 1.234 2.073.176-2.378-.044-9.111.734-11.779.63 2.35-.558 6.498.25 9.014 1.555-3.594-.559-7.576.498-11.779-1.38-6.775-.293-17.379-.983-22.191 1.057-2.156-.396-4.742 0-6.249.059.844.279.429.499 0 .293 3.899.837 6.968.499 11.78.323.041.338.885.749.691.396-2.281-.866-4.908.25-4.853-.221 3.194 1.041 9.236 0 13.867-.426-.884 0-4.147-.75-4.161-.44 7.562.646 18.983.25 29.117 2.334 2.793-.337-15.139.984-19.412.822 7.093-.602 16.785.983 22.177-.426 8.627-.44 19.48.749 25.66.367-5.986 1.409-10.023.499-14.558 1.38-3.387.308-6.816.734-10.397.073 4.894 1.1-.111 1.233-1.383.117 4.107-.28 8.241.499 9.015.763-6.208 1.585-10.674 1.233-18.72-.69-.318.19 3.774-.5 3.47.676-6.802-.249-13.369.75-20.808.719 2.6.352-5.696.998-4.77 0-.221 0-.387.014-.497.044.276.074.511.103.746.03.097.073.208.117.346-.029.055-.029.111-.044.18.22 2.226-.058 3.387.75 4.811a2.89 2.89 0 0 1 .249-.47c.396-3.484-.822-6.788-.206-9.664.147.193.235.373.294.567.161-1.825-.925-2.461-.294-3.042.103 1.175.323-.152.734 0-.337 1.894.19 2.502-.367 3.304.206.927-.235 1.659.426 1.618-.411 1.479-.573 3.18.587 3.899 0-.194.22-.429.308-.028-1.086.747-1.086 1.701-.895 2.724.572-.443 1.16-.636 1.424-1.797.088-2.489.058-4.508.235-6.471-.044-.926-.22-1.88-.72-2.724.25.913-.03 1.3-.851 1.162.367-1.798.337-1.507 1.042-2.973-.367.097-.66.705-.94.097.441-.249.72-.636.852-1.161-.235-4.107.352-2.143.631.249.074-1.535.28-3.236.5-3.429.616 1.866.47 7.687-.25 9.692-.044 3.304.22 5.848.25 9.014.014 1.714-.265 4.3-.162 6.595.338.055.734-.249.866-.747-.073 1.051-.147 1.466-.822 1.3.103 1.286.337 2.447.866 3.249-.03-12.941 1.395-26.753 1.732-41.588-.352.774-.602.747-.734-.705.837-2.406.132-5.198.984-6.927-.03 1.245.25 1.618.734 1.383-.25 3.982-.867 5.558-.734 11.779.352-.774.602-.76.734.692-.191 11.987-.837 27.886-.25 36.748.778-6.29.426-15.706.984-20.807 0 1.203.19 1.783.499 2.074.543-2.959-.676-9.443.748-11.78 0 .111 0 .221.03.332 0-.622.029-1.203.044-1.728 1.027.995.557 1.424 1.365 2.571 0-.276.103-.387.235-.47.058-.401.117-.816.161-1.244-.25-.968-.367-1.037-.543-2.35-.015.027-.03.082-.044.11v-.428s0-.014.015-.028c.102-3.069-.088-6.457.484-8.544.044-.153.074-.235.103-.318.147-.429.117 0 0 0-.088 0-.206-.208-.352-1.065a16.404 16.404 0 0 1-.147-1.507c-.088 0-.176 0-.28.028.955.898-.337 3.94-.087 5.295-1.175-2.544.616-5.987-.969-7.881.03 1.701.25 5.835-1.057 4.466 1.116.083-.176-1.604.514-2.668-.308.013-.352.373-.602.47.059-2.226-.338-5.116.617-7.079-.074-.512-.514-.456-.955-.387.03-2.06.118-1.466.162-3.526 1.042.111 1.32-.76 1.644-1.562a.408.408 0 0 0-.147-.318c-.161 0-.337 0-.44-.028-.558.235-1.439.166-1.277 1.106.367-.083.66-.705.924-.083-.543-.055-1.468 1.148-1.85.18 1.278-.166.045-.235-.043-.719 1.468.373-.455-2.143.543-1.134.455.388.895.291 1.336.18 0-.207.088-.47.22-.76-.044-.056-.059-.139-.059-.277a.712.712 0 0 0 .25-.138c.088-.18.19-.373.293-.567a2.44 2.44 0 0 0-.029-.788c.132 0 .264-.028.396-.041.059-.153.132-.318.162-.47.367-1.41.514-2.931.66-4.3-.132-.609-.587-.747-1.291-.581-.103-1.078 1.688-.263.205-1.452.367-.083.88-.027.91-.442l-.925.083c.133-.857.294-1.7 1.116-1.908.5 1.258-.484 2.53.132 3.11.103-.801.22-1.52.426-2.073.264-.705-.03-2.06-.147-3.512.323-.332.675-1.147.969-2.157-.147-1.037-.147-3.415-.088-4.673-.382 1.106-.998 2.378-.69 4.162-.323-.11-.558-.056-.749.083.103 2.267.646 4.7-.822 4.424.235-.097.617-.07.602-.415-1.644.125-.382-.166-.059-.719-.264-1.092-.161-.733-.572-.816-.103.512-.206.83-.426.637.03-.263.074-.498.118-.747a.448.448 0 0 1-.118-.055c.059-.028.088-.056.132-.083.03-.277.088-.54.118-.83-.235-.249-.587-.525-.69-.857.264-.125.587-.208.866-.318.088-.54.147-1.092.235-1.618-.5-.235-1.175-.22-.66-.622a3.6 3.6 0 0 1 .704.332c.059-.346.132-.664.205-1.01-.19-.303-.161-.718-.646-.068.5-1.134.176-1.023.47-2.199-1.13.11-1.41-3.484.94-4.396-.617-.927-1.777 1.327-2.481.235.161-.83 2.158.124 1.776-1.245-.176.125-1.13.996-1.233.125.132-.221.132-.705.264-.885 0-.567.132-.982.294-1.341-.03 0-.059 0-.088.014.161-.774.425-1.424.69-2.088-.162-.415-.06-.926.132-1.466-.25-.096-.5-.262-.778-.718-.118.414-.206.857-.118 1.313-.014-.622-.205-.968-.484-1.161-.074.041-.147.069-.22.11-.206 1.507.763 1.175.763 2.364-.69.43-.572-.428-.763-.774 0 .097.029.194 0 .318a1.587 1.587 0 0 0-.411-.4c-.044.013-.074.013-.118.04v-.082c-.792-.332-1.336 1.12-1.952.663.264-.857 1.13-1.106 1.424-1.935-.367.097-.66.705-.925.097.396-2.835.587-4.162-.734-6.042-1.615 2.668.088 10.687-1.585 8.42-.162 1.479-.264 1.659.778 2.073-2.202.927-.294 3.167-.91 4.757.47.013 1.13-.236 1.262.248-.88.028.411 2.171-.47 2.199.426-.927-1.13-.954-.954-.277.734-.304.822 1.424-.264.747-1.204 2.364.161 3.802-.529 5.807.412 0 1.072-1.314 1.219-.47-.426.58-1.263.76-1.453 1.576.866 1.479.044 2.184-.03 3.954.426-.056.69.11.954.276.015-.428-.132-1.009.235-1.106.118.54.514 0 .587-.414-1.174-.111.191-1.743-1.086-2.06.587-.844 1.028.22 1.527-.498-.132 3.29.264 5.157-.382 7.936-.088-.277-.294-.387-.646-.29.074-1.287-.396-1.812-1.086-2.06-.426.234-.72.621-.851 1.16.763.457.748.83 1.247-.11-.69 2.254-1.174 5.226-.323 8.655-.851.442-.734.594-1.189.83.573.276.66 1.202 1.057 1.7-1.277.567-.91-1.106-1.644-1.286-.675 0-.969.387-.851 1.162.616.041.572-.54.88-.802-.543.871.764 2.253-.087 3.249-.602-1.245-1.483-1.507-1.439-2.738-1.35.54-1.19 5.116.073 5.379.617-.719-.558-3.194.705-3.305-.235 2.074.264 3.36-.19 6.125.586.622.924-.581 1.29.594-.528.747-1.232.36-1.57-.207-.044 1.231.235 2.032 1.365 1.673.06.83.118 1.673.176 2.502-.719.18-1.232.816-1.864.18.573-1.687.059-2.959-.63-4.618.322 3.166-.089 6.18.924 9.872.161-.069.25.111.279.401.22-.125.308-.429.455 0-.367.111-.162.415.059.719-.235.083-.382.193-.485.332-.03 1.037-.117 2.226.235 2.17.338-.055.147-4.977.5-2.765-.192 1.576-.25 3.374-.294 5.143 0 .719.044 1.12.513 1.908-.205 0-.367.678-.558.816 0 .47-.014.94-.029 1.396 1.086-.11.602 1.494.279 2.13-.279-.968-.19-.968-.294-1.494-.088 2.171-.279 3.927-.836 4.66.381-1.812.308-8.005-.5-6.236.147-2.253.28-3.332.382-5.157-1.174-.069.558 1.383-.44 1.922-.03-.221-.074-.415-.338-.332-.102 0-.19 0-.25-.055-.058 3.857-.102 7.549-.586 10.535-.676-1.548-1.087-1.783-1.733-2.074.822-1.369.03-3.276.485-4.161.059.774.279 1.078.499 1.382-.074-2.64.294-5.35.734-2.765-.646-3.94-.03-7.397.587-10.106-.19-8.517-1.057-19.011.059-26.532-.411-4.203-.822-12.222.748-15.886-1.32.636-.983-3.07-.279-3.926-1.394.885.103-1.742.133-2.53-.426.055-.69-.111-.955-.263-.337-1.217.367-1.424.133-2.53 1.13-.622.66.926 1.6.567-.485-1.065 0-1.023-.176-2.503-.426.608-1.248.387-1.571-.207 1.262.456 0-1.549.822-1.521.396.788 1.115-.885 1.468-1.217-.66-.608-.573-1.244-1.6-.566-.059-1.41-.353-1.95.088-3.25.646.72.514 2.185.793 2.434.029-.747 1.365-.208 1.16-1.19-.706.167-1.175.028-1.293-.594 1.057-.276.91-1.216.47-2.198.852-.055.587-.65 1.233-.124.279-1.687 1.63-2.392.338-3.982.367-.083.88-.014.91-.443-1.424.498-.132-2.682-1.13-2.765-.367.097-.881.028-.91.443 1.115.539-.632 2.986.88 3.511.088 1.19-.925 1.314-.748 2.586-1.322-.54-.456.857-1.762 1.604.323 0 .279.442-.279.387-.264-1.452-.22-4.425-.822-7.12 1.718-1.217.675-2.697 1.556-4.466-1.072-.968-.147-2.489-.866-3.512 1.248-.097.073-2.585.705-3.29-.397 0-.455-.415-.954-.277.234-2.157 1.071-3.858-.074-5.378.749-.263.338-1.341 1.086-2.254-.924-2.986-.264-5.986.764-6.899-.426.028-.676.235-.91.442.792-6.691-.353-10.922 1.247-17.724-.983-1.3-.646-3.07 0-4.314-.103.194.573.747.66.664-.146.138.206-2.544 1.16-1.19-.102 1.923.676 3.084.867 3.513.528-.871.044-1.701.41-2.904.162.429.456.691.984.622-.147-1.244.617-1.603 1.086-2.253.705 1.064.235 1.645 1.468 3.097-.631-1.729.998-1.245.764-2.586-.353 0-.455.567-.617.056.19-.042.367-.097.279-.388.352 0 .44-.566.616-.055-.146.76-.161 3.305.646 4.618.573-1.217-.47-3.996.602-4.728.426.912-.44 2.156.162 2.143.88-.844 2.23.262 2.715-1.328-.381 0-.748-.041-.675-.65.983.07.749-1.036 1.483-1.216 2.48 2.71 2.172 8.682 2.025 15.36.764-1.811 1.439-3.76 1.512-6.47.118-.07.176-.18.265-.263-.06-.691 0-1.23.44-1.465-.426-1.093.426-.913.514-1.494-1.718.47-1.38-4.01.058-3.594.118 1.009-.88.926-.807 1.88.396-.401.895-.677 1.16-1.189-.088-.664-.294-1.175-.72-1.369.118.429-.807 1.314-.91.443 1.512-1.19 2.745-2.627 4.756-3.332.646.041.675.912 1.321.954-.264 1.396.132 3.484.44 5.378.91-.11 1.806-.58 2.57-1.327-.25-.083-.617.027-.646-.401.514-.858.925.47 1.526-.526-.132 1.051-.381 2.074.72 2.157.396-.733.557-1.756 1.145-2.267-.03 1.977 2.128 1.23 1.247-.07 1.13-.525.676 1.452 1.321 1.687 1.498-.525.074-2.322 1.747-2.751.44 1.396-.998.387-.543 1.797.94-1.12.617.65.969.83.47-1.576.675 1.064 1.277.802 1.306-.18 1.556-.567 2.48-.139-.014-.442-.278-.511-.337-.857 1.174.152 2.76.871 1.806-1.424 1.071.83 1.776 1.327 1.35 2.558.778.207 1.248.387 1.938 1.659-.529 0-.793.387-.896.926.426.111.617.595 1.263.374-1.042-.802 1.145-2.71-.382-1.742.426-1.535 1.38-2.392 2.349-3.222.41 2.71 2.01 1.065 3.493 1.563.103 1.645.397 1.23.118 2.64.308-.014.352-.387.602-.484-.323 1.798-.573 1.12.117 2.641-.572 1.507-1.1-.995-1.248.07.147.552.44.87.97.829-.133 1.48-.382 2.834-1.087 3.58 1.292-.013.073.29.044.885.352 1.507 1.233-.484 1.028 2.143-.602.166-.646-.566-.97-.83.705 1.563-.043 1.992-.484 3.112.778-.097.94-.899 1.263.373-.367.097-.881-.028-.91.498.367.055.88-.125.954.387-.397.456-.91.774-1.19 1.396.91.996-.38 2.682.485 3.94-.396.996-.778-.511-.91.498.617.802.073 1.106.088 2.199.367-.083.66-.816.925-.056-.72-.097-.294 1.286-.88 1.369-.162-.512-.368-.982-.676-1.286.088.608.132 1.23.176 1.88.631-.553 1.218-1.133 1.879-1.659.94-.442.66 1.37 1.6.927-.073-.968-1.042-.29-.998-1.48 1.438.775 1.659.733 3.141.83-.602-3.899-.939.926-2.231-1.396.47-1.093 3.361-.83 1.761-2.157.602.456.969-1.59 1.248-.07-.543.637.852.581-.235 1.55.573-.14.705.538 1.263.441-1.116-1.479 1.247-2.142 1.82-1.133.822-1.12-.132-1.908.822-2.6.073.595 0 1.452.382 1.508a52.526 52.526 0 0 0-.074-1.535c.47.249 1.586-.691 1.571.415-.455.11-1.16-.11-1.219.58 1.454-.995 1.057 1.355 1.645 1.95.778.027.733-1.148 1.012-1.853-.396.401-1.585.401-.792-.207.631-.318 1.262-.263 1.849-.373.03-.636.103-1.12.264-1.3.089.318.133.733.162 1.161.191-.083.367-.221.543-.4.059-.94.132-1.812.264-2.517.235 2.668.397-1.88.72-1.728-.044 1.327-.191 2.309-.25 3.594.617.54 1.233 1.079 1.762 1.756-1.204-2.322 2.818-.47 1.467-2.129 1.219-.4 1.307 1.272 2.525.871-.088-1.604 1.16-.276 1.468-2.129.338.926-.851 1.756.088 2.046.837.11-.425-2.834.837-2.101.338.235-.103 2.516.969.967.455 1.632-.984.443-.529 2.074.822-.055 1.659-.096 2.481-.152-.969-1.714 1.952-.124.22-2.06.94-.636.793.76 1.292.954-.147-1.839 1.659-3.124 3.303-2.751-.793.097-1.586.194-1.483 1.617 1.204 0 2.613-2.156 3.039-1.714-.191.042-.367.097-.294.526.308-.014.352-.43.602-.553.029 1.3.059 2.626-.822 2.599-.161-.871.396-1.328-.073-1.535-.044.733-.47.885-.558 1.562 1.585 0-.705 4.079-1.13 2.613.234-.124.616-.041.601-.539-.601.18-.646-.65-.968-.968.645 3.084-4.683 7.383-5.021 5.918-.058.4-.235.608-.602.553-.029 3.456-3.361 3.11-4.389 6.387 1.322 4.687-1.746 8.047-.704 12.195v-.18s.073.055.117.069c.059-1.078.132-2.157.25-3.221.44 2.06.616 3.221.734 4.064.176.36.411.788.836.816.133-2.585.911-1.424 1.395-3.664-.073 2.046.396 2.212 1.688 2.973l-.088-2.046c1.086.345 1.292-.65 1.82-1.12.852 4.313 2.863.719 3.479 1.327-.029-.512-.044-1.023-.073-1.52 1.482.912.411-.512.88-1.08.382 1.55 1.043-.29 1.219-.58.925.691 1.233 2.516 2.304 2.931-.249-1.797 1.043-1.313.793-3.11.617-.042 1.233-.07 1.864-.111-.102-.304-.866-1.922-.088-2.033.059 2.392 1.248-.331 1.6.927-.029-1.3-.058-2.627.822-2.6.426 1.577-.425 1.259-.528 2.074.719-.207 1.248-1.078 1.864-.11-.103-.72-.543-.83-.69-1.493 2.437-.235 1.101 6.442 2.54 8.032.088-1.189 1.306-1.451.513-2.585.764-.125.999.746 1.6.926-.557-1.438.147-1.894.177-3.083.748 1.314-.353 2.627.469 3.553 1.028-1.023.573-4.23 1.644-5.198.441 2.336.822.719 1.556-.097.485 1.424 2.085 5.06.896 6.083-.793-.636.249-1.921-.397-2.018-.601.857-.719 2.806.734 2.516.896 3.18-.572 8.033.455 10.19-.366 1.272-1.174-.484-1.218.58.47.415 1.013.705 1.028 1.991-1.101 1.203-.411.664-.529 2.074.191-.843-1.497-.733-1.233.07.235.096.382.4.352.995.47.055 1.145-.25 1.263.428-.925.401.337 1.079.088 2.033-1.189.885-.206-2.185-1.028-1.978-1.849 2.31 2.672 4.466.632 7.12 0-1.12-.323-1.603-.999-1.479.206.9 1.806 3.913 1.072 3-.587-.013-.294-1.672-.998-1.465-.074 1.604.528 1.963.763 3.028-.367.097-.895-.041-.91.567 1.908-.498-1.027 8.06.984 8.115-.441.47-1.189.47-.837 2.088 1.438-2.848.426 5.06.983 8.116-1.629-1.507-1.027-5.323-2.686-4.438.631-.346 1.013-1.037 1.145-2.116-.749.332-.572 2.005-1.791 1.632-.014-.885-.147-1.576-.396-2.019.969-.69.308 1.632 1.292.94-.955-2.765 1.203-.511 1.482-1.617-.176-.595-.381-1.148-.69-1.493-.792-.622-1.218 1.576-1.556.096 1.189-.829.03-.801-.381-1.506 1.174-1.272.998.898 2.216.884-.235-1.05-.734-1.603-1.042-2.488 1.688-.29.059-2.669 1.394-3.664-.587-.083-.66.608-1.218.58-.249-1.63-.015-2.571.485-3.096-1.351-.208-1.777 3.11-1.38 3.65-2.055-.097.572-7.632-1.953-8.558.015 1.921.529 4.59-.396 5.129.675-.125.998.36.998 1.48-.646 1.575-1.306.373-2.481.151-.176 2.71-.249 4.314-.352 6.153 1.145 0 .94.885.382 1.507.367.055.881-.139.954.456-.573 1.23.749 4.825.161 3.567-.19-1.134-.631-1.784-1.335-1.963.939 13.065.513 33.071 1.79 46.91-2.51.36-1.541-4.783-2.113-5.488-.69 4.424-.279 9.664.323 14.295-.367.097-.881-.041-.91.567 1.306-.152.763.221.352 1.01.602.165.337 1.963 1.306 1.451-.132-1.147 0-1.922.529-2.074-.176 3.028.675.733 1.042 2.489-.382.235-.602.691-.558 1.562.308-.013.352-.428.602-.553-.94 1.245.895 3.54-1.042 4.66 1.174-.954-2.378-5.821.176-3.07-.206-.733.249-2.654-.426-2.53-.499 1.825-1.967-2.419-2.143.636.499-.968.969.069 1.292.954-2.231-1.355-.719 8.641-2.217 6.263-.205 1.203.998 298.829.235 299.23-.235-1.465-.455.802-.91.567.044-2.723-.22-303.71.088-305.894-.749-.525-.822.166-1.6-.926.617.898.294 2.848-.147 3.594-.073-2.751-.499-6.097-1.497-5.53.646-2.461.44-3.636.661-6.18-.309.014-.617.041-.925.055-.191 5.627.249 11.13.969 14.766-.543.221-1.16 177.785-.852 260.187.044-.014.103-.028.162.013-.235 1.604.719 2.89 0 3.457a5.282 5.282 0 0 0-.147-.18c.088 23.255.264 38.118.543 37.813.059.498-.029.83-.176 1.065.059 2.295.059 4.756 0 7.162 1.072.235.616 4.341-.147 4.562-.044.982-.088 1.922-.147 2.779.25-.788.602-1.535 1.043-2.295-.147 2.585.044 2.848.249 5.599-1.732-1.023-.382 4.19-1.585 6.236-.191-1.922-.294-3.512-.294-4.894-.528-.54-1.13.041-1.673.912a5.05 5.05 0 0 0 .939 2.005c-.675.733-1.233-1.245-1.247.069.19.525.499 2.281 1.086 3.512-1.468.497-1.38-1.881-1.997-2.945 1.057-1.245.206-3.512.177-5.088-.353.747-.764 1.3-.72 3.456-1.189.54-1.6-1.728-2.158-3.456 0 1.272-.66 4.341-.954 1.728.059-1.051.91-3.456.485-3.47-.309.359-.499 1.12-.485 2.599a8.47 8.47 0 0 0-.499-1.106c-.381.111-.587.484-.69 1.037 1.483.055 2.129 6.249 1.248 7.079.191-.857-.719-2.185-.675-.982.866 1.079-.338 4.051.587 6.097-1.894-3.346-.675-9.222-1.585-14.517a2.325 2.325 0 0 0-.734-.29c.117 1.009 0 2.143-.088 2.682-.265-1.175-.279-1.977-.441-2.765-1.027-.138-2.084-.29-3.126-3.291-2.085.761-1.718 9.139-1.439 19.052-.352 1.922-.587-1.092-.719.857-.118 3.72.646 1.107.719 2.6-.147.055-.279.124-.249.857-.235 2.627-.397 1.106-.72 0 .323 2.571.22 4.272-.484 5.185.044-1.881-.191-2.752-.719-2.6-.177 3.18-.778-.152-.955 3.457-.044-1.023.044-2.461-.234-2.599-.089 1.23-.294 1.465 0 2.599-.72.235-1.189-.277-1.659-.194-.059.346-.206.567-.69.664v.014c.734-.097.763.912.925 1.714-.235.111-.602.042-.602.47.484.069.073.719-.279.885.029-.857-.162-1.645-.382-2.378-.058.166-.132.346-.191.539 0-.622-.058-1.147-.132-1.59a8.181 8.181 0 0 1-.279-1.106c-.66-1.783-1.981-1.839-2.759-3.774.205 1.977.367 3.954.44 5.848-.881-.249-1.042.871-1.086 2.171.308-.802.881-2.42 1.218-.332-.073 1.631-.88 1.866-1.292 2.834-.205 1.811 1.41 1.189.661 2.323-.778-1.645-2.627 2.516-1.541 2.903a1.282 1.282 0 0 1-.69 0c.103.401.235.844.499 1.258-.162.277-.352.318-.499.291.059.414.103.815.161 1.23 1.043.387-.191.94 1.116 1.95-.47-.277-.631.359-.749.843l.044.387c.338-.415.808-.539 1.072.069-.543.139-.558.913-.925 1.258.308 3.001.411 5.932-.103 8.849-.924-1.839-.176-5.821-.367-8.71h-.102c-.044-.222-.015-.443.029-.664-.132-1.023-.426-1.839-1.028-2.295.103-.595.309-1.507.353-2.503-.998-.4.337 1.148-.793 1.148.103-1.313-.352-2.129-.308-2.765-.25.332-.573.387-.969.636.499 1.59.323 4.037-.059 5.627.279-1.535-1.835-2.945-.734-2.516.676-.719.69-2.13.514-3.899-.073-.069-.147-.221-.235-.443-.469.415-2.642-4.037-3.479-7.466.044.581.059 1.065-.073 1.259-.088-.305-.162-.623-.25-.954-.367 1.935.852 6.885-.455 7.051-.03-.318-.058-.595-.103-.844.147 2.282.147 4.411-.249 6.056-.162-.235-.264-.65-.323-1.134-.03.069-.044.139-.088.208-.279-.996-1.38-3.125-.5-4.369-.058.816.265 1.659.5 2.419 0-1.617.073-3.525-.088-5.005-.19-.235-.411-.442-.617-.649.088 1.576.074 2.958-.234 3.802-.074-2.033-.837-1.729-1.439-1.95 0 .373-.03.747 0 1.092v-.027c.059.498.117.954.162 1.369.073.276.176.566.308.829-.074.042-.132.069-.191.111.294 2.226.572 3.097 1.908 5.06.118 1.272.015 2.24-.514 2.668-.044-2.71-1.702-4.936-2.04-7.244-.323.442-.264 1.078.044 2.516-.5.981-.94-.553-1.527.594-.396-1.285 1.263-1.866.191-2.571-.088.705-.734 2.461-1.057 4.148.103-2.904-1.233-4.563-.323-7.135.118 1.798.984-1.147.954.457-.337.138-.454.594-.572 1.05.352-1.271 1.174.484 1.218-.58-.763-.94-.455-1.618-.088-2.24-.337-.415-.675-.318-.836.995-.426-2.986-1.395.291-1.938-2.599.03.927.25 2.24-.073 2.503a93.127 93.127 0 0 0-1.043-3.277c.338 2.419.632 2.115 1.087 4.452-.206 0-.411.028-.617.041-.19 0-.367-.041-.338-.428.94-.498-.91-.36-.675-1.286 1.365.484-.587-2.461.44-3.083-.557-1.618-1.13-3.249-1.702-4.894.235.967.205 1.894-.529 2.792.103 1.922 1.087 3.263-.19 2.655.748-.097.029-1.41-.338-1.3.22.166.338.415.044.526-.059-.153-.132-.222-.206-.263-.557 1.23.705 2.724 1.454 1.41.161 1.811-1.175.664-1.19 1.397-.058.345.03.857-.263.898-.103-.497-.22-1.051-.353-1.645a3.382 3.382 0 0 0-.41.567c.498 1.147 1.07 2.129 1.76 2.765.133 1.687-.249.166-.91.498-.293 1.59 1.072 2.972.456 3.498-1.336-.996-.367-3.65-2.188-4.203.074 1.783-.704 1.949-.029 3.871-.41.083-1.659.829-.925.083.514-.249.47-2.655.705-4.784-.162-1.535-.367-2.779-1.204-7.106a2.785 2.785 0 0 1-.352-.346c-.162.152-.308.359-.308.456.602 1.742-.353 1.148.146 2.143-.308.042-.396-.249-.645-.29v.055c.19 1.756.381 3.498.601 5.171-.968-1.189-1.438-4.258-1.776-7.908-.205 1.714-.381 3.249-.837 3.594 0 .346-.087.65-.41.844.866-.111.836 1.203 1.32 1.686-1.497.083.881.733-.234 1.77.895.36 1.79 2.89.778 3.484.792-.484.807.235 1.042.622.03-.705.161-1.285.543-1.562 0 1.355.03 2.185.367 3.111.103 0 .206.041.323.097-.073.069-.117.152-.161.221.088.193.161.387.279.608-.074.028-.103.097-.147.152.102.221.25.526.41.539.06-.345-.029-.871.28-.898-.147.65.455 2.253-.22 2.212.264-.747-.28-.996-.735-.926-.029.179-.073.345-.146.47.234.096.616-.014.645.47-.205 0-.41.027-.616.041a13.157 13.157 0 0 1-.25-.815c-.044.041-.102.082-.132.138.088.594.485 1.244.5 1.783.454 1.48 1.012 3.097 2.099 1.839-1.057.083-1.219-1.23-1.644-2.115.704-.609.572.027 1.526-.526.631 2.931 2.745 6.015 2.26 9.125-.63-2.585-1.232-3.18-1.776-5.184.045 1.825-1.188-1.618-1.555.097.983.013.499 2.336 1.644 2.101.293 1.341-.822.899-.529 2.24.5.829 1.277-.844 1.585.788-1.1.995 1.278 2.945.456 3.498-.529-1.175-1.82.124-1.82.981.939-.387.645 1.176 1.585.788 0-.608-.191-.954-.367-1.299 2.172.415-1.013 3.152.836 4.797-.146-1.009.867-.539.867-1.368.058-.871-.456-.844-.676-1.286.896-.138 1.586.027 1.908.774-.807.346-1.086 1.383-1.453 2.281 1.19-.345.558 1.659 1.909.775-.22 1.036 1.174 1.838.41 2.184-.792-.788-1.306.152-2.803.166-.47-.982.734-1.701-.073-1.756-.294.47-.573.926-.881 1.369-.749-1.189-2.79-.318-3.2-2.019.748-.608 1.35 1.217 1.556-.083-1.175-1.534-2.716-.871-3.743-.221-.06-.76 0-1.369.234-1.783.91-.166 1.233 1.7 1.556-.083-.734-1.355-1.526-.332-2.818-.277-.103-.816.308-.995.235-1.77-.734-.414-1.88-.165-2.525-.732.073.511.602.967.059 1.327-.074-.857-1.175.829-1.277-.802 1.042-.069.396-1.535.352-2.281-.837-.401-2.818-1.092-1.908 0a1.046 1.046 0 0 1-.411 0c.161 1.106.352 2.82.396 4.203.147.262.294.553.455.788.72-.166 2.407 2.157 3.552 2.876-.719.152-.102 1.935.088 2.198-1.335-.263-2.099-1.41-3.2-2.032.544 0 .778-.374.896-.927-.484.125-.925.166-1.233 0 .425 1.811-.074 3.056.954 5.683.426 4.493-.323 4.534-.308.013-.808-.11-1.057-4.424-.97-6.041l-.043.179Zm-41.322-1.493c.793-.332 1.336-.899 1.087-2.254-.617.498-.778 1.452-1.087 2.254Zm-7.78-4.3c-.014-.249-.029-.47-.044-.719-.484-.843-.895.733-1.262-.235-.91.318.352.733.103 1.424.558 0 .63-.497 1.218-.47h-.015Zm-3.185-.774c-.352.097-.147.373.03.36-.177.387-.69.442-.544 1.133.822-.415 1.219-1.244 1.395-2.281-1.057-.636-.294 2.074-.881.802v-.014Zm-.558-3.539c.235.262.558.94.074 1.078-.764.152 1.746.788 1.526-.498-.25.097-.279.387-.587.415-.543-.055.323-1.272-.998-.982l-.015-.013Zm.264-472.107c.91-.553.69-2.199 1.013-3.332-.94 1.092-.91 2.06-1.013 3.332ZM13.96 74.304c-1.365 1.148-2.672 3.954-2.07 5.945 1.042-1.631 1.586-3.76 2.07-5.945Zm27.2 92.425c-.924.705-.792 5.42-.499 7.618.66-1.465.66-5.807.5-7.618Zm12.316-32.214.044.871c.073-.414.162-.829.25-1.244-.118.29-.22.387-.294.373Zm-3.714-10.023s-.073.027-.132.013h.132v-.027.014Zm-.63-24.735c.483.719.058 2.766-.368 3.623.984 1.009 1.644-4.452.367-3.623Zm-.177-2.502c0 .788.337 1.106.998.982-.044-.595-.088-1.19-.117-1.784-.294.263-.265.857-.881.802Zm2.349 2.295c1.218-1.383.557-3.042.264-5.06-1.57 1.465.161 2.475-.264 5.06Zm-1.85-8.447c.176 1.327.88 1.921 1.16 3.124.969-.152.528-2.71.073-3.235-.411.041-.822.069-1.233.11Zm.161-2.171c-.22.346-.278.83-.205 1.452.44-.07.866-.139.954.276.529-.138 0-2.032-.748-1.728Zm.72-20.559c.822.774-.235 3.25.778 2.088-.015 1.576-1.512 4.59.352 5.005-1.967.47.66 2.75-1.35 3 .22.87.91 1.12 1.086 2.06-.646.221-.631-.456-.69-1.01-.5 1.217-.734 3.789.895 3.872.91-2.558-.513-7.342.896-9.43-1.674-2.253.425-5.46-.558-7.852-.895.345-.338 2.101-1.395 2.28l-.014-.013ZM69.02 6.226c-.279-1.05-.631.401-1.233.125-.03.304.147.332.338.332.235.013.293.276.323.566.176 0 .367.014.572.042 0-.415-.382-.982 0-1.05v-.015ZM67.876 9.42s-.132.083-.176.166c.03.083.044.152.059.235.044-.138.088-.263.117-.4Zm27.89-1.95c-.513.858-.983-.539-1.203.955-.5-.636-.558-1.95-1.63-1.673.367 1.313 1.028 2.157 1.982 2.53-.528-1.645 1.38-.166.851-1.811Zm1.057 2.586c.866-.567-.528-.484-.63.042-.265-.222-.53-.429-.955-.388.382.54 1.747 1.383.059 1.314.235.58.704.774 1.277.802.734-.622-.411-1.618.235-1.77h.014ZM76.23 526.53c1.38.18.63.954.792 2.447.749.055 1.175 0 1.483-.055-.514-.885-1.218-1.756-1.6-2.655-.264-.069-.631.028-.675.263Zm4.33 3.207c.206 0 .396 0 .558-.055a1.36 1.36 0 0 0 .279-.29c0-.042.03-.069.03-.111-.617.097-.441-.359 0-.802 0-.041 0-.069-.03-.11-.617 0-.896.746-.822 1.382l-.015-.014Zm-1.233-5.668c.059.346.308.47.587.484-.015-.166-.03-.332-.059-.512-.161.028-.323.042-.528.028Zm-1.747-.761c.059.139.132.249.176.415.44-.414.954-.719.852-1.811-.353.429-.617.47-.822-.028-.147 0-.265-.138-.367-.497.161.926.308 1.728.161 1.921Zm1.365-.981c.059.47.411.47.778.456-.014-.18-.044-.359-.058-.553-.118.18-.309.277-.72.097Zm-.543-1.272c.162 0 .323-.014.47-.055a1.42 1.42 0 0 0-.352-.498c-.015.18-.06.359-.118.539v.014Zm.5-2.682c-.03.138-.06.29-.103.414.132-.041.308-.124.513-.207 0-.083-.014-.152-.03-.235-.131 0-.263 0-.38.014v.014Zm1.276-.083h.132c-.088-.47-.146-.996-.308-1.341.074.456.132.898.191 1.355l-.015-.014Zm-26.29-51.861c.426.083.631.457 1.263.249.41-.926-.118-2.779.367-3.622-.779.138-.808-.733-1.322-.954 1.145.442.103-1.23.852-1.161-.088 1.493.616 2.184.998.981.132 1.646.117 3.512.646 4.618-.367.083-.88.014-.91.442.367.028.88-.152.954.263-.514.36-.749 1.659.059.719.146.691-.367.747-.543 1.134.866.304 1.291 3.014.543 3.194 2.29 5.046 2.422 18.886 4.271 25.121 1.835-.899 1.336-5.669 1.072-6.927.147.664-1.219-1.991-.485-2.461 1.13.415.66 3.014.954 4.59.558-.401 1.116.968 1.248-.11-1.189.166-.132-.291-.381-1.051 2.95.083 1.145-2.447.983-3.691-.205-1.549 1.028-3.733.22-5.766.778-.276.954-.995.925-1.811-.044.235-.117.373-.264.277.19-1.452-.5-1.3-.426-2.531a.898.898 0 0 1 .264-.041c-1.306-4.148-3.332-8.24-1.1-11.503-.236 1.797 2.29 1.687 1.38 3-.089-.484-.368-.663-.661-.843-.132 1.576 0 4.203 1.086 3.456-.396 1.106-.396 2.655-.206 4.314a.3.3 0 0 1 .103.014c-.058.332.074.691.191 1.037.235.041.426.055.528-.595-.234-2.751-.058-4.714.25-6.636-.235-1.673-.5-3.484-.866-5.199-1.233.277.352 3.733-1.145 2.268.338-2.862-.72-7.148-1.277-7.867-.587.083-.147 1.465-.88 1.382.102-.788.146-4.438.146-10.369a3.2 3.2 0 0 1-.279.581c-.206-4.936-1.468 1.673-1.233-2.779-1.189.746-.66 1.465-1.483-.678-.601 2.226-1.54 3.236-1.732 4.853-.587 0-.734-1.203-1.482-.691-.28 4.231-.97 4.134-1.85 5.544.03.318.19.567.807.498-.381 1.133.044 1.866.514 2.834-.998.18-.969-1.023-1.644-1.286.28-.124.94-1.424.206-1.465-.837 1.106-.294 3.871-1.219 4.783.822.415 1.498 3.097.852 3.153.499-.152.866.401.367.677-.03-.359-.573-.401-.617.055h-.044Zm32.632 29.906c-1.204-.457-2.07-2.337-1.439-4.328a1.168 1.168 0 0 1-.425-.318c-.573 2.046-1.175 3.996-.558 4.963-.044.028-.06.07-.088.111.073.47-.06 1.065-.25 1.493.059.18.117.36.176.567-.044.014-.073.055-.103.083.265.277.44.705.896.678.044-.553.015-1.051.279-1.715a5.515 5.515 0 0 1-.353-1.438c.94.263 1.556.443 1.865-.11v.014Zm17.996 13.065c-.029.166-.088.29-.176.359.059.139.132.263.206.374.293-.291.44-.761-.015-.747l-.015.014Zm.94 2.53c-.015.083-.044.138-.059.207.059-.055.088-.11.161-.152-.029-.014-.073-.027-.102-.055Zm26.539-75.613v-4.632c-.176 1.176-.19 2.876-.396 3.885.118.761.264.844.396.747Zm0-6.954a21.05 21.05 0 0 1-.161 1.88c.059-.221.117-.373.161-.484v-1.41.014Zm0-7.3v-1.701c-.161.194-.308.608-.411 1.369.133.138.265.235.411.332Zm.015-4.922v-5.766c-.117 2.199-.264 4.259 0 5.766Zm0-9.208v-3.374c-.293.567-.543.429-.748.305v2.184c.161.622.308 1.23.733.871l.015.014Zm-.793-20.766v1.99c.25.719.632.982.793 2.074v-4.106c-.279-.055-.616-.276-.793.042Zm-2.73-92.564a9.062 9.062 0 0 0-.249-1.023c.161 3.305-.778 5.959-.749 9.554v.263a20.22 20.22 0 0 0 .499 4.037c-.073-1.715.323-1.729.484-2.6 0-1.106-.308-1.202-.234-2.585.102.166.19.249.249.263v-7.909Zm-3.347-147.866c-.058-.65-.088-1.286-.058-1.811-.544.083-.661 1.148-.617 2.378.029-.415.118-.747.396-.94.177.014.25.18.265.373h.014Zm.015.18c-.029.816-.587 2.24-.044 2.046.073-.152.117-.387.161-.663a42.723 42.723 0 0 0-.117-1.383Zm.044 29.435a.696.696 0 0 1-.323.318c.132-3.318.059-4.134.323-6.498v-1.742c-.793-2.544-.763-9.485-.029-12.347 0-2.032-.03-3.235-.044-3.497-.72-.111-.279 1.493-.866 1.589.323-5.115-1.556-13.825.44-17.918-1.042-.719-1.292-3.733-1.439-4.507-.102 1.092-.19 6.277-.249 14.614h.176c0 1.866.088 4.051-.22 4.867-.015 3.304-.03 6.954-.044 10.936.748-2.904.235-8.157.983-11.476v18.181c-.44-.207-.748 0-1.013.47v5.157c.177 1.314.353 2.641.544 3.899.425-2.171.396-.608.954-1.728-.411 3.194.132 3.885.484 4.327-.352.166-.22 2.088-.235 3.471-1.071-.761-1.115 5.087-.719 6.94-.323.871-.719 1.424-.954 2.599-.03.457-.059.858-.088 1.231v20.185c1.306-2.64-.441-16.839 1.057-17.102-.397 3.539.396 7.286.235 9.526 1.042 1.659.073-8.282.719-5.185-.103 2.627.044 5.669.337 5.724v-32.02l-.029-.014ZM58.981 44.925l-.925.083c-.294.981.749 2.046.147 2.142.587.913 1.189-2.087.778-2.225Zm6.664 1.368s.044-.055.059-.083c-.03 0-.044-.027-.074-.041v.124h.015Zm-.161 3.844c-.191 1.369-.5 2.654-.896 3.595.793.083.514 1.59 1.41 2.378-.368.083-.881.027-.91.442.352.041.513.346.674.65-.396.83-.792-.373-.91.442.44.221.69.07.896.194 1.057-3.968 1.541-8.49.822-13.01-.587 1.95-.396 3.567-1.101 5.295l.015.014Zm-6.694-1.991s-.132.014-.206.055c.03.166 0 .29-.014.415l.22-.456v-.014Zm.587.636c-.19.332-.382.622-.587.857.337-.083.499-.346.807-.456-.102-.097-.161-.235-.22-.401Zm.88 5.364c.25.747 1.924.152 2.173-.207-.25-.747-1.923-.152-2.172.207Zm-2.128.913 1.233-.125c.147-1.396-1.585-1.23-1.233.125Zm6.665 27.333a1.43 1.43 0 0 0-.5.318c.235.235.382.457.456.678.029-.346.044-.692.044-.996Zm-2.79-3.83c.147.222.338.401.588.484-.044-1.092-.28-1.949-.837-2.212.367.581.382 1.148.264 1.729h-.014Zm6.841 4.038v.055-.055Zm-4.242 17.849c.015-.083.03-.18.044-.277 0 .111 0 .221-.015.332.529 1.327.705 3.691-.117 4.272v.733c.088-.125.19-.249.279-.387.029.898-.5 1.161.117 1.783a1.342 1.342 0 0 0-.367-.055l.044 1.521h.118c.264 1.631.117 2.419.029 3.567.073 1.783.132 3.636.147 5.572.03 3.29-.28 6.664-.455 9.636a.954.954 0 0 1 .117-.249c.088.484.382.664.66.844.03-.166.06-.346.089-.526 0-2.074-.03-4.272.088-6.954.279.263.41 1.521.543 2.502.484-4.59.528-9.802-.852-12.208.44-.096.588-.345.676-.525-.294-2.793.044-6.927.117-9.885.044.152.088.345.118.539.029-1.106.058-2.13.088-2.973.41-.11.558.18.719.47-.044-.788-.03-1.714 0-2.613-.147.58-.279 1.148-.426 1.687-.675-.871.675-4.66-1.35-4.328 0 .332-.015.65-.118.927-.058.746-.146 1.34-.176 1.977.015.097.015.194.044.276h-.058c0 .885.161 1.867.822 3.388-1.733-.139-.588-2.71-1.791-2.931a1.258 1.258 0 0 0-.118.18c.426.967-.088 1.949-.557 2.917.484.193.807.553 1.042.926a15.19 15.19 0 0 1-.118-1.01c.22.097.44.402.617.816v.056Zm-1.277 7.148c0 1.866-.03 3.055.616 5.24-1.32 1.009.162 4.382-.102 4.852-.632-.995-.764 7.494.073 8.047.059-2.821.132-4.632-.514-4.079.558-1.908 1.659-8.655.5-9.014.249-1.078.293-2.42.293-3.913-.323.014-.66.056-.72-.276.411-.47.44-.277.72-.166 0-.415 0-.843-.015-1.272-.147.221-.176.581-.455.691-.073-.304-.22-.262-.396-.124v.014Zm-1.483 20.24c.367.429.396 1.134.411 1.867.088-.954.191-1.825.294-2.503-.25 0-.47 0-.66.042l-.045.594Zm-.954 18.32c-.044-.388-.132-.609-.235-.692.073.263.147.484.235.692Zm-14.283 57.307c-1.614 4.438-.763 17.296-.734 29.117-1.79.996-.455 10.743-1.482 13.867-1.145.152.235-2.474-.5-3.47-.895 2.724-.91 14.268.25 17.338-.631-9.208 1.145-11.739 1.732-20.794.602 7.161.191 17.724 0 22.867-.058-.801-1.702.623-.983 3.471-.94 1.023-.044-3.097-.984-2.074-.543 9.595.338 11.337-.25 21.485-.733-1.866.236-8.517-.498-10.397-1.659 2.102-.382 5.959-.25 9.014.455 10.273.308 21.651.5 31.896.16 8.876.234 18.568.983 27.721.264-.166.161-1.383.499-1.383.19 3.913-.778 15.886.734 20.103-.338-8.918.631-19.232-.25-23.573.309-12.747.91-33.113-.499-42.293 1.57-11.24.617-19.923.984-30.499.69 11.779.792 20.503.983 31.882.367.802.631.802.984 0-.133 2.654-.338 4.41 0 6.926.94-1.106.293-5.267.25-6.235 1.247-.235-.28 7.272 1.232 6.235-.102-6.899.25-13.079.5-18.72.19 2.392.308 4.646.396 6.803-.074-16.135-.147-32.173-.206-47.436-.088-.484-.279-.678-.69-.263.587-2.267.529-6.36.5-10.397-.514.194-.236 2.585-.75 2.779.177-6.941-.205-12.886 0-19.411.485 1.175.661 3.221.75 5.544.043-.456.073-.899.102-1.355a59050.6 59050.6 0 0 0-.088-24.956c-.5 2.89-.367 7.674-.264 10.37-1.13 6.553-1.277 15.816-2.466 22.176-.5-11.586-.118-16.287-.5-26.338h.015Zm-11.17-37.426c.19.111.278.498.367.871.029-6.844.088-10.77.146-10.936.059 0 .118 2.24.147 6.318.118-3.221.19-6.208-.323-8.378-.147 2.101-.264 6.277-.352 12.111l.014.014Zm-7.604-27.831v.083c.117.041.25.041.367.055-.03-.235-.059-.456-.074-.691a2.373 2.373 0 0 0-.279.539l-.014.014Zm-.132-7.77c.102.11.19.221.235.428.293-.677-.191-3.636-.646-4.618-.118.014-.191.07-.265.125-.146.76-.176 2.032-.205 3.36a1.79 1.79 0 0 1 .367-.595c.073.719.25.996.41 1.189.06-.359.118-.719.206-1.023a10.77 10.77 0 0 0-.102 1.134Zm-1.512-7.618a.82.82 0 0 0 .264.276c.323-.663.352-2.544-.103-3.429.323 1.065.103 2.116-.161 3.153Zm.616 8.212c-.014.913-.044 1.756-.117 2.392.279.65.646 1.3.778 1.908a50.996 50.996 0 0 1 0-3.678 26.273 26.273 0 0 1-.675-.622h.014Zm3.64 17.573c-.073-.94-.029-2.047-.484-2.475-.03 0-.059.041-.088.083.03.788.059 1.562.103 2.336.117.125.279.166.484.056h-.014Zm-2.23-4.162c.029-.207.058-.415.088-.594-.074-.069-.133 0-.206.124.03.166.073.318.103.47h.014Zm.278-.954c.088-1.051.03-2.06-.058-3.041.044.691.073 1.41-.367 2.004.308-.138.396.401.425 1.037Zm-2.26 2.24c.25 2.89.514 5.461.748 6.788 1.013-1.576-.029-6.124-.396-9.94-.073.221-.147.428-.25.58-.19-1.258-.088-2.696.03-3.829-.074-1.894 0-3.54.308-4.397-2.187-.622-.998 3.609-.837 5.821.088 1.147.177 2.322.28 3.484a2.42 2.42 0 0 0 .22-.387c-.074.636-.089 1.258-.103 1.88Zm-1.483-7.024c1.072-1.825-.293-3.677-.044-5.032-1.336 1.41.118 3.166.044 5.032Zm2.349-2.018a.503.503 0 0 1 .41.041c0-.248-.014-.511-.029-.76a1.337 1.337 0 0 1-.381.719Zm.528 4.728c0-.802-.014-1.59-.044-2.364-.117.719-.073 1.521.044 2.364Zm8.118 46.814c0-5.447.014-10.328.03-14.558-.397 4.783-.397 10.093-.03 14.558Zm.499 4.01c.704-3.277.279-8.517-.044-13.978.015 4.189.03 8.862.044 13.978Zm.044 37.26c.279 21.305.69 42.348.925 65.465.66-1.701.073-3.318.983-4.853-.866-18.112-.66-31.937-.734-47.837-.073-13.687-.102-29.573-1.203-44.726.014 9.526.029 20.31.029 31.937v.014Zm2.158-5.931c-1.101 8.005-.088 16.19-.25 24.955.984-5.945.235-17.31.25-24.955Zm4.947 13.176c1.54-.581-.147-2.765.499-4.853h-.749c.235 2.613 0 3.249.25 4.853Zm.983-10.397c.646-3.83.25-7.77.5-13.176-1.117 3.111-.69 8.862-.5 13.176Zm-1.483-13.867c0 3.193-.102 6.774.25 9.014.103-2.323 1.101-9.014-.25-9.014Zm-2.965 3.47c-.557 4.369-.763 5.212-.499 9.705 1.424-.884.382-8.198.5-9.705Zm3.465 6.235c-.808 2.364-.133 5.351-.25 9.001.734-1.01.631-7.079.25-9.001Zm-.999 32.574c.896-1.798.162-6.416.25-9.015-.984 1.798-.646 6.153-.25 9.015Zm-1.967-48.529c.72-1.949.235-3.124.25-6.235-.675.995-.19 3.152-.749 5.544.294-.111.44.152.5.691Zm1.483 13.176c.749-4.659.763-11.212-.25-15.941.074 6.471-.044 11.489.25 15.941Zm2.965 38.823c.47-.581.66-3.042.25-4.162-.485 1.3-.426 2.42-.25 4.162Zm9.072 196.989a.406.406 0 0 0-.264-.138c.014.124.029.221.058.235.074 0 .147-.042.22-.097h-.014Zm14.062 2.101c-.572 2.337-.176 5.697.25 9.111.323-1.244.558-2.474.734-3.677-.19-1.314-.352-2.586-.44-3.83-.191-.982-.338-2.074-.47-3.194-.059 0-.118-.013-.176 0-.015-.484-.03-1.106-.044-1.811l-.22-1.852v3.926c.102-.152.19-.235.264-.263.029 1.01.073 1.549.102 1.563v.027Zm-3.023 1.936c-.412.816 0 1.355-.177 3.097.896-.055.617-2.53.176-3.097Zm16.675 18.43a.712.712 0 0 0 .484.124c-.161-.581-.088-.926 0-1.244-.029-.277-.058-.553-.073-.844-.411.277-.778 1.189-.602 1.715.118-.042.25-.111.47-.208a3.222 3.222 0 0 0-.294.47l.015-.013ZM65.6 487.127s.03.11.059.138c.63-.47.425-.982.235-1.728-.015.027-.044.069-.06.11.016-.124 0-.221 0-.345a3.845 3.845 0 0 1-.102-.858c-.03-.069-.044-.152-.073-.221-.132.36-.206.913-.206 1.452.03-.055.059-.097.088-.138 0 .58.03 1.078.059 1.59Zm1.776-2.226c-.205 0-.41.027-.616.041-.044-.014-.059-.083-.103-.11-.294.94-.03 2.129.279 3.027.91-.815.675-2.461.396-3.733 0 .291 0 .567.044.788v-.013Zm18.613 7.631a7.454 7.454 0 0 0-.205.512c.014.124.044.221.088.318.103 0 .264-.042.44-.028-.073-.387-.117-.788-.176-1.175a.558.558 0 0 1-.396.249v.138c.073 0 .132-.027.25 0v-.014ZM122.952 221.7c.088-1.839 0-2.986-.103-4.147v3.898c.03.083.059.153.103.235v.014ZM66.599 102.564c.03 1.867-.147 3.208.191 4.604.103-1.313.22-2.516.323-3.512a243.264 243.264 0 0 0-.088 4.259c.044.124.088.235.132.359.264-1.866-.015-1.963.793-3.125.763 1.701-.837 3.222.146 5.088 0-2.267.03-4.037.382-5.143v-.663c-.308-1.217-.514-2.6-.646-4.024-.103 1.203-.22 2.53-.235 3.871.044-1.147-.19-1.894-1.012-1.7l.014-.014Zm-.587 7.452c.073.097.162.235.308.484-.161-1.065-.25-2.406-.308-3.844a51.28 51.28 0 0 0 0 3.36ZM62.46 122.86c-.397 1.424-.602 2.53.205 3.705v-.041.028c.631-.885.587-2.323.28-3.968a29.732 29.732 0 0 1-.53 3.235c-.073-.747 0-1.936.03-2.959h.015Zm-1.277 23.725c.645.387.293-.774.19-1.825-.146.387-.132 1.203-.19 1.825Zm5.813 57.944c.22 1.133.19 1.521.132 3.097.073-.097.132-.235.19-.36.103-.318.191-.636.28-.954.19-1.465-.192-3.567-.074-5.447-.073-.069-.118-.152-.22-.194.117-.152.205-.29.293-.442 0-.083 0-.166.03-.249-.66-.498-.455 1.452-.631 2.35v2.199Zm12.403 252.969c.132 2.309.397 5.06.543 6.858.265-.332.426-.968.544-1.729-.015-1.811-.074-3.498-.338-5.074-.279.028-.602 0-.558.498a2.517 2.517 0 0 1-.176-.553h-.015Zm36.258-345.85c.073.4.161.788.249 1.175.044-.291.118-.636.235-1.093-.22.097-.382.056-.484-.082Zm-7.046-.968a22.43 22.43 0 0 0-.103.553c.132.083.294.221.528.484-.44 3.041.177 2.848.47 5.212a1.496 1.496 0 0 0-.205.401c.117.069.278.207.469.373 0-1.286 0-2.682-.029-4.258.132.387.235.677.323.926.103-.332.235-.58.455-.663-.073-1.701-.528-2.005-.822-1.024a8.195 8.195 0 0 0 0-1.907c-.147.041-.294.138-.44.331.19-1.645.22-1.064-.397-2.018.088-.152.162-.304.25-.456a5.691 5.691 0 0 1-.294-1.507c.03 1.548.015 2.931-.205 3.539v.014Zm-41.6-1.3v1.963c.205 0 .41-.027.601-.041.059-1.023-.117-1.687-.396-2.171-.074.069-.132.166-.191.249h-.015Zm-1.777 18.817c-.088 1.189-.25 3.373-.25 5.834.235-1.977.309-3.788.323-5.668-.029-.055-.044-.125-.073-.18v.014Zm-.69 5.433a79.142 79.142 0 0 1-.073-1.866c-.044 0-.088 0-.132.014.029.677.102 1.299.205 1.852Zm3.567 109.348c-.91 1.756-.528 5.959-.484 8.309.778-1.05.41-5.309.484-8.309Zm50.525-79.304c.69-.318 1.263-8.074 0-7.798.235 3.539-.029 3.498 0 7.798Zm-.234-6.056c-1.057.083-.514 3.498-.485 5.199.338-1.065.455-2.973.485-5.199Zm-2.173 5.199c.485-1.259.749-4.826.881-8.724-.059.082-.118.193-.206.248-.044-3.138-.646 2.392-1.262-.276.793-.553-.47-2.033-.455-2.987-.103.083-.176.194-.25.305.03 4.977.118 9.761.338 14.033-.25-4.59.983-2.669.954-2.599Zm-6.605-43.538c-.162-.871.396-1.327-.074-1.534a8.502 8.502 0 0 1-.279-.304c-.381 1.23 0 3.539-.147 4.769.133.733.323 1.355.544 1.77.044-1.562.073-3.014.088-4.549a1.256 1.256 0 0 1-.132-.138v-.014Zm-2.892-6.373c-.118.166-.22.401-.309.649 0 1.3.03 2.669-.132 3.733.088.222.177.443.309.609.22-.719.411-2.074.411-3.277-.088.263-.206.47-.367.567.058-.761.073-1.535.088-2.281Zm1.849 1.382c.059-.553.118-1.106.206-1.7-.543-.54-.573.802-.705 1.756.162-.042.338-.111.485-.097v.041h.014Zm-.557-1.368c-.103.221-.25.511-.47.981.059.318.176.415.308.443.029-.54.088-1.01.147-1.411l.015-.013Zm-36.566 2.225c.073 1.12.161 2.254.25 3.429a8.41 8.41 0 0 1 .425-1.534 83.465 83.465 0 0 0-.587-8.171c-.162.179-.279.262-.352.276 0 1.369.058 2.793.147 4.258.058-.248.146-.497.22-.746a32.79 32.79 0 0 1-.118 2.488h.015Zm.704 3.664c-.117.484-.234.954-.352 1.438.088 1.148.162 2.309.22 3.526.044-1.051.088-2.102.147-3.166 0-.581 0-1.176-.03-1.798h.015Zm-1.952 9.305c-.264.332-.396.539.323 1.148-1.189-.014-.088.428-.235 1.548-.455.028-.63.138-.69.318.015 1.701.132 3.608.294 5.433 1.512-1.106-.602-2.668.88-3.967-2.201-.747.074-.968.206-1.466-.822-.843.147-2.627-.778-3.014Zm-.058 10.77c.043.318.088.622.132.927.117 0 .25.055.425.331-.176-.428-.381-.829-.543-1.258h-.014Zm37.916 21.333c.058-3.442.176-7.327.293-10.286a.69.69 0 0 1-.499 0c.895 2.475-.778-.525-.352 1.963-.91.028-1.101-2.364-1.938-2.599.162 2.793.279 4.369.147 5.503.969 2.474.352 8.281 1.145 12.36.455-5.489.044-8.945.719-12.996.25 3.511-.734 6.028.485 6.055Zm1.922-40.647c.03.345.03.746.03 1.189.029-.014.044-.042.059-.056-.015-.373-.044-.76-.059-1.133h-.03Zm.118 1.52s-.059-.138-.073-.248c0 1.161-.089 2.516-.045 3.498.03.027.059.083.089.096.117-.954.102-2.129.044-3.346h-.015Zm5.108-4.023v1.106c.059-.041.074-.124.132-.138a3.136 3.136 0 0 0-.132-.968Zm1.116-.774v.014-.083.069Zm.998 1.839c.029-.194.088-.346.147-.401a5.86 5.86 0 0 0-.132-1.065c-.118.387-.103.913-.015 1.466Zm-2.892-1.908c-.161.152-.352.29-.514.318a14.48 14.48 0 0 0-.161.981c.117-.221.235-.47.44-.566.03.207.103.47.206.76 0-.484.029-.995.044-1.493h-.015Zm-.528 1.258c.073.484-.059.871-.235.94a22.658 22.658 0 0 0-.059 2.627c.03-.069.044-.152.074-.221.22-1.466.543-2.89.234-3.36l-.014.014Zm-.059 11.185s0 .069.015.111v-.125l-.015.014Zm.235 1.41v.056-.056Zm-16.631 13.066a2.025 2.025 0 0 0-.25-.388c0 .263 0 .526-.015.775.044 0 .088 0 .133-.014-.06.083-.089.193-.133.29-.014.871-.044 1.742-.058 2.599.088.484.205.954.293 1.369.03-1.507.044-3.055.044-4.631h-.014Zm0-2.268a2.496 2.496 0 0 0-.191-.346c0 .498-.03.982-.03 1.466a.456.456 0 0 1 .22.138v-1.258Zm-2.54 4.314c0-.083 0-.152-.03-.235 0 .069-.029.124-.029.193.015 0 .03.042.06.042Zm1.806-4.549v1.383c.088 0 .161-.028.234-.028.03-.595.118-1.12.206-1.521-.206-.027-.352.042-.44.18v-.014Zm.22 1.894c-.353.277-.235.802.058.954-.029-.332-.058-.65-.058-.954Zm-2.584-5.254c.118 1.563.176 3.167.22 4.784.044.249.074.484.133.691-.074-1.825.029-3.663.146-5.737-.19-.014-.352.083-.484.262h-.015Zm3.509 54.557c0 .954.014 1.935.044 2.917.088-.304.146-.678.19-1.092v-.982c-.073-.276-.146-.539-.22-.843h-.014Zm-17.85-40.053c.147.387.337.746.616 1.064-.822-1.479-.235-5.171-.645-7.314 0 2.088 0 4.217.029 6.263v-.013Zm14.048-28.371c-.03.069-.059.18-.074.291.015.207.03.401.059.608.044-.318.059-.622.03-.899h-.015Zm3.273 13.453v-.028.028Zm13.241.525a54.906 54.906 0 0 0-.235-1.839c-.264 1.493-.279 3.36-.22 5.309.205-1.216.367-2.392.455-3.47Zm-5.373 24.126c.088-1.88.235-3.484.25-5.6a4.588 4.588 0 0 1-.587 1.024c.366 2.336.205 2.143.322 4.576h.015Zm4.066-11.697a14.442 14.442 0 0 1-.058-.829c-.089.138-.177.29-.279.442.058.318.161.498.337.401v-.014Zm3.597 40.703c-1.145 6.346-.397 13.052-.72 21.651 1.101-4.396.705-14.945.72-21.651Zm-.72 23.393c.206 2.254-.719 4.743 0 6.042.764 1.12.764-7.175 0-6.042Zm.25 7.784c-.793.304-.382 4.991-.485 7.784.764-.387.867-5.959.485-7.784Zm1.673 12.983c-.029 3.581-1.893 10.383-.235 13.853.544-4.742.191-7.369.235-13.853Zm-2.392 32.905c.734-2.088 1.101-7.729.719-11.254-.514 2.765-.807 6.29-.719 11.254Zm-1.688-9.526c-.793 1.493-.382 7.286-.485 11.254.543-3.788.396-5.295.485-11.254Zm-.485 24.25c-.44 2.724-.514 6.803-.47 11.254.661-1.963.441-7.037.47-11.254Zm-14.65-53.782s-.073.138-.102.249c.044.111.073.221.102.332v-.581Zm2.202-96.655c.074-.567.132-1.12.22-1.632-.029-1.175-.058-2.336-.088-3.484-.044 1.631-.132 3.277-.132 5.116Zm20.58-14.144s.118.124.191.249c-.044.94-.059 1.686-.073 2.322v.014c0 .581 0 1.065.058 1.521.191-.193.397-.387.617-.539-.22-2.461-.528-3.097-.763-4.493 0 .331-.015.636-.03.926Zm.529 4.604a.523.523 0 0 0-.264.166c.058.359.146.732.249 1.12-.015-.429-.015-.858.015-1.286Zm-3.802-3.235c-.176.138-.352.553-.338.926.103.29.191.664.25 1.078l.088-2.004Zm-2.114 34.052c.661 1.231.896 4.452.015 4.3-.074-.055-.147-.193-.206-.373-.029 2.212.059 4.756.103 8.337 1.145-2.24.822-6.678.719-11.766v-.387a1.377 1.377 0 0 1-.587-.429c0 .111-.015.222-.029.332l-.015-.014Zm.602-1.368v-.111.111Zm5.299 111.476c-1.16.526.22 5.793-.484 6.913.792 2.517.807-4.41.484-6.913Zm-1.204-28.577c-.19-4.037.969-11.227.235-17.324-.337 3.857-1.291 14.13-.235 17.324Zm.734-42.431c.294-.374.499-1.107.485-2.6.176 4.134-.529 12.125-.72 15.582 1.703 5.724-.557 20.559.72 27.72-.103 9.416-.91 21.804.249 28.578-.117-32.988.837-59.851.72-88.332-.089 5.433-1.38 10.95-1.439 19.052h-.015Zm-22.826 34.287v-18.623a5.358 5.358 0 0 0-.176-1.161c0 6.111 0 12.609.015 19.397.044.152.103.277.161.387ZM71.194 107.818c0-.083.03-.152.044-.235-.015-.069-.03-.125-.044-.194v.429Zm36.8 1.604c.074.511.294.497.529.442-.03-.29-.059-.581-.088-.899 0 .401-.103.664-.441.457Zm10.231 40.26c-.278.761-.381 1.867-.557 2.848.014.636.058 1.175.132 1.604a3.1 3.1 0 0 1 .249.733c.103.124.206.193.353.138-.044-2.101-.059-3.678-.103-4.977a1.123 1.123 0 0 1-.074-.346Zm.896 74.604v4.341c.147.055.264-.069.367-.29 0-1.341 0-2.655.015-3.968-.103-.139-.221-.194-.382-.083Zm1.908 45.901c.206-1.189.998-6.36-.235-5.185-.029 2.13-.044 4.176.235 5.185Zm-.47-10.383c.646.567.558.194.94 2.461 0-7.231-.015-14.337-.029-21.223-.103 2.973-.294 5.946-.676 8.365.896-2.088-.293 7.217-.235 10.397ZM79.267 455.106c-.176.18-.323.387-.44.609.161.11.396.013.455-.18v-.415l-.015-.014Zm-15.56-325.264s.118.125.191.152a66.242 66.242 0 0 1 0-2.958c-.293.165-.66.193-1.027.179.073.318.146.65.22.982a.844.844 0 0 1 .558-.36c.132.484 0 1.383.044 1.991l.014.014Zm.602.332c.309-.498.162-1.106.059-1.728-.03.594-.044 1.175-.059 1.728Zm3.48-2.655c.028-.967.073-1.935.117-2.903-.984-.788-1.043 2.364-.118 2.903Zm3.2-21.582a5.1 5.1 0 0 0 .395.913c.06-.318.133-.636.191-.968 0-.94-.132-2.046-.102-3.18v-.332c-.558.415-.602 2.434-.5 3.581l.015-.014Zm37.651-47.96c-.822-.153-.264 1.714-1.057 1.617.088.732.441 1.009.954.981-.029-.885 0-1.797.103-2.599Zm-.073 3.096c-.309.014-.602.041-.925.055-.059.802.117 1.148.279 1.563.103.027.205.166.308.331.294-.22.411-.705.382-1.396-.03-.18-.044-.373-.059-.553h.015Zm-.397 6.25c0-.07 0-.139.015-.208-.25-.58-.69-.802-1.233-.843-.264 1.935 1.424 1.645.117 2.557.676 1.66.793-.912 1.101-1.507Zm-.425 2.986c-.455-.25-.749-.25-.94-.111.118.553.25 1.148.382 1.742.249-.442.44-.995.558-1.631Zm7.236 28.522s-.044.083-.073.11c.073.097.147.167.206.222-.045-.152-.089-.277-.147-.332h.014Zm7.501 57.501c.617-.484.177-3.567-.176-4.078-.836.871.543 2.267.176 4.078Zm-1.159-2.875c-.118.705-.279 1.23-.529 1.562.25-.083.411-.028.543.11v-1.672h-.014Zm.073 16.134s-.059.111-.117.152c-.206-3.111.235-9.636-.485-12.982.015 6.304-.235 9.636-.235 17.324.455-1.024.69-.429.852.359v-4.839l-.015-.014Zm1.483 10.439c0 3.207 0 6.539-.015 9.982.088-.553.206-.982.323-1.217.235-3.415.25-6.705-.235-9.526-.029.277-.059.512-.073.761Zm-1.453 7.479c-.397 2.337 0 7.549-.147 10.812-.734-1.396.425-9.595-.969-8.655.015 2.53 0 5.378-.029 8.475v24.085c.278.594.161 3.525.029 5.53.675.304.587.788 1.145 2.419v-5.571c-.044-.47-.088-.885-.176-1.175.073.027.117 0 .176 0 0-13.287-.015-25.467-.029-35.92Zm2.011 106.928c.455-3.387.469-8.848.234-12.996-.557 2.627-.088 8.932-.234 12.996Zm.484-34.633v-5.185c-.69.139-1.013 6.084 0 5.185Zm1.277 5.765c-.382 3.305-.719 7.48-.088 8.946.029-.056.059-.125.088-.208v-8.738Zm-.088 39.252c-.352 4.41-.088 5.862-.235 11.268.103-.236.22-.747.323-1.438v-9.678c-.029-.056-.044-.111-.088-.152ZM66.57 491.482c-.03-1.825.279-2.655-.25-3.567-.367.318-.557.58-.646.829.06 1.037.118 1.963.177 2.821.25-.028.484-.056.734-.069l-.015-.014Zm-6.415-317.826c-.602-.111-.602 1.479-.705 2.779.28-.014.529-.318.705-.733v-2.046Zm-.705 16.632c-.102-3.276.074-5.793.25-8.323-.91.553-1.057 6.761-.25 8.323Zm-.733-6.235c-.72.746-.808 3.304-.75 6.235.5-1.382.852-3.18.75-6.235Zm-5.285 84.613a26.5 26.5 0 0 0 .088-2.115h.749c.337 2.281-.088 4.217 0 8.323-.705-1.59-.764.166-.852 2.475v7.963c.133-2.267.367-4.424.852-6.276-.103 7.507.851 15.083.25 22.881 2.201-15.789 1.041-27.472 1.981-47.132-.294-.58-.66-.912-1.233-.691 2.143-2.088.895-8.931.983-15.264-1.54 2.212.353 11.047-1.732 12.471 0 1.88 1.042 3.249 0 4.162-.748-2.364.176-5.945 0-9.015-1.203 1.106-.646 3.789-1.057 6.139 0 5.268 0 10.646-.014 16.079h-.015Zm.03-24.374c.131-1.687.264-3.485.308-5.475.69.207 1.086-4.245 1.981-5.545-.161-3.484.015-4.756-.25-6.926-.63.069-.395 2.585-.748 3.456-.572-2.779-.088-8.53-.25-12.484-.308.801-.836 3.774-.733 0a.789.789 0 0 0-.309.304V244.292Zm4.021-8.946c.646.208 1.057-.249.984-2.074.543-.11.117 2.461.25 3.471.924-7.369.807-21.25.733-29.117-1.086 7.673-.778 19.245-1.981 27.72h.014Zm-1.981-14.558c-.382 1.258-.896 2.129-.749 4.853.778-.111.675-2.738.749-4.853Zm0-27.029c-.485 8.018-.558 15.567-.25 22.881 1.263-5.378.411-16.287.25-22.881Zm-2.143 116.274c0 4.037 0 8.074-.015 12.097.587-3.18.514-9.028.015-12.097Zm-2.965 21.402c-.044-8.461-.089-17.033-.118-25.633-.19 8.392-.631 16.066.03 25.91.029-.083.058-.18.088-.277Zm3.067-115.528c.646-.331.764-2.115.808-4.134-.28.443-.573.858-.808 1.438V215.907Zm-.161-41.892c.117.139.264.249.47.332.293-.912.044-3.29-.5-3.968 0 1.148.03 2.364.03 3.636Zm2.202-.359c1.086-1.867.998-9.761.25-11.78-.324 3.249-.25 7.618-.25 11.78Zm6.341-30.306a.987.987 0 0 1 .308-.235c0-.567 0-1.189-.029-1.839a4.105 4.105 0 0 1-.94 1.175c.074.871.177 1.134.309 1.148a.52.52 0 0 1 .352-.263v.014Zm.28-2.641c-.118-.774-.148-1.424-.089-2.101a145.354 145.354 0 0 0-.484-6.388c-.235 3.941-.28 7.549.587 8.766v-.277h-.015Zm4.99-42.68c-.117-.788.03-1.3.19-1.576 0-.207-.029-.456-.058-.705-.279.83-.558 1.811-.147 2.323v-.042h.015Zm1.556-8.033c-.117-.456-.294-.788-.426-1.189-.073.65-.102 1.106.426 1.19Zm.44-.013c.074 0 .132 0 .235-.028.059-.29-.044-.719-.103-1.134-.029.401-.073.802-.117 1.162h-.015Zm-.337.442s-.015-.041-.03-.055c-1.086.511.734 2.295-.132 2.53.147.069.25.083.353.097 0-.083 0-.194.029-.277.03.138.073.221.103.304.763.042.176-1.48-.147-2.24-.03.125-.044.263-.074.374a5.037 5.037 0 0 0-.088-.747l-.014.014Zm-.676-.36s-.102-.013-.146-.013c-.133.816-.28 1.59-.426 2.336.044.512.073 1.245.103 2.254-.044.235-.176.567-.309.94.147.166.265.36.353.567 0-2.447.19-4.687.44-6.083h-.015Zm1.997 6.443c.41.885.381 2.53.367 4.342.059.497.176.884.47 1.023.161-.857.322-1.576.454-2.24-.146-1.66-.499-3.18-1.218-3.512a3.612 3.612 0 0 1-.073.387Zm1.85-.124c.087-.733.16-1.535.205-2.516-.235-.07-.411.055-.543.166.073.801.102 1.617.337 2.35Zm-.426-42.003a39.732 39.732 0 0 0-.088 1.646c.278-.47.499-.996.704-1.549.118-.332.235-.663.323-1.023-.367.346-1.115-.11-.323 1.023-.323.042-.484-.028-.616-.097Zm1.1-1.686c.514-2.489.456-5.337.191-7.77-.44 1.285-.924 4.963-1.189 8.046.309 0 .661-.069.999-.345v.083-.014Zm48.618 75.322c-.235 3.139-.514 6.222-.72 9.388 0 .94-.044 1.908-.102 2.917 0-.193.44-.47.44-.747-.103.899-.294 1.618-.499 2.296.205.207.411.428.572.746-.117.36-.22 1.991-.293 4.701.514.221.47.733 1.115-.083-.044.719-.073 1.383-.102 2.005 2.04-3.166-.602-8.711-.646-12.236 0-.913.719.373.91-.567.22-1.106-.073-5.807-.675-8.42Zm3.978 86.231v-4.673h-.808c-.044.733.088.816.235.871.455.083-.367 3.222.235 4.328.147-.028.264-.222.338-.526Zm0 1.355c-1.013.069-2.085 1.327-1.527 6.955-.705-.692-.396 2.281-.822 2.585v5.185c.029-.291.073-.581.103-.858.029 1.355-.03 3.014.484 2.6-.22-4.853.235-3.236.72-4.328 0-5.931.146-5.959.249-11.254.352.498.617.332.807.249v-1.148l-.014.014Zm0 3.609c-.235-.332-.485-1.563-.573-1.853.47 6.083-.161 10.687 0 13.867-.69-2.129-.792 5.199-1.203 6.927 0-.843-.382-1.037-.588-.636v.719c.984.567.397.926 0 1.438v1.977c.294 1.452.866-2.392 1.057 1.7.074-4.659.837-6.788 1.292-10.037v-14.089l.015-.013Zm3.258 91.678v.055-.069.014Zm-.014 27.997c-.235 1.963-.323 5.973 0 8.862v-8.862Zm2.774 53.395v2.323c.176.318.367.304.602-.595-.382 3.318-.382 1.023 0 4.342-.088.663-.352.636-.587.746v.899c.528.318.998 2.281.587 2.668.059-1.313-.352-.567-.587.18v.719c.279.028.602-.111.748.401v-11.323c-.176.636-.484-.07-.778-.374l.015.014ZM86.357 493.638a1.1 1.1 0 0 0-.088.374c.059.041.118.083.191.11-.03-.166-.073-.318-.103-.484Zm-6.81.581c-.28 0-.441.125-.53.304.074.567.148 1.106.206 1.618.382-.705.734-1.673.323-1.936v.014Zm-2.027 3.152a8.828 8.828 0 0 0-.293-.649c-.118.207-.22.428-.338.649.147.747.309 1.48.529 2.116.088-.65.102-1.369.088-2.116h.014Zm2.364 1.494c.822-.194.983-1.037 1.115-1.908-.968.041-.998 1.009-1.115 1.908Zm-1.087-2.06.089-.125v-.083c-.03.069-.044.138-.088.194v.014Zm4.536 2.696c-.132.262-.25.58-.352.94v.166c.25.428.558 1.078.998 2.06a35.562 35.562 0 0 0-.66-3.153l.014-.013Zm-18.275 1.479c-.749-1.065-.176-3.042.279-4.853a34.904 34.904 0 0 1-.191-3.83 1.663 1.663 0 0 0-.72-.248c.72.566.984 1.161-.264.746-.117.802.632.456.705 1.009-.103.581-.954.401-.528 1.494-.426-.07-.323-.871-.411-1.397-.06 2.351-.338 6.222-.074 7.909.47-.194.191-1.148 1.19-.83h.014ZM54.21 455.977a2.347 2.347 0 0 0-.103-.428 2.37 2.37 0 0 0-.323.484c.177-.042.309-.056.411-.056h.015ZM50.423 337.74c-.206 1.341-.191 3.415.03 4.59 0-1.521-.016-3.056-.03-4.59Zm-5.52 126.657c.324-.041.69-.055.705-.415-.264-.083-.47-.249-.646-.442-.014.29-.044.567-.059.857ZM3.127 137.142c-.763-.677.998-2.336-.793-2.447.28.788-.367 2.834.793 2.447Zm16.367-2.253c.896-.139 1.13-2.641-.147-2.143.044.719.103 1.424.147 2.143Zm.03-8.268c.073-1.258.528-3.346-.588-3.899-.484.138-.91 1.051-1.027 1.963.088.47.117.954.117 1.424.22.526.675.816 1.497.498v.014Zm1.306-3.719c.954-.277 1.027-1.438 1.057-2.613-.749.484-.573 1.88-1.057 2.613Zm-2.701 6.014c.117 1.908.352 3.042.587 3.899 1.527-.401 1.6-2.212 1.248-4.425-1.013.512-.44.761-1.835.526Zm-3.435 4.272c.675-.111.602-.968.5-1.839-.618.318-1.19 1.203-.5 1.839Zm.396-3.277c.147-1.825-.132-1.603 1.116-1.894-.132-.733-1.38.042-1.321-.954-1.101.18-1.175 2.973.205 2.848Zm-6.899-13.729c-.602.401-.572 1.438-.44 2.558 1.086-.29.763-1.714.44-2.558Zm-3.552-6.138c-.573 0-1.057-.139-1.292-.595-.837.456.294 2.074.69 1.01.132 1.244-.646 1.589-.749 2.585.309-.028.617-.055.925-.097-.72 2.489.352 3.747.19 7.176 1.249-1.659-.146-6.36.221-10.079h.015Zm8.837 10.314c.088.401.322.166.308-.028.235.36.235 3.318 0 4.314.69.898 1.086.387 1.336 1.313.235-.263.807-.636.924-.083 1.424-1.562-1.908-3.235-.645-4.618-.94-.566-.764-.815-1.057-1.7-.397.166-.44.677-.881.802h.015Zm4.154 1.41c-.03-.47-.074-.954-.103-1.424 1.101-.304 1.013.968 1.086 2.046.411-.041.822-.069 1.233-.11-1.365-1.037.411-2.296-.323-4.632-1.32 1.078-1.629-2.088-2.965-2.24.896 3.47-.66 5.627 1.072 6.36Zm3.493-7.881c-.058.539.881 2.807-.44 2.558.514 1.231.558.664.778 2.088 1.233-1.148.382-3.208.602-4.729-.529-.027-.763.692-.925.083h-.015Zm-4.961.47c.338 1.231 1.116.318 1.541-.138.132 1.134-.117 2.765 1.101 2.406.206-2.019-.528-1.853-.587-3.899-1.013-.221-.338 1.217-1.16 1.189.323-3.235.455-6.07-.22-7.535-.91 1.991-.103 5.655-.675 7.977Zm1.321-16.66c.602-.4.572-1.438.44-2.557-1.38.387-.396 1.161-.44 2.557Zm14.973-37.37c-.265.027-.514.069-.44.428.043.124.19.152.352.152.029-.18.058-.373.073-.567l.015-.014Zm.704 21.969c-.102-.042-.176 0-.22.29 0 .124.059.193.117.249.03-.235.074-.401.103-.54Zm.808 8.267s-.074.139-.133.208c-.073-.567-.044-1.245-.69-1.01.426.54.72 1.217.881 1.895 0-.415-.03-.76-.058-1.093Zm-4.184 13.522c.382-.83.793.373.896-.443-.808-6.567.176-14.323 1.203-22.757.206-1.742.573-4.687.998-7.867-.968-.843-.381 5.572-.866 3.581.529-4.95.235-7.963.162-10.908-1.35 3.664-3.567 8.074-2.481 10.729-1.57.4.411-1.576-.749-1.729.191.678-.704 1.908-.851 1.162.176 0 .338-.318-.03-.36-1.071 1.867-.572 4.549-1.79 5.558.587.235-.015 4.784-.837 5.835-.793-.401.485-1.134-.411-1.397-.176 1.383-.675 2.447-.323 4.341-1.512-.248-.279 2.171-1.394 2.296 0-.388-.206-.9-.338-.332.323.608.822.968 1.057 1.7-1.204 1.59.323 4.936-1.41 6.595-.22-.608.22-2.129-.454-2.115-.881.014.543 2.295-.808 1.866.382-1.161-.088-1.451-.763-2.087 1.013 0 .558-1.452 1.439-1.576.029.898-.514 1.175.41 1.396-.146-2.323.925-3.664-.939-4.576.44-.235 1.63.262 1.527-.512-.602-.525-1.028.429-1.6-.567 1.086-.207-1.16-.857-.074-1.078.587 1.272-.176-1.438.881-.802.088.525-.015 1.327.411 1.396 1.673-1.382 2.657-6.58 2.158-9.18 1.321-.595 1.541-3.373 1.174-5.503.749-.22 1.072-2.75 1.997-2.696-.015-2.28.293-5.724 1.746-6.277-.807-.69.852-2.972-.279-3.926-.381 1.258-.205 1.714-.91.442.22 1.507.866 4.383-.41 2.918.953 1.258-1.146 1.99-.089 3.235-1.6.415.147 2.516-1.996 2.71-.778-.996 1.306-3.968-.044-5.033-2.158 4.742.396 6.526-1.16 10.176.132-1.217-.675-.512-.954-.277.954-1.534.206-3.097.94-4.396-.426.055-.69-.11-.955-.263-.22 1.244.06 3.581-1.423 4.369v.65c.146-.138.308-.138.528.097-.19.18-.323.414-.426.663.015.083.03.166.059.235h-.132c-.294.913-.308 2.102-.793 2.82-.059-.428-.147-.829-.675-.663-.059.94 0 2.35-.807 1.88.836-1.23.278-4.313 1.702-2.322 0-.457.044-1.217.177-1.825-.191-.11-.353-.29-.47-.595.117-1.203.205-2.046.264-2.724-.72.885-.72 2.78-.72 3.416-.88.29-2.715 5.184-1.731 6.276-3.098 4.342 0 11.116-1.116 15.209.675-.125 1.013.207 1.013.981-.602.166-.646-.428-.984-.622-.381 1.438.852.664 1.028 1.341-.19 1.231-.264 3.885.69 5.323.03-.664.103-2.959.47-2.198.058 1.341-.118 2.682.25 3.567.88.083-.382-1.922.498-1.839.308.94.514 3.235-.675 3.65 1.262-.677.176 1.839 1.057 1.701.866-3.319 1.482-9.43-.235-12.195.998.304.705-.027 1.864-.179-.778 1.341.881 7.313-.836 10.148.763-.139 1.012.456 1.306.954-1.82 1.493-.529 4.756-.455 6.871.117 3.36.455 6.18 1.204 8.157-.088-.401-.382-.525-.661-.65-.396.498-.19 1.577-.132 2.53.455.097.558.374.925-.082.058 1.23.03 2.571.822 2.792-.66.54-.25 2.295.44 3.07-.03-.125-.059-.332-.059-.705-.014-1.245.28-2.171.25-3.263-.015-.042-.015-.069 0-.097a5.929 5.929 0 0 0-.25-1.493c.015-.885.323-.968.25-2.074.088 0 .161-.042.235-.083-.323-1.037-.382-1.383-.485-2.019v.014-.027c-.058-.415-.161-.968-.367-1.936a.595.595 0 0 1 .353 0c0-1.438.014-2.765.484-2.862-.117-.207-.264-.359-.44-.401.41-.041.822-.083 1.248-.111.543.65.337 2.558 1.012.982-.132.539.5 1.811-.176 1.811-.088-.276-.059-.705-.352-.677 0 .18-.03.415-.088.677.22.332.44.996.587 1.756.69-.304.235-1.728 1.1-1.88-.718 1.355.118 2.392-.366 3.636-.088-.622-.279-1.106-.66-1.327.131.871.16 1.756-.03 2.309.147 1.147.484 2.295 1.027 3.663-1.38.388-.396 1.162-.44 2.558-.205-.11-.587-.401-.983-.746.088 1.866.499 3.318.279 5.364.029.041.058.083.102.111.514-.83-.264-2.918.367-3.637.367 1.314.382 2.779.573 4.162.03-1.051.044-2.226.03-3.705.748.166.131 1.921.997 2.765a71.638 71.638 0 0 0-.205 3.567c.117.207.235.401.381.594-.278-4.244.367-8.489-.455-11.765-.029 1.631-.293 3.498-.719 4.147.206-2.972.118-5.253.25-6.926.323.11.47 1.106.47 2.322.498-.235.47-.981.733-1.451-.352 0-.44.567-.616.055 0-7.369.367-14.171-.088-23.352l-.059-.041Zm-7.222-27.9c-.03.18-.044.373-.059.566.044-.207.074-.4.059-.566Zm11.185 31.619h-.733c.058-.429.014-1.134 0-1.797-.147.096-.338.124-.573 0 .235 1.714-.602 3.885.147 4.272.088-.913.22-1.756.44-2.461 0 .788-.088 1.659-.161 2.516.132 0 .293-.028.499-.097.088 1.051-.28 1.189-.587 1.328v.414c.176.194.293.415.367.664.117-1.313.778-2.572.63-4.825l-.029-.014Zm-.557 5.931s0 .111-.015.18c.03.041.044.097.073.138-.029-.11-.044-.207-.058-.304v-.014Zm0 5.807c.117.111.264.194.425.29a2.618 2.618 0 0 0-.367-.94c-.029.208-.044.429-.058.65Zm.499.94c-.03.885-.059 1.798-.074 2.751.103-1.023.147-1.949.074-2.751Zm.058 8.807s-.058.055-.132.138c.015 1.065.044 2.143.088 3.222.044-1.148.074-2.281.044-3.36Zm2.966 22.19c.073 2.268-.485 8.766.499 10.397-.28-3.138.587-9.512-.5-10.397Zm.733 24.956c-.66-.18-.704 4.88-.249 5.544 1.086.028-.176-3.083.25-5.544Zm4.947 8.309c-.455 1.797.103 2.088-.25 4.162.852 1.092 1.175-4.646.25-4.162Zm-3.464.691c-.161-.705-.572-.719-.484-2.073-.235 2.018-.881 6.885.25 6.926.704-1.092-.559-3.719.249-4.853h-.015Zm-.734 17.338c-.425-1.77.47-7.825-.25-10.397-.44 2.323-.998 9.332.25 10.397Zm4.448-9.706c-.162 3.858.044 12.277.25 17.338.381-3.125.85-15.305-.25-17.338Zm5.431 10.397v-6.94c-.161 1.327-1.086 6.581 0 6.94Zm1.248-13.867c.161-.194.382-1.77.484-3.581v-3.47c-.073-.885-.22-1.618-.47-1.963v9l-.014.014Zm0-15.25c.161 1.369.279 2.904.47 4.217v-4.217c-.118-.097-.265-.11-.455 0h-.015Zm-.25-11.088c.764-3.014.353-7.521.69-10.411v-3.733c-1.1 2.116-1.086 10.466-.69 14.144Zm.705-18.955v-1.424c-.059.47-.059.926 0 1.424Zm1.908 4.811c-.176.042-.293.028-.396-.027-.074.11-.147.207-.235.304-.03.345-.044.608-.044.843.044 0 .073.028.132 0a5.675 5.675 0 0 0 1.013-1.299c.015-.664 0-1.189-.22-1.452.058.553 0 1.106-.25 1.617v.014Zm.455.401c-.543.304-.235 1.148.03 1.908.044 0 .073 0 .117.042-.147-.692-.147-1.355-.147-1.95Zm6.577 9.581c.792 2.918.25 6.194.25 10.397 1.144.152-.25-2.474.498-3.47.338.249.264 1.632.705 1.562 0-2.004 0-3.857.03-5.558-.074 1.134.087 2.862-.485 2.6-.558-.705.323-3.194 0-5.544h-.984l-.014.013Zm.983-6.926c.22 3.207-.573 5.005.25 6.235-.015-1.355.146-2.558.322-3.678.06-2.972.162-4.742.28-5.115-.867.553-1.057-2.807-1.087-3.456-.044-.885-.088-2.019-.117-3.291-.147 3.014-.323 6.07-.397 9.319.353.262.411.829.749 0v-.014Zm.073-20.587c1.307 1.162.206 8.337.632 12.526.337-4.217-.162-9.664.778-13.424-.25-.083-.5 2.986-.734.691.132-.429.25-.968.352-1.576-.617.235-.66 1.23-1.028 1.783Zm.896-6.622c.205-.332.396-.678.543-1.065-.015-1.078-.118-1.922-.279-2.226-.161.885-.132 2.323-.264 3.305v-.014Zm1.497-5.379c.47-2.322.455-4.548.47-6.746-.294-.263-.631-.471-.617-1.203.573-.139-.205-.719.28-.899.058.235.175.387.366.415 0-.636.044-1.272.103-1.908.044-1.549.337-3.457.499-4.729.059 1.134.059 2.019.059 2.793.235-.484.528-.898.836-1.313 0-1.286.03-2.599.162-3.871-.03-.208-.059-.401-.088-.623-.426-.179-1.116 0-1.307-.511 1.013-.111.397-.456-.058-.871-.206.456-.367.912-.367 1.355 0 .594 1.071.373.968.829-.044.222-1.144-.138-1.247.069-.485 1.065.279 2.06.147 3.512-.118 1.438-.382 3.014-.617 4.535-.117 3.788-.47 7.701.396 9.166h.015Zm-2.51-12.221c.411-.028.822-.042 1.248-.07-.162-2.239.044-3.843.381-5.24 0-1.631.133-2.765-.073-3.608-.837 3.567-1.497 6.871-1.556 8.931v-.013Zm2.554-12.927c0 1.686-.117 3.594-.264 5.42.308-.941.616-1.895.837-3.001-.03-.041-.074-.07-.103-.138.205-1.01.19-2.71.293-4.314l-.044-.705c-.235.899-.47 1.811-.704 2.737h-.015Zm6.063-6.61c.088-.359.161-.76.234-1.188-.044-.014-.058-.028-.117-.042-.03.36-.088.692-.132 1.037v.194h.015Zm-4.815-.912c-.088.152-.176.305-.323.429h.015c.146-.124.279-.249.337-.442h-.044l.015.013Zm.352-.041s.073.041.132.055c.28-.47.5-1.258.646-2.115-.279.58-.69 1.216-.778 2.06Zm4.903-1.867c.03-.248.044-.497.059-.746-.088.304-.147.567-.059.746Zm-4.169-1.064c-.132-.304-.352-.484-.616-.622-.103.304-.118.677-.118 1.05.235-.165.455-.387.734-.428Zm-2.334-1.245c.132-.635.25-1.285.308-1.935-.293.11-.293 1.05-.308 1.936Zm-1.835-3.774c.162-.774.323-1.562.485-2.323-.602.47-.602 1.37-.485 2.323Zm-.969-6.401c.089.083.177.193.294.36.117-.14.308-.803.264-1.287-.19.305-.367.623-.558.927Zm1.307 1.355c.426-.235.631-.166.763 0 .059-.277.118-.553.176-.816-.308-.525-.425-1.3-.807-1.715-.69.885-.279 1.3-.132 2.53Zm.367-5.365a6.962 6.962 0 0 1-.264 1.369c.102.194.22.387.293.719.543-.65.44-1.383.338-2.102-.118 0-.25 0-.367.014Zm1.086-.055c-.572.456-.587 1.604.117 1.687.118-.567.25-1.134.367-1.715-.161 0-.308.014-.47.028h-.014Zm2.628 1.438a1.15 1.15 0 0 1 .293-.11c.03-.222.059-.457.088-.692-.161.221-.264.525-.381.802Zm.572-2.558a8.07 8.07 0 0 1 .279-1.286c-.294-.29-.484-.124-.617.263.118.373.235.705.353 1.037l-.015-.014Zm-4.756-1.742c-.03.263-.132.512-.426.774.133.042.235.056.338.056.103-.318.147-.609.088-.83Zm-.69 1.52a.639.639 0 0 1 .396-.124c.03-.082.06-.165.103-.262-.176 0-.337.097-.499.387ZM58.1 63.34c.514 1.037 0 1.922-.088 3.236.147.041.235.041.337.041.456-.982 1.087-1.659.646-2.834.074-.055.147-.097.206-.138-.19-.36-.484-.567-1.13-.318l.029.014Zm1.732.222c.162.027.279.027.396-.29-.058-.263-.102-.498-.161-.706-.323.318-.352.65-.235.996Zm11.611-1.12a.676.676 0 0 1-.264.235c-.587 3.249-.646 6.747-.602 10.148.602-.443.837-1.41 1.057-2.42-.176 0-.367-.4-.015-.511.705.912-.25 3.553-1.027 3.442.044 2.434.103 4.812.03 6.941-.368 1.106-.97-.733-1.22.511-.073 1.065 1.41-.331.984 1.259-.132 1.12-.572.843-1.115.636l.044 2.516c.528-.249-.514-1.825.822-1.811-.206 1.258.484 1.12.41 2.184-.601.263-.91.871-1.232 1.493 0 .277-.015.553-.03.816a.326.326 0 0 1 .206-.11c.704 1.036.44 2.806.367 4.479 0 0 .03-.028.044-.014.088 1.19.206 1.977.264 2.6.059.138.088.29.176.414.309-.027.397.25.646.29-.352-1.534.147-3.345-.279-3.926.367.346.558.76.69 1.217.734-4.729.147-8.268.147-13.038-.308.083-.19 2.696-.558 1.355 1.233-7.494 1.864-17.24 1.483-22.992-.25.594-.44 1.244-.646 1.88.03.055.059.11.088.194-.132.207-.25.442-.367.663-.117.429-.176.871-.264 1.314a.3.3 0 0 1 .161.221v.014Zm-5.857-3.913c-.396 0-.822.07-1.218.249v.47c.558.318.279 1.535.117 2.046a3.398 3.398 0 0 0-.117.705c.455-1.078.851-2.24 1.218-3.456v-.014Zm-8.088.899c.264.29.397.774.411 1.396-.558.097-.675-.373-1.262-.249-.352 1.66 2.01-.373 1.644 1.286.587-.207.484-1.064 1.497-.857-.969-1.244-.822-1.48-.895-3.871-1.66-.415-.03 2.405-1.395 2.28v.015Zm2.892-.387c.176-.733.337-1.452.514-2.102-.22-.511-.5-.885-.837-.968.073.415-.03.636-.264.747.734.843.602 1.659.587 2.336v-.013Zm-7.031-5.323c-.03.304.146.332.337.332.5-.208.059 1.327-.205 1.451.558.429.748 1.314 1.937.899-.983-.221-.836-1.977-1.438-2.738-.206.028-.411.042-.617.056h-.014Zm4.638-1.521s.015.097.03.152c.146.207.176.346.117.484.03.124.059.263.088.415-.015.11-.103.193-.205.262v.125c.675-.221 1.056-.733 1.145-1.549-.397.042-.778.07-1.175.11Zm1.439-.844c.396 1.038 1.424-.815 1.336 1.314 1.071.166.293-1.493 1.468-1.217-.191-.788-1.806.36-1.336-1.313-.382-.76-.309 1.673-1.468 1.216Zm-8.294-2.46c0 .788.338 1.106 1.013.981.88-.594-.954-1.783.484-1.839-1.365-.36.558-2.184-.543-3.18-2.26.567.676 3.83-.969 4.038h.015Zm.352-8.31c.118 1.328.426.982.147 2.143 1.116.07 1.19-2.571-.147-2.143Zm4.536 2.461c.382.07.998-1.133.235-1.106-.015-.345.367-.304.602-.415.073-.622-.294-.65-.675-.65-.074-.414.03-.65.264-.746-1.263-.802-.837 2.115-.411 2.917h-.015Zm9.19-3.235c0 .194-.015.387-.015.567 0 .069 1.35 4.936-.103 2.89.176.442.308.995.396 1.576 1.087-1.19.426-3.346 1.82-4.452 0-1.093-.234-1.811-.719-2.17-.704-.14-1.115 1.714-1.394 1.575l.014.014Zm.807-7.715c-.147.747-.28 1.424-.411 2.074-.118 1.922-.294 3.664-.367 5.102.69-2.088 2.055-5.226.792-7.162l-.014-.014Zm37.769-1.41c.073.968 1.042.29.998 1.48.675.04.059-1.826.191-2.572-.617.041-.338 1.41-1.189 1.092Zm14.195-2.89c-.309.014-.617.042-.925.056-.044 1.189.132 1.963.425 2.53.441-.456.367-1.673.514-2.585h-.014Zm13.915 81.462c-1.027 1.576-.22 4.369-.058 5.627 1.409-.443.058-4.203.058-5.627Zm.573 6.111c-.617.401-1.204 1.617-.499 2.585.675-.124.602-1.327.499-2.585Zm.235 5.088c-2.731 3.29 1.556 13.3-1.806 15.443.352 1.064 2.041-1.438 1.644 1.949 1.219-3.207-.367-11.89.162-17.392Zm-5.211 158c0-.152 0-.318.014-.456.397 1.272.088 3.899-.014 6.346v2.461c.044.594.117 1.133.264 1.576.132-3.152.66-2.281.734-3.788v-.927c0-.152 0-.304-.015-.47 0 .125 0 .208.015.304 0-33.887 0-66.46-.147-91.457a.715.715 0 0 1-.117.235c-.059-.152-.162-6.056.058-8.281 0-1.964-.029-3.872-.044-5.71v.138c-.161-2.586-.425-8.13-.132-12.347-.176-12.304-.44-19.881-.822-20.738.235 2.806.22 64.842.22 133.142l-.014-.028Zm2.099-130.211c-1.189.484-.338 5.918 0 7.162.807-.705.602-4.991 0-7.162Zm2.466 6.498c-.323-.041-.881 113.98-.881 201.386.088.124.147.318.162.65a1.871 1.871 0 0 0-.162.401v3.498c.118.746.22 1.479.162 2.17-.059.055-.118.055-.162.028v10.853c.059.097.118.207.162.373.337 2.171.102 4.024-.147 4.867v4.963c.205.954.47 1.812.807 2.544.029-88.222.088-231.014.059-231.719v-.014Zm-.074 283.262c-.117 1.133 0 2.571-.161 3.636.059 0 .117-.069.161-.152v-3.484Zm-45.24 57.529c0 .815.396 2.226-.808 2.17.308.056.455.374.66.595.03-.097.104-.166.265-.208.015-.318.162-.608.323-.774a54.205 54.205 0 0 1-.455-1.783h.015Zm.66 6.926c-.25.443-.176 1.093-.073 1.715-.03-.498.059-.982.147-1.231a3.48 3.48 0 0 1-.074-.484Zm1.63 1.659-.206-.096c-.03.096-.044.207-.088.304a.925.925 0 0 1 .308-.208h-.015Zm-.793.664c-.191.111-.426.18-.749.194 0 .041.015.083.03.11.323 0 .543-.138.719-.304Zm-1.615 4.383c.059-.083.103-.166.162-.235a1.367 1.367 0 0 0-.133.304c.06.18.133.346.206.525.03-.29.25-.525.47-.65a6.781 6.781 0 0 0-.103-.47 1.01 1.01 0 0 0-.44.291c.117-.18.264-.291.44-.318-.059-.277-.117-.553-.176-.844-.162.028-.294-.083-.352-.553.117.028.176.014.25.014-.559-2.848-.984-5.71-.559-6.47-.279-.761-.66-1.341-1.013-2.005.118.387.22.691.294.982.03-.028.059-.056.103-.069.851 1.825.337 8.807.117 2.543-.058-.082-.161-.345-.25-.649-.132-.028-.293 0-.47.027.177 2.544.662 5.309 1.469 7.577h-.015Zm-3.112-2.613s.03-.056.015-.125c-.103-.414.059-1.576.367-2.571a9.473 9.473 0 0 1-.778-1.466c.117 1.369.235 2.765.382 4.162h.014Zm-8.059.415s-.029-.083-.029-.125c-.631.36-1.013.982-.763 2.212.616-.345.983-.94.792-2.087Zm-17.16 4.341c.676-.553 1.234.816 1.234-.111-.426-2.088-.778-9.941-2.51-13.425-.412.042-.235.65-.573.775-.073-1.922-1.321-2.475-.279-3.927-.117-.055-.587.429-.587.415-.866-2.904-1.923-10.19-1.6-13.867-.984-2.337-2.143-10.231-.705-9.996-.675 1.949.558 3.221 1.909 4.853-.661-2.309-.147-3.25 1.174-5.503-.778 0-.925.65-1.497.857.528-2.143-1.116-.76-2.29-1.576.69-1.728-2.1-4.521-.323-4.645-.587-.968-2.29-5.849-.103-5.738.073 1.092-.895 3.083.22 3.221-.572-1.23 1.042-.318.852-1.161-.734-1.272.998-1.798.088-3.235.88-.028.587-1.189.954-1.729v-.193c-.206-.014-.426-.014-.47-.263-.25.526-.382 1.217-.47 2.185-.748.221-.91-.36-1.027-.996-.206.194-.235.498.25 1.314-.397-.374-.69-.54-.955-.567-.014.456-.132.871-.396 1.161 0-.18 0-.525-.015-1.037-.396.318-.69 1.175-1.1 2.53.087-1.7-1.968-2.986-1.733-.691-1.072-.028-.837-3.678-2.216-2.779.748 2.115-.91.968-.999 2.779a93.07 93.07 0 0 1-.132 3.028c.925.152 1.365 2.032.734 2.793-.264-.346-.631-.526-.866-.913-.572 7.508-1.893 12.941-2.451 20.531 0 .028.014.069.03.097-.47 1.383.072 3.125 1.746 2.71 1.1 4.314 1.424 7.964 3.215 10.12.924 4.452 3.684 13.494 7.809 17.96-1.894-5.074-3.817-11.047-4.595-16.466-.044.29.044.705-.264.746-.073-2.71-1.57-6.415-.91-8.544-1.248-.816-.954-2.931-1.512-3.802.543-.263 1.365.926 1.556-.138-1.189.58-.837-1.245-1.57-.208.528-1.493-1.645-4.949-.074-5.392-1.424-.871.514-2.945-1.1-2.419 1.496-.374-.808-1.549.16-2.171.456.816.734 1.88 1.703 2.005-.778-1.258.822-.014 1.16-1.189-.015.995-1.864 1.908-.734 2.931-.72-1.217 1.306-1.894.543-1.12-.44.346-.367 1.189-.484 1.839.381-.498 1.115-.581 1.262.235-.352.097-.293.594-.235 1.106-.514.193-.836-.456-.924.083-.162.981 1.438-.387 1.291.594-1.541.304.28.609.103 1.424-.895-.484-1.321 1.051-.543 1.134-.543-.83.983-1.148.91-.442-.484 1.603.631 1.977.617 4.258-.808-.194-1.454-.401-1.835.525.44.042.557.539.983.622-.19-1.451.44.014 1.218-.47.177 1.798 1.483 4.425.044 5.033.147.124.837-.235.925-.083 1.38 2.157 2.173 9.802 3.465 13.687.513 1.549 1.717 2.517 2.084 3.042-.19-.263.044 1.811.675.65 0 1.161.66 1.452.514 2.82.44-.235 1.63.263 1.527-.497l-.925.083c1.013-2.116-.235-4.231-1.908-4.853h-.044Zm23.472 4.687c-.396.166-.66-.18-.88-.788v.069a.891.891 0 0 0-.03-.194c-.25-.719-.455-1.728-.748-2.668-.235.981-.338 1.949.014 2.945-.058.027-.088.069-.132.097.793 2.115 1.732 4.216 1.424 6.263-.514-.65 0-1.95-.749-3.042-.822 1.051.529 2.309-.161 3.539.91-.027 1.204.94 1.63 1.673-.485.526-1.204-.069-1.63-1.051v.194c0 .028.03.028.044.055 0 .139-.044.235-.073.346-.03.346-.044.705-.089 1.009.382-.124.734-.345.823-.511a6.828 6.828 0 0 0-.074 1.216c.059-.069.103-.11.206-.207a3.072 3.072 0 0 0-.162.553c.059.926.294 1.811.602 2.654.279-.207.573-.373.851-.442-.308-.885-.66-1.825-1.35-2.447.382-.429 1.468-.982 1.277.802.646-.318.617-.774.426-1.3a.904.904 0 0 1-.294.056c.03-.166.088-.291.132-.443-.176-.428-.381-.899-.396-1.382.205.29.382.622.528.954.162-.457.338-.899.573-1.314-.852-2.143-1.556-4.231-1.718-6.664l-.044.028Zm1.982 7.341c-.132.498-.206 1.051-.558 1.327.705 1.936 1.028 4.217 2.907 5.185-.646-2.461-1.542-4.521-2.349-6.512Zm-.264 6.319c-.308-.332-.514-.83-.705-1.369-.205.166-.66-.139-.94.207.06.152.118.291.177.443.396.082.41.331.264.594.103.235.22.456.323.691.396-.083.72-.235.866-.553l.015-.013Zm-1.806.663s-.03-.055-.058-.069a.549.549 0 0 1-.147.083c.073 0 .132 0 .205-.014Zm2.129 2.074s-.088.055-.147.069a.495.495 0 0 0 .073.152c.044-.083.044-.152.074-.235v.014Zm-4.213.802c-.044.221-.206.553-.147.995.543-.304 1.35 1.203 1.556-.096-.704.027-1.086-.346-1.321-.927-.03 0-.059 0-.088.014v.014Zm2.906-.346c0 .235-.146.277-.293.304.264.775.572.028.94-.055 0-.152 0-.29-.016-.428a5.024 5.024 0 0 1-.616.165l-.015.014Zm-6.15.346c-.529-.277-.426-1.079-.69-1.231-.088.664-.294 1.162-.558 1.549.484 1.12.954 2.184 1.424 3.124-.147-1.327-.162-2.543-.176-3.456v.014Z" fill="#111214"/></svg>