<svg width="652" height="26" viewBox="0 0 652 26" fill="none" xmlns="http://www.w3.org/2000/svg">
<path opacity="0.2" d="M232 2.57715H230.154C227.944 2.57715 226.154 4.36801 226.154 6.57715V12.6653M232 22.7534H230.154C227.944 22.7534 226.154 20.9625 226.154 18.7534V12.6653M226.154 12.6653H0.258804" stroke="url(#paint0_linear_320_194408)"/>
<path d="M263.103 17.3053C260.233 17.3053 258.469 15.4013 258.469 12.4753C258.469 9.54928 260.457 7.64528 263.677 7.64528C266.617 7.64528 268.479 9.01728 268.479 11.2713V11.3833H266.141V11.2713C266.141 10.1793 265.427 9.66128 263.621 9.66128C261.493 9.66128 260.695 10.3893 260.695 12.4753C260.695 14.5613 261.465 15.2893 263.523 15.2893C265.679 15.2893 266.337 14.9533 266.393 13.7633H263.215V12.2093H268.493V17.1653H266.547V15.1493H266.435C266.113 16.3813 265.133 17.3053 263.103 17.3053ZM272.363 17.1653H270.011L274.113 7.78528H277.109L281.239 17.1653H278.831L277.949 15.0933H273.259L272.363 17.1653ZM274.953 11.1593L274.071 13.2033H277.137L276.255 11.1593L275.681 9.70328H275.527L274.953 11.1593ZM284.949 17.1653H282.849V7.78528H285.691L287.889 12.4053L288.771 14.6033H288.925L289.779 12.4053L291.907 7.78528H294.763V17.1653H292.663V12.4053L292.733 10.9353H292.579L292.033 12.4053L290.073 16.6053H287.525L285.565 12.4053L285.019 10.9353H284.865L284.949 12.4053V17.1653ZM304.922 17.1653H296.984V7.78528H304.922V9.67528H299.084V11.5093H304.712V13.3853H299.084V15.2753H304.922V17.1653ZM312.371 17.1653H310.271V7.78528H318.209V9.67528H312.371V11.7893H317.999V13.6653H312.371V17.1653ZM328.161 17.1653H320.223V7.78528H328.161V9.67528H322.323V11.5093H327.951V13.3853H322.323V15.2753H328.161V17.1653ZM331.952 17.1653H329.6L333.702 7.78528H336.698L340.828 17.1653H338.42L337.538 15.0933H332.848L331.952 17.1653ZM334.542 11.1593L333.66 13.2033H336.726L335.844 11.1593L335.27 9.70328H335.116L334.542 11.1593ZM347.66 17.1653H345.56V9.67528H342.074V7.78528H351.146V9.67528H347.66V17.1653ZM357.555 17.3053C354.503 17.3053 352.949 15.7653 352.949 13.2453V7.78528H355.049V13.0913C355.049 14.6873 355.651 15.2613 357.555 15.2613C359.473 15.2613 360.061 14.6873 360.061 13.0913V7.78528H362.161V13.2453C362.161 15.7653 360.621 17.3053 357.555 17.3053ZM366.438 17.1653H364.338V7.78528H369.518C371.828 7.78528 373.144 8.80728 373.144 10.5993C373.144 12.1253 372.262 13.0353 370.498 13.2033V13.3153C371.338 13.5393 371.66 13.9873 372.01 14.6453L373.368 17.1653H370.932L369.644 14.7293C369.266 14.0013 368.916 13.7633 367.824 13.7633H366.438V17.1653ZM366.438 9.67528V12.1813H369.504C370.498 12.1813 370.946 11.9013 370.946 10.9213C370.946 9.99728 370.498 9.67528 369.504 9.67528H366.438ZM383.089 17.1653H375.151V7.78528H383.089V9.67528H377.251V11.5093H382.879V13.3853H377.251V15.2753H383.089V17.1653ZM389.414 17.3053C386.572 17.3053 384.976 16.1853 384.976 14.0013V13.9173H387.076V14.1693C387.076 15.0373 387.51 15.3873 389.414 15.3873C391.094 15.3873 391.486 15.1353 391.486 14.5053C391.486 13.9313 391.164 13.7213 390.198 13.5533L387.566 13.1753C385.886 12.9093 384.892 12.0693 384.892 10.5433C384.892 9.12928 386.04 7.64528 389.19 7.64528C392.074 7.64528 393.418 8.97528 393.418 10.9493V11.0333H391.304V10.8373C391.304 9.94128 390.842 9.56328 388.98 9.56328C387.468 9.56328 387.006 9.85728 387.006 10.4593C387.006 11.0053 387.314 11.2013 388.098 11.3413L390.73 11.7613C392.83 12.0973 393.586 13.1193 393.586 14.4073C393.586 15.9333 392.396 17.3053 389.414 17.3053Z" fill="#E7E8E8"/>
<path opacity="0.2" d="M420 2.57715H421.846C424.056 2.57715 425.846 4.36801 425.846 6.57715V12.6653M420 22.7534H421.846C424.056 22.7534 425.846 20.9625 425.846 18.7534V12.6653M425.846 12.6653H651.741" stroke="url(#paint1_linear_320_194408)"/>
<defs>
<linearGradient id="paint0_linear_320_194408" x1="240" y1="12.6653" x2="0.258808" y2="12.6653" gradientUnits="userSpaceOnUse">
<stop stop-color="white"/>
<stop offset="1" stop-color="white" stop-opacity="0"/>
</linearGradient>
<linearGradient id="paint1_linear_320_194408" x1="412" y1="12.6653" x2="651.741" y2="12.6653" gradientUnits="userSpaceOnUse">
<stop stop-color="white"/>
<stop offset="1" stop-color="white" stop-opacity="0"/>
</linearGradient>
</defs>
</svg>
