<svg width="390" height="652" viewBox="0 0 390 652" fill="none" xmlns="http://www.w3.org/2000/svg">
<g opacity="0.2" clip-path="url(#clip0_515_55605)">
<path d="M32.9786 3.30717C33.7243 3.30717 34.3288 2.70267 34.3288 1.95699C34.3288 1.21131 33.7243 0.606812 32.9786 0.606812C32.2329 0.606812 31.6284 1.21131 31.6284 1.95699C31.6284 2.70267 32.2329 3.30717 32.9786 3.30717Z" fill="white"/>
<path d="M86.9857 3.30717C87.7314 3.30717 88.3359 2.70267 88.3359 1.95699C88.3359 1.21131 87.7314 0.606812 86.9857 0.606812C86.24 0.606812 85.6355 1.21131 85.6355 1.95699C85.6355 2.70267 86.24 3.30717 86.9857 3.30717Z" fill="white"/>
<path d="M140.993 3.30717C141.738 3.30717 142.343 2.70267 142.343 1.95699C142.343 1.21131 141.738 0.606812 140.993 0.606812C140.247 0.606812 139.643 1.21131 139.643 1.95699C139.643 2.70267 140.247 3.30717 140.993 3.30717Z" fill="white"/>
<path d="M195 3.30717C195.746 3.30717 196.35 2.70267 196.35 1.95699C196.35 1.21131 195.746 0.606812 195 0.606812C194.254 0.606812 193.65 1.21131 193.65 1.95699C193.65 2.70267 194.254 3.30717 195 3.30717Z" fill="white"/>
<path d="M249.007 3.30717C249.753 3.30717 250.357 2.70267 250.357 1.95699C250.357 1.21131 249.753 0.606812 249.007 0.606812C248.261 0.606812 247.657 1.21131 247.657 1.95699C247.657 2.70267 248.261 3.30717 249.007 3.30717Z" fill="white"/>
<path d="M303.014 3.30717C303.76 3.30717 304.364 2.70267 304.364 1.95699C304.364 1.21131 303.76 0.606812 303.014 0.606812C302.269 0.606812 301.664 1.21131 301.664 1.95699C301.664 2.70267 302.269 3.30717 303.014 3.30717Z" fill="white"/>
<path d="M357.022 3.30717C357.767 3.30717 358.372 2.70267 358.372 1.95699C358.372 1.21131 357.767 0.606812 357.022 0.606812C356.276 0.606812 355.671 1.21131 355.671 1.95699C355.671 2.70267 356.276 3.30717 357.022 3.30717Z" fill="white"/>
<path d="M32.9786 57.3143C33.7243 57.3143 34.3288 56.7098 34.3288 55.9642C34.3288 55.2185 33.7243 54.614 32.9786 54.614C32.2329 54.614 31.6284 55.2185 31.6284 55.9642C31.6284 56.7098 32.2329 57.3143 32.9786 57.3143Z" fill="white"/>
<path d="M86.9857 57.3143C87.7314 57.3143 88.3359 56.7098 88.3359 55.9642C88.3359 55.2185 87.7314 54.614 86.9857 54.614C86.24 54.614 85.6355 55.2185 85.6355 55.9642C85.6355 56.7098 86.24 57.3143 86.9857 57.3143Z" fill="white"/>
<path d="M140.993 57.3143C141.738 57.3143 142.343 56.7098 142.343 55.9642C142.343 55.2185 141.738 54.614 140.993 54.614C140.247 54.614 139.643 55.2185 139.643 55.9642C139.643 56.7098 140.247 57.3143 140.993 57.3143Z" fill="white"/>
<path d="M195 57.3143C195.746 57.3143 196.35 56.7098 196.35 55.9642C196.35 55.2185 195.746 54.614 195 54.614C194.254 54.614 193.65 55.2185 193.65 55.9642C193.65 56.7098 194.254 57.3143 195 57.3143Z" fill="white"/>
<path d="M249.007 57.3143C249.753 57.3143 250.357 56.7098 250.357 55.9642C250.357 55.2185 249.753 54.614 249.007 54.614C248.261 54.614 247.657 55.2185 247.657 55.9642C247.657 56.7098 248.261 57.3143 249.007 57.3143Z" fill="white"/>
<path d="M303.014 57.3143C303.76 57.3143 304.364 56.7098 304.364 55.9642C304.364 55.2185 303.76 54.614 303.014 54.614C302.269 54.614 301.664 55.2185 301.664 55.9642C301.664 56.7098 302.269 57.3143 303.014 57.3143Z" fill="white"/>
<path d="M357.022 57.3143C357.767 57.3143 358.372 56.7098 358.372 55.9642C358.372 55.2185 357.767 54.614 357.022 54.614C356.276 54.614 355.671 55.2185 355.671 55.9642C355.671 56.7098 356.276 57.3143 357.022 57.3143Z" fill="white"/>
<path d="M32.9786 111.321C33.7243 111.321 34.3288 110.717 34.3288 109.971C34.3288 109.226 33.7243 108.621 32.9786 108.621C32.2329 108.621 31.6284 109.226 31.6284 109.971C31.6284 110.717 32.2329 111.321 32.9786 111.321Z" fill="white"/>
<path d="M86.9857 111.321C87.7314 111.321 88.3359 110.717 88.3359 109.971C88.3359 109.226 87.7314 108.621 86.9857 108.621C86.24 108.621 85.6355 109.226 85.6355 109.971C85.6355 110.717 86.24 111.321 86.9857 111.321Z" fill="white"/>
<path d="M140.993 111.321C141.738 111.321 142.343 110.717 142.343 109.971C142.343 109.226 141.738 108.621 140.993 108.621C140.247 108.621 139.643 109.226 139.643 109.971C139.643 110.717 140.247 111.321 140.993 111.321Z" fill="white"/>
<path d="M195 111.321C195.746 111.321 196.35 110.717 196.35 109.971C196.35 109.226 195.746 108.621 195 108.621C194.254 108.621 193.65 109.226 193.65 109.971C193.65 110.717 194.254 111.321 195 111.321Z" fill="white"/>
<path d="M249.007 111.321C249.753 111.321 250.357 110.717 250.357 109.971C250.357 109.226 249.753 108.621 249.007 108.621C248.261 108.621 247.657 109.226 247.657 109.971C247.657 110.717 248.261 111.321 249.007 111.321Z" fill="white"/>
<path d="M303.014 111.321C303.76 111.321 304.364 110.717 304.364 109.971C304.364 109.226 303.76 108.621 303.014 108.621C302.269 108.621 301.664 109.226 301.664 109.971C301.664 110.717 302.269 111.321 303.014 111.321Z" fill="white"/>
<path d="M357.022 111.321C357.767 111.321 358.372 110.717 358.372 109.971C358.372 109.226 357.767 108.621 357.022 108.621C356.276 108.621 355.671 109.226 355.671 109.971C355.671 110.717 356.276 111.321 357.022 111.321Z" fill="white"/>
<path d="M32.9786 165.329C33.7243 165.329 34.3288 164.724 34.3288 163.978C34.3288 163.233 33.7243 162.628 32.9786 162.628C32.2329 162.628 31.6284 163.233 31.6284 163.978C31.6284 164.724 32.2329 165.329 32.9786 165.329Z" fill="white"/>
<path d="M86.9857 165.329C87.7314 165.329 88.3359 164.724 88.3359 163.978C88.3359 163.233 87.7314 162.628 86.9857 162.628C86.24 162.628 85.6355 163.233 85.6355 163.978C85.6355 164.724 86.24 165.329 86.9857 165.329Z" fill="white"/>
<path d="M140.993 165.329C141.738 165.329 142.343 164.724 142.343 163.978C142.343 163.233 141.738 162.628 140.993 162.628C140.247 162.628 139.643 163.233 139.643 163.978C139.643 164.724 140.247 165.329 140.993 165.329Z" fill="white"/>
<path d="M195 165.329C195.746 165.329 196.35 164.724 196.35 163.978C196.35 163.233 195.746 162.628 195 162.628C194.254 162.628 193.65 163.233 193.65 163.978C193.65 164.724 194.254 165.329 195 165.329Z" fill="white"/>
<path d="M249.007 165.329C249.753 165.329 250.357 164.724 250.357 163.978C250.357 163.233 249.753 162.628 249.007 162.628C248.261 162.628 247.657 163.233 247.657 163.978C247.657 164.724 248.261 165.329 249.007 165.329Z" fill="white"/>
<path d="M303.014 165.329C303.76 165.329 304.364 164.724 304.364 163.978C304.364 163.233 303.76 162.628 303.014 162.628C302.269 162.628 301.664 163.233 301.664 163.978C301.664 164.724 302.269 165.329 303.014 165.329Z" fill="white"/>
<path d="M357.022 165.329C357.767 165.329 358.372 164.724 358.372 163.978C358.372 163.233 357.767 162.628 357.022 162.628C356.276 162.628 355.671 163.233 355.671 163.978C355.671 164.724 356.276 165.329 357.022 165.329Z" fill="white"/>
<path d="M32.9786 219.336C33.7243 219.336 34.3288 218.731 34.3288 217.986C34.3288 217.24 33.7243 216.635 32.9786 216.635C32.2329 216.635 31.6284 217.24 31.6284 217.986C31.6284 218.731 32.2329 219.336 32.9786 219.336Z" fill="white"/>
<path d="M86.9857 219.336C87.7314 219.336 88.3359 218.731 88.3359 217.986C88.3359 217.24 87.7314 216.635 86.9857 216.635C86.24 216.635 85.6355 217.24 85.6355 217.986C85.6355 218.731 86.24 219.336 86.9857 219.336Z" fill="white"/>
<path d="M140.993 219.336C141.738 219.336 142.343 218.731 142.343 217.986C142.343 217.24 141.738 216.635 140.993 216.635C140.247 216.635 139.643 217.24 139.643 217.986C139.643 218.731 140.247 219.336 140.993 219.336Z" fill="white"/>
<path d="M195 219.336C195.746 219.336 196.35 218.731 196.35 217.986C196.35 217.24 195.746 216.635 195 216.635C194.254 216.635 193.65 217.24 193.65 217.986C193.65 218.731 194.254 219.336 195 219.336Z" fill="white"/>
<path d="M249.007 219.336C249.753 219.336 250.357 218.731 250.357 217.986C250.357 217.24 249.753 216.635 249.007 216.635C248.261 216.635 247.657 217.24 247.657 217.986C247.657 218.731 248.261 219.336 249.007 219.336Z" fill="white"/>
<path d="M303.014 219.336C303.76 219.336 304.364 218.731 304.364 217.986C304.364 217.24 303.76 216.635 303.014 216.635C302.269 216.635 301.664 217.24 301.664 217.986C301.664 218.731 302.269 219.336 303.014 219.336Z" fill="white"/>
<path d="M357.022 219.336C357.767 219.336 358.372 218.731 358.372 217.986C358.372 217.24 357.767 216.635 357.022 216.635C356.276 216.635 355.671 217.24 355.671 217.986C355.671 218.731 356.276 219.336 357.022 219.336Z" fill="white"/>
<path d="M32.9786 273.343C33.7243 273.343 34.3288 272.738 34.3288 271.993C34.3288 271.247 33.7243 270.643 32.9786 270.643C32.2329 270.643 31.6284 271.247 31.6284 271.993C31.6284 272.738 32.2329 273.343 32.9786 273.343Z" fill="white"/>
<path d="M86.9857 273.343C87.7314 273.343 88.3359 272.738 88.3359 271.993C88.3359 271.247 87.7314 270.643 86.9857 270.643C86.24 270.643 85.6355 271.247 85.6355 271.993C85.6355 272.738 86.24 273.343 86.9857 273.343Z" fill="white"/>
<path d="M140.993 273.343C141.738 273.343 142.343 272.738 142.343 271.993C142.343 271.247 141.738 270.643 140.993 270.643C140.247 270.643 139.643 271.247 139.643 271.993C139.643 272.738 140.247 273.343 140.993 273.343Z" fill="white"/>
<path d="M195 273.343C195.746 273.343 196.35 272.738 196.35 271.993C196.35 271.247 195.746 270.643 195 270.643C194.254 270.643 193.65 271.247 193.65 271.993C193.65 272.738 194.254 273.343 195 273.343Z" fill="white"/>
<path d="M249.007 273.343C249.753 273.343 250.357 272.738 250.357 271.993C250.357 271.247 249.753 270.643 249.007 270.643C248.261 270.643 247.657 271.247 247.657 271.993C247.657 272.738 248.261 273.343 249.007 273.343Z" fill="white"/>
<path d="M303.014 273.343C303.76 273.343 304.364 272.738 304.364 271.993C304.364 271.247 303.76 270.643 303.014 270.643C302.269 270.643 301.664 271.247 301.664 271.993C301.664 272.738 302.269 273.343 303.014 273.343Z" fill="white"/>
<path d="M357.022 273.343C357.767 273.343 358.372 272.738 358.372 271.993C358.372 271.247 357.767 270.643 357.022 270.643C356.276 270.643 355.671 271.247 355.671 271.993C355.671 272.738 356.276 273.343 357.022 273.343Z" fill="white"/>
<path d="M32.9786 327.35C33.7243 327.35 34.3288 326.746 34.3288 326C34.3288 325.254 33.7243 324.65 32.9786 324.65C32.2329 324.65 31.6284 325.254 31.6284 326C31.6284 326.746 32.2329 327.35 32.9786 327.35Z" fill="white"/>
<path d="M86.9857 327.35C87.7314 327.35 88.3359 326.746 88.3359 326C88.3359 325.254 87.7314 324.65 86.9857 324.65C86.24 324.65 85.6355 325.254 85.6355 326C85.6355 326.746 86.24 327.35 86.9857 327.35Z" fill="white"/>
<path d="M140.993 327.35C141.738 327.35 142.343 326.746 142.343 326C142.343 325.254 141.738 324.65 140.993 324.65C140.247 324.65 139.643 325.254 139.643 326C139.643 326.746 140.247 327.35 140.993 327.35Z" fill="white"/>
<path d="M195 327.35C195.746 327.35 196.35 326.746 196.35 326C196.35 325.254 195.746 324.65 195 324.65C194.254 324.65 193.65 325.254 193.65 326C193.65 326.746 194.254 327.35 195 327.35Z" fill="white"/>
<path d="M249.007 327.35C249.753 327.35 250.357 326.746 250.357 326C250.357 325.254 249.753 324.65 249.007 324.65C248.261 324.65 247.657 325.254 247.657 326C247.657 326.746 248.261 327.35 249.007 327.35Z" fill="white"/>
<path d="M303.014 327.35C303.76 327.35 304.364 326.746 304.364 326C304.364 325.254 303.76 324.65 303.014 324.65C302.269 324.65 301.664 325.254 301.664 326C301.664 326.746 302.269 327.35 303.014 327.35Z" fill="white"/>
<path d="M357.022 327.35C357.767 327.35 358.372 326.746 358.372 326C358.372 325.254 357.767 324.65 357.022 324.65C356.276 324.65 355.671 325.254 355.671 326C355.671 326.746 356.276 327.35 357.022 327.35Z" fill="white"/>
<path d="M32.9786 381.357C33.7243 381.357 34.3288 380.753 34.3288 380.007C34.3288 379.261 33.7243 378.657 32.9786 378.657C32.2329 378.657 31.6284 379.261 31.6284 380.007C31.6284 380.753 32.2329 381.357 32.9786 381.357Z" fill="white"/>
<path d="M86.9857 381.357C87.7314 381.357 88.3359 380.753 88.3359 380.007C88.3359 379.261 87.7314 378.657 86.9857 378.657C86.24 378.657 85.6355 379.261 85.6355 380.007C85.6355 380.753 86.24 381.357 86.9857 381.357Z" fill="white"/>
<path d="M140.993 381.357C141.738 381.357 142.343 380.753 142.343 380.007C142.343 379.261 141.738 378.657 140.993 378.657C140.247 378.657 139.643 379.261 139.643 380.007C139.643 380.753 140.247 381.357 140.993 381.357Z" fill="white"/>
<path d="M195 381.357C195.746 381.357 196.35 380.753 196.35 380.007C196.35 379.261 195.746 378.657 195 378.657C194.254 378.657 193.65 379.261 193.65 380.007C193.65 380.753 194.254 381.357 195 381.357Z" fill="white"/>
<path d="M249.007 381.357C249.753 381.357 250.357 380.753 250.357 380.007C250.357 379.261 249.753 378.657 249.007 378.657C248.261 378.657 247.657 379.261 247.657 380.007C247.657 380.753 248.261 381.357 249.007 381.357Z" fill="white"/>
<path d="M303.014 381.357C303.76 381.357 304.364 380.753 304.364 380.007C304.364 379.261 303.76 378.657 303.014 378.657C302.269 378.657 301.664 379.261 301.664 380.007C301.664 380.753 302.269 381.357 303.014 381.357Z" fill="white"/>
<path d="M357.022 381.357C357.767 381.357 358.372 380.753 358.372 380.007C358.372 379.261 357.767 378.657 357.022 378.657C356.276 378.657 355.671 379.261 355.671 380.007C355.671 380.753 356.276 381.357 357.022 381.357Z" fill="white"/>
<path d="M32.9786 435.364C33.7243 435.364 34.3288 434.76 34.3288 434.014C34.3288 433.269 33.7243 432.664 32.9786 432.664C32.2329 432.664 31.6284 433.269 31.6284 434.014C31.6284 434.76 32.2329 435.364 32.9786 435.364Z" fill="white"/>
<path d="M86.9857 435.364C87.7314 435.364 88.3359 434.76 88.3359 434.014C88.3359 433.269 87.7314 432.664 86.9857 432.664C86.24 432.664 85.6355 433.269 85.6355 434.014C85.6355 434.76 86.24 435.364 86.9857 435.364Z" fill="white"/>
<path d="M140.993 435.364C141.738 435.364 142.343 434.76 142.343 434.014C142.343 433.269 141.738 432.664 140.993 432.664C140.247 432.664 139.643 433.269 139.643 434.014C139.643 434.76 140.247 435.364 140.993 435.364Z" fill="white"/>
<path d="M195 435.364C195.746 435.364 196.35 434.76 196.35 434.014C196.35 433.269 195.746 432.664 195 432.664C194.254 432.664 193.65 433.269 193.65 434.014C193.65 434.76 194.254 435.364 195 435.364Z" fill="white"/>
<path d="M249.007 435.364C249.753 435.364 250.357 434.76 250.357 434.014C250.357 433.269 249.753 432.664 249.007 432.664C248.261 432.664 247.657 433.269 247.657 434.014C247.657 434.76 248.261 435.364 249.007 435.364Z" fill="white"/>
<path d="M303.014 435.364C303.76 435.364 304.364 434.76 304.364 434.014C304.364 433.269 303.76 432.664 303.014 432.664C302.269 432.664 301.664 433.269 301.664 434.014C301.664 434.76 302.269 435.364 303.014 435.364Z" fill="white"/>
<path d="M357.022 435.364C357.767 435.364 358.372 434.76 358.372 434.014C358.372 433.269 357.767 432.664 357.022 432.664C356.276 432.664 355.671 433.269 355.671 434.014C355.671 434.76 356.276 435.364 357.022 435.364Z" fill="white"/>
<path d="M32.9786 489.372C33.7243 489.372 34.3288 488.767 34.3288 488.021C34.3288 487.276 33.7243 486.671 32.9786 486.671C32.2329 486.671 31.6284 487.276 31.6284 488.021C31.6284 488.767 32.2329 489.372 32.9786 489.372Z" fill="white"/>
<path d="M86.9857 489.372C87.7314 489.372 88.3359 488.767 88.3359 488.021C88.3359 487.276 87.7314 486.671 86.9857 486.671C86.24 486.671 85.6355 487.276 85.6355 488.021C85.6355 488.767 86.24 489.372 86.9857 489.372Z" fill="white"/>
<path d="M140.993 489.372C141.738 489.372 142.343 488.767 142.343 488.021C142.343 487.276 141.738 486.671 140.993 486.671C140.247 486.671 139.643 487.276 139.643 488.021C139.643 488.767 140.247 489.372 140.993 489.372Z" fill="white"/>
<path d="M195 489.372C195.746 489.372 196.35 488.767 196.35 488.021C196.35 487.276 195.746 486.671 195 486.671C194.254 486.671 193.65 487.276 193.65 488.021C193.65 488.767 194.254 489.372 195 489.372Z" fill="white"/>
<path d="M249.007 489.372C249.753 489.372 250.357 488.767 250.357 488.021C250.357 487.276 249.753 486.671 249.007 486.671C248.261 486.671 247.657 487.276 247.657 488.021C247.657 488.767 248.261 489.372 249.007 489.372Z" fill="white"/>
<path d="M303.014 489.372C303.76 489.372 304.364 488.767 304.364 488.021C304.364 487.276 303.76 486.671 303.014 486.671C302.269 486.671 301.664 487.276 301.664 488.021C301.664 488.767 302.269 489.372 303.014 489.372Z" fill="white"/>
<path d="M357.022 489.372C357.767 489.372 358.372 488.767 358.372 488.021C358.372 487.276 357.767 486.671 357.022 486.671C356.276 486.671 355.671 487.276 355.671 488.021C355.671 488.767 356.276 489.372 357.022 489.372Z" fill="white"/>
<path d="M32.9786 543.379C33.7243 543.379 34.3288 542.774 34.3288 542.029C34.3288 541.283 33.7243 540.678 32.9786 540.678C32.2329 540.678 31.6284 541.283 31.6284 542.029C31.6284 542.774 32.2329 543.379 32.9786 543.379Z" fill="white"/>
<path d="M86.9857 543.379C87.7314 543.379 88.3359 542.774 88.3359 542.029C88.3359 541.283 87.7314 540.678 86.9857 540.678C86.24 540.678 85.6355 541.283 85.6355 542.029C85.6355 542.774 86.24 543.379 86.9857 543.379Z" fill="white"/>
<path d="M140.993 543.379C141.738 543.379 142.343 542.774 142.343 542.029C142.343 541.283 141.738 540.678 140.993 540.678C140.247 540.678 139.643 541.283 139.643 542.029C139.643 542.774 140.247 543.379 140.993 543.379Z" fill="white"/>
<path d="M195 543.379C195.746 543.379 196.35 542.774 196.35 542.029C196.35 541.283 195.746 540.678 195 540.678C194.254 540.678 193.65 541.283 193.65 542.029C193.65 542.774 194.254 543.379 195 543.379Z" fill="white"/>
<path d="M249.007 543.379C249.753 543.379 250.357 542.774 250.357 542.029C250.357 541.283 249.753 540.678 249.007 540.678C248.261 540.678 247.657 541.283 247.657 542.029C247.657 542.774 248.261 543.379 249.007 543.379Z" fill="white"/>
<path d="M303.014 543.379C303.76 543.379 304.364 542.774 304.364 542.029C304.364 541.283 303.76 540.678 303.014 540.678C302.269 540.678 301.664 541.283 301.664 542.029C301.664 542.774 302.269 543.379 303.014 543.379Z" fill="white"/>
<path d="M357.022 543.379C357.767 543.379 358.372 542.774 358.372 542.029C358.372 541.283 357.767 540.678 357.022 540.678C356.276 540.678 355.671 541.283 355.671 542.029C355.671 542.774 356.276 543.379 357.022 543.379Z" fill="white"/>
<path d="M32.9786 597.386C33.7243 597.386 34.3288 596.781 34.3288 596.036C34.3288 595.29 33.7243 594.686 32.9786 594.686C32.2329 594.686 31.6284 595.29 31.6284 596.036C31.6284 596.781 32.2329 597.386 32.9786 597.386Z" fill="white"/>
<path d="M86.9857 597.386C87.7314 597.386 88.3359 596.781 88.3359 596.036C88.3359 595.29 87.7314 594.686 86.9857 594.686C86.24 594.686 85.6355 595.29 85.6355 596.036C85.6355 596.781 86.24 597.386 86.9857 597.386Z" fill="white"/>
<path d="M140.993 597.386C141.738 597.386 142.343 596.781 142.343 596.036C142.343 595.29 141.738 594.686 140.993 594.686C140.247 594.686 139.643 595.29 139.643 596.036C139.643 596.781 140.247 597.386 140.993 597.386Z" fill="white"/>
<path d="M195 597.386C195.746 597.386 196.35 596.781 196.35 596.036C196.35 595.29 195.746 594.686 195 594.686C194.254 594.686 193.65 595.29 193.65 596.036C193.65 596.781 194.254 597.386 195 597.386Z" fill="white"/>
<path d="M249.007 597.386C249.753 597.386 250.357 596.781 250.357 596.036C250.357 595.29 249.753 594.686 249.007 594.686C248.261 594.686 247.657 595.29 247.657 596.036C247.657 596.781 248.261 597.386 249.007 597.386Z" fill="white"/>
<path d="M303.014 597.386C303.76 597.386 304.364 596.781 304.364 596.036C304.364 595.29 303.76 594.686 303.014 594.686C302.269 594.686 301.664 595.29 301.664 596.036C301.664 596.781 302.269 597.386 303.014 597.386Z" fill="white"/>
<path d="M357.022 597.386C357.767 597.386 358.372 596.781 358.372 596.036C358.372 595.29 357.767 594.686 357.022 594.686C356.276 594.686 355.671 595.29 355.671 596.036C355.671 596.781 356.276 597.386 357.022 597.386Z" fill="white"/>
<path d="M32.9786 651.393C33.7243 651.393 34.3288 650.789 34.3288 650.043C34.3288 649.297 33.7243 648.693 32.9786 648.693C32.2329 648.693 31.6284 649.297 31.6284 650.043C31.6284 650.789 32.2329 651.393 32.9786 651.393Z" fill="white"/>
<path d="M86.9857 651.393C87.7314 651.393 88.3359 650.789 88.3359 650.043C88.3359 649.297 87.7314 648.693 86.9857 648.693C86.24 648.693 85.6355 649.297 85.6355 650.043C85.6355 650.789 86.24 651.393 86.9857 651.393Z" fill="white"/>
<path d="M140.993 651.393C141.738 651.393 142.343 650.789 142.343 650.043C142.343 649.297 141.738 648.693 140.993 648.693C140.247 648.693 139.643 649.297 139.643 650.043C139.643 650.789 140.247 651.393 140.993 651.393Z" fill="white"/>
<path d="M195 651.393C195.746 651.393 196.35 650.789 196.35 650.043C196.35 649.297 195.746 648.693 195 648.693C194.254 648.693 193.65 649.297 193.65 650.043C193.65 650.789 194.254 651.393 195 651.393Z" fill="white"/>
<path d="M249.007 651.393C249.753 651.393 250.357 650.789 250.357 650.043C250.357 649.297 249.753 648.693 249.007 648.693C248.261 648.693 247.657 649.297 247.657 650.043C247.657 650.789 248.261 651.393 249.007 651.393Z" fill="white"/>
<path d="M303.014 651.393C303.76 651.393 304.364 650.789 304.364 650.043C304.364 649.297 303.76 648.693 303.014 648.693C302.269 648.693 301.664 649.297 301.664 650.043C301.664 650.789 302.269 651.393 303.014 651.393Z" fill="white"/>
<path d="M357.022 651.393C357.767 651.393 358.372 650.789 358.372 650.043C358.372 649.297 357.767 648.693 357.022 648.693C356.276 648.693 355.671 649.297 355.671 650.043C355.671 650.789 356.276 651.393 357.022 651.393Z" fill="white"/>
<path d="M33.1405 -160.064H32.803V812.064H33.1405V-160.064Z" fill="white"/>
<path d="M195.162 -160.064H194.824V812.064H195.162V-160.064Z" fill="white"/>
<path d="M357.183 -160.064H356.846V812.064H357.183V-160.064Z" fill="white"/>
<path d="M681.064 1.78149H-291.064V2.11904H681.064V1.78149Z" fill="white"/>
<path d="M681.064 163.803H-291.064V164.14H681.064V163.803Z" fill="white"/>
<path d="M681.064 325.824H-291.064V326.162H681.064V325.824Z" fill="white"/>
<path d="M681.064 487.846H-291.064V488.183H681.064V487.846Z" fill="white"/>
<path d="M681.064 649.867H-291.064V650.205H681.064V649.867Z" fill="white"/>
<path d="M44.9141 1.28198H21.043V2.63216H44.9141V1.28198Z" fill="white"/>
<path d="M33.6536 -9.97852H32.3035V13.8926H33.6536V-9.97852Z" fill="white"/>
<path d="M206.936 1.28198H183.064V2.63216H206.936V1.28198Z" fill="white"/>
<path d="M195.675 -9.97852H194.325V13.8926H195.675V-9.97852Z" fill="white"/>
<path d="M368.957 1.28198H345.086V2.63216H368.957V1.28198Z" fill="white"/>
<path d="M357.697 -9.97852H356.346V13.8926H357.697V-9.97852Z" fill="white"/>
<path d="M44.9141 163.303H21.043V164.654H44.9141V163.303Z" fill="white"/>
<path d="M33.6536 152.043H32.3035V175.914H33.6536V152.043Z" fill="white"/>
<path d="M206.936 163.303H183.064V164.654H206.936V163.303Z" fill="white"/>
<path d="M195.675 152.043H194.325V175.914H195.675V152.043Z" fill="white"/>
<path d="M368.957 163.303H345.086V164.654H368.957V163.303Z" fill="white"/>
<path d="M357.697 152.043H356.346V175.914H357.697V152.043Z" fill="white"/>
<path d="M44.9141 325.325H21.043V326.675H44.9141V325.325Z" fill="white"/>
<path d="M33.6536 314.064H32.3035V337.936H33.6536V314.064Z" fill="white"/>
<path d="M206.936 325.325H183.064V326.675H206.936V325.325Z" fill="white"/>
<path d="M195.675 314.064H194.325V337.936H195.675V314.064Z" fill="white"/>
<path d="M368.957 325.325H345.086V326.675H368.957V325.325Z" fill="white"/>
<path d="M357.697 314.064H356.346V337.936H357.697V314.064Z" fill="white"/>
<path d="M44.9141 487.346H21.043V488.697H44.9141V487.346Z" fill="white"/>
<path d="M33.6536 476.086H32.3035V499.957H33.6536V476.086Z" fill="white"/>
<path d="M206.936 487.346H183.064V488.697H206.936V487.346Z" fill="white"/>
<path d="M195.675 476.086H194.325V499.957H195.675V476.086Z" fill="white"/>
<path d="M368.957 487.346H345.086V488.697H368.957V487.346Z" fill="white"/>
<path d="M357.697 476.086H356.346V499.957H357.697V476.086Z" fill="white"/>
<path d="M44.9141 649.368H21.043V650.718H44.9141V649.368Z" fill="white"/>
<path d="M33.6536 638.107H32.3035V661.979H33.6536V638.107Z" fill="white"/>
<path d="M206.936 649.368H183.064V650.718H206.936V649.368Z" fill="white"/>
<path d="M195.675 638.107H194.325V661.979H195.675V638.107Z" fill="white"/>
<path d="M368.957 649.368H345.086V650.718H368.957V649.368Z" fill="white"/>
<path d="M357.697 638.107H356.346V661.979H357.697V638.107Z" fill="white"/>
<path d="M-279.286 -172H669.286V460.245H-279.286V-172Z" fill="url(#paint0_linear_515_55605)"/>
<rect width="948.571" height="509.936" transform="matrix(1 0 0 -1 -303 824)" fill="url(#paint1_linear_515_55605)"/>
</g>
<defs>
<linearGradient id="paint0_linear_515_55605" x1="195" y1="-172" x2="195" y2="460.245" gradientUnits="userSpaceOnUse">
<stop stop-color="#111214"/>
<stop offset="1" stop-color="#111214" stop-opacity="0"/>
</linearGradient>
<linearGradient id="paint1_linear_515_55605" x1="474.286" y1="0" x2="474.286" y2="509.936" gradientUnits="userSpaceOnUse">
<stop stop-color="#111214"/>
<stop offset="1" stop-color="#111214" stop-opacity="0"/>
</linearGradient>
<clipPath id="clip0_515_55605">
<rect width="948.571" height="996" fill="white" transform="translate(-279.286 -172)"/>
</clipPath>
</defs>
</svg>
