<svg width="1440" height="1512" viewBox="0 0 1440 1512" fill="none" xmlns="http://www.w3.org/2000/svg">
<g opacity="0.2" clip-path="url(#clip0_320_185700)">
<path d="M64.1059 20.1668C65.2379 20.1668 66.1556 19.2492 66.1556 18.1172C66.1556 16.9852 65.2379 16.0675 64.1059 16.0675C62.9739 16.0675 62.0563 16.9852 62.0563 18.1172C62.0563 19.2492 62.9739 20.1668 64.1059 20.1668Z" fill="white"/>
<path d="M146.093 20.1668C147.225 20.1668 148.142 19.2492 148.142 18.1172C148.142 16.9852 147.225 16.0675 146.093 16.0675C144.961 16.0675 144.043 16.9852 144.043 18.1172C144.043 19.2492 144.961 20.1668 146.093 20.1668Z" fill="white"/>
<path d="M228.079 20.1668C229.211 20.1668 230.129 19.2492 230.129 18.1172C230.129 16.9852 229.211 16.0675 228.079 16.0675C226.947 16.0675 226.03 16.9852 226.03 18.1172C226.03 19.2492 226.947 20.1668 228.079 20.1668Z" fill="white"/>
<path d="M310.066 20.1668C311.198 20.1668 312.116 19.2492 312.116 18.1172C312.116 16.9852 311.198 16.0675 310.066 16.0675C308.934 16.0675 308.017 16.9852 308.017 18.1172C308.017 19.2492 308.934 20.1668 310.066 20.1668Z" fill="white"/>
<path d="M392.053 20.1668C393.185 20.1668 394.103 19.2492 394.103 18.1172C394.103 16.9852 393.185 16.0675 392.053 16.0675C390.921 16.0675 390.003 16.9852 390.003 18.1172C390.003 19.2492 390.921 20.1668 392.053 20.1668Z" fill="white"/>
<path d="M474.04 20.1668C475.172 20.1668 476.089 19.2492 476.089 18.1172C476.089 16.9852 475.172 16.0675 474.04 16.0675C472.908 16.0675 471.99 16.9852 471.99 18.1172C471.99 19.2492 472.908 20.1668 474.04 20.1668Z" fill="white"/>
<path d="M556.026 20.1668C557.158 20.1668 558.076 19.2492 558.076 18.1172C558.076 16.9852 557.158 16.0675 556.026 16.0675C554.894 16.0675 553.977 16.9852 553.977 18.1172C553.977 19.2492 554.894 20.1668 556.026 20.1668Z" fill="white"/>
<path d="M638.013 20.1668C639.145 20.1668 640.063 19.2492 640.063 18.1172C640.063 16.9852 639.145 16.0675 638.013 16.0675C636.881 16.0675 635.964 16.9852 635.964 18.1172C635.964 19.2492 636.881 20.1668 638.013 20.1668Z" fill="white"/>
<path d="M720 20.1668C721.132 20.1668 722.05 19.2492 722.05 18.1172C722.05 16.9852 721.132 16.0675 720 16.0675C718.868 16.0675 717.95 16.9852 717.95 18.1172C717.95 19.2492 718.868 20.1668 720 20.1668Z" fill="white"/>
<path d="M801.987 20.1668C803.119 20.1668 804.037 19.2492 804.037 18.1172C804.037 16.9852 803.119 16.0675 801.987 16.0675C800.855 16.0675 799.937 16.9852 799.937 18.1172C799.937 19.2492 800.855 20.1668 801.987 20.1668Z" fill="white"/>
<path d="M883.973 20.1668C885.105 20.1668 886.023 19.2492 886.023 18.1172C886.023 16.9852 885.105 16.0675 883.973 16.0675C882.841 16.0675 881.924 16.9852 881.924 18.1172C881.924 19.2492 882.841 20.1668 883.973 20.1668Z" fill="white"/>
<path d="M965.96 20.1668C967.092 20.1668 968.01 19.2492 968.01 18.1172C968.01 16.9852 967.092 16.0675 965.96 16.0675C964.828 16.0675 963.911 16.9852 963.911 18.1172C963.911 19.2492 964.828 20.1668 965.96 20.1668Z" fill="white"/>
<path d="M1047.95 20.1668C1049.08 20.1668 1050 19.2492 1050 18.1172C1050 16.9852 1049.08 16.0675 1047.95 16.0675C1046.82 16.0675 1045.9 16.9852 1045.9 18.1172C1045.9 19.2492 1046.82 20.1668 1047.95 20.1668Z" fill="white"/>
<path d="M1129.93 20.1668C1131.07 20.1668 1131.98 19.2492 1131.98 18.1172C1131.98 16.9852 1131.07 16.0675 1129.93 16.0675C1128.8 16.0675 1127.88 16.9852 1127.88 18.1172C1127.88 19.2492 1128.8 20.1668 1129.93 20.1668Z" fill="white"/>
<path d="M1211.92 20.1668C1213.05 20.1668 1213.97 19.2492 1213.97 18.1172C1213.97 16.9852 1213.05 16.0675 1211.92 16.0675C1210.79 16.0675 1209.87 16.9852 1209.87 18.1172C1209.87 19.2492 1210.79 20.1668 1211.92 20.1668Z" fill="white"/>
<path d="M1293.91 20.1668C1295.04 20.1668 1295.96 19.2492 1295.96 18.1172C1295.96 16.9852 1295.04 16.0675 1293.91 16.0675C1292.78 16.0675 1291.86 16.9852 1291.86 18.1172C1291.86 19.2492 1292.78 20.1668 1293.91 20.1668Z" fill="white"/>
<path d="M1375.89 20.1668C1377.03 20.1668 1377.94 19.2492 1377.94 18.1172C1377.94 16.9852 1377.03 16.0675 1375.89 16.0675C1374.76 16.0675 1373.84 16.9852 1373.84 18.1172C1373.84 19.2492 1374.76 20.1668 1375.89 20.1668Z" fill="white"/>
<path d="M64.1059 102.154C65.2379 102.154 66.1556 101.236 66.1556 100.104C66.1556 98.972 65.2379 98.0543 64.1059 98.0543C62.9739 98.0543 62.0563 98.972 62.0563 100.104C62.0563 101.236 62.9739 102.154 64.1059 102.154Z" fill="white"/>
<path d="M146.093 102.154C147.225 102.154 148.142 101.236 148.142 100.104C148.142 98.972 147.225 98.0543 146.093 98.0543C144.961 98.0543 144.043 98.972 144.043 100.104C144.043 101.236 144.961 102.154 146.093 102.154Z" fill="white"/>
<path d="M228.079 102.154C229.211 102.154 230.129 101.236 230.129 100.104C230.129 98.972 229.211 98.0543 228.079 98.0543C226.947 98.0543 226.03 98.972 226.03 100.104C226.03 101.236 226.947 102.154 228.079 102.154Z" fill="white"/>
<path d="M310.066 102.154C311.198 102.154 312.116 101.236 312.116 100.104C312.116 98.972 311.198 98.0543 310.066 98.0543C308.934 98.0543 308.017 98.972 308.017 100.104C308.017 101.236 308.934 102.154 310.066 102.154Z" fill="white"/>
<path d="M392.053 102.154C393.185 102.154 394.103 101.236 394.103 100.104C394.103 98.972 393.185 98.0543 392.053 98.0543C390.921 98.0543 390.003 98.972 390.003 100.104C390.003 101.236 390.921 102.154 392.053 102.154Z" fill="white"/>
<path d="M474.04 102.154C475.172 102.154 476.089 101.236 476.089 100.104C476.089 98.972 475.172 98.0543 474.04 98.0543C472.908 98.0543 471.99 98.972 471.99 100.104C471.99 101.236 472.908 102.154 474.04 102.154Z" fill="white"/>
<path d="M556.026 102.154C557.158 102.154 558.076 101.236 558.076 100.104C558.076 98.972 557.158 98.0543 556.026 98.0543C554.894 98.0543 553.977 98.972 553.977 100.104C553.977 101.236 554.894 102.154 556.026 102.154Z" fill="white"/>
<path d="M638.013 102.154C639.145 102.154 640.063 101.236 640.063 100.104C640.063 98.972 639.145 98.0543 638.013 98.0543C636.881 98.0543 635.964 98.972 635.964 100.104C635.964 101.236 636.881 102.154 638.013 102.154Z" fill="white"/>
<path d="M720 102.154C721.132 102.154 722.05 101.236 722.05 100.104C722.05 98.972 721.132 98.0543 720 98.0543C718.868 98.0543 717.95 98.972 717.95 100.104C717.95 101.236 718.868 102.154 720 102.154Z" fill="white"/>
<path d="M801.987 102.154C803.119 102.154 804.037 101.236 804.037 100.104C804.037 98.972 803.119 98.0543 801.987 98.0543C800.855 98.0543 799.937 98.972 799.937 100.104C799.937 101.236 800.855 102.154 801.987 102.154Z" fill="white"/>
<path d="M883.973 102.154C885.105 102.154 886.023 101.236 886.023 100.104C886.023 98.972 885.105 98.0543 883.973 98.0543C882.841 98.0543 881.924 98.972 881.924 100.104C881.924 101.236 882.841 102.154 883.973 102.154Z" fill="white"/>
<path d="M965.96 102.154C967.092 102.154 968.01 101.236 968.01 100.104C968.01 98.972 967.092 98.0543 965.96 98.0543C964.828 98.0543 963.911 98.972 963.911 100.104C963.911 101.236 964.828 102.154 965.96 102.154Z" fill="white"/>
<path d="M1047.95 102.154C1049.08 102.154 1050 101.236 1050 100.104C1050 98.972 1049.08 98.0543 1047.95 98.0543C1046.82 98.0543 1045.9 98.972 1045.9 100.104C1045.9 101.236 1046.82 102.154 1047.95 102.154Z" fill="white"/>
<path d="M1129.93 102.154C1131.07 102.154 1131.98 101.236 1131.98 100.104C1131.98 98.972 1131.07 98.0543 1129.93 98.0543C1128.8 98.0543 1127.88 98.972 1127.88 100.104C1127.88 101.236 1128.8 102.154 1129.93 102.154Z" fill="white"/>
<path d="M1211.92 102.154C1213.05 102.154 1213.97 101.236 1213.97 100.104C1213.97 98.972 1213.05 98.0543 1211.92 98.0543C1210.79 98.0543 1209.87 98.972 1209.87 100.104C1209.87 101.236 1210.79 102.154 1211.92 102.154Z" fill="white"/>
<path d="M1293.91 102.154C1295.04 102.154 1295.96 101.236 1295.96 100.104C1295.96 98.972 1295.04 98.0543 1293.91 98.0543C1292.78 98.0543 1291.86 98.972 1291.86 100.104C1291.86 101.236 1292.78 102.154 1293.91 102.154Z" fill="white"/>
<path d="M1375.89 102.154C1377.03 102.154 1377.94 101.236 1377.94 100.104C1377.94 98.972 1377.03 98.0543 1375.89 98.0543C1374.76 98.0543 1373.84 98.972 1373.84 100.104C1373.84 101.236 1374.76 102.154 1375.89 102.154Z" fill="white"/>
<path d="M64.1059 184.14C65.2379 184.14 66.1556 183.223 66.1556 182.091C66.1556 180.959 65.2379 180.041 64.1059 180.041C62.9739 180.041 62.0563 180.959 62.0563 182.091C62.0563 183.223 62.9739 184.14 64.1059 184.14Z" fill="white"/>
<path d="M146.093 184.14C147.225 184.14 148.142 183.223 148.142 182.091C148.142 180.959 147.225 180.041 146.093 180.041C144.961 180.041 144.043 180.959 144.043 182.091C144.043 183.223 144.961 184.14 146.093 184.14Z" fill="white"/>
<path d="M228.079 184.14C229.211 184.14 230.129 183.223 230.129 182.091C230.129 180.959 229.211 180.041 228.079 180.041C226.947 180.041 226.03 180.959 226.03 182.091C226.03 183.223 226.947 184.14 228.079 184.14Z" fill="white"/>
<path d="M310.066 184.14C311.198 184.14 312.116 183.223 312.116 182.091C312.116 180.959 311.198 180.041 310.066 180.041C308.934 180.041 308.017 180.959 308.017 182.091C308.017 183.223 308.934 184.14 310.066 184.14Z" fill="white"/>
<path d="M392.053 184.14C393.185 184.14 394.103 183.223 394.103 182.091C394.103 180.959 393.185 180.041 392.053 180.041C390.921 180.041 390.003 180.959 390.003 182.091C390.003 183.223 390.921 184.14 392.053 184.14Z" fill="white"/>
<path d="M474.04 184.14C475.172 184.14 476.089 183.223 476.089 182.091C476.089 180.959 475.172 180.041 474.04 180.041C472.908 180.041 471.99 180.959 471.99 182.091C471.99 183.223 472.908 184.14 474.04 184.14Z" fill="white"/>
<path d="M556.026 184.14C557.158 184.14 558.076 183.223 558.076 182.091C558.076 180.959 557.158 180.041 556.026 180.041C554.894 180.041 553.977 180.959 553.977 182.091C553.977 183.223 554.894 184.14 556.026 184.14Z" fill="white"/>
<path d="M638.013 184.14C639.145 184.14 640.063 183.223 640.063 182.091C640.063 180.959 639.145 180.041 638.013 180.041C636.881 180.041 635.964 180.959 635.964 182.091C635.964 183.223 636.881 184.14 638.013 184.14Z" fill="white"/>
<path d="M720 184.14C721.132 184.14 722.05 183.223 722.05 182.091C722.05 180.959 721.132 180.041 720 180.041C718.868 180.041 717.95 180.959 717.95 182.091C717.95 183.223 718.868 184.14 720 184.14Z" fill="white"/>
<path d="M801.987 184.14C803.119 184.14 804.037 183.223 804.037 182.091C804.037 180.959 803.119 180.041 801.987 180.041C800.855 180.041 799.937 180.959 799.937 182.091C799.937 183.223 800.855 184.14 801.987 184.14Z" fill="white"/>
<path d="M883.973 184.14C885.105 184.14 886.023 183.223 886.023 182.091C886.023 180.959 885.105 180.041 883.973 180.041C882.841 180.041 881.924 180.959 881.924 182.091C881.924 183.223 882.841 184.14 883.973 184.14Z" fill="white"/>
<path d="M965.96 184.14C967.092 184.14 968.01 183.223 968.01 182.091C968.01 180.959 967.092 180.041 965.96 180.041C964.828 180.041 963.911 180.959 963.911 182.091C963.911 183.223 964.828 184.14 965.96 184.14Z" fill="white"/>
<path d="M1047.95 184.14C1049.08 184.14 1050 183.223 1050 182.091C1050 180.959 1049.08 180.041 1047.95 180.041C1046.82 180.041 1045.9 180.959 1045.9 182.091C1045.9 183.223 1046.82 184.14 1047.95 184.14Z" fill="white"/>
<path d="M1129.93 184.14C1131.07 184.14 1131.98 183.223 1131.98 182.091C1131.98 180.959 1131.07 180.041 1129.93 180.041C1128.8 180.041 1127.88 180.959 1127.88 182.091C1127.88 183.223 1128.8 184.14 1129.93 184.14Z" fill="white"/>
<path d="M1211.92 184.14C1213.05 184.14 1213.97 183.223 1213.97 182.091C1213.97 180.959 1213.05 180.041 1211.92 180.041C1210.79 180.041 1209.87 180.959 1209.87 182.091C1209.87 183.223 1210.79 184.14 1211.92 184.14Z" fill="white"/>
<path d="M1293.91 184.14C1295.04 184.14 1295.96 183.223 1295.96 182.091C1295.96 180.959 1295.04 180.041 1293.91 180.041C1292.78 180.041 1291.86 180.959 1291.86 182.091C1291.86 183.223 1292.78 184.14 1293.91 184.14Z" fill="white"/>
<path d="M1375.89 184.14C1377.03 184.14 1377.94 183.223 1377.94 182.091C1377.94 180.959 1377.03 180.041 1375.89 180.041C1374.76 180.041 1373.84 180.959 1373.84 182.091C1373.84 183.223 1374.76 184.14 1375.89 184.14Z" fill="white"/>
<path d="M64.1059 266.127C65.2379 266.127 66.1556 265.21 66.1556 264.078C66.1556 262.946 65.2379 262.028 64.1059 262.028C62.9739 262.028 62.0563 262.946 62.0563 264.078C62.0563 265.21 62.9739 266.127 64.1059 266.127Z" fill="white"/>
<path d="M146.093 266.127C147.225 266.127 148.142 265.21 148.142 264.078C148.142 262.946 147.225 262.028 146.093 262.028C144.961 262.028 144.043 262.946 144.043 264.078C144.043 265.21 144.961 266.127 146.093 266.127Z" fill="white"/>
<path d="M228.079 266.127C229.211 266.127 230.129 265.21 230.129 264.078C230.129 262.946 229.211 262.028 228.079 262.028C226.947 262.028 226.03 262.946 226.03 264.078C226.03 265.21 226.947 266.127 228.079 266.127Z" fill="white"/>
<path d="M310.066 266.127C311.198 266.127 312.116 265.21 312.116 264.078C312.116 262.946 311.198 262.028 310.066 262.028C308.934 262.028 308.017 262.946 308.017 264.078C308.017 265.21 308.934 266.127 310.066 266.127Z" fill="white"/>
<path d="M392.053 266.127C393.185 266.127 394.103 265.21 394.103 264.078C394.103 262.946 393.185 262.028 392.053 262.028C390.921 262.028 390.003 262.946 390.003 264.078C390.003 265.21 390.921 266.127 392.053 266.127Z" fill="white"/>
<path d="M474.04 266.127C475.172 266.127 476.089 265.21 476.089 264.078C476.089 262.946 475.172 262.028 474.04 262.028C472.908 262.028 471.99 262.946 471.99 264.078C471.99 265.21 472.908 266.127 474.04 266.127Z" fill="white"/>
<path d="M556.026 266.127C557.158 266.127 558.076 265.21 558.076 264.078C558.076 262.946 557.158 262.028 556.026 262.028C554.894 262.028 553.977 262.946 553.977 264.078C553.977 265.21 554.894 266.127 556.026 266.127Z" fill="white"/>
<path d="M638.013 266.127C639.145 266.127 640.063 265.21 640.063 264.078C640.063 262.946 639.145 262.028 638.013 262.028C636.881 262.028 635.964 262.946 635.964 264.078C635.964 265.21 636.881 266.127 638.013 266.127Z" fill="white"/>
<path d="M720 266.127C721.132 266.127 722.05 265.21 722.05 264.078C722.05 262.946 721.132 262.028 720 262.028C718.868 262.028 717.95 262.946 717.95 264.078C717.95 265.21 718.868 266.127 720 266.127Z" fill="white"/>
<path d="M801.987 266.127C803.119 266.127 804.037 265.21 804.037 264.078C804.037 262.946 803.119 262.028 801.987 262.028C800.855 262.028 799.937 262.946 799.937 264.078C799.937 265.21 800.855 266.127 801.987 266.127Z" fill="white"/>
<path d="M883.973 266.127C885.105 266.127 886.023 265.21 886.023 264.078C886.023 262.946 885.105 262.028 883.973 262.028C882.841 262.028 881.924 262.946 881.924 264.078C881.924 265.21 882.841 266.127 883.973 266.127Z" fill="white"/>
<path d="M965.96 266.127C967.092 266.127 968.01 265.21 968.01 264.078C968.01 262.946 967.092 262.028 965.96 262.028C964.828 262.028 963.911 262.946 963.911 264.078C963.911 265.21 964.828 266.127 965.96 266.127Z" fill="white"/>
<path d="M1047.95 266.127C1049.08 266.127 1050 265.21 1050 264.078C1050 262.946 1049.08 262.028 1047.95 262.028C1046.82 262.028 1045.9 262.946 1045.9 264.078C1045.9 265.21 1046.82 266.127 1047.95 266.127Z" fill="white"/>
<path d="M1129.93 266.127C1131.07 266.127 1131.98 265.21 1131.98 264.078C1131.98 262.946 1131.07 262.028 1129.93 262.028C1128.8 262.028 1127.88 262.946 1127.88 264.078C1127.88 265.21 1128.8 266.127 1129.93 266.127Z" fill="white"/>
<path d="M1211.92 266.127C1213.05 266.127 1213.97 265.21 1213.97 264.078C1213.97 262.946 1213.05 262.028 1211.92 262.028C1210.79 262.028 1209.87 262.946 1209.87 264.078C1209.87 265.21 1210.79 266.127 1211.92 266.127Z" fill="white"/>
<path d="M1293.91 266.127C1295.04 266.127 1295.96 265.21 1295.96 264.078C1295.96 262.946 1295.04 262.028 1293.91 262.028C1292.78 262.028 1291.86 262.946 1291.86 264.078C1291.86 265.21 1292.78 266.127 1293.91 266.127Z" fill="white"/>
<path d="M1375.89 266.127C1377.03 266.127 1377.94 265.21 1377.94 264.078C1377.94 262.946 1377.03 262.028 1375.89 262.028C1374.76 262.028 1373.84 262.946 1373.84 264.078C1373.84 265.21 1374.76 266.127 1375.89 266.127Z" fill="white"/>
<path d="M64.1059 348.114C65.2379 348.114 66.1556 347.196 66.1556 346.064C66.1556 344.932 65.2379 344.015 64.1059 344.015C62.9739 344.015 62.0563 344.932 62.0563 346.064C62.0563 347.196 62.9739 348.114 64.1059 348.114Z" fill="white"/>
<path d="M146.093 348.114C147.225 348.114 148.142 347.196 148.142 346.064C148.142 344.932 147.225 344.015 146.093 344.015C144.961 344.015 144.043 344.932 144.043 346.064C144.043 347.196 144.961 348.114 146.093 348.114Z" fill="white"/>
<path d="M228.079 348.114C229.211 348.114 230.129 347.196 230.129 346.064C230.129 344.932 229.211 344.015 228.079 344.015C226.947 344.015 226.03 344.932 226.03 346.064C226.03 347.196 226.947 348.114 228.079 348.114Z" fill="white"/>
<path d="M310.066 348.114C311.198 348.114 312.116 347.196 312.116 346.064C312.116 344.932 311.198 344.015 310.066 344.015C308.934 344.015 308.017 344.932 308.017 346.064C308.017 347.196 308.934 348.114 310.066 348.114Z" fill="white"/>
<path d="M392.053 348.114C393.185 348.114 394.103 347.196 394.103 346.064C394.103 344.932 393.185 344.015 392.053 344.015C390.921 344.015 390.003 344.932 390.003 346.064C390.003 347.196 390.921 348.114 392.053 348.114Z" fill="white"/>
<path d="M474.04 348.114C475.172 348.114 476.089 347.196 476.089 346.064C476.089 344.932 475.172 344.015 474.04 344.015C472.908 344.015 471.99 344.932 471.99 346.064C471.99 347.196 472.908 348.114 474.04 348.114Z" fill="white"/>
<path d="M556.026 348.114C557.158 348.114 558.076 347.196 558.076 346.064C558.076 344.932 557.158 344.015 556.026 344.015C554.894 344.015 553.977 344.932 553.977 346.064C553.977 347.196 554.894 348.114 556.026 348.114Z" fill="white"/>
<path d="M638.013 348.114C639.145 348.114 640.063 347.196 640.063 346.064C640.063 344.932 639.145 344.015 638.013 344.015C636.881 344.015 635.964 344.932 635.964 346.064C635.964 347.196 636.881 348.114 638.013 348.114Z" fill="white"/>
<path d="M720 348.114C721.132 348.114 722.05 347.196 722.05 346.064C722.05 344.932 721.132 344.015 720 344.015C718.868 344.015 717.95 344.932 717.95 346.064C717.95 347.196 718.868 348.114 720 348.114Z" fill="white"/>
<path d="M801.987 348.114C803.119 348.114 804.037 347.196 804.037 346.064C804.037 344.932 803.119 344.015 801.987 344.015C800.855 344.015 799.937 344.932 799.937 346.064C799.937 347.196 800.855 348.114 801.987 348.114Z" fill="white"/>
<path d="M883.973 348.114C885.105 348.114 886.023 347.196 886.023 346.064C886.023 344.932 885.105 344.015 883.973 344.015C882.841 344.015 881.924 344.932 881.924 346.064C881.924 347.196 882.841 348.114 883.973 348.114Z" fill="white"/>
<path d="M965.96 348.114C967.092 348.114 968.01 347.196 968.01 346.064C968.01 344.932 967.092 344.015 965.96 344.015C964.828 344.015 963.911 344.932 963.911 346.064C963.911 347.196 964.828 348.114 965.96 348.114Z" fill="white"/>
<path d="M1047.95 348.114C1049.08 348.114 1050 347.196 1050 346.064C1050 344.932 1049.08 344.015 1047.95 344.015C1046.82 344.015 1045.9 344.932 1045.9 346.064C1045.9 347.196 1046.82 348.114 1047.95 348.114Z" fill="white"/>
<path d="M1129.93 348.114C1131.07 348.114 1131.98 347.196 1131.98 346.064C1131.98 344.932 1131.07 344.015 1129.93 344.015C1128.8 344.015 1127.88 344.932 1127.88 346.064C1127.88 347.196 1128.8 348.114 1129.93 348.114Z" fill="white"/>
<path d="M1211.92 348.114C1213.05 348.114 1213.97 347.196 1213.97 346.064C1213.97 344.932 1213.05 344.015 1211.92 344.015C1210.79 344.015 1209.87 344.932 1209.87 346.064C1209.87 347.196 1210.79 348.114 1211.92 348.114Z" fill="white"/>
<path d="M1293.91 348.114C1295.04 348.114 1295.96 347.196 1295.96 346.064C1295.96 344.932 1295.04 344.015 1293.91 344.015C1292.78 344.015 1291.86 344.932 1291.86 346.064C1291.86 347.196 1292.78 348.114 1293.91 348.114Z" fill="white"/>
<path d="M1375.89 348.114C1377.03 348.114 1377.94 347.196 1377.94 346.064C1377.94 344.932 1377.03 344.015 1375.89 344.015C1374.76 344.015 1373.84 344.932 1373.84 346.064C1373.84 347.196 1374.76 348.114 1375.89 348.114Z" fill="white"/>
<path d="M64.1059 430.101C65.2379 430.101 66.1556 429.183 66.1556 428.051C66.1556 426.919 65.2379 426.001 64.1059 426.001C62.9739 426.001 62.0563 426.919 62.0563 428.051C62.0563 429.183 62.9739 430.101 64.1059 430.101Z" fill="white"/>
<path d="M146.093 430.101C147.225 430.101 148.142 429.183 148.142 428.051C148.142 426.919 147.225 426.001 146.093 426.001C144.961 426.001 144.043 426.919 144.043 428.051C144.043 429.183 144.961 430.101 146.093 430.101Z" fill="white"/>
<path d="M228.079 430.101C229.211 430.101 230.129 429.183 230.129 428.051C230.129 426.919 229.211 426.001 228.079 426.001C226.947 426.001 226.03 426.919 226.03 428.051C226.03 429.183 226.947 430.101 228.079 430.101Z" fill="white"/>
<path d="M310.066 430.101C311.198 430.101 312.116 429.183 312.116 428.051C312.116 426.919 311.198 426.001 310.066 426.001C308.934 426.001 308.017 426.919 308.017 428.051C308.017 429.183 308.934 430.101 310.066 430.101Z" fill="white"/>
<path d="M392.053 430.101C393.185 430.101 394.103 429.183 394.103 428.051C394.103 426.919 393.185 426.001 392.053 426.001C390.921 426.001 390.003 426.919 390.003 428.051C390.003 429.183 390.921 430.101 392.053 430.101Z" fill="white"/>
<path d="M474.04 430.101C475.172 430.101 476.089 429.183 476.089 428.051C476.089 426.919 475.172 426.001 474.04 426.001C472.908 426.001 471.99 426.919 471.99 428.051C471.99 429.183 472.908 430.101 474.04 430.101Z" fill="white"/>
<path d="M556.026 430.101C557.158 430.101 558.076 429.183 558.076 428.051C558.076 426.919 557.158 426.001 556.026 426.001C554.894 426.001 553.977 426.919 553.977 428.051C553.977 429.183 554.894 430.101 556.026 430.101Z" fill="white"/>
<path d="M638.013 430.101C639.145 430.101 640.063 429.183 640.063 428.051C640.063 426.919 639.145 426.001 638.013 426.001C636.881 426.001 635.964 426.919 635.964 428.051C635.964 429.183 636.881 430.101 638.013 430.101Z" fill="white"/>
<path d="M720 430.101C721.132 430.101 722.05 429.183 722.05 428.051C722.05 426.919 721.132 426.001 720 426.001C718.868 426.001 717.95 426.919 717.95 428.051C717.95 429.183 718.868 430.101 720 430.101Z" fill="white"/>
<path d="M801.987 430.101C803.119 430.101 804.037 429.183 804.037 428.051C804.037 426.919 803.119 426.001 801.987 426.001C800.855 426.001 799.937 426.919 799.937 428.051C799.937 429.183 800.855 430.101 801.987 430.101Z" fill="white"/>
<path d="M883.973 430.101C885.105 430.101 886.023 429.183 886.023 428.051C886.023 426.919 885.105 426.001 883.973 426.001C882.841 426.001 881.924 426.919 881.924 428.051C881.924 429.183 882.841 430.101 883.973 430.101Z" fill="white"/>
<path d="M965.96 430.101C967.092 430.101 968.01 429.183 968.01 428.051C968.01 426.919 967.092 426.001 965.96 426.001C964.828 426.001 963.911 426.919 963.911 428.051C963.911 429.183 964.828 430.101 965.96 430.101Z" fill="white"/>
<path d="M1047.95 430.101C1049.08 430.101 1050 429.183 1050 428.051C1050 426.919 1049.08 426.001 1047.95 426.001C1046.82 426.001 1045.9 426.919 1045.9 428.051C1045.9 429.183 1046.82 430.101 1047.95 430.101Z" fill="white"/>
<path d="M1129.93 430.101C1131.07 430.101 1131.98 429.183 1131.98 428.051C1131.98 426.919 1131.07 426.001 1129.93 426.001C1128.8 426.001 1127.88 426.919 1127.88 428.051C1127.88 429.183 1128.8 430.101 1129.93 430.101Z" fill="white"/>
<path d="M1211.92 430.101C1213.05 430.101 1213.97 429.183 1213.97 428.051C1213.97 426.919 1213.05 426.001 1211.92 426.001C1210.79 426.001 1209.87 426.919 1209.87 428.051C1209.87 429.183 1210.79 430.101 1211.92 430.101Z" fill="white"/>
<path d="M1293.91 430.101C1295.04 430.101 1295.96 429.183 1295.96 428.051C1295.96 426.919 1295.04 426.001 1293.91 426.001C1292.78 426.001 1291.86 426.919 1291.86 428.051C1291.86 429.183 1292.78 430.101 1293.91 430.101Z" fill="white"/>
<path d="M1375.89 430.101C1377.03 430.101 1377.94 429.183 1377.94 428.051C1377.94 426.919 1377.03 426.001 1375.89 426.001C1374.76 426.001 1373.84 426.919 1373.84 428.051C1373.84 429.183 1374.76 430.101 1375.89 430.101Z" fill="white"/>
<path d="M64.1059 512.087C65.2379 512.087 66.1556 511.17 66.1556 510.038C66.1556 508.906 65.2379 507.988 64.1059 507.988C62.9739 507.988 62.0563 508.906 62.0563 510.038C62.0563 511.17 62.9739 512.087 64.1059 512.087Z" fill="white"/>
<path d="M146.093 512.087C147.225 512.087 148.142 511.17 148.142 510.038C148.142 508.906 147.225 507.988 146.093 507.988C144.961 507.988 144.043 508.906 144.043 510.038C144.043 511.17 144.961 512.087 146.093 512.087Z" fill="white"/>
<path d="M228.079 512.087C229.211 512.087 230.129 511.17 230.129 510.038C230.129 508.906 229.211 507.988 228.079 507.988C226.947 507.988 226.03 508.906 226.03 510.038C226.03 511.17 226.947 512.087 228.079 512.087Z" fill="white"/>
<path d="M310.066 512.087C311.198 512.087 312.116 511.17 312.116 510.038C312.116 508.906 311.198 507.988 310.066 507.988C308.934 507.988 308.017 508.906 308.017 510.038C308.017 511.17 308.934 512.087 310.066 512.087Z" fill="white"/>
<path d="M392.053 512.087C393.185 512.087 394.103 511.17 394.103 510.038C394.103 508.906 393.185 507.988 392.053 507.988C390.921 507.988 390.003 508.906 390.003 510.038C390.003 511.17 390.921 512.087 392.053 512.087Z" fill="white"/>
<path d="M474.04 512.087C475.172 512.087 476.089 511.17 476.089 510.038C476.089 508.906 475.172 507.988 474.04 507.988C472.908 507.988 471.99 508.906 471.99 510.038C471.99 511.17 472.908 512.087 474.04 512.087Z" fill="white"/>
<path d="M556.026 512.087C557.158 512.087 558.076 511.17 558.076 510.038C558.076 508.906 557.158 507.988 556.026 507.988C554.894 507.988 553.977 508.906 553.977 510.038C553.977 511.17 554.894 512.087 556.026 512.087Z" fill="white"/>
<path d="M638.013 512.087C639.145 512.087 640.063 511.17 640.063 510.038C640.063 508.906 639.145 507.988 638.013 507.988C636.881 507.988 635.964 508.906 635.964 510.038C635.964 511.17 636.881 512.087 638.013 512.087Z" fill="white"/>
<path d="M720 512.087C721.132 512.087 722.05 511.17 722.05 510.038C722.05 508.906 721.132 507.988 720 507.988C718.868 507.988 717.95 508.906 717.95 510.038C717.95 511.17 718.868 512.087 720 512.087Z" fill="white"/>
<path d="M801.987 512.087C803.119 512.087 804.037 511.17 804.037 510.038C804.037 508.906 803.119 507.988 801.987 507.988C800.855 507.988 799.937 508.906 799.937 510.038C799.937 511.17 800.855 512.087 801.987 512.087Z" fill="white"/>
<path d="M883.973 512.087C885.105 512.087 886.023 511.17 886.023 510.038C886.023 508.906 885.105 507.988 883.973 507.988C882.841 507.988 881.924 508.906 881.924 510.038C881.924 511.17 882.841 512.087 883.973 512.087Z" fill="white"/>
<path d="M965.96 512.087C967.092 512.087 968.01 511.17 968.01 510.038C968.01 508.906 967.092 507.988 965.96 507.988C964.828 507.988 963.911 508.906 963.911 510.038C963.911 511.17 964.828 512.087 965.96 512.087Z" fill="white"/>
<path d="M1047.95 512.087C1049.08 512.087 1050 511.17 1050 510.038C1050 508.906 1049.08 507.988 1047.95 507.988C1046.82 507.988 1045.9 508.906 1045.9 510.038C1045.9 511.17 1046.82 512.087 1047.95 512.087Z" fill="white"/>
<path d="M1129.93 512.087C1131.07 512.087 1131.98 511.17 1131.98 510.038C1131.98 508.906 1131.07 507.988 1129.93 507.988C1128.8 507.988 1127.88 508.906 1127.88 510.038C1127.88 511.17 1128.8 512.087 1129.93 512.087Z" fill="white"/>
<path d="M1211.92 512.087C1213.05 512.087 1213.97 511.17 1213.97 510.038C1213.97 508.906 1213.05 507.988 1211.92 507.988C1210.79 507.988 1209.87 508.906 1209.87 510.038C1209.87 511.17 1210.79 512.087 1211.92 512.087Z" fill="white"/>
<path d="M1293.91 512.087C1295.04 512.087 1295.96 511.17 1295.96 510.038C1295.96 508.906 1295.04 507.988 1293.91 507.988C1292.78 507.988 1291.86 508.906 1291.86 510.038C1291.86 511.17 1292.78 512.087 1293.91 512.087Z" fill="white"/>
<path d="M1375.89 512.087C1377.03 512.087 1377.94 511.17 1377.94 510.038C1377.94 508.906 1377.03 507.988 1375.89 507.988C1374.76 507.988 1373.84 508.906 1373.84 510.038C1373.84 511.17 1374.76 512.087 1375.89 512.087Z" fill="white"/>
<path d="M64.1059 594.074C65.2379 594.074 66.1556 593.157 66.1556 592.025C66.1556 590.893 65.2379 589.975 64.1059 589.975C62.9739 589.975 62.0563 590.893 62.0563 592.025C62.0563 593.157 62.9739 594.074 64.1059 594.074Z" fill="white"/>
<path d="M146.093 594.074C147.225 594.074 148.142 593.157 148.142 592.025C148.142 590.893 147.225 589.975 146.093 589.975C144.961 589.975 144.043 590.893 144.043 592.025C144.043 593.157 144.961 594.074 146.093 594.074Z" fill="white"/>
<path d="M228.079 594.074C229.211 594.074 230.129 593.157 230.129 592.025C230.129 590.893 229.211 589.975 228.079 589.975C226.947 589.975 226.03 590.893 226.03 592.025C226.03 593.157 226.947 594.074 228.079 594.074Z" fill="white"/>
<path d="M310.066 594.074C311.198 594.074 312.116 593.157 312.116 592.025C312.116 590.893 311.198 589.975 310.066 589.975C308.934 589.975 308.017 590.893 308.017 592.025C308.017 593.157 308.934 594.074 310.066 594.074Z" fill="white"/>
<path d="M392.053 594.074C393.185 594.074 394.103 593.157 394.103 592.025C394.103 590.893 393.185 589.975 392.053 589.975C390.921 589.975 390.003 590.893 390.003 592.025C390.003 593.157 390.921 594.074 392.053 594.074Z" fill="white"/>
<path d="M474.04 594.074C475.172 594.074 476.089 593.157 476.089 592.025C476.089 590.893 475.172 589.975 474.04 589.975C472.908 589.975 471.99 590.893 471.99 592.025C471.99 593.157 472.908 594.074 474.04 594.074Z" fill="white"/>
<path d="M556.026 594.074C557.158 594.074 558.076 593.157 558.076 592.025C558.076 590.893 557.158 589.975 556.026 589.975C554.894 589.975 553.977 590.893 553.977 592.025C553.977 593.157 554.894 594.074 556.026 594.074Z" fill="white"/>
<path d="M638.013 594.074C639.145 594.074 640.063 593.157 640.063 592.025C640.063 590.893 639.145 589.975 638.013 589.975C636.881 589.975 635.964 590.893 635.964 592.025C635.964 593.157 636.881 594.074 638.013 594.074Z" fill="white"/>
<path d="M720 594.074C721.132 594.074 722.05 593.157 722.05 592.025C722.05 590.893 721.132 589.975 720 589.975C718.868 589.975 717.95 590.893 717.95 592.025C717.95 593.157 718.868 594.074 720 594.074Z" fill="white"/>
<path d="M801.987 594.074C803.119 594.074 804.037 593.157 804.037 592.025C804.037 590.893 803.119 589.975 801.987 589.975C800.855 589.975 799.937 590.893 799.937 592.025C799.937 593.157 800.855 594.074 801.987 594.074Z" fill="white"/>
<path d="M883.973 594.074C885.105 594.074 886.023 593.157 886.023 592.025C886.023 590.893 885.105 589.975 883.973 589.975C882.841 589.975 881.924 590.893 881.924 592.025C881.924 593.157 882.841 594.074 883.973 594.074Z" fill="white"/>
<path d="M965.96 594.074C967.092 594.074 968.01 593.157 968.01 592.025C968.01 590.893 967.092 589.975 965.96 589.975C964.828 589.975 963.911 590.893 963.911 592.025C963.911 593.157 964.828 594.074 965.96 594.074Z" fill="white"/>
<path d="M1047.95 594.074C1049.08 594.074 1050 593.157 1050 592.025C1050 590.893 1049.08 589.975 1047.95 589.975C1046.82 589.975 1045.9 590.893 1045.9 592.025C1045.9 593.157 1046.82 594.074 1047.95 594.074Z" fill="white"/>
<path d="M1129.93 594.074C1131.07 594.074 1131.98 593.157 1131.98 592.025C1131.98 590.893 1131.07 589.975 1129.93 589.975C1128.8 589.975 1127.88 590.893 1127.88 592.025C1127.88 593.157 1128.8 594.074 1129.93 594.074Z" fill="white"/>
<path d="M1211.92 594.074C1213.05 594.074 1213.97 593.157 1213.97 592.025C1213.97 590.893 1213.05 589.975 1211.92 589.975C1210.79 589.975 1209.87 590.893 1209.87 592.025C1209.87 593.157 1210.79 594.074 1211.92 594.074Z" fill="white"/>
<path d="M1293.91 594.074C1295.04 594.074 1295.96 593.157 1295.96 592.025C1295.96 590.893 1295.04 589.975 1293.91 589.975C1292.78 589.975 1291.86 590.893 1291.86 592.025C1291.86 593.157 1292.78 594.074 1293.91 594.074Z" fill="white"/>
<path d="M1375.89 594.074C1377.03 594.074 1377.94 593.157 1377.94 592.025C1377.94 590.893 1377.03 589.975 1375.89 589.975C1374.76 589.975 1373.84 590.893 1373.84 592.025C1373.84 593.157 1374.76 594.074 1375.89 594.074Z" fill="white"/>
<path d="M64.1059 676.061C65.2379 676.061 66.1556 675.143 66.1556 674.011C66.1556 672.879 65.2379 671.962 64.1059 671.962C62.9739 671.962 62.0563 672.879 62.0563 674.011C62.0563 675.143 62.9739 676.061 64.1059 676.061Z" fill="white"/>
<path d="M146.093 676.061C147.225 676.061 148.142 675.143 148.142 674.011C148.142 672.879 147.225 671.962 146.093 671.962C144.961 671.962 144.043 672.879 144.043 674.011C144.043 675.143 144.961 676.061 146.093 676.061Z" fill="white"/>
<path d="M228.079 676.061C229.211 676.061 230.129 675.143 230.129 674.011C230.129 672.879 229.211 671.962 228.079 671.962C226.947 671.962 226.03 672.879 226.03 674.011C226.03 675.143 226.947 676.061 228.079 676.061Z" fill="white"/>
<path d="M310.066 676.061C311.198 676.061 312.116 675.143 312.116 674.011C312.116 672.879 311.198 671.962 310.066 671.962C308.934 671.962 308.017 672.879 308.017 674.011C308.017 675.143 308.934 676.061 310.066 676.061Z" fill="white"/>
<path d="M392.053 676.061C393.185 676.061 394.103 675.143 394.103 674.011C394.103 672.879 393.185 671.962 392.053 671.962C390.921 671.962 390.003 672.879 390.003 674.011C390.003 675.143 390.921 676.061 392.053 676.061Z" fill="white"/>
<path d="M474.04 676.061C475.172 676.061 476.089 675.143 476.089 674.011C476.089 672.879 475.172 671.962 474.04 671.962C472.908 671.962 471.99 672.879 471.99 674.011C471.99 675.143 472.908 676.061 474.04 676.061Z" fill="white"/>
<path d="M556.026 676.061C557.158 676.061 558.076 675.143 558.076 674.011C558.076 672.879 557.158 671.962 556.026 671.962C554.894 671.962 553.977 672.879 553.977 674.011C553.977 675.143 554.894 676.061 556.026 676.061Z" fill="white"/>
<path d="M638.013 676.061C639.145 676.061 640.063 675.143 640.063 674.011C640.063 672.879 639.145 671.962 638.013 671.962C636.881 671.962 635.964 672.879 635.964 674.011C635.964 675.143 636.881 676.061 638.013 676.061Z" fill="white"/>
<path d="M720 676.061C721.132 676.061 722.05 675.143 722.05 674.011C722.05 672.879 721.132 671.962 720 671.962C718.868 671.962 717.95 672.879 717.95 674.011C717.95 675.143 718.868 676.061 720 676.061Z" fill="white"/>
<path d="M801.987 676.061C803.119 676.061 804.037 675.143 804.037 674.011C804.037 672.879 803.119 671.962 801.987 671.962C800.855 671.962 799.937 672.879 799.937 674.011C799.937 675.143 800.855 676.061 801.987 676.061Z" fill="white"/>
<path d="M883.973 676.061C885.105 676.061 886.023 675.143 886.023 674.011C886.023 672.879 885.105 671.962 883.973 671.962C882.841 671.962 881.924 672.879 881.924 674.011C881.924 675.143 882.841 676.061 883.973 676.061Z" fill="white"/>
<path d="M965.96 676.061C967.092 676.061 968.01 675.143 968.01 674.011C968.01 672.879 967.092 671.962 965.96 671.962C964.828 671.962 963.911 672.879 963.911 674.011C963.911 675.143 964.828 676.061 965.96 676.061Z" fill="white"/>
<path d="M1047.95 676.061C1049.08 676.061 1050 675.143 1050 674.011C1050 672.879 1049.08 671.962 1047.95 671.962C1046.82 671.962 1045.9 672.879 1045.9 674.011C1045.9 675.143 1046.82 676.061 1047.95 676.061Z" fill="white"/>
<path d="M1129.93 676.061C1131.07 676.061 1131.98 675.143 1131.98 674.011C1131.98 672.879 1131.07 671.962 1129.93 671.962C1128.8 671.962 1127.88 672.879 1127.88 674.011C1127.88 675.143 1128.8 676.061 1129.93 676.061Z" fill="white"/>
<path d="M1211.92 676.061C1213.05 676.061 1213.97 675.143 1213.97 674.011C1213.97 672.879 1213.05 671.962 1211.92 671.962C1210.79 671.962 1209.87 672.879 1209.87 674.011C1209.87 675.143 1210.79 676.061 1211.92 676.061Z" fill="white"/>
<path d="M1293.91 676.061C1295.04 676.061 1295.96 675.143 1295.96 674.011C1295.96 672.879 1295.04 671.962 1293.91 671.962C1292.78 671.962 1291.86 672.879 1291.86 674.011C1291.86 675.143 1292.78 676.061 1293.91 676.061Z" fill="white"/>
<path d="M1375.89 676.061C1377.03 676.061 1377.94 675.143 1377.94 674.011C1377.94 672.879 1377.03 671.962 1375.89 671.962C1374.76 671.962 1373.84 672.879 1373.84 674.011C1373.84 675.143 1374.76 676.061 1375.89 676.061Z" fill="white"/>
<path d="M64.1059 758.048C65.2379 758.048 66.1556 757.13 66.1556 755.998C66.1556 754.866 65.2379 753.948 64.1059 753.948C62.9739 753.948 62.0563 754.866 62.0563 755.998C62.0563 757.13 62.9739 758.048 64.1059 758.048Z" fill="white"/>
<path d="M146.093 758.048C147.225 758.048 148.142 757.13 148.142 755.998C148.142 754.866 147.225 753.948 146.093 753.948C144.961 753.948 144.043 754.866 144.043 755.998C144.043 757.13 144.961 758.048 146.093 758.048Z" fill="white"/>
<path d="M228.079 758.048C229.211 758.048 230.129 757.13 230.129 755.998C230.129 754.866 229.211 753.948 228.079 753.948C226.947 753.948 226.03 754.866 226.03 755.998C226.03 757.13 226.947 758.048 228.079 758.048Z" fill="white"/>
<path d="M310.066 758.048C311.198 758.048 312.116 757.13 312.116 755.998C312.116 754.866 311.198 753.948 310.066 753.948C308.934 753.948 308.017 754.866 308.017 755.998C308.017 757.13 308.934 758.048 310.066 758.048Z" fill="white"/>
<path d="M392.053 758.048C393.185 758.048 394.103 757.13 394.103 755.998C394.103 754.866 393.185 753.948 392.053 753.948C390.921 753.948 390.003 754.866 390.003 755.998C390.003 757.13 390.921 758.048 392.053 758.048Z" fill="white"/>
<path d="M474.04 758.048C475.172 758.048 476.089 757.13 476.089 755.998C476.089 754.866 475.172 753.948 474.04 753.948C472.908 753.948 471.99 754.866 471.99 755.998C471.99 757.13 472.908 758.048 474.04 758.048Z" fill="white"/>
<path d="M556.026 758.048C557.158 758.048 558.076 757.13 558.076 755.998C558.076 754.866 557.158 753.948 556.026 753.948C554.894 753.948 553.977 754.866 553.977 755.998C553.977 757.13 554.894 758.048 556.026 758.048Z" fill="white"/>
<path d="M638.013 758.048C639.145 758.048 640.063 757.13 640.063 755.998C640.063 754.866 639.145 753.948 638.013 753.948C636.881 753.948 635.964 754.866 635.964 755.998C635.964 757.13 636.881 758.048 638.013 758.048Z" fill="white"/>
<path d="M720 758.048C721.132 758.048 722.05 757.13 722.05 755.998C722.05 754.866 721.132 753.948 720 753.948C718.868 753.948 717.95 754.866 717.95 755.998C717.95 757.13 718.868 758.048 720 758.048Z" fill="white"/>
<path d="M801.987 758.048C803.119 758.048 804.037 757.13 804.037 755.998C804.037 754.866 803.119 753.948 801.987 753.948C800.855 753.948 799.937 754.866 799.937 755.998C799.937 757.13 800.855 758.048 801.987 758.048Z" fill="white"/>
<path d="M883.973 758.048C885.105 758.048 886.023 757.13 886.023 755.998C886.023 754.866 885.105 753.948 883.973 753.948C882.841 753.948 881.924 754.866 881.924 755.998C881.924 757.13 882.841 758.048 883.973 758.048Z" fill="white"/>
<path d="M965.96 758.048C967.092 758.048 968.01 757.13 968.01 755.998C968.01 754.866 967.092 753.948 965.96 753.948C964.828 753.948 963.911 754.866 963.911 755.998C963.911 757.13 964.828 758.048 965.96 758.048Z" fill="white"/>
<path d="M1047.95 758.048C1049.08 758.048 1050 757.13 1050 755.998C1050 754.866 1049.08 753.948 1047.95 753.948C1046.82 753.948 1045.9 754.866 1045.9 755.998C1045.9 757.13 1046.82 758.048 1047.95 758.048Z" fill="white"/>
<path d="M1129.93 758.048C1131.07 758.048 1131.98 757.13 1131.98 755.998C1131.98 754.866 1131.07 753.948 1129.93 753.948C1128.8 753.948 1127.88 754.866 1127.88 755.998C1127.88 757.13 1128.8 758.048 1129.93 758.048Z" fill="white"/>
<path d="M1211.92 758.048C1213.05 758.048 1213.97 757.13 1213.97 755.998C1213.97 754.866 1213.05 753.948 1211.92 753.948C1210.79 753.948 1209.87 754.866 1209.87 755.998C1209.87 757.13 1210.79 758.048 1211.92 758.048Z" fill="white"/>
<path d="M1293.91 758.048C1295.04 758.048 1295.96 757.13 1295.96 755.998C1295.96 754.866 1295.04 753.948 1293.91 753.948C1292.78 753.948 1291.86 754.866 1291.86 755.998C1291.86 757.13 1292.78 758.048 1293.91 758.048Z" fill="white"/>
<path d="M1375.89 758.048C1377.03 758.048 1377.94 757.13 1377.94 755.998C1377.94 754.866 1377.03 753.948 1375.89 753.948C1374.76 753.948 1373.84 754.866 1373.84 755.998C1373.84 757.13 1374.76 758.048 1375.89 758.048Z" fill="white"/>
<path d="M64.1059 840.035C65.2379 840.035 66.1556 839.117 66.1556 837.985C66.1556 836.853 65.2379 835.935 64.1059 835.935C62.9739 835.935 62.0563 836.853 62.0563 837.985C62.0563 839.117 62.9739 840.035 64.1059 840.035Z" fill="white"/>
<path d="M146.093 840.035C147.225 840.035 148.142 839.117 148.142 837.985C148.142 836.853 147.225 835.935 146.093 835.935C144.961 835.935 144.043 836.853 144.043 837.985C144.043 839.117 144.961 840.035 146.093 840.035Z" fill="white"/>
<path d="M228.079 840.035C229.211 840.035 230.129 839.117 230.129 837.985C230.129 836.853 229.211 835.935 228.079 835.935C226.947 835.935 226.03 836.853 226.03 837.985C226.03 839.117 226.947 840.035 228.079 840.035Z" fill="white"/>
<path d="M310.066 840.035C311.198 840.035 312.116 839.117 312.116 837.985C312.116 836.853 311.198 835.935 310.066 835.935C308.934 835.935 308.017 836.853 308.017 837.985C308.017 839.117 308.934 840.035 310.066 840.035Z" fill="white"/>
<path d="M392.053 840.035C393.185 840.035 394.103 839.117 394.103 837.985C394.103 836.853 393.185 835.935 392.053 835.935C390.921 835.935 390.003 836.853 390.003 837.985C390.003 839.117 390.921 840.035 392.053 840.035Z" fill="white"/>
<path d="M474.04 840.035C475.172 840.035 476.089 839.117 476.089 837.985C476.089 836.853 475.172 835.935 474.04 835.935C472.908 835.935 471.99 836.853 471.99 837.985C471.99 839.117 472.908 840.035 474.04 840.035Z" fill="white"/>
<path d="M556.026 840.035C557.158 840.035 558.076 839.117 558.076 837.985C558.076 836.853 557.158 835.935 556.026 835.935C554.894 835.935 553.977 836.853 553.977 837.985C553.977 839.117 554.894 840.035 556.026 840.035Z" fill="white"/>
<path d="M638.013 840.035C639.145 840.035 640.063 839.117 640.063 837.985C640.063 836.853 639.145 835.935 638.013 835.935C636.881 835.935 635.964 836.853 635.964 837.985C635.964 839.117 636.881 840.035 638.013 840.035Z" fill="white"/>
<path d="M720 840.035C721.132 840.035 722.05 839.117 722.05 837.985C722.05 836.853 721.132 835.935 720 835.935C718.868 835.935 717.95 836.853 717.95 837.985C717.95 839.117 718.868 840.035 720 840.035Z" fill="white"/>
<path d="M801.987 840.035C803.119 840.035 804.037 839.117 804.037 837.985C804.037 836.853 803.119 835.935 801.987 835.935C800.855 835.935 799.937 836.853 799.937 837.985C799.937 839.117 800.855 840.035 801.987 840.035Z" fill="white"/>
<path d="M883.973 840.035C885.105 840.035 886.023 839.117 886.023 837.985C886.023 836.853 885.105 835.935 883.973 835.935C882.841 835.935 881.924 836.853 881.924 837.985C881.924 839.117 882.841 840.035 883.973 840.035Z" fill="white"/>
<path d="M965.96 840.035C967.092 840.035 968.01 839.117 968.01 837.985C968.01 836.853 967.092 835.935 965.96 835.935C964.828 835.935 963.911 836.853 963.911 837.985C963.911 839.117 964.828 840.035 965.96 840.035Z" fill="white"/>
<path d="M1047.95 840.035C1049.08 840.035 1050 839.117 1050 837.985C1050 836.853 1049.08 835.935 1047.95 835.935C1046.82 835.935 1045.9 836.853 1045.9 837.985C1045.9 839.117 1046.82 840.035 1047.95 840.035Z" fill="white"/>
<path d="M1129.93 840.035C1131.07 840.035 1131.98 839.117 1131.98 837.985C1131.98 836.853 1131.07 835.935 1129.93 835.935C1128.8 835.935 1127.88 836.853 1127.88 837.985C1127.88 839.117 1128.8 840.035 1129.93 840.035Z" fill="white"/>
<path d="M1211.92 840.035C1213.05 840.035 1213.97 839.117 1213.97 837.985C1213.97 836.853 1213.05 835.935 1211.92 835.935C1210.79 835.935 1209.87 836.853 1209.87 837.985C1209.87 839.117 1210.79 840.035 1211.92 840.035Z" fill="white"/>
<path d="M1293.91 840.035C1295.04 840.035 1295.96 839.117 1295.96 837.985C1295.96 836.853 1295.04 835.935 1293.91 835.935C1292.78 835.935 1291.86 836.853 1291.86 837.985C1291.86 839.117 1292.78 840.035 1293.91 840.035Z" fill="white"/>
<path d="M1375.89 840.035C1377.03 840.035 1377.94 839.117 1377.94 837.985C1377.94 836.853 1377.03 835.935 1375.89 835.935C1374.76 835.935 1373.84 836.853 1373.84 837.985C1373.84 839.117 1374.76 840.035 1375.89 840.035Z" fill="white"/>
<path d="M64.1059 922.021C65.2379 922.021 66.1556 921.104 66.1556 919.972C66.1556 918.84 65.2379 917.922 64.1059 917.922C62.9739 917.922 62.0563 918.84 62.0563 919.972C62.0563 921.104 62.9739 922.021 64.1059 922.021Z" fill="white"/>
<path d="M146.093 922.021C147.225 922.021 148.142 921.104 148.142 919.972C148.142 918.84 147.225 917.922 146.093 917.922C144.961 917.922 144.043 918.84 144.043 919.972C144.043 921.104 144.961 922.021 146.093 922.021Z" fill="white"/>
<path d="M228.079 922.021C229.211 922.021 230.129 921.104 230.129 919.972C230.129 918.84 229.211 917.922 228.079 917.922C226.947 917.922 226.03 918.84 226.03 919.972C226.03 921.104 226.947 922.021 228.079 922.021Z" fill="white"/>
<path d="M310.066 922.021C311.198 922.021 312.116 921.104 312.116 919.972C312.116 918.84 311.198 917.922 310.066 917.922C308.934 917.922 308.017 918.84 308.017 919.972C308.017 921.104 308.934 922.021 310.066 922.021Z" fill="white"/>
<path d="M392.053 922.021C393.185 922.021 394.103 921.104 394.103 919.972C394.103 918.84 393.185 917.922 392.053 917.922C390.921 917.922 390.003 918.84 390.003 919.972C390.003 921.104 390.921 922.021 392.053 922.021Z" fill="white"/>
<path d="M474.04 922.021C475.172 922.021 476.089 921.104 476.089 919.972C476.089 918.84 475.172 917.922 474.04 917.922C472.908 917.922 471.99 918.84 471.99 919.972C471.99 921.104 472.908 922.021 474.04 922.021Z" fill="white"/>
<path d="M556.026 922.021C557.158 922.021 558.076 921.104 558.076 919.972C558.076 918.84 557.158 917.922 556.026 917.922C554.894 917.922 553.977 918.84 553.977 919.972C553.977 921.104 554.894 922.021 556.026 922.021Z" fill="white"/>
<path d="M638.013 922.021C639.145 922.021 640.063 921.104 640.063 919.972C640.063 918.84 639.145 917.922 638.013 917.922C636.881 917.922 635.964 918.84 635.964 919.972C635.964 921.104 636.881 922.021 638.013 922.021Z" fill="white"/>
<path d="M720 922.021C721.132 922.021 722.05 921.104 722.05 919.972C722.05 918.84 721.132 917.922 720 917.922C718.868 917.922 717.95 918.84 717.95 919.972C717.95 921.104 718.868 922.021 720 922.021Z" fill="white"/>
<path d="M801.987 922.021C803.119 922.021 804.037 921.104 804.037 919.972C804.037 918.84 803.119 917.922 801.987 917.922C800.855 917.922 799.937 918.84 799.937 919.972C799.937 921.104 800.855 922.021 801.987 922.021Z" fill="white"/>
<path d="M883.973 922.021C885.105 922.021 886.023 921.104 886.023 919.972C886.023 918.84 885.105 917.922 883.973 917.922C882.841 917.922 881.924 918.84 881.924 919.972C881.924 921.104 882.841 922.021 883.973 922.021Z" fill="white"/>
<path d="M965.96 922.021C967.092 922.021 968.01 921.104 968.01 919.972C968.01 918.84 967.092 917.922 965.96 917.922C964.828 917.922 963.911 918.84 963.911 919.972C963.911 921.104 964.828 922.021 965.96 922.021Z" fill="white"/>
<path d="M1047.95 922.021C1049.08 922.021 1050 921.104 1050 919.972C1050 918.84 1049.08 917.922 1047.95 917.922C1046.82 917.922 1045.9 918.84 1045.9 919.972C1045.9 921.104 1046.82 922.021 1047.95 922.021Z" fill="white"/>
<path d="M1129.93 922.021C1131.07 922.021 1131.98 921.104 1131.98 919.972C1131.98 918.84 1131.07 917.922 1129.93 917.922C1128.8 917.922 1127.88 918.84 1127.88 919.972C1127.88 921.104 1128.8 922.021 1129.93 922.021Z" fill="white"/>
<path d="M1211.92 922.021C1213.05 922.021 1213.97 921.104 1213.97 919.972C1213.97 918.84 1213.05 917.922 1211.92 917.922C1210.79 917.922 1209.87 918.84 1209.87 919.972C1209.87 921.104 1210.79 922.021 1211.92 922.021Z" fill="white"/>
<path d="M1293.91 922.021C1295.04 922.021 1295.96 921.104 1295.96 919.972C1295.96 918.84 1295.04 917.922 1293.91 917.922C1292.78 917.922 1291.86 918.84 1291.86 919.972C1291.86 921.104 1292.78 922.021 1293.91 922.021Z" fill="white"/>
<path d="M1375.89 922.021C1377.03 922.021 1377.94 921.104 1377.94 919.972C1377.94 918.84 1377.03 917.922 1375.89 917.922C1374.76 917.922 1373.84 918.84 1373.84 919.972C1373.84 921.104 1374.76 922.021 1375.89 922.021Z" fill="white"/>
<path d="M64.1059 1004.01C65.2379 1004.01 66.1556 1003.09 66.1556 1001.96C66.1556 1000.83 65.2379 999.909 64.1059 999.909C62.9739 999.909 62.0563 1000.83 62.0563 1001.96C62.0563 1003.09 62.9739 1004.01 64.1059 1004.01Z" fill="white"/>
<path d="M146.093 1004.01C147.225 1004.01 148.142 1003.09 148.142 1001.96C148.142 1000.83 147.225 999.909 146.093 999.909C144.961 999.909 144.043 1000.83 144.043 1001.96C144.043 1003.09 144.961 1004.01 146.093 1004.01Z" fill="white"/>
<path d="M228.079 1004.01C229.211 1004.01 230.129 1003.09 230.129 1001.96C230.129 1000.83 229.211 999.909 228.079 999.909C226.947 999.909 226.03 1000.83 226.03 1001.96C226.03 1003.09 226.947 1004.01 228.079 1004.01Z" fill="white"/>
<path d="M310.066 1004.01C311.198 1004.01 312.116 1003.09 312.116 1001.96C312.116 1000.83 311.198 999.909 310.066 999.909C308.934 999.909 308.017 1000.83 308.017 1001.96C308.017 1003.09 308.934 1004.01 310.066 1004.01Z" fill="white"/>
<path d="M392.053 1004.01C393.185 1004.01 394.103 1003.09 394.103 1001.96C394.103 1000.83 393.185 999.909 392.053 999.909C390.921 999.909 390.003 1000.83 390.003 1001.96C390.003 1003.09 390.921 1004.01 392.053 1004.01Z" fill="white"/>
<path d="M474.04 1004.01C475.172 1004.01 476.089 1003.09 476.089 1001.96C476.089 1000.83 475.172 999.909 474.04 999.909C472.908 999.909 471.99 1000.83 471.99 1001.96C471.99 1003.09 472.908 1004.01 474.04 1004.01Z" fill="white"/>
<path d="M556.026 1004.01C557.158 1004.01 558.076 1003.09 558.076 1001.96C558.076 1000.83 557.158 999.909 556.026 999.909C554.894 999.909 553.977 1000.83 553.977 1001.96C553.977 1003.09 554.894 1004.01 556.026 1004.01Z" fill="white"/>
<path d="M638.013 1004.01C639.145 1004.01 640.063 1003.09 640.063 1001.96C640.063 1000.83 639.145 999.909 638.013 999.909C636.881 999.909 635.964 1000.83 635.964 1001.96C635.964 1003.09 636.881 1004.01 638.013 1004.01Z" fill="white"/>
<path d="M720 1004.01C721.132 1004.01 722.05 1003.09 722.05 1001.96C722.05 1000.83 721.132 999.909 720 999.909C718.868 999.909 717.95 1000.83 717.95 1001.96C717.95 1003.09 718.868 1004.01 720 1004.01Z" fill="white"/>
<path d="M801.987 1004.01C803.119 1004.01 804.037 1003.09 804.037 1001.96C804.037 1000.83 803.119 999.909 801.987 999.909C800.855 999.909 799.937 1000.83 799.937 1001.96C799.937 1003.09 800.855 1004.01 801.987 1004.01Z" fill="white"/>
<path d="M883.973 1004.01C885.105 1004.01 886.023 1003.09 886.023 1001.96C886.023 1000.83 885.105 999.909 883.973 999.909C882.841 999.909 881.924 1000.83 881.924 1001.96C881.924 1003.09 882.841 1004.01 883.973 1004.01Z" fill="white"/>
<path d="M965.96 1004.01C967.092 1004.01 968.01 1003.09 968.01 1001.96C968.01 1000.83 967.092 999.909 965.96 999.909C964.828 999.909 963.911 1000.83 963.911 1001.96C963.911 1003.09 964.828 1004.01 965.96 1004.01Z" fill="white"/>
<path d="M1047.95 1004.01C1049.08 1004.01 1050 1003.09 1050 1001.96C1050 1000.83 1049.08 999.909 1047.95 999.909C1046.82 999.909 1045.9 1000.83 1045.9 1001.96C1045.9 1003.09 1046.82 1004.01 1047.95 1004.01Z" fill="white"/>
<path d="M1129.93 1004.01C1131.07 1004.01 1131.98 1003.09 1131.98 1001.96C1131.98 1000.83 1131.07 999.909 1129.93 999.909C1128.8 999.909 1127.88 1000.83 1127.88 1001.96C1127.88 1003.09 1128.8 1004.01 1129.93 1004.01Z" fill="white"/>
<path d="M1211.92 1004.01C1213.05 1004.01 1213.97 1003.09 1213.97 1001.96C1213.97 1000.83 1213.05 999.909 1211.92 999.909C1210.79 999.909 1209.87 1000.83 1209.87 1001.96C1209.87 1003.09 1210.79 1004.01 1211.92 1004.01Z" fill="white"/>
<path d="M1293.91 1004.01C1295.04 1004.01 1295.96 1003.09 1295.96 1001.96C1295.96 1000.83 1295.04 999.909 1293.91 999.909C1292.78 999.909 1291.86 1000.83 1291.86 1001.96C1291.86 1003.09 1292.78 1004.01 1293.91 1004.01Z" fill="white"/>
<path d="M1375.89 1004.01C1377.03 1004.01 1377.94 1003.09 1377.94 1001.96C1377.94 1000.83 1377.03 999.909 1375.89 999.909C1374.76 999.909 1373.84 1000.83 1373.84 1001.96C1373.84 1003.09 1374.76 1004.01 1375.89 1004.01Z" fill="white"/>
<path d="M64.1059 1085.99C65.2379 1085.99 66.1556 1085.08 66.1556 1083.95C66.1556 1082.81 65.2379 1081.9 64.1059 1081.9C62.9739 1081.9 62.0563 1082.81 62.0563 1083.95C62.0563 1085.08 62.9739 1085.99 64.1059 1085.99Z" fill="white"/>
<path d="M146.093 1085.99C147.225 1085.99 148.142 1085.08 148.142 1083.95C148.142 1082.81 147.225 1081.9 146.093 1081.9C144.961 1081.9 144.043 1082.81 144.043 1083.95C144.043 1085.08 144.961 1085.99 146.093 1085.99Z" fill="white"/>
<path d="M228.079 1085.99C229.211 1085.99 230.129 1085.08 230.129 1083.95C230.129 1082.81 229.211 1081.9 228.079 1081.9C226.947 1081.9 226.03 1082.81 226.03 1083.95C226.03 1085.08 226.947 1085.99 228.079 1085.99Z" fill="white"/>
<path d="M310.066 1085.99C311.198 1085.99 312.116 1085.08 312.116 1083.95C312.116 1082.81 311.198 1081.9 310.066 1081.9C308.934 1081.9 308.017 1082.81 308.017 1083.95C308.017 1085.08 308.934 1085.99 310.066 1085.99Z" fill="white"/>
<path d="M392.053 1085.99C393.185 1085.99 394.103 1085.08 394.103 1083.95C394.103 1082.81 393.185 1081.9 392.053 1081.9C390.921 1081.9 390.003 1082.81 390.003 1083.95C390.003 1085.08 390.921 1085.99 392.053 1085.99Z" fill="white"/>
<path d="M474.04 1085.99C475.172 1085.99 476.089 1085.08 476.089 1083.95C476.089 1082.81 475.172 1081.9 474.04 1081.9C472.908 1081.9 471.99 1082.81 471.99 1083.95C471.99 1085.08 472.908 1085.99 474.04 1085.99Z" fill="white"/>
<path d="M556.026 1085.99C557.158 1085.99 558.076 1085.08 558.076 1083.95C558.076 1082.81 557.158 1081.9 556.026 1081.9C554.894 1081.9 553.977 1082.81 553.977 1083.95C553.977 1085.08 554.894 1085.99 556.026 1085.99Z" fill="white"/>
<path d="M638.013 1085.99C639.145 1085.99 640.063 1085.08 640.063 1083.95C640.063 1082.81 639.145 1081.9 638.013 1081.9C636.881 1081.9 635.964 1082.81 635.964 1083.95C635.964 1085.08 636.881 1085.99 638.013 1085.99Z" fill="white"/>
<path d="M720 1085.99C721.132 1085.99 722.05 1085.08 722.05 1083.95C722.05 1082.81 721.132 1081.9 720 1081.9C718.868 1081.9 717.95 1082.81 717.95 1083.95C717.95 1085.08 718.868 1085.99 720 1085.99Z" fill="white"/>
<path d="M801.987 1085.99C803.119 1085.99 804.037 1085.08 804.037 1083.95C804.037 1082.81 803.119 1081.9 801.987 1081.9C800.855 1081.9 799.937 1082.81 799.937 1083.95C799.937 1085.08 800.855 1085.99 801.987 1085.99Z" fill="white"/>
<path d="M883.973 1085.99C885.105 1085.99 886.023 1085.08 886.023 1083.95C886.023 1082.81 885.105 1081.9 883.973 1081.9C882.841 1081.9 881.924 1082.81 881.924 1083.95C881.924 1085.08 882.841 1085.99 883.973 1085.99Z" fill="white"/>
<path d="M965.96 1085.99C967.092 1085.99 968.01 1085.08 968.01 1083.95C968.01 1082.81 967.092 1081.9 965.96 1081.9C964.828 1081.9 963.911 1082.81 963.911 1083.95C963.911 1085.08 964.828 1085.99 965.96 1085.99Z" fill="white"/>
<path d="M1047.95 1085.99C1049.08 1085.99 1050 1085.08 1050 1083.95C1050 1082.81 1049.08 1081.9 1047.95 1081.9C1046.82 1081.9 1045.9 1082.81 1045.9 1083.95C1045.9 1085.08 1046.82 1085.99 1047.95 1085.99Z" fill="white"/>
<path d="M1129.93 1085.99C1131.07 1085.99 1131.98 1085.08 1131.98 1083.95C1131.98 1082.81 1131.07 1081.9 1129.93 1081.9C1128.8 1081.9 1127.88 1082.81 1127.88 1083.95C1127.88 1085.08 1128.8 1085.99 1129.93 1085.99Z" fill="white"/>
<path d="M1211.92 1085.99C1213.05 1085.99 1213.97 1085.08 1213.97 1083.95C1213.97 1082.81 1213.05 1081.9 1211.92 1081.9C1210.79 1081.9 1209.87 1082.81 1209.87 1083.95C1209.87 1085.08 1210.79 1085.99 1211.92 1085.99Z" fill="white"/>
<path d="M1293.91 1085.99C1295.04 1085.99 1295.96 1085.08 1295.96 1083.95C1295.96 1082.81 1295.04 1081.9 1293.91 1081.9C1292.78 1081.9 1291.86 1082.81 1291.86 1083.95C1291.86 1085.08 1292.78 1085.99 1293.91 1085.99Z" fill="white"/>
<path d="M1375.89 1085.99C1377.03 1085.99 1377.94 1085.08 1377.94 1083.95C1377.94 1082.81 1377.03 1081.9 1375.89 1081.9C1374.76 1081.9 1373.84 1082.81 1373.84 1083.95C1373.84 1085.08 1374.76 1085.99 1375.89 1085.99Z" fill="white"/>
<path d="M64.1059 1167.98C65.2379 1167.98 66.1556 1167.06 66.1556 1165.93C66.1556 1164.8 65.2379 1163.88 64.1059 1163.88C62.9739 1163.88 62.0563 1164.8 62.0563 1165.93C62.0563 1167.06 62.9739 1167.98 64.1059 1167.98Z" fill="white"/>
<path d="M146.093 1167.98C147.225 1167.98 148.142 1167.06 148.142 1165.93C148.142 1164.8 147.225 1163.88 146.093 1163.88C144.961 1163.88 144.043 1164.8 144.043 1165.93C144.043 1167.06 144.961 1167.98 146.093 1167.98Z" fill="white"/>
<path d="M228.079 1167.98C229.211 1167.98 230.129 1167.06 230.129 1165.93C230.129 1164.8 229.211 1163.88 228.079 1163.88C226.947 1163.88 226.03 1164.8 226.03 1165.93C226.03 1167.06 226.947 1167.98 228.079 1167.98Z" fill="white"/>
<path d="M310.066 1167.98C311.198 1167.98 312.116 1167.06 312.116 1165.93C312.116 1164.8 311.198 1163.88 310.066 1163.88C308.934 1163.88 308.017 1164.8 308.017 1165.93C308.017 1167.06 308.934 1167.98 310.066 1167.98Z" fill="white"/>
<path d="M392.053 1167.98C393.185 1167.98 394.103 1167.06 394.103 1165.93C394.103 1164.8 393.185 1163.88 392.053 1163.88C390.921 1163.88 390.003 1164.8 390.003 1165.93C390.003 1167.06 390.921 1167.98 392.053 1167.98Z" fill="white"/>
<path d="M474.04 1167.98C475.172 1167.98 476.089 1167.06 476.089 1165.93C476.089 1164.8 475.172 1163.88 474.04 1163.88C472.908 1163.88 471.99 1164.8 471.99 1165.93C471.99 1167.06 472.908 1167.98 474.04 1167.98Z" fill="white"/>
<path d="M556.026 1167.98C557.158 1167.98 558.076 1167.06 558.076 1165.93C558.076 1164.8 557.158 1163.88 556.026 1163.88C554.894 1163.88 553.977 1164.8 553.977 1165.93C553.977 1167.06 554.894 1167.98 556.026 1167.98Z" fill="white"/>
<path d="M638.013 1167.98C639.145 1167.98 640.063 1167.06 640.063 1165.93C640.063 1164.8 639.145 1163.88 638.013 1163.88C636.881 1163.88 635.964 1164.8 635.964 1165.93C635.964 1167.06 636.881 1167.98 638.013 1167.98Z" fill="white"/>
<path d="M720 1167.98C721.132 1167.98 722.05 1167.06 722.05 1165.93C722.05 1164.8 721.132 1163.88 720 1163.88C718.868 1163.88 717.95 1164.8 717.95 1165.93C717.95 1167.06 718.868 1167.98 720 1167.98Z" fill="white"/>
<path d="M801.987 1167.98C803.119 1167.98 804.037 1167.06 804.037 1165.93C804.037 1164.8 803.119 1163.88 801.987 1163.88C800.855 1163.88 799.937 1164.8 799.937 1165.93C799.937 1167.06 800.855 1167.98 801.987 1167.98Z" fill="white"/>
<path d="M883.973 1167.98C885.105 1167.98 886.023 1167.06 886.023 1165.93C886.023 1164.8 885.105 1163.88 883.973 1163.88C882.841 1163.88 881.924 1164.8 881.924 1165.93C881.924 1167.06 882.841 1167.98 883.973 1167.98Z" fill="white"/>
<path d="M965.96 1167.98C967.092 1167.98 968.01 1167.06 968.01 1165.93C968.01 1164.8 967.092 1163.88 965.96 1163.88C964.828 1163.88 963.911 1164.8 963.911 1165.93C963.911 1167.06 964.828 1167.98 965.96 1167.98Z" fill="white"/>
<path d="M1047.95 1167.98C1049.08 1167.98 1050 1167.06 1050 1165.93C1050 1164.8 1049.08 1163.88 1047.95 1163.88C1046.82 1163.88 1045.9 1164.8 1045.9 1165.93C1045.9 1167.06 1046.82 1167.98 1047.95 1167.98Z" fill="white"/>
<path d="M1129.93 1167.98C1131.07 1167.98 1131.98 1167.06 1131.98 1165.93C1131.98 1164.8 1131.07 1163.88 1129.93 1163.88C1128.8 1163.88 1127.88 1164.8 1127.88 1165.93C1127.88 1167.06 1128.8 1167.98 1129.93 1167.98Z" fill="white"/>
<path d="M1211.92 1167.98C1213.05 1167.98 1213.97 1167.06 1213.97 1165.93C1213.97 1164.8 1213.05 1163.88 1211.92 1163.88C1210.79 1163.88 1209.87 1164.8 1209.87 1165.93C1209.87 1167.06 1210.79 1167.98 1211.92 1167.98Z" fill="white"/>
<path d="M1293.91 1167.98C1295.04 1167.98 1295.96 1167.06 1295.96 1165.93C1295.96 1164.8 1295.04 1163.88 1293.91 1163.88C1292.78 1163.88 1291.86 1164.8 1291.86 1165.93C1291.86 1167.06 1292.78 1167.98 1293.91 1167.98Z" fill="white"/>
<path d="M1375.89 1167.98C1377.03 1167.98 1377.94 1167.06 1377.94 1165.93C1377.94 1164.8 1377.03 1163.88 1375.89 1163.88C1374.76 1163.88 1373.84 1164.8 1373.84 1165.93C1373.84 1167.06 1374.76 1167.98 1375.89 1167.98Z" fill="white"/>
<path d="M64.1059 1249.97C65.2379 1249.97 66.1556 1249.05 66.1556 1247.92C66.1556 1246.79 65.2379 1245.87 64.1059 1245.87C62.9739 1245.87 62.0563 1246.79 62.0563 1247.92C62.0563 1249.05 62.9739 1249.97 64.1059 1249.97Z" fill="white"/>
<path d="M146.093 1249.97C147.225 1249.97 148.142 1249.05 148.142 1247.92C148.142 1246.79 147.225 1245.87 146.093 1245.87C144.961 1245.87 144.043 1246.79 144.043 1247.92C144.043 1249.05 144.961 1249.97 146.093 1249.97Z" fill="white"/>
<path d="M228.079 1249.97C229.211 1249.97 230.129 1249.05 230.129 1247.92C230.129 1246.79 229.211 1245.87 228.079 1245.87C226.947 1245.87 226.03 1246.79 226.03 1247.92C226.03 1249.05 226.947 1249.97 228.079 1249.97Z" fill="white"/>
<path d="M310.066 1249.97C311.198 1249.97 312.116 1249.05 312.116 1247.92C312.116 1246.79 311.198 1245.87 310.066 1245.87C308.934 1245.87 308.017 1246.79 308.017 1247.92C308.017 1249.05 308.934 1249.97 310.066 1249.97Z" fill="white"/>
<path d="M392.053 1249.97C393.185 1249.97 394.103 1249.05 394.103 1247.92C394.103 1246.79 393.185 1245.87 392.053 1245.87C390.921 1245.87 390.003 1246.79 390.003 1247.92C390.003 1249.05 390.921 1249.97 392.053 1249.97Z" fill="white"/>
<path d="M474.04 1249.97C475.172 1249.97 476.089 1249.05 476.089 1247.92C476.089 1246.79 475.172 1245.87 474.04 1245.87C472.908 1245.87 471.99 1246.79 471.99 1247.92C471.99 1249.05 472.908 1249.97 474.04 1249.97Z" fill="white"/>
<path d="M556.026 1249.97C557.158 1249.97 558.076 1249.05 558.076 1247.92C558.076 1246.79 557.158 1245.87 556.026 1245.87C554.894 1245.87 553.977 1246.79 553.977 1247.92C553.977 1249.05 554.894 1249.97 556.026 1249.97Z" fill="white"/>
<path d="M638.013 1249.97C639.145 1249.97 640.063 1249.05 640.063 1247.92C640.063 1246.79 639.145 1245.87 638.013 1245.87C636.881 1245.87 635.964 1246.79 635.964 1247.92C635.964 1249.05 636.881 1249.97 638.013 1249.97Z" fill="white"/>
<path d="M720 1249.97C721.132 1249.97 722.05 1249.05 722.05 1247.92C722.05 1246.79 721.132 1245.87 720 1245.87C718.868 1245.87 717.95 1246.79 717.95 1247.92C717.95 1249.05 718.868 1249.97 720 1249.97Z" fill="white"/>
<path d="M801.987 1249.97C803.119 1249.97 804.037 1249.05 804.037 1247.92C804.037 1246.79 803.119 1245.87 801.987 1245.87C800.855 1245.87 799.937 1246.79 799.937 1247.92C799.937 1249.05 800.855 1249.97 801.987 1249.97Z" fill="white"/>
<path d="M883.973 1249.97C885.105 1249.97 886.023 1249.05 886.023 1247.92C886.023 1246.79 885.105 1245.87 883.973 1245.87C882.841 1245.87 881.924 1246.79 881.924 1247.92C881.924 1249.05 882.841 1249.97 883.973 1249.97Z" fill="white"/>
<path d="M965.96 1249.97C967.092 1249.97 968.01 1249.05 968.01 1247.92C968.01 1246.79 967.092 1245.87 965.96 1245.87C964.828 1245.87 963.911 1246.79 963.911 1247.92C963.911 1249.05 964.828 1249.97 965.96 1249.97Z" fill="white"/>
<path d="M1047.95 1249.97C1049.08 1249.97 1050 1249.05 1050 1247.92C1050 1246.79 1049.08 1245.87 1047.95 1245.87C1046.82 1245.87 1045.9 1246.79 1045.9 1247.92C1045.9 1249.05 1046.82 1249.97 1047.95 1249.97Z" fill="white"/>
<path d="M1129.93 1249.97C1131.07 1249.97 1131.98 1249.05 1131.98 1247.92C1131.98 1246.79 1131.07 1245.87 1129.93 1245.87C1128.8 1245.87 1127.88 1246.79 1127.88 1247.92C1127.88 1249.05 1128.8 1249.97 1129.93 1249.97Z" fill="white"/>
<path d="M1211.92 1249.97C1213.05 1249.97 1213.97 1249.05 1213.97 1247.92C1213.97 1246.79 1213.05 1245.87 1211.92 1245.87C1210.79 1245.87 1209.87 1246.79 1209.87 1247.92C1209.87 1249.05 1210.79 1249.97 1211.92 1249.97Z" fill="white"/>
<path d="M1293.91 1249.97C1295.04 1249.97 1295.96 1249.05 1295.96 1247.92C1295.96 1246.79 1295.04 1245.87 1293.91 1245.87C1292.78 1245.87 1291.86 1246.79 1291.86 1247.92C1291.86 1249.05 1292.78 1249.97 1293.91 1249.97Z" fill="white"/>
<path d="M1375.89 1249.97C1377.03 1249.97 1377.94 1249.05 1377.94 1247.92C1377.94 1246.79 1377.03 1245.87 1375.89 1245.87C1374.76 1245.87 1373.84 1246.79 1373.84 1247.92C1373.84 1249.05 1374.76 1249.97 1375.89 1249.97Z" fill="white"/>
<path d="M64.1059 1331.96C65.2379 1331.96 66.1556 1331.04 66.1556 1329.91C66.1556 1328.77 65.2379 1327.86 64.1059 1327.86C62.9739 1327.86 62.0563 1328.77 62.0563 1329.91C62.0563 1331.04 62.9739 1331.96 64.1059 1331.96Z" fill="white"/>
<path d="M146.093 1331.96C147.225 1331.96 148.142 1331.04 148.142 1329.91C148.142 1328.77 147.225 1327.86 146.093 1327.86C144.961 1327.86 144.043 1328.77 144.043 1329.91C144.043 1331.04 144.961 1331.96 146.093 1331.96Z" fill="white"/>
<path d="M228.079 1331.96C229.211 1331.96 230.129 1331.04 230.129 1329.91C230.129 1328.77 229.211 1327.86 228.079 1327.86C226.947 1327.86 226.03 1328.77 226.03 1329.91C226.03 1331.04 226.947 1331.96 228.079 1331.96Z" fill="white"/>
<path d="M310.066 1331.96C311.198 1331.96 312.116 1331.04 312.116 1329.91C312.116 1328.77 311.198 1327.86 310.066 1327.86C308.934 1327.86 308.017 1328.77 308.017 1329.91C308.017 1331.04 308.934 1331.96 310.066 1331.96Z" fill="white"/>
<path d="M392.053 1331.96C393.185 1331.96 394.103 1331.04 394.103 1329.91C394.103 1328.77 393.185 1327.86 392.053 1327.86C390.921 1327.86 390.003 1328.77 390.003 1329.91C390.003 1331.04 390.921 1331.96 392.053 1331.96Z" fill="white"/>
<path d="M474.04 1331.96C475.172 1331.96 476.089 1331.04 476.089 1329.91C476.089 1328.77 475.172 1327.86 474.04 1327.86C472.908 1327.86 471.99 1328.77 471.99 1329.91C471.99 1331.04 472.908 1331.96 474.04 1331.96Z" fill="white"/>
<path d="M556.026 1331.96C557.158 1331.96 558.076 1331.04 558.076 1329.91C558.076 1328.77 557.158 1327.86 556.026 1327.86C554.894 1327.86 553.977 1328.77 553.977 1329.91C553.977 1331.04 554.894 1331.96 556.026 1331.96Z" fill="white"/>
<path d="M638.013 1331.96C639.145 1331.96 640.063 1331.04 640.063 1329.91C640.063 1328.77 639.145 1327.86 638.013 1327.86C636.881 1327.86 635.964 1328.77 635.964 1329.91C635.964 1331.04 636.881 1331.96 638.013 1331.96Z" fill="white"/>
<path d="M720 1331.96C721.132 1331.96 722.05 1331.04 722.05 1329.91C722.05 1328.77 721.132 1327.86 720 1327.86C718.868 1327.86 717.95 1328.77 717.95 1329.91C717.95 1331.04 718.868 1331.96 720 1331.96Z" fill="white"/>
<path d="M801.987 1331.96C803.119 1331.96 804.037 1331.04 804.037 1329.91C804.037 1328.77 803.119 1327.86 801.987 1327.86C800.855 1327.86 799.937 1328.77 799.937 1329.91C799.937 1331.04 800.855 1331.96 801.987 1331.96Z" fill="white"/>
<path d="M883.973 1331.96C885.105 1331.96 886.023 1331.04 886.023 1329.91C886.023 1328.77 885.105 1327.86 883.973 1327.86C882.841 1327.86 881.924 1328.77 881.924 1329.91C881.924 1331.04 882.841 1331.96 883.973 1331.96Z" fill="white"/>
<path d="M965.96 1331.96C967.092 1331.96 968.01 1331.04 968.01 1329.91C968.01 1328.77 967.092 1327.86 965.96 1327.86C964.828 1327.86 963.911 1328.77 963.911 1329.91C963.911 1331.04 964.828 1331.96 965.96 1331.96Z" fill="white"/>
<path d="M1047.95 1331.96C1049.08 1331.96 1050 1331.04 1050 1329.91C1050 1328.77 1049.08 1327.86 1047.95 1327.86C1046.82 1327.86 1045.9 1328.77 1045.9 1329.91C1045.9 1331.04 1046.82 1331.96 1047.95 1331.96Z" fill="white"/>
<path d="M1129.93 1331.96C1131.07 1331.96 1131.98 1331.04 1131.98 1329.91C1131.98 1328.77 1131.07 1327.86 1129.93 1327.86C1128.8 1327.86 1127.88 1328.77 1127.88 1329.91C1127.88 1331.04 1128.8 1331.96 1129.93 1331.96Z" fill="white"/>
<path d="M1211.92 1331.96C1213.05 1331.96 1213.97 1331.04 1213.97 1329.91C1213.97 1328.77 1213.05 1327.86 1211.92 1327.86C1210.79 1327.86 1209.87 1328.77 1209.87 1329.91C1209.87 1331.04 1210.79 1331.96 1211.92 1331.96Z" fill="white"/>
<path d="M1293.91 1331.96C1295.04 1331.96 1295.96 1331.04 1295.96 1329.91C1295.96 1328.77 1295.04 1327.86 1293.91 1327.86C1292.78 1327.86 1291.86 1328.77 1291.86 1329.91C1291.86 1331.04 1292.78 1331.96 1293.91 1331.96Z" fill="white"/>
<path d="M1375.89 1331.96C1377.03 1331.96 1377.94 1331.04 1377.94 1329.91C1377.94 1328.77 1377.03 1327.86 1375.89 1327.86C1374.76 1327.86 1373.84 1328.77 1373.84 1329.91C1373.84 1331.04 1374.76 1331.96 1375.89 1331.96Z" fill="white"/>
<path d="M64.1059 1413.94C65.2379 1413.94 66.1556 1413.02 66.1556 1411.89C66.1556 1410.76 65.2379 1409.84 64.1059 1409.84C62.9739 1409.84 62.0563 1410.76 62.0563 1411.89C62.0563 1413.02 62.9739 1413.94 64.1059 1413.94Z" fill="white"/>
<path d="M146.093 1413.94C147.225 1413.94 148.142 1413.02 148.142 1411.89C148.142 1410.76 147.225 1409.84 146.093 1409.84C144.961 1409.84 144.043 1410.76 144.043 1411.89C144.043 1413.02 144.961 1413.94 146.093 1413.94Z" fill="white"/>
<path d="M228.079 1413.94C229.211 1413.94 230.129 1413.02 230.129 1411.89C230.129 1410.76 229.211 1409.84 228.079 1409.84C226.947 1409.84 226.03 1410.76 226.03 1411.89C226.03 1413.02 226.947 1413.94 228.079 1413.94Z" fill="white"/>
<path d="M310.066 1413.94C311.198 1413.94 312.116 1413.02 312.116 1411.89C312.116 1410.76 311.198 1409.84 310.066 1409.84C308.934 1409.84 308.017 1410.76 308.017 1411.89C308.017 1413.02 308.934 1413.94 310.066 1413.94Z" fill="white"/>
<path d="M392.053 1413.94C393.185 1413.94 394.103 1413.02 394.103 1411.89C394.103 1410.76 393.185 1409.84 392.053 1409.84C390.921 1409.84 390.003 1410.76 390.003 1411.89C390.003 1413.02 390.921 1413.94 392.053 1413.94Z" fill="white"/>
<path d="M474.04 1413.94C475.172 1413.94 476.089 1413.02 476.089 1411.89C476.089 1410.76 475.172 1409.84 474.04 1409.84C472.908 1409.84 471.99 1410.76 471.99 1411.89C471.99 1413.02 472.908 1413.94 474.04 1413.94Z" fill="white"/>
<path d="M556.026 1413.94C557.158 1413.94 558.076 1413.02 558.076 1411.89C558.076 1410.76 557.158 1409.84 556.026 1409.84C554.894 1409.84 553.977 1410.76 553.977 1411.89C553.977 1413.02 554.894 1413.94 556.026 1413.94Z" fill="white"/>
<path d="M638.013 1413.94C639.145 1413.94 640.063 1413.02 640.063 1411.89C640.063 1410.76 639.145 1409.84 638.013 1409.84C636.881 1409.84 635.964 1410.76 635.964 1411.89C635.964 1413.02 636.881 1413.94 638.013 1413.94Z" fill="white"/>
<path d="M720 1413.94C721.132 1413.94 722.05 1413.02 722.05 1411.89C722.05 1410.76 721.132 1409.84 720 1409.84C718.868 1409.84 717.95 1410.76 717.95 1411.89C717.95 1413.02 718.868 1413.94 720 1413.94Z" fill="white"/>
<path d="M801.987 1413.94C803.119 1413.94 804.037 1413.02 804.037 1411.89C804.037 1410.76 803.119 1409.84 801.987 1409.84C800.855 1409.84 799.937 1410.76 799.937 1411.89C799.937 1413.02 800.855 1413.94 801.987 1413.94Z" fill="white"/>
<path d="M883.973 1413.94C885.105 1413.94 886.023 1413.02 886.023 1411.89C886.023 1410.76 885.105 1409.84 883.973 1409.84C882.841 1409.84 881.924 1410.76 881.924 1411.89C881.924 1413.02 882.841 1413.94 883.973 1413.94Z" fill="white"/>
<path d="M965.96 1413.94C967.092 1413.94 968.01 1413.02 968.01 1411.89C968.01 1410.76 967.092 1409.84 965.96 1409.84C964.828 1409.84 963.911 1410.76 963.911 1411.89C963.911 1413.02 964.828 1413.94 965.96 1413.94Z" fill="white"/>
<path d="M1047.95 1413.94C1049.08 1413.94 1050 1413.02 1050 1411.89C1050 1410.76 1049.08 1409.84 1047.95 1409.84C1046.82 1409.84 1045.9 1410.76 1045.9 1411.89C1045.9 1413.02 1046.82 1413.94 1047.95 1413.94Z" fill="white"/>
<path d="M1129.93 1413.94C1131.07 1413.94 1131.98 1413.02 1131.98 1411.89C1131.98 1410.76 1131.07 1409.84 1129.93 1409.84C1128.8 1409.84 1127.88 1410.76 1127.88 1411.89C1127.88 1413.02 1128.8 1413.94 1129.93 1413.94Z" fill="white"/>
<path d="M1211.92 1413.94C1213.05 1413.94 1213.97 1413.02 1213.97 1411.89C1213.97 1410.76 1213.05 1409.84 1211.92 1409.84C1210.79 1409.84 1209.87 1410.76 1209.87 1411.89C1209.87 1413.02 1210.79 1413.94 1211.92 1413.94Z" fill="white"/>
<path d="M1293.91 1413.94C1295.04 1413.94 1295.96 1413.02 1295.96 1411.89C1295.96 1410.76 1295.04 1409.84 1293.91 1409.84C1292.78 1409.84 1291.86 1410.76 1291.86 1411.89C1291.86 1413.02 1292.78 1413.94 1293.91 1413.94Z" fill="white"/>
<path d="M1375.89 1413.94C1377.03 1413.94 1377.94 1413.02 1377.94 1411.89C1377.94 1410.76 1377.03 1409.84 1375.89 1409.84C1374.76 1409.84 1373.84 1410.76 1373.84 1411.89C1373.84 1413.02 1374.76 1413.94 1375.89 1413.94Z" fill="white"/>
<path d="M64.1059 1495.93C65.2379 1495.93 66.1556 1495.01 66.1556 1493.88C66.1556 1492.75 65.2379 1491.83 64.1059 1491.83C62.9739 1491.83 62.0563 1492.75 62.0563 1493.88C62.0563 1495.01 62.9739 1495.93 64.1059 1495.93Z" fill="white"/>
<path d="M146.093 1495.93C147.225 1495.93 148.142 1495.01 148.142 1493.88C148.142 1492.75 147.225 1491.83 146.093 1491.83C144.961 1491.83 144.043 1492.75 144.043 1493.88C144.043 1495.01 144.961 1495.93 146.093 1495.93Z" fill="white"/>
<path d="M228.079 1495.93C229.211 1495.93 230.129 1495.01 230.129 1493.88C230.129 1492.75 229.211 1491.83 228.079 1491.83C226.947 1491.83 226.03 1492.75 226.03 1493.88C226.03 1495.01 226.947 1495.93 228.079 1495.93Z" fill="white"/>
<path d="M310.066 1495.93C311.198 1495.93 312.116 1495.01 312.116 1493.88C312.116 1492.75 311.198 1491.83 310.066 1491.83C308.934 1491.83 308.017 1492.75 308.017 1493.88C308.017 1495.01 308.934 1495.93 310.066 1495.93Z" fill="white"/>
<path d="M392.053 1495.93C393.185 1495.93 394.103 1495.01 394.103 1493.88C394.103 1492.75 393.185 1491.83 392.053 1491.83C390.921 1491.83 390.003 1492.75 390.003 1493.88C390.003 1495.01 390.921 1495.93 392.053 1495.93Z" fill="white"/>
<path d="M474.04 1495.93C475.172 1495.93 476.089 1495.01 476.089 1493.88C476.089 1492.75 475.172 1491.83 474.04 1491.83C472.908 1491.83 471.99 1492.75 471.99 1493.88C471.99 1495.01 472.908 1495.93 474.04 1495.93Z" fill="white"/>
<path d="M556.026 1495.93C557.158 1495.93 558.076 1495.01 558.076 1493.88C558.076 1492.75 557.158 1491.83 556.026 1491.83C554.894 1491.83 553.977 1492.75 553.977 1493.88C553.977 1495.01 554.894 1495.93 556.026 1495.93Z" fill="white"/>
<path d="M638.013 1495.93C639.145 1495.93 640.063 1495.01 640.063 1493.88C640.063 1492.75 639.145 1491.83 638.013 1491.83C636.881 1491.83 635.964 1492.75 635.964 1493.88C635.964 1495.01 636.881 1495.93 638.013 1495.93Z" fill="white"/>
<path d="M720 1495.93C721.132 1495.93 722.05 1495.01 722.05 1493.88C722.05 1492.75 721.132 1491.83 720 1491.83C718.868 1491.83 717.95 1492.75 717.95 1493.88C717.95 1495.01 718.868 1495.93 720 1495.93Z" fill="white"/>
<path d="M801.987 1495.93C803.119 1495.93 804.037 1495.01 804.037 1493.88C804.037 1492.75 803.119 1491.83 801.987 1491.83C800.855 1491.83 799.937 1492.75 799.937 1493.88C799.937 1495.01 800.855 1495.93 801.987 1495.93Z" fill="white"/>
<path d="M883.973 1495.93C885.105 1495.93 886.023 1495.01 886.023 1493.88C886.023 1492.75 885.105 1491.83 883.973 1491.83C882.841 1491.83 881.924 1492.75 881.924 1493.88C881.924 1495.01 882.841 1495.93 883.973 1495.93Z" fill="white"/>
<path d="M965.96 1495.93C967.092 1495.93 968.01 1495.01 968.01 1493.88C968.01 1492.75 967.092 1491.83 965.96 1491.83C964.828 1491.83 963.911 1492.75 963.911 1493.88C963.911 1495.01 964.828 1495.93 965.96 1495.93Z" fill="white"/>
<path d="M1047.95 1495.93C1049.08 1495.93 1050 1495.01 1050 1493.88C1050 1492.75 1049.08 1491.83 1047.95 1491.83C1046.82 1491.83 1045.9 1492.75 1045.9 1493.88C1045.9 1495.01 1046.82 1495.93 1047.95 1495.93Z" fill="white"/>
<path d="M1129.93 1495.93C1131.07 1495.93 1131.98 1495.01 1131.98 1493.88C1131.98 1492.75 1131.07 1491.83 1129.93 1491.83C1128.8 1491.83 1127.88 1492.75 1127.88 1493.88C1127.88 1495.01 1128.8 1495.93 1129.93 1495.93Z" fill="white"/>
<path d="M1211.92 1495.93C1213.05 1495.93 1213.97 1495.01 1213.97 1493.88C1213.97 1492.75 1213.05 1491.83 1211.92 1491.83C1210.79 1491.83 1209.87 1492.75 1209.87 1493.88C1209.87 1495.01 1210.79 1495.93 1211.92 1495.93Z" fill="white"/>
<path d="M1293.91 1495.93C1295.04 1495.93 1295.96 1495.01 1295.96 1493.88C1295.96 1492.75 1295.04 1491.83 1293.91 1491.83C1292.78 1491.83 1291.86 1492.75 1291.86 1493.88C1291.86 1495.01 1292.78 1495.93 1293.91 1495.93Z" fill="white"/>
<path d="M1375.89 1495.93C1377.03 1495.93 1377.94 1495.01 1377.94 1493.88C1377.94 1492.75 1377.03 1491.83 1375.89 1491.83C1374.76 1491.83 1373.84 1492.75 1373.84 1493.88C1373.84 1495.01 1374.76 1495.93 1375.89 1495.93Z" fill="white"/>
<path d="M228.325 18.1173H227.813V1493.88H228.325V18.1173Z" fill="white"/>
<path d="M474.286 18.1173H473.773V1493.88H474.286V18.1173Z" fill="white"/>
<path d="M720.246 18.1173H719.734V1493.88H720.246V18.1173Z" fill="white"/>
<path d="M966.206 18.1173H965.694V1493.88H966.206V18.1173Z" fill="white"/>
<path d="M1212.17 18.1173H1211.65V1493.88H1212.17V18.1173Z" fill="white"/>
<path d="M1457.88 17.8507H-17.881V18.3631H1457.88V17.8507Z" fill="white"/>
<path d="M1457.88 263.811H-17.881V264.323H1457.88V263.811Z" fill="white"/>
<path d="M1457.88 509.771H-17.881V510.284H1457.88V509.771Z" fill="white"/>
<path d="M1457.88 755.732H-17.881V756.244H1457.88V755.732Z" fill="white"/>
<path d="M1457.88 1001.69H-17.881V1002.2H1457.88V1001.69Z" fill="white"/>
<path d="M1457.88 1247.65H-17.881V1248.16H1457.88V1247.65Z" fill="white"/>
<path d="M1457.88 1493.61H-17.881V1494.12H1457.88V1493.61Z" fill="white"/>
<path d="M0.238152 17.0924H-36V19.1421H0.238152V17.0924Z" fill="white"/>
<path d="M246.198 17.0924H209.96V19.1421H246.198V17.0924Z" fill="white"/>
<path d="M229.104 -0.00183105H227.055V36.2363H229.104V-0.00183105Z" fill="white"/>
<path d="M492.159 17.0924H455.921V19.1421H492.159V17.0924Z" fill="white"/>
<path d="M475.065 -0.00183105H473.015V36.2363H475.065V-0.00183105Z" fill="white"/>
<path d="M738.119 17.0924H701.881V19.1421H738.119V17.0924Z" fill="white"/>
<path d="M721.025 -0.00183105H718.975V36.2363H721.025V-0.00183105Z" fill="white"/>
<path d="M984.079 17.0924H947.841V19.1421H984.079V17.0924Z" fill="white"/>
<path d="M966.985 -0.00183105H964.936V36.2363H966.985V-0.00183105Z" fill="white"/>
<path d="M1230.04 17.0924H1193.8V19.1421H1230.04V17.0924Z" fill="white"/>
<path d="M1212.95 -0.00183105H1210.9V36.2363H1212.95V-0.00183105Z" fill="white"/>
<path d="M1476 17.0924H1439.76V19.1421H1476V17.0924Z" fill="white"/>
<path d="M0.238152 263.053H-36V265.102H0.238152V263.053Z" fill="white"/>
<path d="M246.198 263.053H209.96V265.102H246.198V263.053Z" fill="white"/>
<path d="M229.104 245.958H227.055V282.197H229.104V245.958Z" fill="white"/>
<path d="M492.159 263.053H455.921V265.102H492.159V263.053Z" fill="white"/>
<path d="M475.065 245.958H473.015V282.197H475.065V245.958Z" fill="white"/>
<path d="M738.119 263.053H701.881V265.102H738.119V263.053Z" fill="white"/>
<path d="M721.025 245.958H718.975V282.197H721.025V245.958Z" fill="white"/>
<path d="M984.079 263.053H947.841V265.102H984.079V263.053Z" fill="white"/>
<path d="M966.985 245.958H964.936V282.197H966.985V245.958Z" fill="white"/>
<path d="M1230.04 263.053H1193.8V265.102H1230.04V263.053Z" fill="white"/>
<path d="M1212.95 245.958H1210.9V282.197H1212.95V245.958Z" fill="white"/>
<path d="M1476 263.053H1439.76V265.102H1476V263.053Z" fill="white"/>
<path d="M0.238152 509.013H-36V511.063H0.238152V509.013Z" fill="white"/>
<path d="M246.198 509.013H209.96V511.063H246.198V509.013Z" fill="white"/>
<path d="M229.104 491.919H227.055V528.157H229.104V491.919Z" fill="white"/>
<path d="M492.159 509.013H455.921V511.063H492.159V509.013Z" fill="white"/>
<path d="M475.065 491.919H473.015V528.157H475.065V491.919Z" fill="white"/>
<path d="M738.119 509.013H701.881V511.063H738.119V509.013Z" fill="white"/>
<path d="M721.025 491.919H718.975V528.157H721.025V491.919Z" fill="white"/>
<path d="M984.079 509.013H947.841V511.063H984.079V509.013Z" fill="white"/>
<path d="M966.985 491.919H964.936V528.157H966.985V491.919Z" fill="white"/>
<path d="M1230.04 509.013H1193.8V511.063H1230.04V509.013Z" fill="white"/>
<path d="M1212.95 491.919H1210.9V528.157H1212.95V491.919Z" fill="white"/>
<path d="M1476 509.013H1439.76V511.063H1476V509.013Z" fill="white"/>
<path d="M0.238152 754.973H-36V757.023H0.238152V754.973Z" fill="white"/>
<path d="M246.198 754.973H209.96V757.023H246.198V754.973Z" fill="white"/>
<path d="M229.104 737.879H227.055V774.117H229.104V737.879Z" fill="white"/>
<path d="M492.159 754.973H455.921V757.023H492.159V754.973Z" fill="white"/>
<path d="M475.065 737.879H473.015V774.117H475.065V737.879Z" fill="white"/>
<path d="M738.119 754.973H701.881V757.023H738.119V754.973Z" fill="white"/>
<path d="M721.025 737.879H718.975V774.117H721.025V737.879Z" fill="white"/>
<path d="M984.079 754.973H947.841V757.023H984.079V754.973Z" fill="white"/>
<path d="M966.985 737.879H964.936V774.117H966.985V737.879Z" fill="white"/>
<path d="M1230.04 754.973H1193.8V757.023H1230.04V754.973Z" fill="white"/>
<path d="M1212.95 737.879H1210.9V774.117H1212.95V737.879Z" fill="white"/>
<path d="M1476 754.973H1439.76V757.023H1476V754.973Z" fill="white"/>
<path d="M0.238152 1000.93H-36V1002.98H0.238152V1000.93Z" fill="white"/>
<path d="M246.198 1000.93H209.96V1002.98H246.198V1000.93Z" fill="white"/>
<path d="M229.104 983.839H227.055V1020.08H229.104V983.839Z" fill="white"/>
<path d="M492.159 1000.93H455.921V1002.98H492.159V1000.93Z" fill="white"/>
<path d="M475.065 983.839H473.015V1020.08H475.065V983.839Z" fill="white"/>
<path d="M738.119 1000.93H701.881V1002.98H738.119V1000.93Z" fill="white"/>
<path d="M721.025 983.839H718.975V1020.08H721.025V983.839Z" fill="white"/>
<path d="M984.079 1000.93H947.841V1002.98H984.079V1000.93Z" fill="white"/>
<path d="M966.985 983.839H964.936V1020.08H966.985V983.839Z" fill="white"/>
<path d="M1230.04 1000.93H1193.8V1002.98H1230.04V1000.93Z" fill="white"/>
<path d="M1212.95 983.839H1210.9V1020.08H1212.95V983.839Z" fill="white"/>
<path d="M1476 1000.93H1439.76V1002.98H1476V1000.93Z" fill="white"/>
<path d="M0.238152 1246.89H-36V1248.94H0.238152V1246.89Z" fill="white"/>
<path d="M246.198 1246.89H209.96V1248.94H246.198V1246.89Z" fill="white"/>
<path d="M229.104 1229.8H227.055V1266.04H229.104V1229.8Z" fill="white"/>
<path d="M492.159 1246.89H455.921V1248.94H492.159V1246.89Z" fill="white"/>
<path d="M475.065 1229.8H473.015V1266.04H475.065V1229.8Z" fill="white"/>
<path d="M738.119 1246.89H701.881V1248.94H738.119V1246.89Z" fill="white"/>
<path d="M721.025 1229.8H718.975V1266.04H721.025V1229.8Z" fill="white"/>
<path d="M984.079 1246.89H947.841V1248.94H984.079V1246.89Z" fill="white"/>
<path d="M966.985 1229.8H964.936V1266.04H966.985V1229.8Z" fill="white"/>
<path d="M1230.04 1246.89H1193.8V1248.94H1230.04V1246.89Z" fill="white"/>
<path d="M1212.95 1229.8H1210.9V1266.04H1212.95V1229.8Z" fill="white"/>
<path d="M1476 1246.89H1439.76V1248.94H1476V1246.89Z" fill="white"/>
<path d="M0.238152 1492.85H-36V1494.9H0.238152V1492.85Z" fill="white"/>
<path d="M246.198 1492.85H209.96V1494.9H246.198V1492.85Z" fill="white"/>
<path d="M229.104 1475.76H227.055V1512H229.104V1475.76Z" fill="white"/>
<path d="M492.159 1492.85H455.921V1494.9H492.159V1492.85Z" fill="white"/>
<path d="M475.065 1475.76H473.015V1512H475.065V1475.76Z" fill="white"/>
<path d="M738.119 1492.85H701.881V1494.9H738.119V1492.85Z" fill="white"/>
<path d="M721.025 1475.76H718.975V1512H721.025V1475.76Z" fill="white"/>
<path d="M984.079 1492.85H947.841V1494.9H984.079V1492.85Z" fill="white"/>
<path d="M966.985 1475.76H964.936V1512H966.985V1475.76Z" fill="white"/>
<path d="M1230.04 1492.85H1193.8V1494.9H1230.04V1492.85Z" fill="white"/>
<path d="M1212.95 1475.76H1210.9V1512H1212.95V1475.76Z" fill="white"/>
<path d="M1476 1492.85H1439.76V1494.9H1476V1492.85Z" fill="white"/>
<path d="M65.1307 -0.00183105H63.0811V18.1172H65.1307V-0.00183105Z" fill="white"/>
<path d="M82.225 17.0924H45.9868V19.1421H82.225V17.0924Z" fill="white"/>
<path d="M147.118 -0.00183105H145.068V18.1172H147.118V-0.00183105Z" fill="white"/>
<path d="M164.212 17.0924H127.974V19.1421H164.212V17.0924Z" fill="white"/>
<path d="M311.091 -0.00183105H309.041V18.1172H311.091V-0.00183105Z" fill="white"/>
<path d="M328.185 17.0924H291.947V19.1421H328.185V17.0924Z" fill="white"/>
<path d="M393.078 -0.00183105H391.028V18.1172H393.078V-0.00183105Z" fill="white"/>
<path d="M410.172 17.0924H373.934V19.1421H410.172V17.0924Z" fill="white"/>
<path d="M557.051 -0.00183105H555.002V18.1172H557.051V-0.00183105Z" fill="white"/>
<path d="M574.146 17.0924H537.907V19.1421H574.146V17.0924Z" fill="white"/>
<path d="M639.038 -0.00183105H636.989V18.1172H639.038V-0.00183105Z" fill="white"/>
<path d="M656.132 17.0924H619.894V19.1421H656.132V17.0924Z" fill="white"/>
<path d="M803.012 -0.00183105H800.962V18.1172H803.012V-0.00183105Z" fill="white"/>
<path d="M820.106 17.0924H783.868V19.1421H820.106V17.0924Z" fill="white"/>
<path d="M884.998 -0.00183105H882.949V18.1172H884.998V-0.00183105Z" fill="white"/>
<path d="M902.093 17.0924H865.854V19.1421H902.093V17.0924Z" fill="white"/>
<path d="M1048.97 -0.00183105H1046.92V18.1172H1048.97V-0.00183105Z" fill="white"/>
<path d="M1066.07 17.0924H1029.83V19.1421H1066.07V17.0924Z" fill="white"/>
<path d="M1130.96 -0.00183105H1128.91V18.1172H1130.96V-0.00183105Z" fill="white"/>
<path d="M1148.05 17.0924H1111.81V19.1421H1148.05V17.0924Z" fill="white"/>
<path d="M1294.93 -0.00183105H1292.88V18.1172H1294.93V-0.00183105Z" fill="white"/>
<path d="M1312.03 17.0924H1275.79V19.1421H1312.03V17.0924Z" fill="white"/>
<path d="M1376.92 -0.00183105H1374.87V18.1172H1376.92V-0.00183105Z" fill="white"/>
<path d="M1394.01 17.0924H1357.78V19.1421H1394.01V17.0924Z" fill="white"/>
<path d="M1376.92 1493.88H1374.87V1512H1376.92V1493.88Z" fill="white"/>
<path d="M1394.01 1492.85H1357.78V1494.9H1394.01V1492.85Z" fill="white"/>
<path d="M1294.93 1493.88H1292.88V1512H1294.93V1493.88Z" fill="white"/>
<path d="M1312.03 1492.85H1275.79V1494.9H1312.03V1492.85Z" fill="white"/>
<path d="M1130.96 1493.88H1128.91V1512H1130.96V1493.88Z" fill="white"/>
<path d="M1148.05 1492.85H1111.81V1494.9H1148.05V1492.85Z" fill="white"/>
<path d="M1048.97 1493.88H1046.92V1512H1048.97V1493.88Z" fill="white"/>
<path d="M1066.07 1492.85H1029.83V1494.9H1066.07V1492.85Z" fill="white"/>
<path d="M884.998 1493.88H882.949V1512H884.998V1493.88Z" fill="white"/>
<path d="M902.093 1492.85H865.854V1494.9H902.093V1492.85Z" fill="white"/>
<path d="M803.012 1493.88H800.962V1512H803.012V1493.88Z" fill="white"/>
<path d="M820.106 1492.85H783.868V1494.9H820.106V1492.85Z" fill="white"/>
<path d="M639.038 1493.88H636.989V1512H639.038V1493.88Z" fill="white"/>
<path d="M656.132 1492.85H619.894V1494.9H656.132V1492.85Z" fill="white"/>
<path d="M557.051 1493.88H555.002V1512H557.051V1493.88Z" fill="white"/>
<path d="M574.146 1492.85H537.907V1494.9H574.146V1492.85Z" fill="white"/>
<path d="M393.078 1493.88H391.028V1512H393.078V1493.88Z" fill="white"/>
<path d="M410.172 1492.85H373.934V1494.9H410.172V1492.85Z" fill="white"/>
<path d="M311.091 1493.88H309.041V1512H311.091V1493.88Z" fill="white"/>
<path d="M328.185 1492.85H291.947V1494.9H328.185V1492.85Z" fill="white"/>
<path d="M147.118 1493.88H145.068V1512H147.118V1493.88Z" fill="white"/>
<path d="M164.212 1492.85H127.974V1494.9H164.212V1492.85Z" fill="white"/>
<path d="M65.1307 1493.88H63.0811V1512H65.1307V1493.88Z" fill="white"/>
<path d="M82.225 1492.85H45.9868V1494.9H82.225V1492.85Z" fill="white"/>
<path d="M0 -0.00183105H1440V959.792H0V-0.00183105Z" fill="url(#paint0_linear_320_185700)"/>
<rect width="1440" height="774.119" transform="matrix(1 0 0 -1 -36 1512)" fill="url(#paint1_linear_320_185700)"/>
</g>
<defs>
<linearGradient id="paint0_linear_320_185700" x1="720" y1="-0.00183105" x2="720" y2="959.792" gradientUnits="userSpaceOnUse">
<stop stop-color="#111214"/>
<stop offset="1" stop-color="#111214" stop-opacity="0"/>
</linearGradient>
<linearGradient id="paint1_linear_320_185700" x1="720" y1="0" x2="720" y2="774.119" gradientUnits="userSpaceOnUse">
<stop stop-color="#111214"/>
<stop offset="1" stop-color="#111214" stop-opacity="0"/>
</linearGradient>
<clipPath id="clip0_320_185700">
<rect width="1440" height="1512" fill="white" transform="translate(0 -0.00183105)"/>
</clipPath>
</defs>
</svg>
