<svg width="238" height="5" viewBox="0 0 238 5" fill="none" xmlns="http://www.w3.org/2000/svg">
<g clip-path="url(#clip0_320_194931)">
<path fill-rule="evenodd" clip-rule="evenodd" d="M64.4291 4.27735C64.5073 4.23147 60.5335 4.31489 62.6622 4.30655C63.2164 4.30655 63.9858 4.26901 64.4291 4.27735Z" fill="#FFB503"/>
<path fill-rule="evenodd" clip-rule="evenodd" d="M51.0601 4.04377C52.8074 4.08965 55.0698 4.05628 57.1561 4.03543C55.6011 4.0104 53.179 4.02292 51.0601 4.04377Z" fill="#FFB503"/>
<path fill-rule="evenodd" clip-rule="evenodd" d="M76.5526 4.12719C76.0799 4.18142 79.4702 4.10217 77.6186 4.11051C78.3977 4.10634 76.5949 4.11885 76.5526 4.12719Z" fill="#FFB503"/>
<path fill-rule="evenodd" clip-rule="evenodd" d="M126.403 3.1887C126.7 3.22624 127.525 3.19287 128.027 3.20538C127.73 3.16784 126.905 3.20121 126.403 3.1887Z" fill="#FFB503"/>
<path fill-rule="evenodd" clip-rule="evenodd" d="M128.141 3.17198C128.574 3.20951 129.53 3.17615 130.165 3.18866C129.735 3.15112 128.78 3.18449 128.141 3.17198Z" fill="#FFB503"/>
<path fill-rule="evenodd" clip-rule="evenodd" d="M60.8558 4.18557C63.5746 4.18557 66.6128 4.15637 69.7032 4.11466C72.7741 4.07295 75.8188 4.01456 78.6191 3.96451C80.5066 3.93114 82.3876 3.86857 83.9588 3.88943C84.3631 3.88943 84.3631 3.83938 84.7477 3.83938C83.8741 3.92697 85.8398 3.82686 86.9025 3.83938C86.9286 3.80184 86.3027 3.83103 86.0615 3.82269C86.7787 3.81018 88.2619 3.73927 88.5325 3.7935H88.1054C87.2155 3.82269 89.5365 3.79767 89.116 3.77681H88.6922C105.194 3.36805 123.348 3.15533 141.131 3.05523C137.363 3.11779 132.968 3.20121 128.059 3.25126C126.351 3.26795 124.258 3.23875 122.537 3.25126C120.855 3.26378 118.811 3.30549 117.014 3.33468C115.662 3.35554 112.382 3.36388 111.577 3.4181C111.512 3.42228 112.059 3.43896 111.988 3.45147C99.5054 3.59746 87.9751 3.87274 74.4268 4.06044C85.1487 3.99787 95.2544 3.73093 104.676 3.58494C97.1126 3.79767 88.3043 3.88109 80.0241 4.07295C84.4641 4.03124 89.1584 3.95199 93.8396 3.87692C98.7915 3.79767 104.591 3.68505 108.529 3.66837H108.115C115.642 3.61414 126.018 3.46816 134.201 3.37222C134.23 3.33886 132.649 3.36388 132.036 3.35554C137.907 3.26795 143.84 3.19287 149.721 3.11779C149.627 3.10111 149.32 3.09277 149.545 3.08442C154.706 2.98432 160.026 2.95095 165.835 2.90924C181.649 2.79245 197.088 2.46711 211.353 2.37952C213.074 2.37118 214.724 2.39621 216.429 2.37118C225.671 2.24188 233.775 1.97493 237.993 1.16993C236.396 0.823735 232.497 0.686092 228.888 0.573475C225.195 0.456686 221.074 0.335727 217.071 0.298188C214.088 0.273162 210.763 0.323214 207.542 0.310701C197.906 0.273162 186.447 0.369095 176.638 0.43166C159.015 0.544278 140.108 0.456686 122.921 0.573475C118.481 0.602672 114.038 0.615185 109.745 0.644382C96.0107 0.731973 82.7722 0.857104 70.1466 0.898814C69.0675 0.898814 67.9689 0.898814 66.9681 0.898814C60.5624 0.948866 53.9415 0.944695 47.037 1.07817C45.3842 1.10736 43.738 1.1449 42.0135 1.18244C40.2825 1.21998 38.5678 1.25752 36.9085 1.28672C35.3013 1.31591 33.7105 1.34928 32.1653 1.37848C30.6364 1.41185 29.101 1.44522 27.5134 1.48276C26.718 1.50361 25.9095 1.52447 25.0815 1.54532C24.3056 1.57035 23.5004 1.5912 22.6594 1.61623C20.9707 1.66628 19.1289 1.72884 17.0458 1.79558C16.2732 1.84146 17.274 1.81227 16.5046 1.85815C15.318 1.88317 14.1119 1.89986 12.8535 1.93322C12.7068 1.98328 10.5357 2.0667 9.78595 2.07087C8.95142 2.12509 10.1576 2.09172 9.46648 2.1376C6.3663 2.20017 3.66709 2.29193 -0.00683594 2.52134C0.615808 2.55053 1.6166 2.5839 2.70541 2.61727C3.24982 2.63395 3.81379 2.65064 4.36145 2.66315C4.59617 2.67149 4.97106 2.67984 5.34269 2.68401C5.70454 2.69235 6.05009 2.69652 6.37934 2.70486C7.1226 2.70486 5.48286 2.78828 6.4315 2.77577C7.53987 2.78411 8.70366 2.79245 9.89679 2.79662C10.4901 2.79662 11.0964 2.80079 11.706 2.80497C12.2668 2.80497 12.834 2.80497 13.4045 2.80914C15.6603 2.81748 17.9553 2.82999 20.1655 2.86336C22.3106 2.89673 24.2274 2.95929 26.1833 3.02603C28.123 3.08859 30.1018 3.1595 32.3087 3.21372C43.9629 3.48484 57.0939 3.48901 69.7358 3.46816C67.8972 3.52238 65.7848 3.53072 63.8158 3.56826C66.8964 3.60997 70.9094 3.4765 74.3649 3.4473C71.6396 3.54323 68.5068 3.59329 65.3643 3.63917C68.6209 3.65585 72.3144 3.54741 75.5385 3.50152C71.7733 3.65585 67.6364 3.64751 63.3855 3.76847C63.1378 3.7643 63.04 3.78515 63.1899 3.78515C71.0365 3.71008 77.4227 3.49735 85.0118 3.42228C78.9418 3.58912 71.3658 3.71008 63.9755 3.82269C69.8434 3.78932 76.0046 3.63083 81.8366 3.56826C80.8521 3.60997 79.7861 3.63917 78.5669 3.64751C78.5735 3.69756 78.9125 3.66837 79.2548 3.66419C75.6526 3.80601 69.2664 3.84772 65.1328 3.94365C64.7873 3.98953 66.0978 3.96451 66.0684 3.93114C68.5068 3.91863 70.7366 3.86857 72.9762 3.83521C70.867 3.97285 66.7432 3.93114 64.7579 4.02707C68.3601 3.97285 72.2525 3.91445 75.2712 3.85606C75.1375 3.8644 75.0006 3.87274 74.8017 3.87274C88.0337 3.61831 98.974 3.25961 111.984 3.24292C107.704 3.33886 103.127 3.40559 98.7426 3.5057C100.995 3.39725 103.887 3.37639 106.397 3.30966C94.0809 3.49318 81.5074 3.8644 67.2583 4.0521C68.2689 4.10215 69.7749 4.03124 70.9257 4.02707C67.9233 4.12301 64.3439 4.13135 60.8525 4.16472L60.8558 4.18557ZM78.0649 3.94782C79.3428 3.93531 78.1301 3.95617 76.9794 3.97702C76.7707 3.97702 76.4252 3.97285 76.7186 3.96034C77.3477 3.95199 77.6574 3.95199 78.0649 3.94782ZM79.0396 3.48067C78.2801 3.48067 77.1684 3.55158 76.5686 3.50987C77.3054 3.50152 78.4463 3.44313 79.0396 3.48067ZM109.517 3.54323C108.793 3.52238 108.102 3.59329 107.59 3.54323C108.281 3.55575 109.298 3.48067 109.517 3.54323ZM114.726 3.44313C112.897 3.45564 115.032 3.37639 115.815 3.42645C115.502 3.40976 115.143 3.44313 114.726 3.44313Z" fill="#FFB503"/>
<path fill-rule="evenodd" clip-rule="evenodd" d="M39.4221 3.99787C39.5851 3.97701 39.885 3.98535 40.136 3.98535C40.1067 3.94781 39.0733 3.97284 38.6462 3.96033C38.6984 4.02289 40.8467 4.02706 41.7855 4.04792C42.7081 4.06877 45.1791 4.04375 44.312 4.02706L39.4221 3.99787Z" fill="#FFB503"/>
<path fill-rule="evenodd" clip-rule="evenodd" d="M57.9677 4.02286C57.5537 4.0604 58.7566 4.00618 59.1804 4.02703C59.6368 3.99784 58.1992 4.01035 57.9677 4.02286Z" fill="#FFB503"/>
<path fill-rule="evenodd" clip-rule="evenodd" d="M59.6075 3.8936C60.4909 3.93531 62.0003 3.86857 63.1478 3.87274C62.9685 3.84772 62.4208 3.84772 62.0557 3.83521C61.5406 3.84772 62.2546 3.85606 62.4534 3.85189C62.1209 3.8936 61.5243 3.85189 61.257 3.84772C61.8112 3.89777 60.2073 3.88943 59.6042 3.8936H59.6075Z" fill="#FFB503"/>
<path fill-rule="evenodd" clip-rule="evenodd" d="M64.3833 3.91026C64.4452 3.9478 65.8861 3.90192 66.0556 3.89775C67.3433 3.86855 65.2504 3.89775 64.3833 3.91026Z" fill="#FFB503"/>
<path fill-rule="evenodd" clip-rule="evenodd" d="M56.1814 3.83102C56.3737 3.88108 57.1985 3.82268 57.6744 3.83519C57.4951 3.78514 56.7193 3.85605 56.1814 3.83102Z" fill="#FFB503"/>
<path fill-rule="evenodd" clip-rule="evenodd" d="M63.6792 3.68919C63.8487 3.73924 64.5463 3.67668 64.9897 3.68919C65.3157 3.64331 64.0932 3.69753 63.6792 3.68919Z" fill="#FFB503"/>
<path fill-rule="evenodd" clip-rule="evenodd" d="M107.323 3.49315C106.72 3.4431 105.142 3.53903 104.839 3.52652C105.781 3.55989 106.202 3.48481 107.323 3.49315Z" fill="#FFB503"/>
</g>
<defs>
<clipPath id="clip0_320_194931">
<rect width="238" height="4" fill="white" transform="translate(0 0.306519)"/>
</clipPath>
</defs>
</svg>
