<svg width="13" height="15" viewBox="0 0 13 15" fill="none" xmlns="http://www.w3.org/2000/svg">
<path fill-rule="evenodd" clip-rule="evenodd" d="M5.06858 0.416657H8.24376C8.81394 0.416648 9.28453 0.41664 9.66788 0.447961C10.066 0.480491 10.432 0.550308 10.7758 0.725472C11.3089 0.997113 11.7424 1.43056 12.014 1.96368C12.1892 2.30746 12.259 2.67346 12.2915 3.07161C12.3229 3.45496 12.3228 3.92556 12.3228 4.49575V13.875C12.3228 14.1275 12.1884 14.3609 11.97 14.4876C11.7516 14.6144 11.4823 14.6153 11.2631 14.49L6.65617 11.8575L2.04927 14.49C1.83004 14.6153 1.56069 14.6144 1.3423 14.4876C1.12391 14.3609 0.989503 14.1275 0.989503 13.875L0.989502 4.49574C0.989493 3.92555 0.989486 3.45496 1.02081 3.07161C1.05334 2.67346 1.12315 2.30746 1.29832 1.96368C1.56996 1.43056 2.0034 0.997113 2.53653 0.725472C2.88031 0.550308 3.24631 0.480491 3.64446 0.447961C4.02781 0.41664 4.49839 0.416648 5.06858 0.416657ZM3.75982 1.85992C3.44928 1.8853 3.29047 1.93128 3.17968 1.98773C2.91312 2.12355 2.6964 2.34027 2.56058 2.60684C2.50413 2.71762 2.45814 2.87643 2.43277 3.18698C2.40672 3.50579 2.40617 3.91825 2.40617 4.52499V12.6544L6.30474 10.4267C6.5225 10.3022 6.78984 10.3022 7.0076 10.4267L10.9062 12.6544V4.52499C10.9062 3.91825 10.9056 3.50579 10.8796 3.18698C10.8542 2.87643 10.8082 2.71762 10.7518 2.60684C10.6159 2.34027 10.3992 2.12355 10.1327 1.98773C10.0219 1.93128 9.86306 1.8853 9.55252 1.85992C9.2337 1.83387 8.82125 1.83332 8.2145 1.83332H5.09784C4.49109 1.83332 4.07863 1.83387 3.75982 1.85992ZM6.65617 3.24999C7.04737 3.24999 7.3645 3.56712 7.3645 3.95832V5.37499H8.78117C9.17237 5.37499 9.4895 5.69212 9.4895 6.08332C9.4895 6.47453 9.17237 6.79166 8.78117 6.79166H7.3645V8.20832C7.3645 8.59953 7.04737 8.91666 6.65617 8.91666C6.26497 8.91666 5.94784 8.59953 5.94784 8.20832V6.79166H4.53117C4.13997 6.79166 3.82284 6.47453 3.82284 6.08332C3.82284 5.69212 4.13997 5.37499 4.53117 5.37499H5.94784V3.95832C5.94784 3.56712 6.26497 3.24999 6.65617 3.24999Z" fill="white"/>
</svg>
