<svg width="21" height="23" viewBox="0 0 21 23" fill="none" xmlns="http://www.w3.org/2000/svg">
<path d="M18.5034 0.27832C19.8293 0.27832 20.8988 1.35059 20.962 2.61242V22.912L18.4374 20.7684L17.0511 19.5066L15.5384 18.1882L16.1702 20.2676H2.93141C1.60922 20.2676 0.536011 19.2633 0.536011 17.9326V2.61714C0.536011 1.35531 1.61111 0.28115 2.93613 0.28115H18.4968L18.5034 0.27832ZM12.7337 5.63779H12.7054L12.5149 5.8264C14.4699 6.39225 15.4158 7.2759 15.4158 7.2759C14.1558 6.64593 13.0204 6.33095 11.8849 6.20363C11.0645 6.07632 10.244 6.14328 9.55082 6.20363H9.36221C8.91896 6.20363 7.97589 6.39225 6.71218 6.89679C6.27177 7.08823 6.01902 7.21366 6.01902 7.21366C6.01902 7.21366 6.96398 6.2687 9.04628 5.76416L8.91896 5.63685C8.91896 5.63685 7.34215 5.57649 5.63991 6.83455C5.63991 6.83455 3.93767 9.79956 3.93767 13.4549C3.93767 13.4549 4.88074 15.0958 7.46758 15.1581C7.46758 15.1581 7.84481 14.6554 8.22675 14.2131C6.77442 13.7718 6.20858 12.8891 6.20858 12.8891C6.20858 12.8891 6.33495 12.9513 6.52451 13.0777H6.58109C6.60938 13.0777 6.62259 13.0918 6.63768 13.106V13.1116C6.65277 13.1267 6.66597 13.1399 6.69426 13.1399C7.00547 13.2682 7.31669 13.3945 7.57132 13.5171C8.11587 13.7503 8.68547 13.9199 9.26884 14.0226C10.1459 14.1499 11.1512 14.2112 12.2961 14.0226C12.8619 13.8953 13.4278 13.7708 13.9936 13.5181C14.3614 13.3295 14.8141 13.1409 15.3111 12.823C15.3111 12.823 14.7453 13.7058 13.2316 14.1471C13.5428 14.5866 13.9814 15.0902 13.9814 15.0902C16.5692 15.0336 17.5745 13.3927 17.6311 13.4624C17.6311 9.81276 15.9194 6.84209 15.9194 6.84209C14.3775 5.6972 12.9346 5.65382 12.6799 5.65382L12.7327 5.63496L12.7337 5.63779ZM12.8921 9.79956C13.5551 9.79956 14.0898 10.3654 14.0898 11.0586C14.0898 11.7564 13.5523 12.3223 12.8921 12.3223C12.232 12.3223 11.6944 11.7564 11.6944 11.0642C11.6963 10.3663 12.2348 9.80239 12.8921 9.80239V9.79956ZM8.60775 9.79956C9.2679 9.79956 9.80168 10.3654 9.80168 11.0586C9.80168 11.7564 9.26413 12.3223 8.60398 12.3223C7.94383 12.3223 7.40628 11.7564 7.40628 11.0642C7.40628 10.3663 7.94383 9.80239 8.60398 9.80239L8.60775 9.79956Z" fill="white"/>
</svg>
