<svg width="19" height="19" viewBox="0 0 19 19" fill="none" xmlns="http://www.w3.org/2000/svg">
<g clip-path="url(#clip0_320_210153)">
<path fill-rule="evenodd" clip-rule="evenodd" d="M5.14111 3.07715H13.0031C13.6068 3.07714 14.1051 3.07713 14.511 3.11029C14.9325 3.14474 15.3201 3.21866 15.6841 3.40413C16.2485 3.69175 16.7075 4.15069 16.9951 4.71518C17.1741 5.06644 17.2492 5.4396 17.2852 5.84413C17.3253 5.96668 17.3323 6.09594 17.3085 6.21934C17.3221 6.55693 17.3221 6.94741 17.3221 7.39616V12.2581C17.3221 12.8619 17.3221 13.3601 17.2889 13.766C17.2545 14.1876 17.1806 14.5751 16.9951 14.9391C16.7075 15.5036 16.2485 15.9625 15.6841 16.2502C15.3201 16.4356 14.9325 16.5096 14.511 16.544C14.1051 16.5772 13.6068 16.5772 13.0031 16.5771H5.14109C4.53737 16.5772 4.03911 16.5772 3.63322 16.544C3.21164 16.5096 2.82412 16.4356 2.46011 16.2502C1.89563 15.9625 1.43669 15.5036 1.14907 14.9391C0.963598 14.5751 0.889675 14.1876 0.855231 13.766C0.822068 13.3601 0.822076 12.8619 0.822085 12.2581V7.39617C0.822078 6.94743 0.822072 6.55694 0.835688 6.21935C0.811871 6.09594 0.818901 5.96667 0.858998 5.84412C0.894989 5.4396 0.970092 5.06643 1.14907 4.71518C1.43669 4.15069 1.89563 3.69175 2.46011 3.40413C2.82412 3.21866 3.21164 3.14474 3.63322 3.11029C4.03911 3.07713 4.53738 3.07714 5.14111 3.07715ZM2.32209 7.51764V12.2271C2.32209 12.5145 2.3222 12.7608 2.3248 12.9754L5.72782 9.90166L2.32209 7.51764ZM7.34594 9.20335L2.38416 5.73011C2.41096 5.57474 2.44582 5.4742 2.48558 5.39616C2.62939 5.11392 2.85886 4.88445 3.1411 4.74064C3.2584 4.68087 3.42655 4.63218 3.75536 4.60531C4.09293 4.57773 4.52965 4.57715 5.17209 4.57715H12.9721C13.6145 4.57715 14.0512 4.57773 14.3888 4.60531C14.7176 4.63218 14.8858 4.68087 15.0031 4.74064C15.2853 4.88445 15.5148 5.11392 15.6586 5.39616C15.6984 5.4742 15.7332 5.57474 15.76 5.73011L10.7983 9.20334C10.7896 9.20914 10.781 9.21514 10.7725 9.22134L10.0183 9.74931C9.4716 10.132 9.35577 10.1984 9.25349 10.2239C9.13438 10.2536 9.0098 10.2536 8.89069 10.2239C8.7884 10.1984 8.67258 10.132 8.12587 9.74931L7.37162 9.22133C7.36316 9.21514 7.3546 9.20915 7.34594 9.20335ZM6.98858 10.7842L2.74293 14.619C2.85771 14.7379 2.99204 14.8377 3.1411 14.9137C3.2584 14.9734 3.42655 15.0221 3.75536 15.049C4.09293 15.0766 4.52965 15.0771 5.17209 15.0771H12.9721C13.6145 15.0771 14.0512 15.0766 14.3888 15.049C14.7176 15.0221 14.8858 14.9734 15.0031 14.9137C15.1521 14.8377 15.2865 14.7379 15.4012 14.619L11.1556 10.7842L10.8785 10.9782C10.8494 10.9985 10.8206 11.0188 10.792 11.0388C10.3835 11.3257 10.0248 11.5775 9.61629 11.6794C9.25896 11.7684 8.88522 11.7684 8.52788 11.6794C8.11937 11.5775 7.76068 11.3257 7.35219 11.0388C7.32361 11.0188 7.29478 10.9985 7.26568 10.9782L6.98858 10.7842ZM12.4164 9.90166L15.8194 12.9754C15.822 12.7608 15.8221 12.5145 15.8221 12.2271V7.51764L12.4164 9.90166Z" fill="#929394"/>
</g>
<defs>
<clipPath id="clip0_320_210153">
<rect width="18" height="18" fill="white" transform="translate(0.0721436 0.827148)"/>
</clipPath>
</defs>
</svg>
