<svg width="26" height="25" viewBox="0 0 26 25" fill="none" xmlns="http://www.w3.org/2000/svg">
<path d="M25.0329 12.6699C25.0329 5.89357 19.5407 0.401367 12.7654 0.401367C5.99012 0.401367 0.497925 5.89357 0.497925 12.6699C0.497925 18.7919 4.98411 23.8669 10.8484 24.7871V16.2155H7.73429V12.6688H10.8484V9.96671C10.8484 6.8914 12.6805 5.19324 15.4819 5.19324C16.8242 5.19324 18.228 5.43248 18.228 5.43248V8.45155H16.6821C15.1588 8.45155 14.6834 9.39725 14.6834 10.3675V12.6699H18.0858L17.5419 16.2165H14.6834V24.7881C20.5477 23.8679 25.0339 18.7929 25.0339 12.6699H25.0329Z" fill="white"/>
</svg>
