<svg width="25" height="25" viewBox="0 0 25 25" fill="none" xmlns="http://www.w3.org/2000/svg">
<path d="M2.55591 12.595C2.55591 8.01662 2.55591 5.72744 3.97822 4.30512C5.40054 2.88281 7.68971 2.88281 12.2681 2.88281C16.8464 2.88281 19.1356 2.88281 20.558 4.30512C21.9802 5.72744 21.9802 8.01662 21.9802 12.595C21.9802 17.1733 21.9802 19.4625 20.558 20.8849C19.1356 22.3071 16.8464 22.3071 12.2681 22.3071C7.68971 22.3071 5.40054 22.3071 3.97822 20.8849C2.55591 19.4625 2.55591 17.1733 2.55591 12.595Z" stroke="white" stroke-width="0.736079" stroke-linejoin="round"/>
<path d="M16.8685 12.5956C16.8685 15.1364 14.8088 17.1961 12.268 17.1961C9.72719 17.1961 7.66748 15.1364 7.66748 12.5956C7.66748 10.0548 9.72719 7.99512 12.268 7.99512C14.8088 7.99512 16.8685 10.0548 16.8685 12.5956Z" stroke="white" stroke-width="0.736079"/>
<path d="M17.899 6.97266H17.8896" stroke="white" stroke-width="0.981439" stroke-linecap="round" stroke-linejoin="round"/>
</svg>
