<svg width="21" height="24" viewBox="0 0 21 24" fill="none" xmlns="http://www.w3.org/2000/svg">
<path d="M10.5781 0.0602728C11.8394 0.0410156 13.0912 0.0506442 14.3429 0.0410156C14.4199 1.51419 14.9495 3.01625 16.0279 4.05613C17.1063 5.1249 18.6276 5.61596 20.1104 5.77965V9.65996C18.7239 9.61182 17.3277 9.32296 16.0664 8.72599C15.5176 8.47565 15.0072 8.1579 14.5066 7.83053C14.4969 10.6421 14.5162 13.4536 14.4873 16.2555C14.4103 17.6035 13.9674 18.9419 13.1874 20.0492C11.9261 21.8979 9.74041 23.1015 7.49695 23.14C6.12006 23.217 4.74318 22.8415 3.56849 22.1482C1.62352 21.0024 0.256261 18.9034 0.0540609 16.6503C0.0348037 16.1689 0.0251752 15.6875 0.0444323 15.2156C0.217747 13.3862 1.12283 11.6338 2.5286 10.4399C4.12695 9.05336 6.36078 8.38899 8.45018 8.78376C8.46943 10.2088 8.41166 11.6338 8.41166 13.0588C7.45843 12.7507 6.34152 12.8374 5.50383 13.4151C4.89723 13.8099 4.43506 14.4165 4.19435 15.1001C3.99215 15.5912 4.04992 16.1304 4.05955 16.6503C4.29063 18.2294 5.81195 19.5581 7.42955 19.4137C8.50795 19.4041 9.53821 18.7782 10.0967 17.8635C10.2796 17.5458 10.4818 17.2184 10.4914 16.8429C10.5877 15.1194 10.5492 13.4055 10.5588 11.682C10.5685 7.80165 10.5492 3.93096 10.5781 0.0602728Z" fill="white"/>
</svg>
