<svg width="25" height="18" viewBox="0 0 25 18" fill="none" xmlns="http://www.w3.org/2000/svg">
<path d="M24.1341 2.6693C23.9919 2.15975 23.7206 1.6955 23.3465 1.32142C22.9725 0.947339 22.5082 0.676087 21.9987 0.533878C20.0862 0.0214991 12.3893 0.0214989 12.3893 0.0214989C12.3893 0.0214989 4.71176 0.011272 2.77985 0.533878C2.2703 0.676087 1.80605 0.947339 1.43197 1.32142C1.05789 1.6955 0.786637 2.15975 0.644428 2.6693C0.281898 4.6273 0.103169 6.61489 0.110572 8.60615C0.104568 10.5899 0.283292 12.5699 0.644428 14.5205C0.786637 15.03 1.05789 15.4943 1.43197 15.8684C1.80605 16.2425 2.2703 16.5137 2.77985 16.6559C4.69028 17.1693 12.3893 17.1693 12.3893 17.1693C12.3893 17.1693 20.0657 17.1693 21.9987 16.6559C22.5082 16.5137 22.9725 16.2425 23.3465 15.8684C23.7206 15.4943 23.9919 15.03 24.1341 14.5205C24.4877 12.5692 24.6589 10.5892 24.6454 8.60615C24.6603 6.61559 24.4891 4.628 24.1341 2.6693ZM9.9327 12.2787V4.92234L16.339 8.60615L9.9327 12.2787Z" fill="white"/>
</svg>
